<svg width="48" height="50" viewBox="0 0 48 50" fill="none" xmlns="http://www.w3.org/2000/svg">
<path d="M47.3349 20.014C47.3349 11.9587 42.8222 9.68199 29.4244 2.92176C27.7827 2.0934 26.0006 1.19504 24.07 0.206674L23.6675 0L23.265 0.206674C21.336 1.19504 19.5556 2.09174 17.9138 2.9201C4.51437 9.68032 0 11.9571 0 20.014V20.894H3.68932V45.9632L3.94485 46.2199C4.09851 46.3749 7.77447 50 14.9844 50C17.822 50 20.7414 49.245 23.6675 47.7549C26.5935 49.245 29.5129 50 32.3505 50C39.5588 50 43.2364 46.3749 43.3901 46.2199L43.6439 45.9632V20.894H47.3332V20.014H47.3349ZM41.8803 45.2065C40.9867 45.9449 37.7734 48.2399 32.3521 48.2399C29.6716 48.2399 26.8891 47.4816 24.085 45.9849L23.6691 45.7632L23.2533 45.9849C20.4458 47.4799 17.665 48.2399 14.9861 48.2399C9.55984 48.2399 6.34651 45.9432 5.45632 45.2065V20.894H7.38032V44.0431L7.78115 44.3031C9.81704 45.6265 12.2538 46.3265 14.8274 46.3265C17.032 46.3265 19.3034 45.8115 21.2257 44.8748L22.3113 44.3465L21.4779 43.4748C20.9017 42.8714 20.3372 42.2997 19.7944 41.7497C16.9836 38.8996 14.764 36.6462 14.1778 33.4911C13.8204 31.5727 14.3598 29.676 15.6224 28.4176C17.5347 26.5076 20.1652 26.7092 23.133 28.9776L23.6691 29.3876L24.2052 28.9776C27.1731 26.7092 29.8019 26.5076 31.7142 28.4176C32.9768 29.676 33.5162 31.5727 33.1605 33.4911C32.5726 36.6479 30.353 38.8996 27.5438 41.7497C27.001 42.2997 26.4382 42.8714 25.8603 43.4748L24.9718 44.4048L26.161 44.8965C31.2515 47.0032 35.9847 46.8099 39.5822 44.2865L39.9563 44.0231V20.894H41.8803V45.2065ZM32.9618 27.1726C31.7676 25.9809 30.2929 25.3508 28.6979 25.3508C27.1013 25.3508 25.4127 25.9692 23.6675 27.1876C21.9222 25.9675 20.232 25.3508 18.6353 25.3508C17.0404 25.3508 15.5656 25.9809 14.3715 27.1726C12.698 28.841 11.9765 31.3244 12.4408 33.8128C13.1256 37.4979 15.6324 40.0413 18.5335 42.9864C18.7873 43.2448 19.0462 43.5065 19.3101 43.7765C17.8988 44.2898 16.3439 44.5665 14.8258 44.5665C12.7632 44.5665 10.8074 44.0531 9.14398 43.0764V19.134H5.48639C5.81206 15.0172 8.76152 13.5805 21.4512 7.40691L23.6675 6.32854L25.8804 7.40691C38.5717 13.5821 41.5229 15.0172 41.8469 19.1356H38.1893V43.0981C35.4319 44.8482 31.9179 45.0448 28.0632 43.7365C28.3121 43.4831 28.5576 43.2331 28.7998 42.9881C31.7008 40.043 34.2077 37.5013 34.8924 33.8161C35.3567 31.3227 34.6336 28.841 32.9618 27.1726ZM43.6439 19.134H43.6172C43.2815 13.9121 39.6774 12.1587 26.6537 5.82186L23.6658 4.36681L20.6762 5.82353C7.65589 12.1571 4.05174 13.9121 3.71605 19.134H3.68932H1.78704C2.12274 12.8604 6.25799 10.7754 18.7105 4.49348C20.2387 3.72179 21.8888 2.8901 23.6675 1.98173C25.4461 2.89176 27.0979 3.72346 28.6278 4.49515C41.0769 10.777 45.2122 12.8621 45.5479 19.1356H43.6439V19.134Z" fill="#C19444"/>
<path d="M23.6691 12.1875C20.1835 12.1875 17.3477 15.0176 17.3477 18.4977C17.3477 21.9762 20.1835 24.8063 23.6691 24.8063C27.1547 24.8063 29.9906 21.9762 29.9906 18.4977C29.9906 15.0176 27.1547 12.1875 23.6691 12.1875ZM23.6691 23.0445C21.1572 23.0445 19.1113 21.0045 19.1113 18.4977C19.1113 15.9893 21.1556 13.9492 23.6691 13.9492C26.1827 13.9492 28.2252 15.9893 28.2252 18.4977C28.2252 21.0045 26.181 23.0445 23.6691 23.0445Z" fill="#C19444"/>
<path d="M23.669 15.4375C21.9755 15.4375 20.5977 16.8125 20.5977 18.5026C20.5977 20.1927 21.9755 21.566 23.669 21.566C25.3625 21.566 26.7387 20.191 26.7387 18.5026C26.7387 16.8125 25.3609 15.4375 23.669 15.4375ZM23.669 19.8043C22.9492 19.8043 22.363 19.2193 22.363 18.5026C22.363 17.7842 22.9492 17.1992 23.669 17.1992C24.3889 17.1992 24.9734 17.7842 24.9734 18.5026C24.9734 19.2193 24.3889 19.8043 23.669 19.8043Z" fill="#C19444"/>
<path d="M29.5015 37.3092C31.8865 34.3925 32.2038 31.3224 30.2948 29.6706C29.7921 29.2356 29.1792 29.0156 28.4744 29.0156C26.6757 29.0156 24.6698 30.5157 23.6661 31.3774C22.6623 30.5157 20.6565 29.0156 18.8578 29.0156C18.153 29.0156 17.54 29.2356 17.0373 29.6706C15.1284 31.3224 15.4457 34.3908 17.8306 37.3092C19.2102 38.9976 20.4594 40.1977 22.5304 42.1861L23.6661 43.2778L24.8018 42.1861C26.8727 40.1977 28.122 38.9976 29.5015 37.3092ZM23.6661 40.8344C21.6285 38.8776 20.4912 37.7809 19.1968 36.1975C17.4615 34.0725 17.0574 31.9841 18.1914 31.004C18.3684 30.8507 18.5822 30.779 18.8578 30.779C20.1104 30.779 22.0911 32.2641 23.0465 33.1991L23.6661 33.8058L24.2857 33.1974C24.9254 32.5691 27.0665 30.7773 28.4744 30.7773C28.75 30.7773 28.9621 30.849 29.1391 31.0024C30.2748 31.9841 29.8706 34.0708 28.1337 36.1959C26.841 37.7793 25.702 38.8776 23.6661 40.8344Z" fill="#C19444"/>
</svg>
