<svg width="15" height="15" viewBox="0 0 15 15" fill="none" xmlns="http://www.w3.org/2000/svg">
<path d="M7.94117 3.08789H3.5294V5.73495H7.94117V3.08789ZM6.17646 4.8526H5.29411V3.97024H6.17646V4.8526Z" fill="#E29249"/>
<path d="M5.73528 0L4.08087 2.20588H7.3897L5.73528 0Z" fill="#E29249"/>
<path d="M14.0134 14.1172L12.8459 9.83633L11.4706 11.2117V11.9113H10.5882V10.8462L12.2659 9.1686L10.3693 8.22036L9.52073 9.70542H7.94118V8.82307H9.00868L9.69174 7.62772L8.93382 6.61719H2.64362L2.47818 7.94072H4.85294V8.82307H2.36788L2.25759 9.70542H5.95588L7.31062 11.5117L9.35121 11.9199L9.17821 12.7851L6.807 12.3109L5.51471 10.5878H4.64788L3.97059 11.6037V12.3525H3.08824V11.3365L3.58741 10.5878H1.27721L0.924265 14.1172H0V14.9995H15V14.1172H14.0134Z" fill="#E29249"/>
</svg>
