<svg width="15" height="15" viewBox="0 0 15 15" fill="none" xmlns="http://www.w3.org/2000/svg">
<g clip-path="url(#clip0_1_16090)">
<path d="M13.4466 11.4119H12.8567C12.7189 3.5678 9.88599 1.89729 7.49998 1.89729C5.11397 1.89729 2.2811 3.5678 2.14324 11.4119H1.55335C1.21935 11.4119 0.948608 11.6826 0.948608 12.0166C0.948608 12.3506 1.21935 12.6213 1.55335 12.6213H4.57823C4.85853 13.9774 6.06206 15 7.49998 15C8.9379 15 10.1414 13.9774 10.4217 12.6213H13.4466C13.7806 12.6213 14.0514 12.3506 14.0514 12.0166C14.0514 11.6826 13.7806 11.4119 13.4466 11.4119ZM7.49998 3.10677C10.9352 3.10677 11.5843 7.98059 11.6469 11.4119H3.35309C3.41562 7.98065 4.06469 3.10677 7.49998 3.10677ZM7.49998 13.7905C6.73414 13.7905 6.08017 13.3026 5.83235 12.6213H9.16765C8.91979 13.3026 8.26583 13.7905 7.49998 13.7905ZM9.32715 0.356984C9.46406 0.0523459 9.82192 -0.0836302 10.1266 0.0533135C11.8033 0.806942 13.0825 2.36113 13.9287 4.67272C14.0435 4.98637 13.8823 5.33367 13.5687 5.44848C13.2543 5.5635 12.9075 5.40152 12.7929 5.08848C12.0629 3.09441 10.9991 1.77147 9.63082 1.15648C9.32615 1.01957 9.1902 0.661653 9.32715 0.356984ZM1.07131 4.67275C1.91746 2.36116 3.19667 0.806942 4.87332 0.0533437C5.17796 -0.0835697 5.53593 0.0524064 5.67282 0.357015C5.80973 0.661653 5.67378 1.0196 5.36915 1.15651C4.00089 1.7715 2.937 3.09444 2.20707 5.08851C2.09226 5.40213 1.7449 5.56335 1.43131 5.44851C1.11769 5.3337 0.9565 4.9864 1.07131 4.67275Z" fill="#C19444"/>
</g>
<defs>
<clipPath id="clip0_1_16090">
<rect width="15" height="15" fill="white"/>
</clipPath>
</defs>
</svg>
