<svg width="45" height="45" viewBox="0 0 45 45" fill="none" xmlns="http://www.w3.org/2000/svg">
<path d="M37.6809 18.408C37.6809 13.396 33.8724 9.33301 29.1739 9.33301C27.3619 9.33584 25.603 9.94542 24.1779 11.0645C23.6982 11.4378 23.1077 11.6406 22.4999 11.6406C21.892 11.6406 21.3015 11.4378 20.8219 11.0645C19.3967 9.94542 17.6379 9.33584 15.8259 9.33301C11.1259 9.33301 7.31886 13.396 7.31886 18.408C7.30937 19.6899 7.56467 20.96 8.06876 22.1387C8.57284 23.3174 9.31487 24.3794 10.2484 25.258C10.9059 25.8411 11.4311 26.558 11.7888 27.3607C12.1465 28.1633 12.3284 29.0332 12.3224 29.912C12.3197 30.025 12.3184 30.1385 12.3184 30.2525C12.2929 31.9942 12.6478 33.7204 13.3583 35.3108C14.0687 36.9011 15.1177 38.3173 16.4319 39.4605C16.6098 39.6072 16.826 39.6999 17.055 39.7276C17.2839 39.7554 17.516 39.7171 17.7239 39.6172C17.9318 39.5173 18.1067 39.36 18.2281 39.1639C18.3495 38.9678 18.4122 38.7411 18.4089 38.5105C18.4065 38.3518 18.4054 38.1928 18.4054 38.0335C18.4054 31.827 20.2384 26.796 22.4999 26.796C24.7614 26.796 26.5944 31.827 26.5944 38.0335C26.5944 38.1932 26.5932 38.3522 26.5909 38.5105C26.5875 38.7411 26.6503 38.9678 26.7716 39.1639C26.893 39.36 27.0679 39.5173 27.2758 39.6172C27.4837 39.7171 27.7158 39.7554 27.9447 39.7276C28.1737 39.6999 28.3899 39.6072 28.5679 39.4605C29.8821 38.3173 30.931 36.9011 31.6414 35.3108C32.3519 33.7204 32.7068 31.9942 32.6814 30.2525C32.6814 30.1385 32.68 30.025 32.6774 29.912C32.6712 29.0334 32.8529 28.1637 33.2104 27.3611C33.5678 26.5585 34.0927 25.8416 34.7499 25.2585C35.6837 24.3799 36.426 23.318 36.9304 22.1392C37.4347 20.9604 37.6902 19.6901 37.6809 18.408Z" fill="#37D4E9"/>
<path d="M11.8269 17.7273C11.8282 16.6365 12.2622 15.5908 13.0335 14.8195C13.8049 14.0483 14.8506 13.6145 15.9414 13.6133C16.1735 13.6133 16.396 13.5211 16.5601 13.357C16.7242 13.1929 16.8164 12.9703 16.8164 12.7383C16.8164 12.5062 16.7242 12.2837 16.5601 12.1196C16.396 11.9555 16.1735 11.8633 15.9414 11.8633C14.3867 11.865 12.8961 12.4833 11.7967 13.5827C10.6972 14.682 10.0788 16.1725 10.0769 17.7273C10.0769 17.9593 10.1691 18.1819 10.3332 18.346C10.4973 18.5101 10.7198 18.6023 10.9519 18.6023C11.184 18.6023 11.4065 18.5101 11.5706 18.346C11.7347 18.1819 11.8269 17.9593 11.8269 17.7273Z" fill="#FFFFF8"/>
<path d="M4.3 7.8605L4.667 9.3335L5.0345 7.8605C5.20475 7.1772 5.55776 6.55313 6.0557 6.0552C6.55363 5.55726 7.1777 5.20425 7.861 5.034L9.334 4.6665L7.8605 4.3C7.1772 4.12975 6.55313 3.77674 6.0552 3.2788C5.55726 2.78087 5.20425 2.1568 5.034 1.4735L4.6665 0L4.3 1.473C4.12979 2.15645 3.77674 2.78067 3.2787 3.2787C2.78067 3.77674 2.15645 4.12979 1.473 4.3L0 4.6665L1.473 5.034C2.15639 5.20417 2.78057 5.55715 3.27859 6.05509C3.77662 6.55303 4.12971 7.17714 4.3 7.8605Z" fill="#FFC26F"/>
<path d="M39.966 43.5265L40.3335 45L40.7005 43.527C40.8707 42.8437 41.2238 42.2196 41.7217 41.7217C42.2196 41.2238 42.8437 40.8708 43.527 40.7005L45 40.333L43.527 39.9655C42.8437 39.7953 42.2196 39.4423 41.7217 38.9443C41.2238 38.4464 40.8707 37.8223 40.7005 37.139L40.3335 35.666L39.966 37.139C39.7958 37.8223 39.4427 38.4464 38.9448 38.9443C38.4469 39.4423 37.8228 39.7953 37.1395 39.9655L35.6665 40.333L37.1395 40.7C37.8228 40.8703 38.4469 41.2233 38.9448 41.7212C39.4427 42.2191 39.7958 42.8432 39.966 43.5265Z" fill="#FFC26F"/>
<path d="M45.0001 28.4998C45.0001 28.2376 44.9224 27.9812 44.7767 27.7631C44.631 27.5451 44.4239 27.3751 44.1816 27.2748C43.9393 27.1744 43.6727 27.1481 43.4155 27.1993C43.1582 27.2505 42.922 27.3768 42.7365 27.5622C42.5511 27.7477 42.4248 27.9839 42.3736 28.2411C42.3225 28.4984 42.3487 28.765 42.4491 29.0073C42.5494 29.2496 42.7194 29.4567 42.9375 29.6024C43.1555 29.7481 43.4119 29.8258 43.6741 29.8258C44.0258 29.8258 44.3631 29.6861 44.6118 29.4375C44.8604 29.1888 45.0001 28.8515 45.0001 28.4998Z" fill="#FFC26F"/>
<path d="M21.1249 3.34065C21.1249 3.07835 21.0471 2.82194 20.9014 2.60386C20.7556 2.38578 20.5485 2.21582 20.3061 2.11549C20.0638 2.01516 19.7971 1.98896 19.5398 2.0402C19.2826 2.09145 19.0463 2.21783 18.8609 2.40338C18.6755 2.58892 18.5493 2.82529 18.4983 3.08257C18.4472 3.33986 18.4736 3.6065 18.5741 3.84878C18.6746 4.09106 18.8448 4.29808 19.0629 4.44366C19.2811 4.58925 19.5376 4.66685 19.7999 4.66665C20.1514 4.66638 20.4884 4.52656 20.7369 4.27792C20.9853 4.02927 21.1249 3.69215 21.1249 3.34065Z" fill="#FFC26F"/>
<path d="M7.31902 31.95C7.31912 31.6877 7.2414 31.4312 7.0957 31.2129C6.95001 30.9947 6.74287 30.8246 6.50049 30.7242C6.25812 30.6237 5.99138 30.5973 5.73404 30.6485C5.47669 30.6996 5.24028 30.8259 5.05472 31.0114C4.86915 31.1969 4.74277 31.4332 4.69154 31.6906C4.64032 31.9479 4.66656 32.2146 4.76694 32.4571C4.86733 32.6995 5.03735 32.9067 5.2555 33.0525C5.47365 33.1982 5.73014 33.276 5.99252 33.276C6.16669 33.2761 6.33917 33.2419 6.50011 33.1753C6.66104 33.1086 6.80728 33.011 6.93046 32.8879C7.05365 32.7647 7.15136 32.6185 7.21803 32.4576C7.2847 32.2967 7.31902 32.1242 7.31902 31.95Z" fill="#FFC26F"/>
</svg>
