<svg width="25" height="25" viewBox="0 0 25 25" fill="none" xmlns="http://www.w3.org/2000/svg">
<path d="M5.46875 21.0938C5.46875 22.3859 6.52031 23.4375 7.8125 23.4375C9.10469 23.4375 10.1562 22.3859 10.1562 21.0938C10.1562 19.8016 9.10469 18.75 7.8125 18.75C6.52031 18.75 5.46875 19.8016 5.46875 21.0938ZM8.59375 21.0938C8.59375 21.5242 8.24297 21.875 7.8125 21.875C7.38203 21.875 7.03125 21.5242 7.03125 21.0938C7.03125 20.6633 7.38203 20.3125 7.8125 20.3125C8.24297 20.3125 8.59375 20.6633 8.59375 21.0938Z" fill="#C19444"/>
<path d="M19.5312 21.0938C19.5312 19.8016 18.4797 18.75 17.1875 18.75C15.8953 18.75 14.8438 19.8016 14.8438 21.0938C14.8438 22.3859 15.8953 23.4375 17.1875 23.4375C18.4797 23.4375 19.5312 22.3859 19.5312 21.0938ZM16.4062 21.0938C16.4062 20.6633 16.757 20.3125 17.1875 20.3125C17.618 20.3125 17.9688 20.6633 17.9688 21.0938C17.9688 21.5242 17.618 21.875 17.1875 21.875C16.757 21.875 16.4062 21.5242 16.4062 21.0938Z" fill="#C19444"/>
<path d="M3.20312 2.34375C3.3 3.26641 4.37812 13.507 4.54453 15.0891C4.67031 16.2852 5.67266 17.1875 6.87578 17.1875H19.05C20.1477 17.1875 21.1117 16.4078 21.3422 15.3344L23.2188 6.57734C23.318 6.11328 23.2039 5.63594 22.9055 5.26797C22.607 4.89922 22.1641 4.6875 21.6898 4.6875H5.02109L4.68359 1.48125C4.64141 1.08281 4.30625 0.78125 3.90625 0.78125H1.5625C1.13125 0.78125 0.78125 1.13125 0.78125 1.5625C0.78125 1.99375 1.13125 2.34375 1.5625 2.34375H3.20312ZM21.6898 6.25L19.8141 15.007C19.7367 15.3648 19.4156 15.625 19.0492 15.625H6.87578C6.47422 15.625 6.14062 15.3242 6.09844 14.9258L5.18516 6.25H21.6898Z" fill="#C19444"/>
</svg>
