<svg width="18" height="20" viewBox="0 0 18 20" fill="none" xmlns="http://www.w3.org/2000/svg">
<path d="M2.052 19.7407C1.999 19.7407 1.788 19.7837 1.756 19.7947C1.735 19.8037 1.655 19.8897 1.589 19.9587H17.664C17.636 19.8837 17.614 19.8017 17.601 19.7407C17.58 19.6387 17.506 19.5077 17.402 19.5077C17.296 19.5077 17.318 19.4637 17.199 19.3647C17.083 19.2657 16.84 18.9237 16.722 18.7817C16.607 18.6367 16.533 18.6917 16.406 18.6367C16.279 18.5827 16.205 18.6677 16.161 18.6917C16.117 18.7157 15.941 18.8807 15.886 18.8927C15.833 18.9027 15.717 18.9927 15.698 19.0357C15.677 19.0807 15.518 19.1577 15.444 19.1467C15.37 19.1337 15.084 19.2097 15.084 19.2097C15.084 19.2097 14.762 19.2407 14.53 19.2617C14.577 19.1997 14.729 18.9917 14.741 18.8867C14.757 18.7577 14.799 18.5747 14.799 18.5747C14.799 18.5747 14.954 17.9827 14.982 17.8427C15.01 17.7007 15.081 17.4347 15.081 17.4347C15.081 17.4347 15.18 17.3917 15.209 17.2357C15.236 17.0817 15.166 16.8817 15.166 16.8817C15.166 16.8817 15.334 16.4027 15.42 16.2887C15.506 16.1757 15.66 16.0097 15.716 15.8257C15.772 15.6387 15.829 15.4847 15.744 15.3577C15.66 15.2307 15.631 15.1057 15.631 15.1057C15.631 15.1057 15.76 15.1727 15.817 15.1447C15.874 15.1177 16.114 14.9197 16.114 14.9197L16.409 15.0757L16.452 14.9347C16.452 14.9347 16.918 14.6087 16.594 14.1157C16.267 13.6217 15.889 13.7897 15.734 13.9017C15.578 14.0167 15.38 14.0447 15.396 14.0867C15.408 14.1317 15.437 14.1857 15.437 14.1857C15.437 14.1857 15.353 14.2427 15.293 14.1717C15.239 14.1017 15.096 14.0447 15.041 13.8457C14.985 13.6507 14.873 13.3537 14.702 13.1997C14.534 13.0427 14.082 12.7477 13.856 12.5907C13.629 12.4357 13.544 12.3817 13.389 12.3517C13.233 12.3257 13.108 12.2527 13.008 12.1987C12.908 12.1387 12.754 12.0427 12.754 12.0427L12.768 11.7887C12.768 11.7887 13.049 11.6897 13.065 11.6337C13.08 11.5777 12.924 11.5487 12.924 11.5487C12.924 11.5487 12.824 11.1527 12.444 11.0697C12.063 10.9837 11.795 11.1537 11.795 11.1537C11.795 11.1537 11.823 10.7157 11.639 10.3927C11.454 10.0657 11.301 9.74274 11.301 9.74274C11.301 9.74274 11.414 9.71574 11.4 9.64474C11.386 9.57174 11.287 9.47474 11.216 9.39174C11.146 9.30674 11.2 9.24974 11.09 9.23174C10.978 9.22174 10.922 9.19374 10.922 9.19374L10.831 9.04974L6.929 0.291741C6.929 0.291741 7.014 0.0687407 6.83 0.0127407C6.647 -0.0452593 6.633 0.108741 6.661 0.193741C6.672 0.231741 6.707 0.260741 6.744 0.282741C6.737 0.398741 6.73 0.632741 6.764 0.977741C6.467 1.26174 5.277 2.39274 4.883 2.66174C4.431 2.97274 3.725 3.28574 3.471 3.65174C3.216 4.01774 3.019 4.38674 2.539 4.49874C2.06 4.61274 1.751 4.61274 1.158 4.86474C0.563002 5.12274 0.311002 5.51374 0.311002 5.51374C0.311002 5.51374 0.226002 6.22174 0.451002 6.55874C0.679002 6.89674 0.762002 7.57374 0.762002 7.57374C0.762002 7.57374 1.608 6.62874 2.428 6.61574C4.603 6.57774 4.286 5.94174 5.614 5.34674C6.796 4.81874 7.882 5.04274 8.065 5.01174C9.02 7.00374 9.741 7.88374 10.253 8.74474C10.142 8.80774 10.03 8.88774 9.983 8.97574C9.95 8.97574 9.938 9.02474 9.928 9.08174C9.823 9.29174 9.705 9.55274 9.648 9.72474C9.622 9.80374 9.48 10.0467 9.304 10.3237C9.157 10.4887 9.001 10.6677 8.953 10.7407C8.897 10.8237 8.836 10.9637 8.776 11.0737C8.675 11.2007 8.581 11.3027 8.515 11.3477L8.416 11.1197C8.416 11.1197 8.531 10.8677 8.489 10.7537C8.446 10.6407 8.317 10.7107 8.317 10.7107C8.317 10.7107 7.994 10.4157 7.64 10.5857C7.289 10.7537 7.217 11.0497 7.317 11.3317C7.416 11.6137 7.612 11.7277 7.612 11.7277C7.612 11.7277 7.626 11.9507 7.502 11.9637L7.499 11.9647C7.42 11.9757 7.364 11.9837 7.312 11.9987C7.203 11.9937 7.109 11.9737 7.024 11.9587C6.933 11.9897 6.834 12.0257 6.727 12.0627C6.662 12.1897 6.616 12.5417 6.572 12.9037C6.505 13.2157 6.439 13.5137 6.439 13.5137C6.439 13.5137 6.214 13.7267 6.115 13.7427C6.015 13.7567 5.847 13.8677 5.734 14.0107C5.621 14.1497 5.24 14.4347 5.228 14.5467C5.212 14.6597 5.311 14.7427 5.254 14.7997C5.198 14.8567 5.154 14.9127 5.17 14.9997C5.184 15.0807 5.367 15.1667 5.254 15.2687C5.141 15.3667 4.845 15.8727 4.774 16.0427C4.704 16.2107 4.393 16.6377 4.237 16.6917C4.084 16.7477 3.731 16.9747 3.63 17.0727C3.532 17.1737 3.109 17.6917 2.912 17.8047C2.715 17.9157 2.417 18.2697 2.417 18.2697C2.417 18.2697 2.05 18.4687 2.008 18.5387C1.965 18.6097 1.965 18.6097 1.979 18.6967C1.993 18.7807 2.29 19.0897 2.347 19.2477C2.378 19.3337 2.409 19.4267 2.458 19.4987C2.398 19.5147 2.35 19.5317 2.335 19.5387C2.295 19.5627 2.105 19.7407 2.052 19.7407ZM14.441 18.3897C14.441 18.3897 14.322 18.4217 14.322 18.4537C14.322 18.4867 14.226 18.4357 14.226 18.4357L14.06 17.9057C14.06 17.9057 14.418 17.7107 14.453 17.8417L14.441 18.3897ZM14.441 15.9577C14.562 15.9457 14.671 15.9787 14.671 15.9787L14.637 16.4167C14.637 16.4167 14.376 16.2087 14.265 16.1227C14.158 16.0327 13.982 15.9137 13.982 15.9137C13.982 15.9137 14.321 15.9677 14.441 15.9577ZM13.539 18.1077C13.739 18.0357 13.828 17.9847 13.828 17.9847L14.287 19.2697C14.167 19.2397 13.765 19.0257 13.696 18.9337C13.621 18.8347 13.507 18.8237 13.421 18.7817C13.375 18.7567 13.262 18.7457 13.17 18.7427C13.159 18.6877 13.131 18.6297 13.077 18.5877C12.934 18.4757 12.864 18.3187 12.948 18.2907C13.032 18.2647 13.342 18.1807 13.539 18.1077ZM12.298 16.9667C12.298 16.9667 12.383 16.8377 12.398 16.7397C12.411 16.6407 12.383 16.5527 12.383 16.5527C12.383 16.5527 12.976 16.7817 13.2 16.8517C13.428 16.9197 13.345 17.0157 13.345 17.0157C13.345 17.0157 13.019 17.4157 12.863 17.4727C12.709 17.5307 12.497 17.6287 12.497 17.6287C12.497 17.6287 12.326 17.6567 12.215 17.7117C12.104 17.7697 11.959 17.8677 11.959 17.8677C11.959 17.8677 12.055 18.0307 12.164 18.2097C12.15 18.2137 12.137 18.2157 12.129 18.2167C12.033 18.2507 11.99 18.3947 11.99 18.3947C11.99 18.3947 11.675 18.5137 11.633 18.5477C11.591 18.5827 11.432 18.6817 11.421 18.7267C11.411 18.7697 11.113 18.8357 11.113 18.8357C11.113 18.8357 10.799 18.8407 10.594 18.8537C10.666 18.7157 10.769 18.5477 10.902 18.4187C11.183 18.1357 12.298 16.9667 12.298 16.9667ZM7.852 3.80774C6.968 1.75674 7.032 1.08474 7.032 1.08474L10.386 8.67374C10.382 8.67474 10.379 8.67874 10.375 8.67974C8.191 5.30874 8.374 5.01674 7.852 3.80774ZM9.776 16.2957C9.776 16.2957 10.864 16.8527 10.875 16.9177C10.887 16.9827 10.539 17.2777 10.45 17.2877C10.364 17.2997 10.192 17.6337 10.094 17.6897C9.996 17.7457 9.711 17.3307 9.711 17.3307C9.711 17.3307 9.799 17.2237 9.744 17.0707C9.69 16.9167 9.669 16.4177 9.669 16.4177C9.669 16.4177 9.614 16.1097 9.776 16.2957ZM2.843 18.6297L3.237 18.8137C3.237 18.8137 4.31 17.6297 4.706 17.3607C5.101 17.0927 6.286 16.0077 6.286 16.0077L6.583 16.0637C6.583 16.0637 6.145 17.0207 5.975 17.1787C5.808 17.3297 5.469 17.5147 5.285 17.6847C5.102 17.8547 4.805 18.2767 4.693 18.4187C4.58 18.5597 4.368 18.6847 4.368 18.6847L4.24 18.8007L3.748 19.0657C3.748 19.0657 3.871 19.2537 3.995 19.4257C3.75 19.4447 3.505 19.5027 3.324 19.5527C3.219 19.5247 3.069 19.4907 2.956 19.4697C2.899 19.4487 2.779 19.3757 2.747 19.1537C2.701 18.8557 2.843 18.6297 2.843 18.6297Z" fill="#E29249"/>
</svg>
