<svg width="102" height="340" viewBox="0 0 102 340" fill="none" xmlns="http://www.w3.org/2000/svg">
<g clip-path="url(#clip0_1_9366)">
<path d="M99.8768 129.239C99.0948 126.466 99.0474 122.236 99.4266 119.38C100.647 110.174 98.2298 94.6156 97.5426 90.5039C97.4478 89.9352 97.4478 89.0109 97.5426 88.4422C100.979 66.8293 84.864 61.592 80.5746 60.5966C80.0176 60.4663 79.1408 60.1582 78.6431 59.8738L64.59 51.8164C64.0924 51.532 63.6302 50.8329 63.5592 50.2642L62.6823 43.285C62.6112 42.7162 62.8245 41.8631 63.1326 41.3773C65.1114 38.2728 66.5451 36.4954 67.2679 32.1942C68.2277 31.187 69.1046 28.8053 69.46 25.9497C69.9577 22.0513 69.306 18.7572 68.0144 18.6032C67.813 18.5795 67.6234 18.6387 67.422 18.7454C66.4622 10.7472 65.0521 0 50.9398 0C35.5359 0 35.4292 10.9486 34.4694 18.7454C34.268 18.6269 34.0666 18.5676 33.8651 18.5913C32.5736 18.7572 31.9219 22.0513 32.4077 25.9378C32.775 28.7935 33.6519 31.187 34.5998 32.1823C35.3107 36.4836 36.7563 38.261 38.7351 41.3654C39.0432 41.8512 39.2565 42.6925 39.1854 43.2732L38.3086 50.2523C38.2375 50.8211 37.7754 51.5202 37.2777 51.8046L23.2246 59.862C22.7269 60.1464 21.8619 60.4544 21.2932 60.5848C17.0156 61.5801 0.900755 66.8174 4.32516 88.4303C4.41996 88.9991 4.41996 89.9233 4.32516 90.4921C3.63791 94.6156 1.22068 110.162 2.44115 119.368C2.82032 122.224 2.46484 126.277 1.52876 129.014C-0.0116309 133.54 -1.2084 141.503 2.09752 153.447L3.74456 171.256C3.74456 171.256 3.57867 172.346 3.74456 174.135H3.7564C3.79195 177.121 3.89859 186.387 3.74456 187.892C3.56682 189.681 6.96753 192.727 6.96753 194.516C6.96753 194.516 15.025 201.365 16.826 201.969C16.826 201.969 18.2598 199.884 16.826 198.639C16.826 198.639 17.3592 197.206 16.4706 196.495C16.4706 196.495 12.7973 193.805 10.6052 190.049C10.6052 190.049 11.1858 186.293 10.6052 184.669L11.6479 183.472L13.2476 189.681C13.2476 189.681 15.1079 192.904 16.435 189.504C16.435 189.504 16.2928 184.492 15.2145 182.157C15.2145 182.157 16.1151 174.728 12.5603 171.955C12.5366 171.825 12.5129 171.694 12.5011 171.564L12.4537 170.983C12.4418 170.735 12.43 170.498 12.4655 170.284C13.0935 165.462 14.7169 153.34 16.1506 146.183C16.1506 146.183 18.0347 140.247 16.9327 132.545C16.5298 129.689 16.518 125.234 17.3356 122.473C18.6627 118.018 20.44 111.595 20.8785 107.638C20.8785 107.638 27.0519 134.168 22.6914 141.799C20.9614 144.82 19.4566 157.404 19.0892 174.135C18.5679 198.011 20.3571 230.324 27.1467 255.409C27.8932 258.193 28.0472 262.696 28.0235 265.587C28.0235 266.18 28.0472 266.974 28.1064 267.898C28.4856 273.953 30.1445 286.465 32.5025 298.943C33.1779 302.485 33.6045 306.206 34.5524 309.69C35.2633 312.32 35.4174 314.512 35.1685 317.344C35.0738 318.423 34.8131 319.477 34.4813 320.508C34.0073 322.013 33.64 323.245 32.7276 324.549C31.6375 326.101 31.128 328.092 29.8127 329.49C28.2723 331.125 25.7011 331.611 23.8407 332.819C23.3312 333.151 21.8382 334.028 21.7197 334.727V336.848C21.7197 337.5 22.1108 338.104 22.5966 338.187C23.0824 338.27 23.3786 337.808 23.4023 337.156C23.426 336.042 23.746 334.691 24.8124 333.649C24.9901 333.483 25.2626 333.483 25.4404 333.661C25.6063 333.838 25.6063 334.123 25.4285 334.289C24.5043 335.189 24.2792 336.374 24.291 337.322C24.291 337.974 24.7768 338.554 25.2389 338.637C25.7011 338.708 25.9736 338.246 25.9854 337.595C25.9973 336.457 26.3054 335.083 27.3955 334.016C27.5732 333.838 27.8576 333.85 28.0235 334.028C28.1894 334.206 28.1894 334.478 28.0117 334.656C27.0637 335.58 26.8504 336.789 26.8741 337.749C26.886 338.4 27.3836 338.981 27.8339 339.052C28.296 339.111 28.5686 338.649 28.5686 337.997C28.5804 336.86 28.8766 335.462 29.9786 334.383C30.1563 334.206 30.4289 334.218 30.6066 334.395C30.7725 334.573 30.7725 334.857 30.5948 335.023C29.635 335.948 29.4336 337.168 29.4572 338.128C29.4691 338.779 30.1208 339.372 30.7725 339.455C31.4242 339.538 31.9456 339.064 32.0522 338.412C32.2774 337.073 32.9291 335.355 34.7301 334.312C34.9434 334.182 35.2159 334.265 35.3344 334.478C35.4529 334.691 35.3818 334.964 35.1685 335.083C33.6992 335.924 33.1423 337.358 32.9409 338.507C32.8224 339.147 33.3556 339.739 34.0073 339.787C34.6472 339.834 35.2278 339.87 35.7373 339.87C35.7373 339.87 38.9247 341.339 42.8942 335.237C42.8942 335.237 49.4468 334.964 45.3233 326.918C45.0626 326.409 44.9797 325.212 44.8849 324.632C44.6716 323.269 45.4773 322.724 46.0342 321.669C46.6267 320.532 45.892 319.453 45.5366 318.363C45.3114 317.676 45.5247 316.906 45.5484 316.195C45.5484 316.159 46.6859 286.323 46.6859 286.323C46.6859 286.323 47.0888 276.583 46.4134 267.933C46.2712 266.026 46.0698 264.177 45.7973 262.495C45.347 259.651 44.8612 255.124 45.2285 252.269C46.9703 238.547 51.3545 201.14 49.6719 184.693H52.1603C50.4777 201.14 55.0633 238.559 56.8881 252.281C57.2672 255.136 56.7933 259.663 56.3312 262.506C56.0468 264.189 55.7861 266.037 55.6202 267.945C54.9567 276.595 55.3003 286.335 55.3003 286.335C55.3003 286.335 56.4378 316.171 56.4378 316.207C56.4615 316.918 56.6748 317.688 56.4496 318.375C56.106 319.465 55.3595 320.544 55.952 321.681C56.5089 322.736 57.3028 323.281 57.1014 324.643C57.0066 325.224 56.9236 326.421 56.6629 326.93C52.5394 334.976 59.092 335.248 59.092 335.248C63.0615 341.351 66.2489 339.881 66.2489 339.881C66.7584 339.87 67.3509 339.846 67.9789 339.798C68.6306 339.751 69.1638 339.159 69.0453 338.519C68.8439 337.381 68.287 335.948 66.8177 335.094C66.6044 334.976 66.5333 334.703 66.6518 334.49C66.7703 334.277 67.0428 334.194 67.2561 334.324C69.069 335.367 69.7207 337.085 69.934 338.424C70.0406 339.064 70.562 339.538 71.2137 339.467C71.8654 339.384 72.5171 338.791 72.529 338.14C72.5527 337.18 72.3394 335.959 71.3914 335.035C71.2137 334.857 71.2137 334.585 71.3796 334.407C71.5455 334.229 71.8299 334.229 72.0076 334.395C73.1096 335.462 73.4177 336.86 73.4177 338.009C73.4177 338.661 73.702 339.135 74.1523 339.064C74.6026 338.993 75.1002 338.424 75.1121 337.76C75.1239 336.801 74.9225 335.592 73.9746 334.668C73.7968 334.502 73.7968 334.218 73.9627 334.04C74.1286 333.862 74.413 333.862 74.5907 334.028C75.6809 335.094 75.9889 336.469 76.0008 337.606C76.0126 338.258 76.2851 338.732 76.7473 338.649C77.2094 338.578 77.6952 337.997 77.6952 337.334C77.7071 336.386 77.4819 335.201 76.5577 334.301C76.38 334.135 76.3799 333.85 76.5458 333.672C76.7117 333.495 76.9961 333.495 77.1738 333.661C78.2403 334.703 78.5602 336.042 78.5839 337.168C78.5957 337.82 78.9038 338.282 79.3778 338.199C79.8636 338.116 80.2546 337.512 80.2546 336.86V334.739C80.1361 334.052 78.6431 333.163 78.1336 332.831C76.2733 331.634 73.702 331.137 72.1617 329.502C70.8464 328.103 70.3369 326.113 69.2467 324.56C68.3344 323.257 67.967 322.025 67.4931 320.52C67.1731 319.489 66.9125 318.434 66.8058 317.356C66.5451 314.524 66.6992 312.32 67.422 309.702C68.3699 306.218 68.7965 302.497 69.4719 298.954C71.8299 286.465 73.311 273.953 73.6902 267.91C73.702 266.985 73.702 266.203 73.6902 265.599C73.6072 262.72 73.6546 258.205 74.4248 255.432C81.4277 229.933 83.2762 197.846 82.7666 174.159C82.4112 157.416 80.8708 144.868 79.129 141.823C74.7685 134.192 80.9419 107.662 80.9419 107.662C81.3803 111.619 83.1577 118.041 84.4848 122.497C85.3142 125.258 85.1839 129.677 84.7455 132.521C83.5961 139.962 85.6697 146.195 85.6697 146.195C87.1034 153.352 88.7268 165.474 89.3548 170.296C89.4259 170.841 89.3548 171.505 89.2244 172.157C85.9185 175.06 86.7717 182.169 86.7717 182.169C85.6934 184.503 85.5512 189.516 85.5512 189.516C86.8902 192.916 88.7386 189.693 88.7386 189.693L90.3383 183.484L91.381 184.681C90.8004 186.293 91.381 190.061 91.381 190.061C89.1889 193.817 85.5157 196.507 85.5157 196.507C84.6151 197.217 85.1602 198.651 85.1602 198.651C83.7264 199.907 85.1602 201.981 85.1602 201.981C86.9494 201.377 95.0187 194.528 95.0187 194.528C95.0187 192.739 98.4194 189.693 98.2417 187.904C98.0876 186.399 98.1943 177.133 98.2298 174.147H98.2417C98.4076 172.358 98.2417 171.268 98.2417 171.268L99.711 153.459C102.436 142.415 101.24 134.097 99.8768 129.239Z" fill="#F9CD90"/>
</g>
<defs>
<clipPath id="clip0_1_9366">
<rect width="101.358" height="340" fill="white"/>
</clipPath>
</defs>
</svg>
