<svg width="14" height="14" viewBox="0 0 14 14" fill="none" xmlns="http://www.w3.org/2000/svg">
<path d="M9.80642 2.69987L11.3017 4.19443M10.768 1.38322L6.72482 5.42636C6.51592 5.63497 6.37344 5.90076 6.31536 6.19023L5.94189 8.05966L7.81132 7.68549C8.10077 7.6276 8.36622 7.4857 8.57519 7.27673L12.6183 3.23359C12.7398 3.11209 12.8362 2.96786 12.902 2.80911C12.9677 2.65037 13.0015 2.48023 13.0015 2.30841C13.0015 2.13659 12.9677 1.96644 12.902 1.8077C12.8362 1.64896 12.7398 1.50472 12.6183 1.38322C12.4968 1.26173 12.3526 1.16535 12.1938 1.0996C12.0351 1.03384 11.865 1 11.6931 1C11.5213 1 11.3512 1.03384 11.1924 1.0996C11.0337 1.16535 10.8895 1.26173 10.768 1.38322V1.38322Z" stroke="#C19444" stroke-linecap="round" stroke-linejoin="round"/>
<path d="M11.5897 9.46945V11.5874C11.5897 11.9619 11.4409 12.321 11.1761 12.5858C10.9113 12.8506 10.5522 12.9993 10.1777 12.9993H2.41196C2.03748 12.9993 1.67835 12.8506 1.41355 12.5858C1.14876 12.321 1 11.9619 1 11.5874V3.82162C1 3.44715 1.14876 3.08801 1.41355 2.82322C1.67835 2.55843 2.03748 2.40967 2.41196 2.40967H4.52989" stroke="#C19444" stroke-linecap="round" stroke-linejoin="round"/>
</svg>
