<svg width="14" height="13" viewBox="0 0 14 13" fill="none" xmlns="http://www.w3.org/2000/svg">
<path d="M6.99943 3.66731C6.93473 3.60427 6.88901 3.52433 6.8675 3.43659C6.84599 3.34885 6.84954 3.25683 6.87775 3.17101C6.90595 3.08519 6.95769 3.00901 7.02706 2.95114C7.09643 2.89327 7.18066 2.85604 7.27014 2.84368L8.35299 2.68667L8.83282 1.70466C8.87717 1.6293 8.94042 1.56682 9.01633 1.52341C9.09224 1.48 9.17817 1.45717 9.26562 1.45717C9.35306 1.45717 9.43899 1.48 9.5149 1.52341C9.59081 1.56682 9.65407 1.6293 9.69842 1.70466L10.1864 2.68667L11.2692 2.84368C11.3584 2.85656 11.4422 2.89417 11.5112 2.95225C11.5801 3.01034 11.6314 3.08656 11.6592 3.1723C11.687 3.25803 11.6903 3.34984 11.6686 3.43733C11.6469 3.52482 11.6012 3.60449 11.5365 3.66731L10.7522 4.43139L10.9376 5.51017C10.9527 5.59901 10.9427 5.69031 10.9087 5.77376C10.8747 5.8572 10.818 5.92948 10.7451 5.98242C10.6722 6.03535 10.5859 6.06684 10.496 6.07333C10.4061 6.07981 10.3162 6.06103 10.2365 6.01911L9.26731 5.5095L8.29884 6.01911C8.21912 6.06112 8.12922 6.07996 8.03933 6.07351C7.94945 6.06705 7.86317 6.03556 7.79026 5.98258C7.71735 5.92961 7.66074 5.85729 7.62683 5.77379C7.59292 5.6903 7.58306 5.59898 7.59838 5.51017L7.78314 4.43139L6.99943 3.66731ZM12.8434 6.33719C12.7364 6.3077 12.6226 6.31596 12.521 6.36058C12.4194 6.4052 12.3364 6.48346 12.2857 6.58218C11.9717 7.19606 11.5242 7.73182 10.9761 8.15011C10.4279 8.5684 9.79304 8.85861 9.11805 8.99941C8.44306 9.14021 7.7451 9.12804 7.07543 8.96379C6.40576 8.79954 5.78138 8.48738 5.24814 8.05023C4.71491 7.61308 4.28636 7.06204 3.99396 6.43759C3.70157 5.81313 3.55275 5.13112 3.55844 4.44162C3.56414 3.75212 3.72419 3.07265 4.02686 2.45311C4.32952 1.83357 4.76712 1.28969 5.3075 0.861402C5.3948 0.792535 5.45564 0.695628 5.47973 0.587071C5.50382 0.478514 5.48968 0.364968 5.43969 0.265638C5.38971 0.166307 5.30695 0.0872878 5.20542 0.0419433C5.10389 -0.00340124 4.98981 -0.0122879 4.88248 0.0167863C3.71084 0.333439 2.64907 0.966749 1.81372 1.84721C0.978362 2.72767 0.401711 3.82124 0.147054 5.00791C-0.107604 6.19457 -0.0304248 7.42846 0.37012 8.57414C0.770665 9.71982 1.47909 10.733 2.41765 11.5025C3.35621 12.272 4.48862 12.7681 5.69059 12.9363C6.89256 13.1044 8.11764 12.9382 9.23136 12.4559C10.3451 11.9736 11.3044 11.1937 12.004 10.202C12.7036 9.21025 13.1165 8.04493 13.1973 6.83395C13.2046 6.72305 13.1733 6.61306 13.1088 6.52255C13.0443 6.43204 12.9506 6.36657 12.8434 6.33719Z" fill="#19AD54"/>
</svg>
