<svg width="20" height="20" viewBox="0 0 20 20" fill="none" xmlns="http://www.w3.org/2000/svg">
<path d="M19.8729 9.60962C19.6942 9.36521 15.4371 3.625 9.9999 3.625C4.56274 3.625 0.305391 9.36521 0.126914 9.60939C-0.0423048 9.84126 -0.0423048 10.1558 0.126914 10.3876C0.305391 10.632 4.56274 16.3723 9.9999 16.3723C15.4371 16.3723 19.6942 10.632 19.8729 10.3878C20.0423 10.156 20.0423 9.84126 19.8729 9.60962ZM9.9999 15.0536C5.99486 15.0536 2.52606 11.2437 1.49922 9.99818C2.52473 8.75157 5.98626 4.94367 9.9999 4.94367C14.0048 4.94367 17.4733 8.7529 18.5006 9.99907C17.4751 11.2456 14.0135 15.0536 9.9999 15.0536Z" fill="#C19444"/>
<path d="M10 6.04688C7.81868 6.04688 6.04395 7.8216 6.04395 10.0029C6.04395 12.1843 7.81868 13.959 10 13.959C12.1813 13.959 13.9561 12.1843 13.9561 10.0029C13.9561 7.8216 12.1813 6.04688 10 6.04688ZM10 12.6403C8.54571 12.6403 7.36266 11.4572 7.36266 10.0029C7.36266 8.54868 8.54575 7.36559 10 7.36559C11.4543 7.36559 12.6374 8.54868 12.6374 10.0029C12.6374 11.4572 11.4543 12.6403 10 12.6403Z" fill="#C19444"/>
</svg>
