<svg width="26" height="25" viewBox="0 0 26 25" fill="none" xmlns="http://www.w3.org/2000/svg">
<path d="M23.443 2.33881L17.1861 2.33883V0.781433C17.1861 0.349691 16.8364 0 16.4046 0C15.9729 0 15.6232 0.349691 15.6232 0.781433V2.33844H9.37173V0.781433C9.37173 0.349691 9.02204 0 8.59029 0C8.15855 0 7.80886 0.349691 7.80886 0.781433V2.33844H1.56287C0.699773 2.33844 0 3.03821 0 3.9013V23.4371C0 24.3002 0.699773 25 1.56287 25H23.443C24.3061 25 25.0059 24.3002 25.0059 23.4371V3.9013C25.0059 3.03858 24.3061 2.33881 23.443 2.33881ZM23.443 23.4371H1.56287V3.9013H7.80886V4.6886C7.80886 5.12032 8.15855 5.47003 8.59029 5.47003C9.02204 5.47003 9.37173 5.12032 9.37173 4.6886V3.9017H15.6232V4.68899C15.6232 5.12073 15.9729 5.47042 16.4046 5.47042C16.8364 5.47042 17.1861 5.12073 17.1861 4.68899V3.9017H23.443V23.4371ZM17.973 12.4974H19.5358C19.9672 12.4974 20.3173 12.1474 20.3173 11.716V10.1531C20.3173 9.72179 19.9672 9.3717 19.5358 9.3717H17.973C17.5416 9.3717 17.1915 9.72179 17.1915 10.1531V11.716C17.1915 12.1474 17.5416 12.4974 17.973 12.4974ZM17.973 18.7485H19.5358C19.9672 18.7485 20.3173 18.3988 20.3173 17.9671V16.4042C20.3173 15.9729 19.9672 15.6228 19.5358 15.6228H17.973C17.5416 15.6228 17.1915 15.9729 17.1915 16.4042V17.9671C17.1915 18.3992 17.5416 18.7485 17.973 18.7485ZM13.2844 15.6228H11.7215C11.2901 15.6228 10.9401 15.9729 10.9401 16.4042V17.9671C10.9401 18.3988 11.2901 18.7485 11.7215 18.7485H13.2844C13.7157 18.7485 14.0658 18.3988 14.0658 17.9671V16.4042C14.0658 15.9733 13.7157 15.6228 13.2844 15.6228ZM13.2844 9.3717H11.7215C11.2901 9.3717 10.9401 9.72179 10.9401 10.1531V11.716C10.9401 12.1474 11.2901 12.4974 11.7215 12.4974H13.2844C13.7157 12.4974 14.0658 12.1474 14.0658 11.716V10.1531C14.0658 9.72139 13.7157 9.3717 13.2844 9.3717ZM7.0329 9.3717H5.47003C5.03868 9.3717 4.6886 9.72179 4.6886 10.1531V11.716C4.6886 12.1474 5.03868 12.4974 5.47003 12.4974H7.0329C7.46425 12.4974 7.81433 12.1474 7.81433 11.716V10.1531C7.81433 9.72139 7.46425 9.3717 7.0329 9.3717ZM7.0329 15.6228H5.47003C5.03868 15.6228 4.6886 15.9729 4.6886 16.4042V17.9671C4.6886 18.3988 5.03868 18.7485 5.47003 18.7485H7.0329C7.46425 18.7485 7.81433 18.3988 7.81433 17.9671V16.4042C7.81433 15.9733 7.46425 15.6228 7.0329 15.6228Z" fill="#C19444"/>
</svg>
