<svg width="17" height="17" viewBox="0 0 17 17" fill="none" xmlns="http://www.w3.org/2000/svg">
<path d="M14.2698 1.14844H2.71455C1.5064 1.14844 0.523438 2.1312 0.523438 3.33955V10.4111C0.523438 11.6168 1.50212 12.598 2.70677 12.6022V15.8112L7.31847 12.6022H14.2698C15.478 12.6022 16.4609 11.6193 16.4609 10.4111V3.33955C16.4609 2.1312 15.478 1.14844 14.2698 1.14844ZM15.5271 10.4111C15.5271 11.1043 14.9631 11.6684 14.2698 11.6684H7.02548L3.64061 14.0238V11.6684H2.71455C2.02127 11.6684 1.45728 11.1043 1.45728 10.4111V3.33955C1.45728 2.64618 2.02127 2.08228 2.71455 2.08228H14.2698C14.9631 2.08228 15.5271 2.64618 15.5271 3.33955V10.4111Z" fill="#C19444"/>
<path d="M4.78906 4.44531H12.1954V5.37915H4.78906V4.44531Z" fill="#C19444"/>
<path d="M4.78906 6.4375H12.1954V7.37134H4.78906V6.4375Z" fill="#C19444"/>
<path d="M4.78906 8.42969H12.1954V9.36353H4.78906V8.42969Z" fill="#C19444"/>
</svg>
