<svg width="56" height="50" viewBox="0 0 56 50" fill="none" xmlns="http://www.w3.org/2000/svg">
<path d="M55.547 44.4213C55.5024 43.4124 55.0676 42.4814 54.3227 41.7995L48.5662 36.5303L50.3882 30.0142C51.2123 27.0663 51.11 23.9823 50.0924 21.0954L49.8788 20.4896C49.6796 19.9244 49.0599 19.628 48.4948 19.8271C47.9297 20.0263 47.6331 20.646 47.8324 21.2111L48.046 21.8168C48.3507 22.6815 48.5572 23.5671 48.6692 24.4609H40.8307L39.8115 19.9438L40.9403 17.1502C41.1645 16.5953 40.8971 15.9635 40.3423 15.7384C39.7879 15.5135 39.1556 15.7799 38.9296 16.3341L38.6038 17.1334L36.1331 16.0869L36.7716 13.5417C37.2376 11.6842 38.9001 10.3476 40.8145 10.2914C42.3007 10.2478 43.7254 10.9925 44.5376 12.2346C44.8654 12.736 45.5382 12.8769 46.0394 12.5488C46.541 12.2209 46.6816 11.5484 46.3536 11.047C45.1311 9.17755 42.983 8.05753 40.7507 8.12242C39.9286 8.1465 39.1377 8.32802 38.4103 8.6394C38.4104 8.62714 38.4113 8.61521 38.4113 8.60295C38.4113 5.60886 35.9754 3.173 32.9814 3.173C29.9873 3.173 27.5514 5.60886 27.5514 8.60295C27.5514 9.71819 27.8898 10.7557 28.4686 11.6191C28.3232 11.6862 28.1816 11.764 28.0448 11.8528L25.0809 13.7726C25.0809 13.7726 21.6636 10.426 21.5595 10.3346C23.3921 9.46138 24.6618 7.59132 24.6618 5.42995C24.6618 2.43587 22.2259 0 19.2318 0C16.2378 0 13.8019 2.43587 13.8019 5.42995C13.8019 6.59988 14.1751 7.68365 14.8069 8.57116C13.4848 8.79097 12.2117 9.28539 11.0843 10.031C9.26824 11.2319 7.90269 13.0353 7.23934 15.1091L5.23725 21.3681C4.36732 24.0875 4.31394 26.9784 5.08275 29.7282L6.98459 36.5303L1.22806 41.7995C0.483231 42.4813 0.048375 43.4124 0.00378273 44.4213C-0.0408096 45.4301 0.31007 46.3959 0.991865 47.1408C1.77608 47.9975 2.89067 48.4422 4.05029 48.3592C4.89613 48.2991 5.70682 47.9502 6.33318 47.3769L13.5427 40.7776C14.3922 40 14.8361 38.898 14.7631 37.7499L14.6682 33.3927L17.7393 35.8105L16.1828 45.5629C15.8537 47.6249 17.232 49.5899 19.2552 49.9431C19.472 49.981 19.6913 50 19.9104 50C19.9992 50 20.0882 49.9969 20.1767 49.9906C21.9373 49.8655 23.3614 48.5596 23.6398 46.8149L25.4978 35.1728C25.7501 33.5907 25.1927 32.0034 24.0066 30.9267C23.9956 30.9168 23.9847 30.9072 23.9734 30.8978L16.9283 25.0048L19.4121 17.9562L22.9163 20.5952C22.9238 20.6009 22.9315 20.6065 22.9391 20.6119C23.649 21.1181 24.5146 21.3259 25.377 21.1964C25.7229 21.1447 26.0528 21.0405 26.3623 20.8872C26.4737 21.5606 26.7876 22.1828 27.276 22.6796C27.9024 23.3166 28.7394 23.6715 29.6329 23.6789L35.9965 23.732C36.0061 23.7321 36.0157 23.7321 36.0253 23.7321C36.4963 23.7321 36.9533 23.635 37.3838 23.4435C37.7041 23.3009 37.995 23.1116 38.2503 22.8844L38.8213 25.4149L32.9196 30.0306C30.8973 31.6121 29.8926 34.1693 30.2971 36.7043L31.9107 46.815C32.1891 48.5596 33.6131 49.8655 35.3739 49.9907C35.4624 49.997 35.5512 50 35.6401 50C35.8591 50 36.0785 49.981 36.2952 49.9431C38.3117 49.5911 39.6876 47.6381 39.3711 45.5837L38.2251 36.2498L40.8754 33.7131L40.7875 37.7499C40.7145 38.898 41.1583 40.0002 42.0079 40.7778L49.2174 47.377C49.8437 47.9503 50.6545 48.2992 51.5004 48.3593C52.6592 48.4411 53.7746 47.9976 54.5587 47.1409C55.2406 46.3959 55.5916 45.4301 55.547 44.4213ZM19.2318 2.17005C21.0294 2.17005 22.4919 3.63248 22.4919 5.43006C22.4919 7.22764 21.0294 8.69007 19.2318 8.69007C17.4343 8.69007 15.9718 7.22764 15.9718 5.43006C15.9718 3.63248 17.4342 2.17005 19.2318 2.17005ZM22.5632 32.5471C23.1948 33.1294 23.4908 33.9816 23.3553 34.8309L21.4973 46.473C21.3786 47.2165 20.7724 47.7729 20.0234 47.8262C19.8929 47.8354 19.76 47.8287 19.6287 47.8056C18.7672 47.6552 18.1826 46.8025 18.3258 45.905L19.9826 35.5235C20.0446 35.1349 19.8915 34.7434 19.5825 34.5L14.2051 30.2661C14.0099 30.1125 13.7727 30.0336 13.5337 30.0336C13.3687 30.0336 13.2028 30.0713 13.0494 30.1478C12.6737 30.3352 12.4399 30.7225 12.449 31.1422L12.5943 37.8219C12.5948 37.8396 12.5956 37.8574 12.5968 37.8752C12.6319 38.3687 12.4428 38.8433 12.0778 39.1773L4.86825 45.7765C4.59755 46.0243 4.26153 46.1691 3.89666 46.195C3.40245 46.2307 2.9268 46.0409 2.59263 45.676C2.30218 45.3586 2.15268 44.9472 2.17166 44.5173C2.19065 44.0876 2.37596 43.6909 2.69332 43.4005L8.94177 37.681C9.2435 37.4049 9.36426 36.9825 9.25413 36.5886L7.17262 29.1443C6.94152 28.3177 6.7995 27.4761 6.74275 26.6313H15.4907L22.5632 32.5471ZM21.186 16.5754L19.5342 15.3314C19.258 15.1234 18.8991 15.0595 18.568 15.1594C18.2368 15.2595 17.9733 15.5113 17.8583 15.8375L14.8196 24.4609H6.78875C6.8787 23.6403 7.04915 22.8259 7.30412 22.029L9.30621 15.77C9.8194 14.1655 10.8761 12.7701 12.2812 11.8409C13.6863 10.9118 15.3845 10.4858 17.0615 10.6417C18.2951 10.7564 19.4613 11.2974 20.3455 12.1652L22.7137 14.4896L21.186 16.5754ZM32.9814 5.34305C34.7789 5.34305 36.2414 6.80548 36.2414 8.60306C36.2414 10.4006 34.7789 11.8631 32.9814 11.8631C31.1838 11.8631 29.7213 10.4006 29.7213 8.60306C29.7213 6.80548 31.1838 5.34305 32.9814 5.34305ZM33.151 14.0287C33.6046 14.0147 34.044 13.9449 34.4632 13.8258L33.6611 17.0229L32.2432 17.011C32.6906 16.5604 33.0009 15.9913 33.1363 15.3554C33.2309 14.9112 33.2341 14.4618 33.151 14.0287ZM25.5208 18.8743C25.379 18.9663 25.2226 19.0256 25.0559 19.0506C24.7565 19.0954 24.4563 19.0249 24.2087 18.852L22.9194 17.8811L24.2839 16.018C24.6439 16.2927 25.143 16.3179 25.531 16.0666L29.2252 13.6737C29.4885 13.5029 29.8022 13.4448 30.1093 13.5101C30.4162 13.5754 30.6793 13.7563 30.8501 14.0196C31.0209 14.2828 31.079 14.5968 31.0138 14.9037C30.9483 15.2106 30.7675 15.4736 30.5049 15.6441L25.5208 18.8743ZM37.0274 21C36.9041 21.2025 36.7223 21.363 36.5019 21.461C36.3478 21.5295 36.1807 21.5605 36.0148 21.5622L29.6513 21.5091C29.3374 21.5065 29.0435 21.3818 28.8234 21.1581C28.6035 20.9344 28.4837 20.6383 28.4864 20.3244C28.4889 20.0107 28.6137 19.7166 28.8373 19.4967C29.0609 19.2768 29.3604 19.159 29.6709 19.1596L34.4967 19.1999H34.5058C35.0029 19.1999 35.437 18.8618 35.558 18.379L35.5987 18.2171L37.7846 19.143L37.0274 21ZM52.958 45.6757C52.624 46.0407 52.1478 46.2298 51.6541 46.1948C51.2893 46.1689 50.9532 46.0241 50.6825 45.7763L43.473 39.1771C43.108 38.843 42.9189 38.3685 42.954 37.875C42.9553 37.8572 42.9561 37.8394 42.9565 37.8216L43.1017 31.142C43.1113 30.7034 42.8556 30.302 42.4539 30.1253C42.0524 29.9487 41.5836 30.0311 41.2667 30.3346L36.3317 35.0583C36.0845 35.2951 35.9634 35.6346 36.0051 35.9744L37.2195 45.866C37.2211 45.879 37.2229 45.8919 37.225 45.9048C37.3682 46.8024 36.7837 47.6551 35.9219 47.8055C35.7907 47.8283 35.6579 47.8353 35.5276 47.826C34.7784 47.7728 34.1722 47.2163 34.0535 46.4728L32.44 36.3621C32.1597 34.6063 32.8557 32.8351 34.2563 31.7396L40.7887 26.6307H48.7524C48.7065 27.57 48.556 28.5077 48.2982 29.4297L46.2967 36.588C46.1865 36.982 46.3073 37.4044 46.609 37.6805L52.8575 43.3999C53.1748 43.6904 53.3601 44.087 53.3791 44.5168C53.3981 44.947 53.2486 45.3584 52.958 45.6757Z" fill="#C19444"/>
<path d="M47.2334 17.3291C47.8326 17.3291 48.3184 16.8434 48.3184 16.2442C48.3184 15.6449 47.8326 15.1592 47.2334 15.1592C46.6342 15.1592 46.1484 15.6449 46.1484 16.2442C46.1484 16.8434 46.6342 17.3291 47.2334 17.3291Z" fill="#C19444"/>
</svg>
