<svg width="13" height="17" viewBox="0 0 13 17" fill="none" xmlns="http://www.w3.org/2000/svg">
<path d="M8.4668 0.996094H7.88365C7.67789 0.416334 7.12393 0 6.47461 0C5.82529 0 5.27133 0.416334 5.06557 0.996094H4.48242C3.65852 0.996094 2.98828 1.66633 2.98828 2.49023C2.98828 2.76552 3.21104 2.98828 3.48633 2.98828H9.46289C9.73818 2.98828 9.96094 2.76552 9.96094 2.49023C9.96094 1.66633 9.2907 0.996094 8.4668 0.996094Z" fill="#19AD54"/>
<path d="M11.4551 1.99219H10.9066C10.9395 2.15319 10.957 2.3197 10.957 2.49023C10.957 3.31414 10.2868 3.98438 9.46289 3.98438H3.48633C2.66243 3.98438 1.99219 3.31414 1.99219 2.49023C1.99219 2.3197 2.00975 2.15319 2.04259 1.99219H1.49414C0.670238 1.99219 0 2.66243 0 3.48633V15.5059C0 16.3298 0.670238 17 1.49414 17H11.4551C12.279 17 12.9492 16.3298 12.9492 15.5059V3.48633C12.9492 2.66243 12.279 1.99219 11.4551 1.99219ZM4.98047 13.9453H2.98828C2.71299 13.9453 2.49023 13.7226 2.49023 13.4473C2.49023 13.172 2.71299 12.9492 2.98828 12.9492H4.98047C5.25576 12.9492 5.47852 13.172 5.47852 13.4473C5.47852 13.7226 5.25576 13.9453 4.98047 13.9453ZM4.98047 10.459H2.98828C2.71299 10.459 2.49023 10.2362 2.49023 9.96094C2.49023 9.68565 2.71299 9.46289 2.98828 9.46289H4.98047C5.25576 9.46289 5.47852 9.68565 5.47852 9.96094C5.47852 10.2362 5.25576 10.459 4.98047 10.459ZM4.98047 6.97266H2.98828C2.71299 6.97266 2.49023 6.7499 2.49023 6.47461C2.49023 6.19932 2.71299 5.97656 2.98828 5.97656H4.98047C5.25576 5.97656 5.47852 6.19932 5.47852 6.47461C5.47852 6.7499 5.25576 6.97266 4.98047 6.97266ZM9.81501 14.0912C10.0095 14.2858 10.0095 14.601 9.81501 14.7955C9.71772 14.8928 9.59029 14.9414 9.46289 14.9414C9.33549 14.9414 9.20802 14.8928 9.11077 14.7955L8.4668 14.1515L7.82282 14.7955C7.72554 14.8928 7.5981 14.9414 7.4707 14.9414C7.3433 14.9414 7.21584 14.8928 7.11858 14.7955C6.92405 14.601 6.92405 14.2858 7.11858 14.0912L7.76253 13.4473L7.11855 12.8033C6.92401 12.6088 6.92401 12.2936 7.11855 12.099C7.31309 11.9045 7.62829 11.9045 7.82282 12.099L8.4668 12.743L9.11077 12.099C9.30531 11.9045 9.62051 11.9045 9.81504 12.099C10.0096 12.2936 10.0096 12.6088 9.81504 12.8033L9.17107 13.4473L9.81501 14.0912ZM10.3131 9.31696L8.81892 10.8111C8.72163 10.9084 8.5942 10.957 8.4668 10.957C8.3394 10.957 8.21193 10.9084 8.11468 10.8111L7.11858 9.81501C6.92405 9.62047 6.92405 9.30528 7.11858 9.11074C7.31312 8.9162 7.62832 8.9162 7.82285 9.11074L8.4668 9.75471L9.60882 8.61269C9.80336 8.41815 10.1186 8.41815 10.3131 8.61269C10.5076 8.80723 10.5076 9.12243 10.3131 9.31696ZM10.3131 6.32868L8.81892 7.82282C8.72163 7.92011 8.5942 7.96875 8.4668 7.96875C8.3394 7.96875 8.21193 7.92011 8.11468 7.82282L7.11858 6.82673C6.92405 6.63219 6.92405 6.31699 7.11858 6.12246C7.31312 5.92792 7.62832 5.92792 7.82285 6.12246L8.4668 6.76643L9.60882 5.62441C9.80336 5.42987 10.1186 5.42987 10.3131 5.62441C10.5076 5.81895 10.5076 6.13414 10.3131 6.32868Z" fill="#19AD54"/>
</svg>
