<svg width="38" height="50" viewBox="0 0 38 50" fill="none" xmlns="http://www.w3.org/2000/svg">
<path d="M37.6781 29.7646L37.6424 29.2754C37.0697 21.8192 33.5979 17.1451 30.5352 13.0223C27.6991 9.20463 25.2497 5.90787 25.2497 1.0435C25.2497 0.652891 25.031 0.295873 24.6841 0.116778C24.3362 -0.0632931 23.9181 -0.033802 23.6018 0.19617C19.002 3.48784 15.1641 9.03578 13.8234 14.3293C12.8927 18.0147 12.7695 22.1579 12.7522 24.8942C8.50434 23.9868 7.54207 17.6322 7.53191 17.5631C7.48407 17.2335 7.2827 16.9466 6.98975 16.79C6.69376 16.6354 6.34582 16.6242 6.04574 16.7727C5.82299 16.8805 0.578167 19.5456 0.273003 30.1877C0.251617 30.5417 0.250641 30.8957 0.250641 31.2507C0.250641 41.5887 8.66195 50 18.9999 50C29.3379 50 37.7493 41.5887 37.7493 31.2507C37.7493 30.732 37.7137 30.2478 37.6781 29.7646ZM18.9999 47.9168C15.5536 47.9168 12.7502 44.9303 12.7502 41.2591C12.7502 41.134 12.7492 41.0078 12.7583 40.8533C12.8 39.3051 13.094 38.2482 13.4165 37.5453C14.0207 38.8433 15.1019 40.0364 16.8557 40.0364C17.4314 40.0364 17.8974 39.5705 17.8974 38.9947C17.8974 37.5116 17.9279 35.8007 18.2971 34.2565C18.6257 32.8864 19.411 31.4307 20.4059 30.2629C20.8483 31.7786 21.711 33.0053 22.5532 34.2026C23.7587 35.9156 25.0047 37.6866 25.2234 40.7067C25.2366 40.8857 25.2499 41.0657 25.2499 41.259C25.2497 44.9303 22.4463 47.9168 18.9999 47.9168ZM25.5829 46.5558C26.6641 45.0813 27.333 43.2587 27.333 41.2591C27.333 41.014 27.3178 40.7861 27.2872 40.3599C27.0401 36.9594 25.562 34.8578 24.257 33.0035C23.1452 31.4247 22.186 30.0607 22.186 28.1259C22.186 27.7302 21.9621 27.3691 21.6082 27.1931C21.2562 27.0161 20.831 27.0558 20.5167 27.2949C18.5189 28.8044 16.8527 31.3454 16.2708 33.7715C15.9738 35.0156 15.8701 36.3613 15.8335 37.468C15.1112 36.6909 14.8874 35.2505 14.8855 35.2312C14.8387 34.8965 14.6332 34.6046 14.3331 34.449C14.0351 34.2944 13.6781 34.2903 13.378 34.4449C13.1155 34.5792 10.8095 35.9016 10.6773 40.7659C10.6681 40.9307 10.6671 41.0954 10.6671 41.2592C10.6671 43.2588 11.3361 45.0814 12.4173 46.5559C6.49328 43.9979 2.33416 38.1028 2.33416 31.2509C2.33416 30.9386 2.33318 30.6274 2.35447 30.2804C2.53347 24.0367 4.53134 20.9403 5.83539 19.5743C6.74474 22.8293 9.12707 27.0843 13.792 27.0843C14.3678 27.0843 14.8337 26.6184 14.8337 26.0427C14.8337 22.5567 14.912 18.5285 15.8438 14.8401C16.9017 10.6613 19.7997 6.14898 23.2979 3.0943C23.8788 7.55586 26.3089 10.8272 28.8632 14.2643C31.8996 18.3515 35.0387 22.578 35.5646 29.4218L35.6002 29.9203C35.6327 30.3536 35.6663 30.786 35.6663 31.2508C35.666 38.1027 31.5069 43.9978 25.5829 46.5558Z" fill="#C19444"/>
</svg>
