<svg width="90" height="90" viewBox="0 0 90 90" fill="none" xmlns="http://www.w3.org/2000/svg">
<path d="M13.6717 64.6823H8.12109V52.6884C8.12109 32.5757 24.4841 16.2129 44.5968 16.2129C64.7095 16.2129 81.0726 32.5757 81.0726 52.6884V54.4725H75.5219V52.6884C75.5219 35.6363 61.6491 21.7635 44.5968 21.7635C27.5445 21.7635 13.6717 35.6363 13.6717 52.6884V64.6823Z" fill="#FDC924"/>
<path d="M75.5024 59.0176H81.0913V64.6065H75.5024V59.0176Z" fill="#FDC924"/>
<path d="M25.701 52.6877H20.1504C20.1504 39.2079 31.117 28.2412 44.5969 28.2412V33.7918C34.1776 33.7918 25.701 42.2686 25.701 52.6877Z" fill="#FDC924"/>
<path d="M82.4533 90.0004H6.74004C3.0235 90.0004 0 86.9769 0 83.2604V75.2859C0 71.5694 3.0235 68.5459 6.74004 68.5459H82.4533C86.1699 68.5459 89.1934 71.5694 89.1934 75.2859V83.2604C89.1934 86.9769 86.1699 90.0004 82.4533 90.0004ZM6.74004 74.0965C6.08408 74.0965 5.55062 74.63 5.55062 75.2859V83.2604C5.55062 83.9164 6.08408 84.4498 6.74004 84.4498H82.4533C83.1093 84.4498 83.6428 83.9164 83.6428 83.2604V75.2859C83.6428 74.63 83.1093 74.0965 82.4533 74.0965H6.74004Z" fill="#FDC924"/>
<path d="M41.6851 0H47.2357V10.1701H41.6851V0Z" fill="#FDC924"/>
<path d="M9 15.8359L12.9243 11.9116L20.1146 19.1019L16.1903 23.0262L9 15.8359Z" fill="#FDC924"/>
<path d="M68.7925 19.1082L75.9828 11.9179L79.9071 15.8422L72.7168 23.0324L68.7925 19.1082Z" fill="#FDC924"/>
</svg>
