<svg width="90" height="90" viewBox="0 0 90 90" fill="none" xmlns="http://www.w3.org/2000/svg">
<path d="M60.7583 42.3255C60.752 42.3255 60.746 42.3255 60.7397 42.3255H53.2027V34.77C53.2129 33.2461 51.9858 32.0024 50.462 31.9922C50.4557 31.9922 50.4494 31.9922 50.4434 31.9922H39.5545C38.0307 31.9922 36.7953 33.2276 36.7953 34.7514V42.307H29.2582C27.7344 42.2968 26.4907 43.5237 26.4805 45.0475C26.4805 45.06 26.4805 45.0723 26.4805 45.0848V55.9551C26.4805 57.479 27.7159 58.7144 29.2397 58.7144H36.7953V66.2514C36.7851 67.7753 38.0122 69.019 39.536 69.0292C39.5423 69.0292 39.5485 69.0292 39.5545 69.0292H50.4249C51.9488 69.0292 53.1842 67.7938 53.1842 66.27V58.7144H60.7397C62.2636 58.7246 63.5073 57.4975 63.5175 55.9737C63.5175 55.9674 63.5175 55.9612 63.5175 55.9551V45.0848C63.5175 43.5609 62.2823 42.3255 60.7583 42.3255ZM59.8138 55.0107H51.3508C50.3282 55.0107 49.499 55.8399 49.499 56.8626V65.3255H40.499V56.8626C40.499 55.8399 39.6698 55.0107 38.6471 55.0107H30.1842V46.0292H38.6471C39.6698 46.0292 40.499 45.2001 40.499 44.1774V35.6959H49.4805V44.1589C49.4805 45.1815 50.3096 46.0107 51.3323 46.0107H59.8138V55.0107Z" fill="#FDC924"/>
<path d="M77.2222 18.144H61.963V11.6255C62.059 8.65095 59.7255 6.1616 56.7509 6.06553C56.5993 6.06067 56.4477 6.06206 56.2963 6.06993H33.7037C30.7315 5.91507 28.1965 8.19887 28.0414 11.1709C28.0336 11.3222 28.0319 11.4739 28.037 11.6255V18.107H12.7778C6.88889 18.107 0 21.4588 0 30.8847V71.1625C0 80.5884 6.88889 83.9403 12.7778 83.9403H77.2222C83.1111 83.9403 90 80.5884 90 71.1625V30.9218C90 21.4959 83.1296 18.144 77.2222 18.144ZM31.7407 11.6255C31.7407 11.0885 31.7407 9.64401 33.7222 9.64401H56.2963C58.2778 9.64401 58.2778 11.0699 58.2778 11.6255V18.107H31.7407V11.6255ZM86.2963 71.1625C86.2963 79.3477 79.963 80.2366 77.2222 80.2366H12.7778C10.0556 80.2366 3.7037 79.3477 3.7037 71.1625V30.9218C3.7037 22.7366 10.037 21.8477 12.7778 21.8477H77.2222C79.9445 21.8477 86.2963 22.7366 86.2963 30.9218V71.1625Z" fill="#FDC924"/>
</svg>
