<svg width="24" height="30" viewBox="0 0 24 30" fill="none" xmlns="http://www.w3.org/2000/svg">
<path d="M21.0018 4.8C20.565 4.8 20.1546 4.9176 19.8018 5.12279V4.8C19.8018 3.4776 18.7254 2.4 17.4018 2.4C16.965 2.4 16.5546 2.5176 16.2018 2.72279V2.4C16.2018 1.0776 15.1254 0 13.8018 0C12.4782 0 11.4018 1.0776 11.4018 2.4V2.72279C11.049 2.5176 10.6386 2.4 10.2018 2.4C8.87822 2.4 7.8018 3.4776 7.8018 4.8V17.292C7.8018 17.4516 7.66141 17.592 7.5018 17.592C7.41777 17.592 7.34582 17.562 7.35297 17.58L5.00576 14.238C4.26654 13.1784 2.71979 12.8844 1.63856 13.632C1.10453 14.0028 0.749337 14.5632 0.635372 15.2076C0.523751 15.8472 0.665372 16.4892 1.03018 17.0064L7.30375 26.1588C8.89621 28.5288 11.7174 30 14.6658 30C19.4826 30 23.4017 26.082 23.4017 21.264V7.2C23.4018 5.8776 22.3254 4.8 21.0018 4.8ZM14.6658 28.8C12.111 28.8 9.67258 27.5316 8.29738 25.4856L2.01537 16.3224C1.83057 16.0596 1.76096 15.7392 1.81738 15.4152C1.87498 15.0876 2.05498 14.8032 2.32258 14.6172C2.52777 14.4756 2.76777 14.4 3.01375 14.4C3.42297 14.4 3.78895 14.5908 4.02174 14.9256L6.04252 17.8092L6.42654 18.3384C6.69537 18.6264 7.08772 18.792 7.50174 18.792C8.32856 18.792 9.00174 18.1199 9.00174 17.292V4.8C9.00174 4.13883 9.54057 3.6 10.2017 3.6C10.8629 3.6 11.4017 4.13877 11.4017 4.8V13.8C11.4017 14.1324 11.6706 14.4 12.0017 14.4C12.3329 14.4 12.6017 14.1324 12.6017 13.8V2.4C12.6017 1.73883 13.1406 1.2 13.8017 1.2C14.4629 1.2 15.0017 1.73883 15.0017 2.4V13.8C15.0017 14.1324 15.2706 14.4 15.6017 14.4C15.9329 14.4 16.2017 14.1324 16.2017 13.8V4.8C16.2017 4.13883 16.7405 3.6 17.4017 3.6C18.063 3.6 18.6017 4.13877 18.6017 4.8V15C18.6017 15.3324 18.8706 15.6 19.2017 15.6C19.5329 15.6 19.8017 15.3324 19.8017 15V7.2C19.8017 6.53883 20.3405 6 21.0017 6C21.663 6 22.2017 6.53877 22.2017 7.2V21.264C22.2018 25.4196 18.8214 28.8 14.6658 28.8Z" fill="black"/>
</svg>
