<svg width="46" height="46" viewBox="0 0 46 46" fill="none" xmlns="http://www.w3.org/2000/svg">
<path d="M30.3719 15.9981C29.7429 17.3317 28.1537 17.9004 26.821 17.2714L20.1634 14.1302L26.0245 19.9904C27.0537 21.0196 27.0652 22.6816 26.0609 23.727C25.024 24.8041 23.2663 24.7782 22.2094 23.7213L16.2621 17.7741L20.0323 25.1038C20.7063 26.4135 20.1903 28.0228 18.8806 28.6959C17.5709 29.3708 15.9615 28.8538 15.2885 27.5441L12.0153 21.1824V26.2613C12.0153 27.7338 10.8214 28.9286 9.34805 28.9286C7.87555 28.9286 6.67978 27.7348 6.67978 26.2613V23.9349C6.67978 20.2738 5.81525 16.6655 4.15521 13.4038L2.61385 10.3765L0 7.76267L2.68737 5.0753L7.72701 0.0356581C9.33731 1.64498 10.3417 2.64934 10.3417 2.64934C10.7466 2.24344 11.2512 1.99638 11.7758 1.9064L15.6263 1.24578L22.4573 0.0739586C23.9106 -0.174951 25.2892 0.799643 25.5382 2.25198C25.7871 3.70529 24.8115 5.08296 23.3592 5.33187L17.881 6.27204C19.4942 7.61722 21.2739 8.75452 23.1791 9.65252L29.0986 12.4471C30.4303 13.0761 31.0009 14.6654 30.3719 15.9981Z" fill="#FCD0A3"/>
<path d="M16.1683 1.78817L9.09133 5.71631L5.56909 2.19407L7.72704 0.0351562C9.33733 1.64448 10.3417 2.64883 10.3417 2.64883C10.7466 2.24294 11.2512 1.99588 11.7758 1.90589L15.6264 1.24528L16.1683 1.78817Z" fill="#FFB983"/>
<path d="M9.34814 28.9282C10.3521 28.9282 10.3069 25.3171 10.1714 22.9698C10.1117 21.9353 10.9838 21.0891 12.0159 21.1818V26.2604C12.0152 27.734 10.821 28.9282 9.34814 28.9282Z" fill="#FFB983"/>
<path d="M18.9055 28.6823C19.8356 28.1151 16.9168 22.6243 15.3389 19.812C14.8804 18.9948 15.3455 17.968 16.262 17.7734L20.0325 25.1035C20.7017 26.4051 20.1965 28.0012 18.9055 28.6823Z" fill="#FFB983"/>
<path d="M20.1634 14.1299L26.0239 19.9904C27.0495 21.016 27.066 22.6687 26.072 23.7128C26.5659 23.0886 22.1062 18.5295 19.7827 16.2286C19.1372 15.5894 19.3348 14.5021 20.1634 14.1299Z" fill="#FFB983"/>
<path d="M4.15488 13.4037L2.61353 10.3763L10.3408 2.64898C10.7465 2.24326 11.2505 1.9962 11.7761 1.90666L11.7768 1.90604L22.4577 0.0741312C23.8766 -0.169583 25.2236 0.754559 25.518 2.15037C24.8521 0.531888 7.4945 3.93015 4.15488 13.4037Z" fill="#FFB983"/>
<path d="M29.0974 12.4469L23.179 9.65329C21.274 8.75353 19.4942 7.61658 17.8816 6.27148C17.8816 6.27148 17.8527 6.36059 17.7898 6.51344C17.147 8.07539 15.8207 9.27046 14.1918 9.71738C13.3371 9.95194 12.3058 10.054 11.0778 9.90422C10.678 9.85518 10.3151 10.1654 10.3149 10.5821C10.3148 10.9292 10.5915 11.2162 10.9361 11.2576C11.3906 11.3121 11.8218 11.3372 12.2321 11.3372C15.0808 11.3372 16.8804 10.1257 17.8751 9.13821C21.4094 10.7298 30.6778 15.0109 30.3721 15.998C31.0011 14.6654 30.43 13.0759 29.0974 12.4469Z" fill="#FFB983"/>
<path d="M22.6088 33.2244C23.0742 32.2376 24.25 31.817 25.236 32.2823L30.1618 34.6064L25.8254 30.2707C25.064 29.5092 25.0554 28.2796 25.7985 27.506C26.5656 26.7091 27.8661 26.7282 28.6481 27.5102L33.0483 31.9104L30.2588 26.4874C29.7601 25.5184 30.1419 24.3277 31.111 23.8297C32.0799 23.3303 33.2707 23.7128 33.7687 24.6818L36.1905 29.3887V25.631C36.1905 24.5416 37.0738 23.6576 38.1639 23.6576C39.2533 23.6576 40.138 24.5409 40.138 25.631V27.3523C40.138 30.0609 40.7777 32.7307 42.0058 35.144L43.1462 37.3837L45.08 39.3174L43.0917 41.3057L39.363 45.0344C38.1715 43.8437 37.4285 43.1006 37.4285 43.1006C37.1289 43.401 36.7556 43.5837 36.3675 43.6503L33.5185 44.1391L28.4645 45.0061C27.3893 45.1903 26.3693 44.4691 26.1851 43.3946C26.0009 42.3194 26.7227 41.3001 27.7972 41.1159L31.8503 40.4203C30.6567 39.4251 29.34 38.5836 27.9303 37.9191L23.5507 35.8515C22.5656 35.3862 22.1434 34.2103 22.6088 33.2244Z" fill="#FCD0A3"/>
<path d="M38.1638 23.6582C37.4209 23.6582 37.4545 26.33 37.5547 28.0666C37.5989 28.832 36.9536 29.458 36.1899 29.3895V25.632C36.1905 24.5418 37.074 23.6582 38.1638 23.6582Z" fill="#FFB983"/>
<path d="M31.0927 23.8398C30.4045 24.2595 32.5641 28.322 33.7315 30.4027C34.0707 31.0073 33.7266 31.767 33.0484 31.9109L30.2588 26.4877C29.7637 25.5246 30.1375 24.3437 31.0927 23.8398Z" fill="#FFB983"/>
<path d="M30.1618 34.6066L25.8258 30.2706C25.067 29.5118 25.0548 28.289 25.7903 27.5166C25.4249 27.9784 28.7244 31.3516 30.4435 33.0539C30.921 33.5267 30.7748 34.3312 30.1618 34.6066Z" fill="#FFB983"/>
<path d="M37.0511 41.1933C33.9623 42.04 26.434 44.0385 26.2002 43.4704C26.418 44.5031 27.4147 45.1869 28.4645 45.0065L33.5188 44.1396L33.5188 44.1398L33.5191 44.1396L36.367 43.6512L36.3674 43.6508C36.7562 43.5845 37.1289 43.4019 37.429 43.1018C37.4365 43.1093 38.1778 43.8506 39.3631 45.0352L40.9597 43.4379L39.3149 41.7931C38.7227 41.2009 37.8588 40.972 37.0511 41.1933Z" fill="#FFB983"/>
<path d="M31.85 40.421C30.657 39.4258 29.3402 38.5846 27.9307 37.9188L23.5518 35.8519C22.5658 35.3865 22.1433 34.2106 22.6087 33.2246C22.4023 33.8908 28.0908 36.5851 31.076 37.9469C32.019 38.3771 32.3794 39.5301 31.85 40.421Z" fill="#FFB983"/>
</svg>
