<svg width="126" height="110" viewBox="0 0 126 110" fill="none" xmlns="http://www.w3.org/2000/svg">
<mask id="path-1-inside-1_1_211" fill="white">
<path d="M31.3907 0L30.482 1.81729C29.1524 4.47641 28.4499 7.45298 28.4499 10.4256V12.0918L36.5783 13.7174V37.4681L22.3535 41.3921V42.9392C22.3535 45.0055 22.6936 47.0736 23.3472 49.0355H16.2572V32.7784C16.2572 31.7412 15.8632 30.7965 15.2214 30.0774C15.875 29.1064 16.2572 27.9378 16.2572 26.682C16.2572 23.3204 13.5225 20.5857 10.1608 20.5857C6.79915 20.5857 4.06448 23.3204 4.06448 26.682C4.06448 27.9383 4.44664 29.1064 5.10022 30.0774C4.45869 30.7965 4.06448 31.7414 4.06448 32.7786V49.0358C1.82344 49.036 0 50.8595 0 53.1003V57.1645C0 59.4055 1.82344 61.2287 4.06423 61.2287V110H121.928V93.7428C121.928 92.7056 121.534 91.7609 120.892 91.0419C121.511 90.1223 121.885 89.0255 121.923 87.8451H121.928V44.9718V42.9397V30.7871L123.051 31.012L123.96 29.1942C125.29 26.5351 125.992 23.5588 125.992 20.5864V18.9202L31.3907 0ZM33.6761 4.60167L121.837 22.2339C121.68 23.6671 121.318 25.0783 120.766 26.4099L32.6049 8.77786C32.7629 7.34495 33.1244 5.93295 33.6761 4.60167ZM82.201 29.0985C82.7547 30.4657 83.109 31.9149 83.2491 33.3832L82.9599 33.4824L27.5416 48.6711C26.996 47.329 26.6424 45.9072 26.4953 44.4654L82.201 29.0985ZM115.832 89.6786C114.711 89.6786 113.799 88.7669 113.799 87.6465C113.799 86.5261 114.711 85.6144 115.832 85.6144C116.952 85.6144 117.864 86.5261 117.864 87.6465C117.864 88.7671 116.952 89.6786 115.832 89.6786ZM109.735 87.8456H109.74C109.761 88.4864 109.88 89.1025 110.085 89.6788H101.607V53.1003H81.2851V44.9718H109.735V87.8456ZM28.4499 61.2287V69.3572V71.3893V105.936H16.2572V61.2287H28.4499ZM32.5141 71.3896H36.5783V105.936H32.5141V71.3896ZM69.0924 79.518H40.6426V71.3896H69.0924V79.518ZM40.6426 83.5823H52.8352V105.936H40.6426V83.5823ZM56.8997 83.5823H69.0924V105.936H56.8997V83.5823ZM73.1566 71.3896H77.2209V105.936H73.1566V71.3896ZM81.2854 57.1645H97.5425V89.6786H81.2854V71.3893V69.3572V57.1645ZM81.2854 93.7431H85.3496V105.936H81.2854V93.7431ZM89.4138 93.7431H93.4781V105.936H89.4138V93.7431ZM97.5423 93.7431H101.607V105.936H97.5423V93.7431ZM77.2209 67.3253H32.5141V51.5227L77.2209 39.2697V67.3253ZM10.1606 24.6504C11.281 24.6504 12.1927 25.5621 12.1927 26.6825C12.1927 27.8029 11.281 28.7146 10.1606 28.7146C9.04018 28.7146 8.12846 27.8029 8.12846 26.6825C8.12846 25.5621 9.04018 24.6504 10.1606 24.6504ZM8.12846 32.7791H12.1927V49.0363H8.12846V32.7791ZM4.06423 53.1003H28.4499V57.1645H4.06423V53.1003ZM8.12846 61.2287H12.1927V105.936H8.12846V61.2287ZM109.735 105.936H105.671V93.7431H109.735V105.936ZM117.864 105.936H113.799V93.7431H115.832H117.864V105.936ZM117.864 81.8998C117.228 81.6742 116.544 81.5504 115.832 81.5504C115.119 81.5504 114.436 81.6744 113.799 81.8998V44.9718H117.864V81.8998ZM117.864 40.9076H81.2854V38.1559L84.0963 37.3855L87.3817 36.2624V34.8112C87.3817 31.8384 86.6791 28.8618 85.3496 26.2027L84.3877 24.2796L40.6428 36.347V14.5302L117.864 29.9743V40.9076Z"/>
</mask>
<path d="M31.3907 0L30.482 1.81729C29.1524 4.47641 28.4499 7.45298 28.4499 10.4256V12.0918L36.5783 13.7174V37.4681L22.3535 41.3921V42.9392C22.3535 45.0055 22.6936 47.0736 23.3472 49.0355H16.2572V32.7784C16.2572 31.7412 15.8632 30.7965 15.2214 30.0774C15.875 29.1064 16.2572 27.9378 16.2572 26.682C16.2572 23.3204 13.5225 20.5857 10.1608 20.5857C6.79915 20.5857 4.06448 23.3204 4.06448 26.682C4.06448 27.9383 4.44664 29.1064 5.10022 30.0774C4.45869 30.7965 4.06448 31.7414 4.06448 32.7786V49.0358C1.82344 49.036 0 50.8595 0 53.1003V57.1645C0 59.4055 1.82344 61.2287 4.06423 61.2287V110H121.928V93.7428C121.928 92.7056 121.534 91.7609 120.892 91.0419C121.511 90.1223 121.885 89.0255 121.923 87.8451H121.928V44.9718V42.9397V30.7871L123.051 31.012L123.96 29.1942C125.29 26.5351 125.992 23.5588 125.992 20.5864V18.9202L31.3907 0ZM33.6761 4.60167L121.837 22.2339C121.68 23.6671 121.318 25.0783 120.766 26.4099L32.6049 8.77786C32.7629 7.34495 33.1244 5.93295 33.6761 4.60167ZM82.201 29.0985C82.7547 30.4657 83.109 31.9149 83.2491 33.3832L82.9599 33.4824L27.5416 48.6711C26.996 47.329 26.6424 45.9072 26.4953 44.4654L82.201 29.0985ZM115.832 89.6786C114.711 89.6786 113.799 88.7669 113.799 87.6465C113.799 86.5261 114.711 85.6144 115.832 85.6144C116.952 85.6144 117.864 86.5261 117.864 87.6465C117.864 88.7671 116.952 89.6786 115.832 89.6786ZM109.735 87.8456H109.74C109.761 88.4864 109.88 89.1025 110.085 89.6788H101.607V53.1003H81.2851V44.9718H109.735V87.8456ZM28.4499 61.2287V69.3572V71.3893V105.936H16.2572V61.2287H28.4499ZM32.5141 71.3896H36.5783V105.936H32.5141V71.3896ZM69.0924 79.518H40.6426V71.3896H69.0924V79.518ZM40.6426 83.5823H52.8352V105.936H40.6426V83.5823ZM56.8997 83.5823H69.0924V105.936H56.8997V83.5823ZM73.1566 71.3896H77.2209V105.936H73.1566V71.3896ZM81.2854 57.1645H97.5425V89.6786H81.2854V71.3893V69.3572V57.1645ZM81.2854 93.7431H85.3496V105.936H81.2854V93.7431ZM89.4138 93.7431H93.4781V105.936H89.4138V93.7431ZM97.5423 93.7431H101.607V105.936H97.5423V93.7431ZM77.2209 67.3253H32.5141V51.5227L77.2209 39.2697V67.3253ZM10.1606 24.6504C11.281 24.6504 12.1927 25.5621 12.1927 26.6825C12.1927 27.8029 11.281 28.7146 10.1606 28.7146C9.04018 28.7146 8.12846 27.8029 8.12846 26.6825C8.12846 25.5621 9.04018 24.6504 10.1606 24.6504ZM8.12846 32.7791H12.1927V49.0363H8.12846V32.7791ZM4.06423 53.1003H28.4499V57.1645H4.06423V53.1003ZM8.12846 61.2287H12.1927V105.936H8.12846V61.2287ZM109.735 105.936H105.671V93.7431H109.735V105.936ZM117.864 105.936H113.799V93.7431H115.832H117.864V105.936ZM117.864 81.8998C117.228 81.6742 116.544 81.5504 115.832 81.5504C115.119 81.5504 114.436 81.6744 113.799 81.8998V44.9718H117.864V81.8998ZM117.864 40.9076H81.2854V38.1559L84.0963 37.3855L87.3817 36.2624V34.8112C87.3817 31.8384 86.6791 28.8618 85.3496 26.2027L84.3877 24.2796L40.6428 36.347V14.5302L117.864 29.9743V40.9076Z" fill="#C19444" stroke="white" stroke-width="2.6" mask="url(#path-1-inside-1_1_211)"/>
<path d="M60.3137 57.1667C60.3137 60.1694 57.87 62.613 54.8673 62.613C51.8647 62.613 49.421 60.1691 49.421 57.1667C49.421 54.164 51.8647 51.7203 54.8673 51.7203C57.87 51.7203 60.3137 54.164 60.3137 57.1667ZM57.5495 57.1664C57.5495 55.687 56.3467 54.4843 54.8673 54.4843C53.3877 54.4843 52.1852 55.6871 52.1852 57.1664C52.1852 58.6458 53.388 59.8485 54.8673 59.8485C56.3467 59.8485 57.5495 58.6458 57.5495 57.1664Z" fill="#C19444" stroke="white" stroke-width="1.3"/>
</svg>
