<svg width="50" height="50" viewBox="0 0 50 50" fill="none" xmlns="http://www.w3.org/2000/svg">
<path fill-rule="evenodd" clip-rule="evenodd" d="M25 0C38.8071 0 50 11.1929 50 25C50 38.8071 38.8071 50 25 50C11.1929 50 0 38.8071 0 25C0 11.1929 11.1929 0 25 0Z" fill="#FBFBFB"/>
<path fill-rule="evenodd" clip-rule="evenodd" d="M48.6795 16.9643H1.31836C4.66489 7.0992 14.0028 0 24.9989 0C35.995 0 45.3329 7.0992 48.6795 16.9643Z" fill="#32AB45"/>
<path fill-rule="evenodd" clip-rule="evenodd" d="M48.6795 33.0357C45.3329 42.9008 35.995 50 24.9989 50C14.0028 50 4.66489 42.9008 1.31836 33.0357H48.6795Z" fill="#1D1D1D"/>
<path fill-rule="evenodd" clip-rule="evenodd" d="M13.3929 2.85211V47.1479C5.43072 42.9665 0 34.6174 0 25C0 15.3825 5.43072 7.03346 13.3929 2.85211Z" fill="#E92B2B"/>
</svg>
