<svg width="62" height="62" viewBox="0 0 62 62" fill="none" xmlns="http://www.w3.org/2000/svg">
<path d="M55.7266 39.7891H53.9688V38.0312C53.9688 35.1235 51.6031 32.7578 48.6953 32.7578H32.7578V29.2422C34.4096 29.2422 36.3848 29.2422 38.0312 29.2422C39.002 29.2422 39.7891 28.4552 39.7891 27.4844C39.7891 26.5136 39.002 25.7266 38.0312 25.7266H36.2734V22.2109H41.5469C44.4546 22.2109 46.8203 19.8453 46.8203 16.9375V6.27344C46.8203 3.36566 44.4546 1 41.5469 1H20.4531C17.5454 1 15.1797 3.36566 15.1797 6.27344V16.9375C15.1797 19.8453 17.5454 22.2109 20.4531 22.2109H25.7266V25.7266H23.9688C22.998 25.7266 22.2109 26.5136 22.2109 27.4844C22.2109 28.4552 22.998 29.2422 23.9688 29.2422C25.6152 29.2422 27.5904 29.2422 29.2422 29.2422V32.7578H13.3047C10.3969 32.7578 8.03125 35.1235 8.03125 38.0312V39.7891H6.27344C3.36566 39.7891 1 42.1547 1 45.0625V48.5781C1 51.4859 3.36566 53.8516 6.27344 53.8516H8.03125V57.4844H6.27344C5.30266 57.4844 4.51562 58.2714 4.51562 59.2422C4.51562 60.213 5.30266 61 6.27344 61H13.3047C14.2755 61 15.0625 60.213 15.0625 59.2422C15.0625 58.2714 14.2755 57.4844 13.3047 57.4844H11.5469V53.8516H13.3047C16.2125 53.8516 18.5781 51.4859 18.5781 48.5781V45.0625C18.5781 42.1547 16.2125 39.7891 13.3047 39.7891H11.5469V38.0312C11.5469 37.062 12.3354 36.2734 13.3047 36.2734H29.2422V39.7891H27.4844C24.5766 39.7891 22.2109 42.1547 22.2109 45.0625V48.5781C22.2109 51.4859 24.5766 53.8516 27.4844 53.8516H29.2422V57.4844H27.4844C26.5136 57.4844 25.7266 58.2714 25.7266 59.2422C25.7266 60.213 26.5136 61 27.4844 61H34.5156C35.4864 61 36.2734 60.213 36.2734 59.2422C36.2734 58.2714 35.4864 57.4844 34.5156 57.4844H32.7578V53.8516H34.5156C37.4234 53.8516 39.7891 51.4859 39.7891 48.5781V45.0625C39.7891 42.1547 37.4234 39.7891 34.5156 39.7891H32.7578V36.2734H48.6953C49.6646 36.2734 50.4531 37.062 50.4531 38.0312V39.7891H48.6953C45.7875 39.7891 43.4219 42.1547 43.4219 45.0625V48.5781C43.4219 51.4859 45.7875 53.8516 48.6953 53.8516H50.4531V57.4844H48.6953C47.7245 57.4844 46.9375 58.2714 46.9375 59.2422C46.9375 60.213 47.7245 61 48.6953 61H55.7266C56.6973 61 57.4844 60.213 57.4844 59.2422C57.4844 58.2714 56.6973 57.4844 55.7266 57.4844H53.9688V53.8516H55.7266C58.6343 53.8516 61 51.4859 61 48.5781V45.0625C61 42.1547 58.6343 39.7891 55.7266 39.7891ZM13.3047 43.3047C14.2739 43.3047 15.0625 44.0932 15.0625 45.0625V48.5781C15.0625 49.5474 14.2739 50.3359 13.3047 50.3359H6.27344C5.30418 50.3359 4.51562 49.5474 4.51562 48.5781V45.0625C4.51562 44.0932 5.30418 43.3047 6.27344 43.3047H13.3047ZM20.4531 18.6953C19.4839 18.6953 18.6953 17.9068 18.6953 16.9375V6.27344C18.6953 5.30418 19.4839 4.51562 20.4531 4.51562H41.5469C42.5161 4.51562 43.3047 5.30418 43.3047 6.27344V16.9375C43.3047 17.9068 42.5161 18.6953 41.5469 18.6953C37.3234 18.6953 24.6614 18.6953 20.4531 18.6953ZM34.5156 43.3047C35.4849 43.3047 36.2734 44.0932 36.2734 45.0625V48.5781C36.2734 49.5474 35.4849 50.3359 34.5156 50.3359H27.4844C26.5151 50.3359 25.7266 49.5474 25.7266 48.5781V45.0625C25.7266 44.0932 26.5151 43.3047 27.4844 43.3047H34.5156ZM29.2422 25.7266V22.2109H32.7578V25.7266H29.2422ZM57.4844 48.5781C57.4844 49.5474 56.6958 50.3359 55.7266 50.3359H48.6953C47.7261 50.3359 46.9375 49.5474 46.9375 48.5781V45.0625C46.9375 44.0932 47.7261 43.3047 48.6953 43.3047H55.7266C56.6958 43.3047 57.4844 44.0932 57.4844 45.0625V48.5781Z" fill="#C19444" stroke="white" stroke-width="0.5"/>
</svg>
