<svg width="21" height="21" viewBox="0 0 21 21" fill="none" xmlns="http://www.w3.org/2000/svg">
<path d="M9.59966 3L8.55859 4.0575L11.2019 6.75L8.55859 9.4425L9.59966 10.5L13.2914 6.75L9.59966 3Z" fill="#C19444"/>
<path d="M19.1969 16.5H11.0751V13.5H15.5052C15.8966 13.4994 16.2719 13.3412 16.5487 13.06C16.8255 12.7788 16.9813 12.3976 16.9819 12V1.5C16.9815 1.1023 16.8258 0.720997 16.5489 0.439778C16.2721 0.15856 15.8967 0.000397108 15.5052 0H5.16839C4.77687 0.000397108 4.4015 0.15856 4.12465 0.439778C3.84781 0.720997 3.6921 1.1023 3.69171 1.5V12C3.6921 12.3977 3.84781 12.779 4.12465 13.0602C4.4015 13.3414 4.77687 13.4996 5.16839 13.5H9.59845V16.5H1.47668C1.08504 16.5 0.709443 16.658 0.432511 16.9393C0.155579 17.2206 0 17.6022 0 18V21H1.47668V18H9.59845V21H11.0751V18H19.1969V21H20.6736V18C20.6736 17.6022 20.518 17.2206 20.2411 16.9393C19.9641 16.658 19.5885 16.5 19.1969 16.5ZM5.16839 1.5H15.5052L15.5067 12H5.16839V1.5Z" fill="#C19444"/>
</svg>
