<svg width="46" height="44" viewBox="0 0 46 44" fill="none" xmlns="http://www.w3.org/2000/svg">
<path d="M20.2499 5.39941C19.8919 5.39941 19.5485 5.54165 19.2953 5.79482C19.0421 6.04799 18.8999 6.39137 18.8999 6.74941C18.8999 7.10746 19.0421 7.45083 19.2953 7.70401C19.5485 7.95718 19.8919 8.09941 20.2499 8.09941H25.6499C26.0079 8.09941 26.3513 7.95718 26.6045 7.70401C26.8577 7.45083 26.9999 7.10746 26.9999 6.74941C26.9999 6.39137 26.8577 6.04799 26.6045 5.79482C26.3513 5.54165 26.0079 5.39941 25.6499 5.39941H20.2499ZM17.5499 29.6994C17.5499 30.4155 17.2654 31.1023 16.7591 31.6086C16.2527 32.115 15.566 32.3994 14.8499 32.3994C14.1338 32.3994 13.4471 32.115 12.9407 31.6086C12.4344 31.1023 12.1499 30.4155 12.1499 29.6994C12.1499 28.9833 12.4344 28.2966 12.9407 27.7902C13.4471 27.2839 14.1338 26.9994 14.8499 26.9994C15.566 26.9994 16.2527 27.2839 16.7591 27.7902C17.2654 28.2966 17.5499 28.9833 17.5499 29.6994ZM31.0499 32.3994C31.766 32.3994 32.4527 32.115 32.9591 31.6086C33.4654 31.1023 33.7499 30.4155 33.7499 29.6994C33.7499 28.9833 33.4654 28.2966 32.9591 27.7902C32.4527 27.2839 31.766 26.9994 31.0499 26.9994C30.3338 26.9994 29.6471 27.2839 29.1407 27.7902C28.6344 28.2966 28.3499 28.9833 28.3499 29.6994C28.3499 30.4155 28.6344 31.1023 29.1407 31.6086C29.6471 32.115 30.3338 32.3994 31.0499 32.3994Z" fill="#C19444"/>
<path d="M4.05 9.45C4.05 6.9437 5.04562 4.54006 6.81784 2.76784C8.59006 0.995622 10.9937 0 13.5 0H32.4C34.9063 0 37.3099 0.995622 39.0822 2.76784C40.8544 4.54006 41.85 6.9437 41.85 9.45V16.2H44.55C44.908 16.2 45.2514 16.3422 45.5046 16.5954C45.7578 16.8486 45.9 17.192 45.9 17.55C45.9 17.908 45.7578 18.2514 45.5046 18.5046C45.2514 18.7578 44.908 18.9 44.55 18.9H41.85V39.15C41.85 40.2241 41.4233 41.2543 40.6638 42.0138C39.9043 42.7733 38.8741 43.2 37.8 43.2H35.1C34.0259 43.2 32.9957 42.7733 32.2362 42.0138C31.4767 41.2543 31.05 40.2241 31.05 39.15V37.8H14.85V39.15C14.85 40.2241 14.4233 41.2543 13.6638 42.0138C12.9043 42.7733 11.8741 43.2 10.8 43.2H8.1C7.02587 43.2 5.99574 42.7733 5.23622 42.0138C4.4767 41.2543 4.05 40.2241 4.05 39.15V18.9H1.35C0.991958 18.9 0.64858 18.7578 0.395406 18.5046C0.142232 18.2514 0 17.908 0 17.55C0 17.192 0.142232 16.8486 0.395406 16.5954C0.64858 16.3422 0.991958 16.2 1.35 16.2H4.05V9.45ZM39.15 9.45C39.15 7.65979 38.4388 5.9429 37.173 4.67703C35.9071 3.41116 34.1902 2.7 32.4 2.7H13.5C11.7098 2.7 9.9929 3.41116 8.72703 4.67703C7.46116 5.9429 6.75 7.65979 6.75 9.45V21.6H39.15V9.45Z" fill="#C19444"/>
<path d="M33.75 37.7998V39.1498C33.75 39.5078 33.8922 39.8512 34.1454 40.1044C34.3986 40.3576 34.742 40.4998 35.1 40.4998H37.8C38.158 40.4998 38.5014 40.3576 38.7546 40.1044C39.0078 39.8512 39.15 39.5078 39.15 39.1498V37.7998H33.75Z" fill="#C19444"/>
<path d="M6.75 37.7998V39.1498C6.75 39.5078 6.89223 39.8512 7.14541 40.1044C7.39858 40.3576 7.74196 40.4998 8.1 40.4998H10.8C11.158 40.4998 11.5014 40.3576 11.7546 40.1044C12.0078 39.8512 12.15 39.5078 12.15 39.1498V37.7998H6.75ZM6.75 35.0998H39.15V24.2998H6.75V35.0998Z" fill="#C19444"/>
</svg>
