<svg width="17" height="13" viewBox="0 0 17 13" fill="none" xmlns="http://www.w3.org/2000/svg">
<path d="M14.8467 0H2.15333C0.963333 0 0 0.963333 0 2.15333V10.3133C0 11.5033 0.963333 12.4667 2.15333 12.4667H14.8467C16.0367 12.4667 17 11.5033 17 10.3133V2.15333C17 0.963333 16.0367 0 14.8467 0ZM15.8667 10.3133C15.8667 10.8743 15.4077 11.3333 14.8467 11.3333H2.15333C1.59233 11.3333 1.13333 10.8743 1.13333 10.3133V2.15333C1.13333 1.59233 1.59233 1.13333 2.15333 1.13333H14.8467C15.4077 1.13333 15.8667 1.59233 15.8667 2.15333V10.3133Z" fill="#C19444"/>
<path d="M5.09896 9.0625H2.83229C2.51938 9.0625 2.26562 9.31625 2.26562 9.62917C2.26562 9.94208 2.51938 10.1958 2.83229 10.1958H5.09896C5.41187 10.1958 5.66563 9.94208 5.66563 9.62917C5.66563 9.31625 5.41187 9.0625 5.09896 9.0625Z" fill="#C19444"/>
<path d="M14.1656 2.83594H2.83229C2.51938 2.83594 2.26562 3.08969 2.26562 3.4026C2.26562 3.71552 2.51938 3.96927 2.83229 3.96927H14.1656C14.4785 3.96927 14.7323 3.71552 14.7323 3.4026C14.7323 3.08969 14.4785 2.83594 14.1656 2.83594Z" fill="#C19444"/>
</svg>
