<svg width="43" height="35" viewBox="0 0 43 35" fill="none" xmlns="http://www.w3.org/2000/svg">
<path d="M33.977 26.2533H17.5197C15.5682 26.2533 13.839 24.9459 13.3174 23.0749L7.75347 3.65446C7.43843 2.53082 6.40405 1.75022 5.23315 1.75022H0.875109C0.392049 1.75022 0 1.35817 0 0.875109C0 0.392049 0.392049 0 0.875109 0H5.23315C7.18465 0 8.91386 1.30741 9.43543 3.1784L10.5328 7.00087H39.3782C40.2165 7.00087 40.9849 7.38592 41.4837 8.05801C41.9842 8.73009 42.133 9.5772 41.8915 10.3788L38.1268 23.2429C37.5212 25.0561 35.8567 26.2533 33.977 26.2533ZM11.0334 8.75109L15.0011 22.5988C15.3144 23.7225 16.3488 24.5031 17.5197 24.5031H33.977C35.0866 24.5031 36.1053 23.7697 36.4553 22.7213L40.2165 9.87823C40.297 9.61045 40.2463 9.32867 40.08 9.10464C39.9137 8.87886 39.6582 8.75109 39.3782 8.75109H11.0334Z" fill="#C19444"/>
<path d="M19.2524 34.9999C17.3219 34.9999 15.752 33.43 15.752 31.4995C15.752 29.569 17.3219 27.999 19.2524 27.999C21.1829 27.999 22.7528 29.569 22.7528 31.4995C22.7528 33.43 21.1829 34.9999 19.2524 34.9999ZM19.2524 29.7492C18.2863 29.7492 17.5022 30.5351 17.5022 31.4995C17.5022 32.4638 18.2863 33.2497 19.2524 33.2497C20.2185 33.2497 21.0026 32.4638 21.0026 31.4995C21.0026 30.5351 20.2185 29.7492 19.2524 29.7492Z" fill="#C19444"/>
<path d="M31.5046 34.9999C29.5741 34.9999 28.0042 33.43 28.0042 31.4995C28.0042 29.569 29.5741 27.999 31.5046 27.999C33.4351 27.999 35.005 29.569 35.005 31.4995C35.005 33.43 33.4351 34.9999 31.5046 34.9999ZM31.5046 29.7492C30.5385 29.7492 29.7544 30.5351 29.7544 31.4995C29.7544 32.4638 30.5385 33.2497 31.5046 33.2497C32.4707 33.2497 33.2548 32.4638 33.2548 31.4995C33.2548 30.5351 32.4707 29.7492 31.5046 29.7492Z" fill="#C19444"/>
</svg>
