<svg width="51" height="51" viewBox="0 0 51 51" fill="none" xmlns="http://www.w3.org/2000/svg">
<path d="M16.1144 1.12695H15.7857C11.777 1.17459 8.17829 2.09139 5.57739 3.52681C2.88802 5.01105 1.37012 6.98118 1.37012 9.04028C1.37012 11.0994 2.8876 13.0696 5.57668 14.5538C8.2482 16.0283 11.9729 16.9556 16.1144 16.9556C20.2549 16.9556 23.9796 16.0283 26.6514 14.5538C29.3408 13.0695 30.8587 11.0994 30.8587 9.04028C30.8587 6.98117 29.3412 5.01154 26.6522 3.52781C23.9807 2.05376 20.256 1.12695 16.1144 1.12695ZM5.09488 17.9287C3.49828 17.0473 2.19913 15.9503 1.37012 14.696V14.8937C1.37012 16.9528 2.88755 18.9225 5.57662 20.4062C8.24814 21.8802 11.9728 22.807 16.1144 22.807C18.3129 22.807 20.3755 22.5204 22.2545 22.0499C23.8331 21.0449 25.7057 20.253 27.7876 19.6789C29.7585 18.2964 30.8587 16.6294 30.8587 14.8937V14.7173C30.0255 15.9747 28.7177 17.0725 27.1105 17.9526C24.2669 19.5099 20.3798 20.455 16.1144 20.455C11.8367 20.455 7.94023 19.4994 5.09488 17.9287ZM5.09345 23.7821C3.49766 22.9013 2.19896 21.8052 1.37012 20.5518V20.7471C1.37012 22.8063 2.88755 24.7759 5.57662 26.2596C8.24814 27.7337 11.9728 28.6605 16.1144 28.6605C16.4688 28.6605 16.8131 28.6431 17.1682 28.6227C17.3668 27.7803 17.6858 26.9721 18.1144 26.2228C17.4624 26.2755 16.7956 26.3084 16.1144 26.3084C11.8367 26.3084 7.93928 25.3528 5.09345 23.7821ZM5.09488 29.6355C3.49828 28.7541 2.19913 27.6572 1.37012 26.4029V26.6006C1.37012 28.6597 2.88755 30.6293 5.57662 32.113C8.24814 33.5871 11.9728 34.5139 16.1144 34.5139C16.3988 34.5139 16.6725 34.4991 16.9568 34.4824V33.0042C16.9568 32.6754 17.0232 32.385 17.1005 32.1282C16.7787 32.1464 16.445 32.1618 16.1144 32.1618C11.8367 32.1618 7.94023 31.2063 5.09488 29.6355ZM5.09488 35.4889C3.49828 34.6076 2.19913 33.5106 1.37012 32.2563V32.454C1.37012 34.5131 2.88755 36.4827 5.57662 37.9665C8.24814 39.4405 11.9728 40.3673 16.1144 40.3673C16.3988 40.3673 16.6725 40.3525 16.9568 40.3359V38.8577C16.9568 38.5294 17.0229 38.2384 17.1003 37.9817C16.7786 37.9998 16.4449 38.0153 16.1144 38.0153C11.8367 38.0153 7.94023 37.0597 5.09488 35.4889ZM50.3701 42.2097V42.0323C49.537 43.2901 48.2292 44.3881 46.622 45.2684C43.7784 46.8259 39.8912 47.771 35.6258 47.771C31.3482 47.771 27.4517 46.8154 24.6063 45.2447C23.0097 44.3633 21.7106 43.2663 20.8816 42.012V42.2097C20.8816 44.2689 22.3986 46.239 25.0874 47.7232C27.7587 49.1977 31.4833 50.125 35.6258 50.125C39.7684 50.125 43.493 49.1977 46.1643 47.7232C48.853 46.239 50.3701 44.2689 50.3701 42.2097ZM50.3701 36.1789C49.537 37.4367 48.2292 38.5346 46.622 39.415C43.7784 40.9725 39.8912 41.9176 35.6258 41.9176C31.3482 41.9176 27.4517 40.962 24.6063 39.3912C23.0097 38.5098 21.7106 37.4129 20.8816 36.1586V36.3563C20.8816 38.4155 22.3986 40.3856 25.0874 41.8698C27.7587 43.3443 31.4833 44.2716 35.6258 44.2716C39.7684 44.2716 43.493 43.3443 46.1643 41.8698C48.853 40.3856 50.3701 38.4155 50.3701 36.3563V36.1789ZM50.3701 30.5029C50.3701 28.4437 48.8526 26.4736 46.1636 24.9894C43.492 23.5149 39.7674 22.5876 35.6258 22.5876C31.4853 22.5876 27.7606 23.5148 25.0888 24.9894C22.3995 26.4736 20.8816 28.4438 20.8816 30.5029C20.8816 32.562 22.399 34.5321 25.0881 36.0163C27.7596 37.4909 31.4843 38.4181 35.6258 38.4181C39.7664 38.4181 43.4911 37.4909 46.1628 36.0163C48.8522 34.5321 50.3701 32.562 50.3701 30.5029Z" fill="#C19444" stroke="#C19444"/>
</svg>
