<svg width="14" height="14" viewBox="0 0 14 14" fill="none" xmlns="http://www.w3.org/2000/svg">
<g clip-path="url(#clip0_1_6946)">
<path d="M12.4916 0H1.5085C0.676651 0 0 0.676651 0 1.5085V9.55408C0 10.3858 0.676651 11.0625 1.5085 11.0625H4.98927L6.14198 13.368C6.34279 13.7696 6.65553 14 7 14C7.34447 14 7.65721 13.7696 7.85802 13.368L9.01083 11.0625H12.4916C13.3233 11.0625 14 10.3858 14 9.55408V1.5085C14 0.676651 13.3233 0 12.4916 0V0ZM13.1797 9.55408C13.1797 9.93347 12.871 10.2422 12.4916 10.2422H8.75737C8.60196 10.2422 8.46001 10.33 8.39047 10.4689L7.12433 13.0012C7.07327 13.1032 7.02531 13.1534 7 13.1726C6.97469 13.1534 6.92673 13.1032 6.87567 13.0012L5.60953 10.4689C5.5401 10.33 5.39804 10.2422 5.24274 10.2422H1.5085C1.129 10.2422 0.820312 9.93347 0.820312 9.55408V1.5085C0.820312 1.129 1.129 0.820312 1.5085 0.820312H12.4916C12.871 0.820312 13.1797 1.129 13.1797 1.5085V9.55408Z" fill="#C19444"/>
<path d="M7 7.16699C6.28938 7.16699 5.71121 7.74516 5.71121 8.45578C5.71121 9.1664 6.28938 9.74457 7 9.74457C7.71062 9.74457 8.28889 9.1665 8.28889 8.45578C8.28889 7.74516 7.71062 7.16699 7 7.16699ZM7 8.92426C6.74173 8.92426 6.53152 8.71416 6.53152 8.45578C6.53152 8.1974 6.74173 7.9873 7 7.9873C7.25838 7.9873 7.46858 8.1974 7.46858 8.45578C7.46858 8.71416 7.25838 8.92426 7 8.92426Z" fill="#C19444"/>
<path d="M7 1.75684C6.28938 1.75684 5.71121 2.33501 5.71121 3.04562V4.94078C5.71121 5.6514 6.28938 6.22957 7 6.22957C7.71062 6.22957 8.28889 5.6514 8.28889 4.94078V3.04562C8.28889 2.33501 7.71062 1.75684 7 1.75684ZM7.46858 4.94067C7.46858 5.19905 7.25838 5.40926 7 5.40926C6.74173 5.40926 6.53152 5.19905 6.53152 4.94067V3.04562C6.53152 2.78735 6.74173 2.57715 7 2.57715C7.25838 2.57715 7.46858 2.78735 7.46858 3.04562V4.94067Z" fill="#C19444"/>
</g>
<defs>
<clipPath id="clip0_1_6946">
<rect width="14" height="14" fill="white"/>
</clipPath>
</defs>
</svg>
