<svg width="45" height="45" viewBox="0 0 45 45" fill="none" xmlns="http://www.w3.org/2000/svg">
<path d="M39.6196 10.7609H34.9239L32.3315 6.84783C31.3533 5.38043 29.6413 4.5 27.8804 4.5H17.1196C15.3587 4.5 13.6467 5.38043 12.6685 6.84783L10.0761 10.7609H5.38043C2.39674 10.7609 0 13.1576 0 16.1413V35.1196C0 38.1033 2.39674 40.5 5.38043 40.5H39.6196C42.6033 40.5 45 38.1033 45 35.1196V16.1413C45 13.1576 42.6033 10.7609 39.6196 10.7609ZM22.5 36.0978C15.7989 36.0978 10.3696 30.6685 10.3696 23.9674C10.3696 17.2663 15.7989 11.8859 22.5 11.8859C29.2011 11.8859 34.6304 17.3152 34.6304 24.0163C34.6304 30.6685 29.2011 36.0978 22.5 36.0978ZM38.9348 18.3424C38.8859 18.3424 38.837 18.3424 38.7391 18.3424H36.7826C35.9022 18.2935 35.2174 17.5598 35.2663 16.6793C35.3152 15.8478 35.9511 15.212 36.7826 15.163H38.7391C39.6196 15.1141 40.3533 15.7989 40.4022 16.6793C40.4511 17.5598 39.8152 18.2935 38.9348 18.3424Z" fill="#9D9D9D"/>
<path d="M22.5 17.2656C18.7826 17.2656 15.75 20.2982 15.75 24.0156C15.75 27.733 18.7826 30.7167 22.5 30.7167C26.2174 30.7167 29.25 27.6841 29.25 23.9667C29.25 20.2493 26.2174 17.2656 22.5 17.2656Z" fill="#9D9D9D"/>
</svg>
