<svg width="22" height="22" viewBox="0 0 22 22" fill="none" xmlns="http://www.w3.org/2000/svg">
<path d="M19.2561 1.3704C19.6165 1.3704 19.9621 1.51478 20.2169 1.77178C20.4717 2.02878 20.6149 2.37734 20.6149 2.74079V13.704C20.6149 14.0674 20.4717 14.416 20.2169 14.673C19.9621 14.93 19.6165 15.0744 19.2561 15.0744H15.8592C15.4373 15.0744 15.0212 15.1734 14.6439 15.3637C14.2665 15.554 13.9383 15.8303 13.6852 16.1707L11.1035 19.6419L8.52187 16.1707C8.26874 15.8303 7.94051 15.554 7.56316 15.3637C7.18582 15.1734 6.76973 15.0744 6.34785 15.0744H2.95093C2.59056 15.0744 2.24496 14.93 1.99014 14.673C1.73532 14.416 1.59216 14.0674 1.59216 13.704V2.74079C1.59216 2.37734 1.73532 2.02878 1.99014 1.77178C2.24496 1.51478 2.59056 1.3704 2.95093 1.3704H19.2561ZM2.95093 0C2.2302 0 1.53898 0.288761 1.02935 0.80276C0.519709 1.31676 0.233398 2.01389 0.233398 2.74079L0.233398 13.704C0.233398 14.4309 0.519709 15.128 1.02935 15.642C1.53898 16.156 2.2302 16.4448 2.95093 16.4448H6.34785C6.55879 16.4448 6.76683 16.4943 6.9555 16.5894C7.14418 16.6846 7.30829 16.8227 7.43486 16.9929L10.0165 20.4641C10.1431 20.6343 10.3072 20.7725 10.4959 20.8676C10.6845 20.9628 10.8926 21.0123 11.1035 21.0123C11.3145 21.0123 11.5225 20.9628 11.7112 20.8676C11.8999 20.7725 12.064 20.6343 12.1905 20.4641L14.7722 16.9929C14.8988 16.8227 15.0629 16.6846 15.2516 16.5894C15.4402 16.4943 15.6483 16.4448 15.8592 16.4448H19.2561C19.9769 16.4448 20.6681 16.156 21.1777 15.642C21.6873 15.128 21.9737 14.4309 21.9737 13.704V2.74079C21.9737 2.01389 21.6873 1.31676 21.1777 0.80276C20.6681 0.288761 19.9769 0 19.2561 0L2.95093 0Z" fill="#C19444"/>
<path d="M7.0271 8.22196C7.0271 8.58541 6.88395 8.93398 6.62913 9.19098C6.37431 9.44797 6.0287 9.59236 5.66834 9.59236C5.30797 9.59236 4.96236 9.44797 4.70754 9.19098C4.45273 8.93398 4.30957 8.58541 4.30957 8.22196C4.30957 7.85851 4.45273 7.50994 4.70754 7.25294C4.96236 6.99594 5.30797 6.85156 5.66834 6.85156C6.0287 6.85156 6.37431 6.99594 6.62913 7.25294C6.88395 7.50994 7.0271 7.85851 7.0271 8.22196ZM12.4622 8.22196C12.4622 8.58541 12.319 8.93398 12.0642 9.19098C11.8094 9.44797 11.4638 9.59236 11.1034 9.59236C10.743 9.59236 10.3974 9.44797 10.1426 9.19098C9.88779 8.93398 9.74464 8.58541 9.74464 8.22196C9.74464 7.85851 9.88779 7.50994 10.1426 7.25294C10.3974 6.99594 10.743 6.85156 11.1034 6.85156C11.4638 6.85156 11.8094 6.99594 12.0642 7.25294C12.319 7.50994 12.4622 7.85851 12.4622 8.22196ZM17.8972 8.22196C17.8972 8.58541 17.7541 8.93398 17.4993 9.19098C17.2444 9.44797 16.8988 9.59236 16.5385 9.59236C16.1781 9.59236 15.8325 9.44797 15.5777 9.19098C15.3229 8.93398 15.1797 8.58541 15.1797 8.22196C15.1797 7.85851 15.3229 7.50994 15.5777 7.25294C15.8325 6.99594 16.1781 6.85156 16.5385 6.85156C16.8988 6.85156 17.2444 6.99594 17.4993 7.25294C17.7541 7.50994 17.8972 7.85851 17.8972 8.22196Z" fill="#C19444"/>
</svg>
