<svg width="14" height="14" viewBox="0 0 14 14" fill="none" xmlns="http://www.w3.org/2000/svg">
<path d="M7 0C5.20863 0 3.41692 0.683072 2.05016 2.04989C-0.683387 4.7835 -0.683387 9.21619 2.05016 11.9498C4.7837 14.6834 9.21631 14.6834 11.9498 11.9498C14.6834 9.21618 14.6834 4.78349 11.9498 2.04989C10.5831 0.683072 8.79137 0 7 0ZM7 1.82856C8.32344 1.82856 9.64727 2.33289 10.6571 3.34269C12.6766 5.36229 12.6766 8.63735 10.6571 10.657C8.63751 12.6766 5.36253 12.6766 3.34294 10.657C1.32337 8.63736 1.32339 5.36229 3.34294 3.34269C4.35273 2.33289 5.67656 1.82856 7 1.82856ZM6.28397 3.00347V6.27353H4.47167V8.06365H8.07405V3.00347H6.28397Z" fill="#C19444"/>
</svg>
