<svg width="30" height="30" viewBox="0 0 30 30" fill="none" xmlns="http://www.w3.org/2000/svg">
<g clip-path="url(#clip0_1_6238)">
<path d="M0.408939 15.0384C0.0864503 15.1572 -0.0797743 15.5147 0.0377021 15.8384L0.430208 16.9183L3.41879 13.9297L0.408939 15.0384Z" fill="#C19444"/>
<path d="M3.23828 24.6406L5.03822 29.5905C5.09447 29.7467 5.21194 29.8742 5.36194 29.9429C5.44566 29.9817 5.53566 30.0017 5.62566 30.0017C5.69942 30.0017 5.7719 29.9892 5.84192 29.963L7.82812 29.2305L3.23828 24.6406Z" fill="#C19444"/>
<path d="M29.9613 20.4135L27.9014 14.75L22.9578 19.6936L25.4077 18.7911C25.729 18.6686 26.0914 18.8361 26.2102 19.1611C26.3302 19.4848 26.164 19.8448 25.8402 19.9635L22.7278 21.111C22.6566 21.1373 22.5841 21.1497 22.5116 21.1497C22.2578 21.1497 22.0178 20.9935 21.9253 20.741C21.9241 20.7373 21.9253 20.7335 21.9241 20.7298L16.6855 25.9683L29.5901 21.2135C29.9138 21.0948 30.08 20.7373 29.9613 20.4135Z" fill="#C19444"/>
<path d="M29.8156 10.1825L19.8159 0.182806C19.5721 -0.0609354 19.1759 -0.0609354 18.9321 0.182806L0.182806 18.9321C-0.0609354 19.1759 -0.0609354 19.5721 0.182806 19.8159L10.1825 29.8156C10.3037 29.9381 10.4637 29.9993 10.6237 29.9993C10.7837 29.9993 10.9437 29.9381 11.0662 29.8168L29.8156 11.0674C30.0593 10.8225 30.0593 10.4274 29.8156 10.1825ZM7.31634 17.3172L4.81641 19.8171C4.6939 19.9383 4.53394 19.9996 4.37393 19.9996C4.21391 19.9996 4.05396 19.9384 3.93144 19.8171C3.6877 19.5734 3.6877 19.1771 3.93144 18.9334L6.43138 16.4334C6.67512 16.1897 7.07137 16.1897 7.31511 16.4334C7.55886 16.6772 7.56009 17.0722 7.31634 17.3172ZM18.1097 18.1109C17.6672 18.5534 17.066 18.7659 16.3972 18.7659C15.2923 18.7659 14.0011 18.1872 12.9211 17.106C12.1311 16.316 11.5761 15.371 11.3599 14.4461C11.1199 13.4149 11.3175 12.5174 11.9161 11.9174C12.5149 11.3175 13.4123 11.1199 14.4448 11.3612C15.3698 11.5775 16.3147 12.1312 17.1047 12.9224C18.8409 14.6573 19.2834 16.9372 18.1097 18.1109ZM26.0657 11.0674L23.5658 13.5674C23.4432 13.6886 23.2833 13.7499 23.1233 13.7499C22.9633 13.7499 22.8033 13.6887 22.6808 13.5674C22.437 13.3236 22.437 12.9274 22.6808 12.6836L25.1807 10.1837C25.4245 9.93996 25.8207 9.93996 26.0645 10.1837C26.3082 10.4274 26.3094 10.8225 26.0657 11.0674Z" fill="#C19444"/>
</g>
<defs>
<clipPath id="clip0_1_6238">
<rect width="30" height="30" fill="white"/>
</clipPath>
</defs>
</svg>
