<svg width="16" height="16" viewBox="0 0 16 16" fill="none" xmlns="http://www.w3.org/2000/svg">
<path d="M12.667 4.66406C12.4902 4.66406 12.3206 4.7343 12.1956 4.85932C12.0706 4.98435 12.0003 5.15392 12.0003 5.33073V12.7914C11.9812 13.1285 11.8296 13.4444 11.5787 13.6703C11.3277 13.8962 10.9976 14.0138 10.6603 13.9974H5.34033C5.00306 14.0138 4.67298 13.8962 4.422 13.6703C4.17101 13.4444 4.01945 13.1285 4.00033 12.7914V5.33073C4.00033 5.15392 3.93009 4.98435 3.80506 4.85932C3.68004 4.7343 3.51047 4.66406 3.33366 4.66406C3.15685 4.66406 2.98728 4.7343 2.86225 4.85932C2.73723 4.98435 2.66699 5.15392 2.66699 5.33073V12.7914C2.68602 13.4822 2.97805 14.1373 3.47911 14.6133C3.98018 15.0892 4.64944 15.3472 5.34033 15.3307H10.6603C11.3512 15.3472 12.0205 15.0892 12.5215 14.6133C13.0226 14.1373 13.3146 13.4822 13.3337 12.7914V5.33073C13.3337 5.15392 13.2634 4.98435 13.1384 4.85932C13.0134 4.7343 12.8438 4.66406 12.667 4.66406Z" fill="#C19444"/>
<path d="M13.3333 2.66406H10.6667V1.33073C10.6667 1.15392 10.5964 0.984349 10.4714 0.859325C10.3464 0.7343 10.1768 0.664063 10 0.664062H6C5.82319 0.664063 5.65362 0.7343 5.5286 0.859325C5.40357 0.984349 5.33333 1.15392 5.33333 1.33073V2.66406H2.66667C2.48986 2.66406 2.32029 2.7343 2.19526 2.85932C2.07024 2.98435 2 3.15392 2 3.33073C2 3.50754 2.07024 3.67711 2.19526 3.80213C2.32029 3.92716 2.48986 3.9974 2.66667 3.9974H13.3333C13.5101 3.9974 13.6797 3.92716 13.8047 3.80213C13.9298 3.67711 14 3.50754 14 3.33073C14 3.15392 13.9298 2.98435 13.8047 2.85932C13.6797 2.7343 13.5101 2.66406 13.3333 2.66406ZM6.66667 2.66406V1.9974H9.33333V2.66406H6.66667Z" fill="#C19444"/>
<path d="M7.33333 11.3333V6.66667C7.33333 6.48986 7.2631 6.32029 7.13807 6.19526C7.01305 6.07024 6.84348 6 6.66667 6C6.48986 6 6.32029 6.07024 6.19526 6.19526C6.07024 6.32029 6 6.48986 6 6.66667V11.3333C6 11.5101 6.07024 11.6797 6.19526 11.8047C6.32029 11.9298 6.48986 12 6.66667 12C6.84348 12 7.01305 11.9298 7.13807 11.8047C7.2631 11.6797 7.33333 11.5101 7.33333 11.3333Z" fill="#C19444"/>
<path d="M10.0003 11.3333V6.66667C10.0003 6.48986 9.93009 6.32029 9.80506 6.19526C9.68004 6.07024 9.51047 6 9.33366 6C9.15685 6 8.98728 6.07024 8.86225 6.19526C8.73723 6.32029 8.66699 6.48986 8.66699 6.66667V11.3333C8.66699 11.5101 8.73723 11.6797 8.86225 11.8047C8.98728 11.9298 9.15685 12 9.33366 12C9.51047 12 9.68004 11.9298 9.80506 11.8047C9.93009 11.6797 10.0003 11.5101 10.0003 11.3333Z" fill="#C19444"/>
</svg>
