<svg width="60" height="60" viewBox="0 0 60 60" fill="none" xmlns="http://www.w3.org/2000/svg">
<path fill-rule="evenodd" clip-rule="evenodd" d="M28 29.991H32C32.5523 29.991 33 29.5433 33 28.9911C33 28.4388 32.5523 27.9911 32 27.9911H28C27.4477 27.9911 27 28.4388 27 28.9911C26.9999 29.5433 27.4476 29.991 28 29.991Z" fill="#C19444"/>
<path fill-rule="evenodd" clip-rule="evenodd" d="M31 30.991H29C28.4477 30.991 28 31.4387 28 31.9909C28 32.5432 28.4477 32.9909 29 32.9909H31C31.5522 32.9909 31.9999 32.5432 31.9999 31.9909C31.9999 31.4387 31.5522 30.991 31 30.991Z" fill="#C19444"/>
<path fill-rule="evenodd" clip-rule="evenodd" d="M26.9999 19.991C26.9999 19.4387 26.5522 18.991 26 18.991H24C23.4477 18.991 23 19.4387 23 19.991C23 20.5432 23.4477 20.991 24 20.991C24 21.5432 24.4477 21.9909 24.9999 21.9909C25.5522 21.9909 25.9999 21.5432 25.9999 20.991C26.5522 20.991 26.9999 20.5433 26.9999 19.991Z" fill="#C19444"/>
<path fill-rule="evenodd" clip-rule="evenodd" d="M33.9999 20.991C33.9999 21.5432 34.4477 21.9909 34.9999 21.9909C35.5521 21.9909 35.9999 21.5432 35.9999 20.991C36.5521 20.991 36.9998 20.5432 36.9998 19.991C36.9998 19.4387 36.5521 18.991 35.9999 18.991H33.9998C33.4476 18.991 32.9999 19.4387 32.9999 19.991C32.9999 20.5433 33.4476 20.991 33.9999 20.991Z" fill="#C19444"/>
<path fill-rule="evenodd" clip-rule="evenodd" d="M29 25.991H31C31.5522 25.991 31.9999 25.5432 31.9999 24.991C31.9999 24.4387 31.5522 23.991 31 23.991H29C28.4477 23.991 28 24.4387 28 24.991C28 25.5432 28.4477 25.991 29 25.991Z" fill="#C19444"/>
<path d="M7.29305 46.284C4.71608 48.859 3 51.4999 3 55.991V58C3 59.1046 3.89544 60 5.00002 60H55C56.1046 60 57 59.1046 57 58V55.991C57 51.496 55.2841 48.859 52.707 46.284C49.893 43.471 40.962 40.7939 38.752 40.1639C37.8859 37.9085 37.5771 35.4773 37.852 33.0769L40.2951 30.9379C41.379 29.9882 42.0004 28.617 42 27.1759V25.891C44.3264 25.4193 45.9985 23.3741 45.9985 21.0005C45.9985 18.6269 44.3264 16.5817 42 16.11L42.855 12.689L46.476 10.878C48.0035 10.1149 48.9766 8.56237 48.9977 6.85506C49.0187 5.14774 48.0841 3.57162 46.576 2.77106C44.126 1.50703 39.261 0 30 0C20.7389 0 15.874 1.50703 13.425 2.77096C11.9162 3.57103 10.9811 5.14725 11.0022 6.85496C11.0232 8.56267 11.9969 10.1154 13.525 10.878L17.146 12.689L18 16.11C15.6736 16.5817 14.0016 18.6269 14.0016 21.0005C14.0016 23.3741 15.6736 25.4193 18 25.891V27.1759C18.0004 28.6175 18.623 29.9888 19.708 30.9379L22.151 33.0769C22.4259 35.4772 22.1172 37.9085 21.2511 40.1639C19.038 40.7939 10.107 43.471 7.29305 46.284ZM14.051 58H5.00002V55.991C5.00002 52.171 6.41798 49.986 8.70707 47.698C10.0391 46.366 13.3591 44.931 16.5071 43.798L12.9751 49.217C12.6119 49.7731 12.5486 50.4732 12.8059 51.0855C13.0633 51.6977 13.6078 52.1423 14.2591 52.272L15.3991 52.498C14.6231 54.2362 14.1665 56.0999 14.051 58ZM19.085 43.4999L21.223 45.6379C19.2606 46.9361 17.6061 48.6482 16.3761 50.6539L14.6471 50.3069L19.085 43.4999ZM27 55C26.0247 55.7358 25.3521 56.8028 25.109 58H20.055C20.4377 54.0146 23.1759 50.6488 27 49.463V55ZM34.891 58C34.6484 56.8025 33.9757 55.7354 33.0001 55L32.988 49.45C36.8176 50.6384 39.56 54.0088 39.9451 58H34.891ZM41.958 58C41.567 53.1313 38.2514 48.9909 33.586 47.545C32.984 47.3547 32.3272 47.4664 31.8219 47.8449C31.3078 48.2243 31.0031 48.824 30.9999 49.4629V55.5399C30.9995 55.8975 31.1903 56.2281 31.4999 56.4069C32.1104 56.7659 32.5731 57.3307 32.8049 57.9999H27.1999C27.4304 57.3314 27.8912 56.7668 28.4998 56.4069C28.8096 56.2281 29.0002 55.8975 28.9998 55.5399V49.4629C28.9979 48.8226 28.693 48.221 28.1778 47.8409C27.6731 47.4621 27.0164 47.3504 26.4148 47.5409C21.7476 48.987 18.4314 53.1294 18.0418 57.9999H16.0508C16.5627 50.6728 22.6559 44.9904 30.0008 44.9904C37.3457 44.9904 43.4388 50.6728 43.9507 57.9999H41.958V58ZM23.293 40.41C23.9166 38.643 24.2388 36.7837 24.246 34.91L25.2111 35.754C26.1217 36.5507 27.2902 36.9901 28.5 36.9909H31.5C32.7109 36.9908 33.8806 36.5513 34.792 35.754L35.757 34.91C35.7643 36.7837 36.0865 38.643 36.71 40.41L30.0001 42.9319L23.293 40.41ZM51.293 47.698C53.582 49.986 54.9999 52.171 54.9999 55.991V58H45.9489C45.8344 56.1008 45.3791 54.2378 44.6048 52.5L45.7448 52.274C46.3967 52.1443 46.9415 51.6993 47.1987 51.0865C47.4559 50.4736 47.3919 49.773 47.0279 49.217L43.4999 43.8C46.6409 44.931 49.9608 46.3661 51.2929 47.7V47.698H51.293ZM45.354 50.31L43.6241 50.654C42.3942 48.6478 40.7397 46.9352 38.7771 45.637L40.9151 43.4999L45.354 50.31ZM38.047 42.042C38.384 42.136 38.78 42.252 39.206 42.38L36.967 44.619C36.0353 44.1657 35.0613 43.8048 34.0591 43.542L38.047 42.042ZM17.71 10.737L14.41 9.08903C13.5423 8.65696 12.9956 7.76929 13 6.80004C12.9884 5.85677 13.5069 4.98672 14.342 4.54806C16.6 3.38609 21.141 2.00002 30 2.00002C38.859 2.00002 43.405 3.38599 45.6589 4.54904C46.4931 4.988 47.0111 5.85746 46.9999 6.80004C47.0031 7.77008 46.4543 8.65755 45.5849 9.08804L42.2849 10.736C41.1449 9.61499 38.1 7.99999 30 7.99999C21.9 7.99999 18.855 9.61499 17.71 10.737ZM40.926 12.175L40.1701 15.2C36.8209 15.8481 33.4094 16.1164 30.0001 16C26.5907 16.1161 23.1793 15.8477 19.8301 15.2L19.0791 12.2C19.6421 11.6251 21.9512 10 30.0001 10C38.159 10 40.421 11.67 40.926 12.175ZM21.026 29.4329C20.3745 28.8638 20.0005 28.041 19.9999 27.1759V24.991C19.9999 24.4387 19.5522 23.991 19 23.991C17.5391 24.0032 16.2845 22.9554 16.0363 21.5158C15.7881 20.0762 16.6194 18.6687 17.9999 18.191V19.9911C17.9999 20.5433 18.4476 20.991 18.9999 20.991C19.5521 20.991 19.9998 20.5433 19.9998 19.9911V17.2831C23.303 17.838 26.6514 18.0781 29.9999 18.0001C33.3484 18.0781 36.6968 17.838 39.9999 17.2831V19.9911C39.9999 20.5433 40.4476 20.991 40.9998 20.991C41.5521 20.991 41.9998 20.5433 41.9998 19.9911V18.191C43.3804 18.6687 44.2116 20.0762 43.9634 21.5158C43.7152 22.9554 42.4606 24.0033 40.9997 23.991C40.4475 23.991 39.9998 24.4387 39.9998 24.991V27.1759C39.9997 28.0407 39.6265 28.8634 38.9758 29.4329L33.4758 34.2479C32.9289 34.7268 32.2268 34.9908 31.4998 34.9909H28.4998C27.7729 34.9908 27.0707 34.7268 26.5238 34.2479L21.026 29.4329ZM25.943 43.542C24.9408 43.8048 23.9667 44.1656 23.0351 44.619L20.7941 42.38C21.2201 42.2519 21.6161 42.136 21.9531 42.042L25.943 43.542Z" fill="#C19444"/>
</svg>
