<svg width="90" height="90" viewBox="0 0 90 90" fill="none" xmlns="http://www.w3.org/2000/svg">
<g clip-path="url(#clip0_1_1392)">
<path d="M79.3413 53.948C79.9314 56.2951 82.0589 58.0383 84.5865 58.0383C87.5714 58.0383 89.9998 55.612 89.9998 52.6297C89.9998 49.6474 87.5714 47.2211 84.5865 47.2211C82.0589 47.2211 79.9314 48.9641 79.3413 51.3113H70.4011C70.4665 50.7161 70.5008 50.1283 70.5008 49.5507V42.2814C70.5008 33.7891 67.748 26.6387 62.54 21.6031C57.906 17.1224 51.6758 14.6548 44.9974 14.6548C38.3187 14.6548 32.0887 17.1224 27.4547 21.6031C22.2469 26.6388 19.4941 33.7893 19.4941 42.2816V49.5509C19.4941 50.1318 19.5274 50.7195 19.5912 51.3115H10.6585C10.0677 48.9645 7.93828 47.2212 5.40844 47.2212C2.42613 47.2212 0 49.6474 0 52.6297C0 55.612 2.42613 58.0383 5.40844 58.0383C7.93828 58.0383 10.0677 56.2952 10.6585 53.948H20.0711C22.1708 62.2491 29.7512 70.8118 38.4822 74.0465C40.8282 74.9154 42.9144 75.3499 45 75.3499C47.0851 75.3499 49.1697 74.9156 51.5116 74.047C53.3273 73.377 55.1408 72.4548 56.9018 71.3061C57.5116 70.9083 57.6835 70.0914 57.2857 69.4817C56.8877 68.8717 56.0711 68.7 55.4613 69.0977C53.8654 70.1387 52.2294 70.9718 50.5969 71.5742C46.5177 73.0869 43.4825 73.0869 39.3982 71.5742C31.7723 68.7488 24.9231 61.1923 22.8041 53.9482H67.1722C65.9496 58.0733 63.1774 62.4562 59.4355 65.9608C58.9041 66.4586 58.8767 67.2928 59.3745 67.8242C59.6341 68.1014 59.9852 68.2414 60.3371 68.2414C60.66 68.2414 60.9838 68.1234 61.238 67.8852C65.5922 63.8071 68.6872 58.7572 69.9147 53.9482H79.3413V53.948ZM84.5866 49.858C86.1177 49.858 87.3633 51.1014 87.3633 52.6299C87.3633 54.1583 86.1177 55.4018 84.5866 55.4018C83.0584 55.4018 81.8149 54.1583 81.8149 52.6299C81.8149 51.1014 83.0582 49.858 84.5866 49.858ZM5.40844 55.4016C3.8802 55.4016 2.63672 54.1581 2.63672 52.6297C2.63672 51.1013 3.8802 49.8578 5.40844 49.8578C6.93949 49.8578 8.18508 51.1013 8.18508 52.6297C8.18508 54.1581 6.93949 55.4016 5.40844 55.4016ZM22.2467 51.3113C22.1711 50.717 22.1309 50.129 22.1309 49.5507V45.6575C27.9671 45.6547 29.1521 41.9589 30.0173 39.2598C30.7914 36.8452 31.2154 36.0004 32.9326 36.0004H42.1741C42.9022 36.0004 43.4925 35.4102 43.4925 34.6821C43.4925 33.954 42.9022 33.3637 42.1741 33.3637H32.9326C29.1386 33.3637 28.2336 36.1868 27.5064 38.4549C26.689 41.0046 26.0436 43.0187 22.1309 43.021V42.2816C22.1309 25.1118 33.9843 17.2917 44.9975 17.2917C56.0108 17.2917 67.864 25.1118 67.864 42.2816V43.021C63.9524 43.0187 63.3076 41.0053 62.4911 38.4566C61.7643 36.1876 60.8595 33.3637 57.0625 33.3637H48.2917C47.5636 33.3637 46.9733 33.954 46.9733 34.6821C46.9733 35.4102 47.5636 36.0004 48.2917 36.0004H57.0625C58.7821 36.0004 59.2063 36.8456 59.9801 39.261C60.8446 41.9594 62.0286 45.6545 67.864 45.6575V49.5509C67.864 50.1232 67.8213 50.7119 67.7422 51.3115H22.2467V51.3113Z" fill="#C19444"/>
<path d="M1.49358 21.0915C2.22167 21.0915 2.81194 20.5012 2.81194 19.7731V4.30843C2.81194 3.48401 3.48272 2.81323 4.30714 2.81323H19.7713C20.4994 2.81323 21.0897 2.22296 21.0897 1.49487C21.0897 0.766787 20.4994 0.176514 19.7713 0.176514H4.30696C2.02866 0.176514 0.175049 2.03013 0.175049 4.30843V19.7731C0.175225 20.5012 0.765322 21.0915 1.49358 21.0915Z" fill="#C19444"/>
<path d="M70.2238 2.81323H85.6929C86.5145 2.81323 87.183 3.48401 87.183 4.30843V19.7731C87.183 20.5012 87.7732 21.0915 88.5013 21.0915C89.2294 21.0915 89.8197 20.5012 89.8197 19.7731V4.30843C89.8197 2.03013 87.9683 0.176514 85.6929 0.176514H70.2238C69.4957 0.176514 68.9054 0.766787 68.9054 1.49487C68.9054 2.22296 69.4957 2.81323 70.2238 2.81323Z" fill="#C19444"/>
<path d="M19.7713 87.1868H4.30696C3.48255 87.1868 2.81177 86.5183 2.81177 85.6966V70.2269C2.81177 69.4988 2.22149 68.9086 1.49341 68.9086C0.765322 68.9086 0.175049 69.4988 0.175049 70.2269V85.6966C0.175049 87.972 2.02866 89.8235 4.30696 89.8235H19.7711C20.4992 89.8235 21.0895 89.2333 21.0895 88.5052C21.0895 87.7771 20.4994 87.1868 19.7713 87.1868Z" fill="#C19444"/>
<path d="M88.5014 68.9086C87.7733 68.9086 87.1831 69.4988 87.1831 70.2269V85.6966C87.1831 86.5182 86.5146 87.1868 85.693 87.1868H70.2239C69.4958 87.1868 68.9055 87.7771 68.9055 88.5052C68.9055 89.2333 69.4958 89.8235 70.2239 89.8235H85.693C87.9685 89.8235 89.8198 87.9722 89.8198 85.6966V70.2269C89.8198 69.4988 89.2295 68.9086 88.5014 68.9086Z" fill="#C19444"/>
</g>
<defs>
<clipPath id="clip0_1_1392">
<rect width="90" height="90" fill="white"/>
</clipPath>
</defs>
</svg>
