<svg width="15" height="15" viewBox="0 0 15 15" fill="none" xmlns="http://www.w3.org/2000/svg">
<path d="M13.0445 4.59571C13.6603 4.12822 14.0588 3.38859 14.0588 2.55763C14.0588 1.14738 12.9116 0 11.5012 0C10.0909 0 8.94356 1.14738 8.94356 2.55763C8.94356 3.38802 9.34147 4.12719 9.95658 4.59468C9.48555 4.82745 8.764 5.32126 8.32397 6.27055C8.06774 6.17304 7.79022 6.11914 7.50023 6.11914C7.21024 6.11914 6.93272 6.17304 6.6766 6.27055C6.23658 5.32149 5.51514 4.82757 5.04387 4.59468C5.65899 4.12719 6.0569 3.38802 6.0569 2.55763C6.0569 1.14738 4.90952 0 3.49927 0C2.08902 0 0.941633 1.14738 0.941633 2.55763C0.941633 3.38859 1.34012 4.12822 1.95592 4.59571C0.798468 5.167 0.000244141 6.35958 0.000244141 7.73539V14.5605C0.000244141 14.8032 0.196968 15 0.439696 15H14.5608C14.8035 15 15.0002 14.8032 15.0002 14.5605V7.73539C15.0002 6.35958 14.202 5.167 13.0445 4.59571V4.59571ZM9.82246 2.55763C9.82246 1.63204 10.5756 0.878904 11.5012 0.878904C12.4269 0.878904 13.1799 1.63204 13.1799 2.55763C13.1799 3.48335 12.4269 4.23637 11.5012 4.23637C10.5756 4.23637 9.82246 3.48335 9.82246 2.55763ZM8.94356 8.44137C8.94356 9.23731 8.29616 9.88481 7.50023 9.88481C6.70441 9.88481 6.0569 9.23731 6.0569 8.44137C6.0569 7.64555 6.70441 6.99805 7.50023 6.99805C8.29616 6.99805 8.94356 7.64555 8.94356 8.44137V8.44137ZM1.82054 2.55763C1.82054 1.63204 2.57367 0.878904 3.49927 0.878904C4.42498 0.878904 5.178 1.63204 5.178 2.55763C5.178 3.48335 4.42498 4.23637 3.49927 4.23637C2.57367 4.23637 1.82054 3.48335 1.82054 2.55763ZM0.879149 7.73539C0.879149 6.29069 2.05457 5.11527 3.49927 5.11527C4.5646 5.11527 5.52361 5.77056 5.92289 6.73918C5.46513 7.16353 5.178 7.76949 5.178 8.44137C5.178 9.18615 5.53082 9.84968 6.07762 10.2749C5.25788 10.7621 4.7073 11.6565 4.7073 12.6773V14.1211H0.879149V7.73539ZM5.58621 12.6773C5.58621 11.6221 6.44463 10.7637 7.50023 10.7637C8.5556 10.7637 9.41425 11.6224 9.41425 12.6777V14.1211H5.58621V12.6773ZM14.1213 14.1211H10.2932V12.6777C10.2932 11.6569 9.74258 10.7623 8.92261 10.2752C9.46952 9.84991 9.82246 9.18627 9.82246 8.44137C9.82246 7.76949 9.53533 7.16353 9.07757 6.73918C9.47685 5.77056 10.4359 5.11527 11.5012 5.11527C12.9459 5.11527 14.1213 6.29069 14.1213 7.73539V14.1211Z" fill="#C19444"/>
</svg>
