<svg width="45" height="45" viewBox="0 0 45 45" fill="none" xmlns="http://www.w3.org/2000/svg">
<path d="M40.7812 33.75H36.5625V29.5312C36.5625 29.1583 36.4143 28.8006 36.1506 28.5369C35.8869 28.2732 35.5292 28.125 35.1562 28.125C34.7833 28.125 34.4256 28.2732 34.1619 28.5369C33.8982 28.8006 33.75 29.1583 33.75 29.5312V33.75H29.5312C29.1583 33.75 28.8006 33.8982 28.5369 34.1619C28.2732 34.4256 28.125 34.7833 28.125 35.1562C28.125 35.5292 28.2732 35.8869 28.5369 36.1506C28.8006 36.4143 29.1583 36.5625 29.5312 36.5625H33.75V40.7812C33.75 41.1542 33.8982 41.5119 34.1619 41.7756C34.4256 42.0393 34.7833 42.1875 35.1562 42.1875C35.5292 42.1875 35.8869 42.0393 36.1506 41.7756C36.4143 41.5119 36.5625 41.1542 36.5625 40.7812V36.5625H40.7812C41.1542 36.5625 41.5119 36.4143 41.7756 36.1506C42.0393 35.8869 42.1875 35.5292 42.1875 35.1562C42.1875 34.7833 42.0393 34.4256 41.7756 34.1619C41.5119 33.8982 41.1542 33.75 40.7812 33.75Z" fill="#9D9D9D"/>
<path d="M23.9062 33.75H7.03125C6.65829 33.75 6.3006 33.6018 6.03688 33.3381C5.77316 33.0744 5.625 32.7167 5.625 32.3438V7.03125C5.625 6.65829 5.77316 6.3006 6.03688 6.03688C6.3006 5.77316 6.65829 5.625 7.03125 5.625H32.3438C32.7167 5.625 33.0744 5.77316 33.3381 6.03688C33.6018 6.3006 33.75 6.65829 33.75 7.03125V23.9062C33.75 24.2792 33.8982 24.6369 34.1619 24.9006C34.4256 25.1643 34.7833 25.3125 35.1562 25.3125C35.5292 25.3125 35.8869 25.1643 36.1506 24.9006C36.4143 24.6369 36.5625 24.2792 36.5625 23.9062V7.03125C36.5625 5.91237 36.118 4.83931 35.3269 4.04814C34.5357 3.25697 33.4626 2.8125 32.3438 2.8125H7.03125C5.91237 2.8125 4.83931 3.25697 4.04814 4.04814C3.25697 4.83931 2.8125 5.91237 2.8125 7.03125V32.3438C2.8125 33.4626 3.25697 34.5357 4.04814 35.3269C4.83931 36.118 5.91237 36.5625 7.03125 36.5625H23.9062C24.2792 36.5625 24.6369 36.4143 24.9006 36.1506C25.1643 35.8869 25.3125 35.5292 25.3125 35.1562C25.3125 34.7833 25.1643 34.4256 24.9006 34.1619C24.6369 33.8982 24.2792 33.75 23.9062 33.75Z" fill="#9D9D9D"/>
<path d="M15.4688 15.4688C17.4104 15.4688 18.9844 13.8948 18.9844 11.9531C18.9844 10.0115 17.4104 8.4375 15.4688 8.4375C13.5271 8.4375 11.9531 10.0115 11.9531 11.9531C11.9531 13.8948 13.5271 15.4688 15.4688 15.4688Z" fill="#9D9D9D"/>
<path d="M10.2516 20.0957L8.4375 21.9238V30.9378H30.9375V21.9238L24.9047 15.8769C24.774 15.7451 24.6184 15.6405 24.4471 15.5691C24.2757 15.4977 24.0919 15.4609 23.9062 15.4609C23.7206 15.4609 23.5368 15.4977 23.3654 15.5691C23.1941 15.6405 23.0385 15.7451 22.9078 15.8769L15.4688 23.33L12.2484 20.0957C12.1177 19.9638 11.9622 19.8592 11.7908 19.7878C11.6194 19.7164 11.4356 19.6797 11.25 19.6797C11.0644 19.6797 10.8806 19.7164 10.7092 19.7878C10.5378 19.8592 10.3823 19.9638 10.2516 20.0957Z" fill="#9D9D9D"/>
</svg>
