<svg width="16" height="19" viewBox="0 0 16 19" fill="none" xmlns="http://www.w3.org/2000/svg">
<path d="M13.0315 9.13004C12.9709 9.06437 12.8986 9.01214 12.8188 8.9764C12.739 8.94066 12.6533 8.92213 12.5667 8.92188C12.48 8.92163 12.3942 8.93967 12.3142 8.97494C12.2343 9.01022 12.1617 9.06203 12.1008 9.12735C12.0399 9.19268 11.9918 9.2702 11.9595 9.35542C11.9271 9.44064 11.911 9.53184 11.9122 9.6237C11.9134 9.71557 11.9318 9.80626 11.9664 9.8905C12.001 9.97474 12.051 10.0508 12.1136 10.1144C12.6674 10.6923 13.1067 11.3818 13.4059 12.1423C13.7051 12.9028 13.858 13.719 13.8557 14.543C13.8557 15.3898 11.5672 16.6199 7.981 16.6199C4.39476 16.6199 2.1063 15.3892 2.1063 14.5416C2.1041 13.7233 2.25498 12.9126 2.55019 12.1565C2.84541 11.4004 3.27909 10.7139 3.82615 10.1367C3.88803 10.0727 3.93731 9.99636 3.97113 9.91202C4.00496 9.82769 4.02266 9.73706 4.02321 9.64541C4.02376 9.55376 4.00714 9.46291 3.97432 9.37812C3.94151 9.29333 3.89314 9.2163 3.83204 9.15149C3.77093 9.08668 3.6983 9.03539 3.61836 9.00058C3.53842 8.96578 3.45276 8.94815 3.36634 8.94874C3.27993 8.94932 3.19448 8.96809 3.11496 9.00397C3.03544 9.03984 2.96343 9.09211 2.90311 9.15774C2.23432 9.86332 1.70415 10.7026 1.34328 11.627C0.982422 12.5514 0.798039 13.5425 0.800812 14.543C0.800812 16.7914 4.49991 18.0045 7.981 18.0045C11.4621 18.0045 15.1612 16.7914 15.1612 14.543C15.1641 13.5358 14.9772 12.5381 14.6115 11.6086C14.2457 10.679 13.7086 9.83633 13.0315 9.13004Z" fill="#C19444"/>
<path d="M7.97937 9.69225C8.88307 9.69225 9.76648 9.40803 10.5179 8.87553C11.2693 8.34303 11.8549 7.58617 12.2008 6.70066C12.5466 5.81515 12.6371 4.84075 12.4608 3.90069C12.2845 2.96064 11.8493 2.09714 11.2103 1.4194C10.5713 0.741656 9.75712 0.280108 8.87078 0.0931191C7.98444 -0.0938697 7.06572 0.00209974 6.23081 0.368891C5.39589 0.735683 4.68228 1.35682 4.18021 2.15376C3.67814 2.95071 3.41016 3.88765 3.41016 4.84613C3.41156 6.13094 3.8934 7.36271 4.74999 8.27122C5.60658 9.17972 6.76797 9.69077 7.97937 9.69225ZM7.97937 1.38461C8.62487 1.38461 9.25588 1.58762 9.79259 1.96798C10.3293 2.34834 10.7476 2.88895 10.9947 3.52146C11.2417 4.15397 11.3063 4.84997 11.1804 5.52144C11.0544 6.1929 10.7436 6.80969 10.2872 7.29379C9.83073 7.77789 9.24919 8.10757 8.61609 8.24113C7.98299 8.3747 7.32676 8.30615 6.7304 8.04415C6.13403 7.78216 5.6243 7.33849 5.26568 6.76924C4.90706 6.2 4.71565 5.53075 4.71565 4.84613C4.71666 3.92841 5.06085 3.04858 5.67269 2.39966C6.28454 1.75073 7.11409 1.38569 7.97937 1.38461Z" fill="#C19444"/>
</svg>
