<svg width="32" height="24" viewBox="0 0 32 24" fill="none" xmlns="http://www.w3.org/2000/svg">
<path d="M24 2.39687C24 1.51325 23.2836 0.796875 22.4 0.796875H1.6C0.716375 0.796875 0 1.51325 0 2.39687C0 3.2805 0.716375 3.99687 1.6 3.99687H22.4C23.2836 3.99687 24 3.28044 24 2.39687ZM1.6 10.3969H30.4C31.2836 10.3969 32 11.1133 32 11.9969C32 12.8805 31.2836 13.5969 30.4 13.5969H1.6C0.716375 13.5969 0 12.8805 0 11.9969C0 11.1133 0.716375 10.3969 1.6 10.3969ZM1.6 19.9969H16C16.8836 19.9969 17.6 20.7132 17.6 21.5969C17.6 22.4804 16.8836 23.1969 16 23.1969H1.6C0.716375 23.1969 0 22.4804 0 21.5969C0 20.7132 0.716375 19.9969 1.6 19.9969Z" fill="#727272"/>
</svg>
