<svg width="28" height="40" viewBox="0 0 28 40" fill="none" xmlns="http://www.w3.org/2000/svg">
<path d="M27.3335 6.66646H24.0001V0.666421C24 0.298252 23.7014 -0.000166598 23.3332 6.97793e-08C23.2696 6.97793e-08 23.2065 0.00916679 23.1455 0.0270836L0.478669 6.69379C0.465336 6.69379 0.455336 6.70712 0.442003 6.71179C0.408086 6.72554 0.375252 6.74204 0.344002 6.76113C0.303668 6.78271 0.265751 6.80846 0.230668 6.83779C0.204834 6.86179 0.180751 6.88763 0.158668 6.91513C0.129417 6.95054 0.103751 6.98871 0.0820006 7.02913C0.0662505 7.06029 0.0528335 7.09263 0.0420001 7.12579C0.0265833 7.17271 0.0166668 7.22121 0.0126668 7.27046C0.0126668 7.29246 0 7.31113 0 7.33313V39.3333C0 39.7015 0.298502 40 0.666671 40H27.3335C27.7017 40 28.0002 39.7015 28.0002 39.3333V7.33313C28.0002 6.96488 27.7018 6.66646 27.3335 6.66646ZM22.6668 1.55709V6.66646H5.29603L22.6668 1.55709ZM26.6668 38.6667H1.33334V7.9998H26.6668V38.6667Z" fill="#C19444"/>
<path d="M9.33214 10.6626C9.09822 10.6627 8.88155 10.7853 8.76097 10.9858L7.33229 13.3665L5.90362 10.9858C5.71387 10.6703 5.30428 10.5683 4.9887 10.758C4.78828 10.8785 4.66561 11.0953 4.66553 11.3291V16.6625C4.66553 17.0307 4.96403 17.3292 5.3322 17.3292C5.70037 17.3292 5.99887 17.0307 5.99887 16.6625V13.7358L6.76087 15.0058C6.97713 15.3213 7.40829 15.4018 7.7238 15.1856C7.7943 15.1372 7.85521 15.0763 7.90355 15.0058L8.66555 13.7358V16.6625C8.66555 17.0307 8.96405 17.3292 9.33222 17.3292C9.70039 17.3292 9.99889 17.0307 9.99889 16.6625V11.3291C9.99889 10.9609 9.70031 10.6625 9.33214 10.6626Z" fill="#C19444"/>
<path d="M13.3322 14.6626C13.7004 14.6626 13.9989 14.3641 13.9989 13.996C13.9989 13.6278 13.7004 13.3293 13.3322 13.3293H11.9989V11.9959H13.3322C13.7004 11.9959 13.9989 11.6974 13.9989 11.3293C13.9989 10.9611 13.7004 10.6626 13.3322 10.6626H11.3322C10.964 10.6626 10.6655 10.9611 10.6655 11.3293V16.6626C10.6655 17.0308 10.964 17.3293 11.3322 17.3293H13.3322C13.7004 17.3293 13.9989 17.0308 13.9989 16.6626C13.9989 16.2945 13.7004 15.996 13.3322 15.996H11.9989V14.6626H13.3322Z" fill="#C19444"/>
<path d="M17.9989 10.6639C17.6308 10.6639 17.3323 10.9624 17.3323 11.3306V13.8399L15.9322 11.0326C15.7718 10.7011 15.3731 10.5626 15.0417 10.7231C14.8092 10.8356 14.6627 11.0723 14.6656 11.3306V16.6639C14.6656 17.0321 14.9641 17.3306 15.3322 17.3306C15.7004 17.3306 15.9989 17.0321 15.9989 16.6639V14.1546L17.3989 16.9619C17.5593 17.2934 17.9581 17.4319 18.2895 17.2714C18.522 17.1589 18.6685 16.9222 18.6656 16.6639V11.3306C18.6656 10.9623 18.3672 10.6639 17.9989 10.6639Z" fill="#C19444"/>
<path d="M22.6678 10.6626C22.2997 10.6626 22.0012 10.9611 22.0012 11.3293V15.3293C22.0012 15.6975 21.7027 15.996 21.3345 15.996C20.9663 15.996 20.6678 15.6975 20.6678 15.3293V11.3293C20.6678 10.9611 20.3693 10.6626 20.0011 10.6626C19.633 10.6626 19.3345 10.9611 19.3345 11.3293V15.3293C19.3345 16.4339 20.2299 17.3293 21.3345 17.3293C22.4391 17.3293 23.3345 16.4339 23.3345 15.3293V11.3293C23.3345 10.961 23.0361 10.6626 22.6678 10.6626Z" fill="#C19444"/>
<path d="M24.6657 23.3374H3.3322C2.96403 23.3374 2.66553 23.6359 2.66553 24.0041C2.66553 24.3722 2.96403 24.6707 3.3322 24.6707H24.6657C25.0338 24.6707 25.3323 24.3722 25.3323 24.0041C25.3323 23.6359 25.0339 23.3374 24.6657 23.3374Z" fill="#C19444"/>
<path d="M24.6657 27.3374H3.3322C2.96403 27.3374 2.66553 27.6359 2.66553 28.0041C2.66553 28.3722 2.96403 28.6707 3.3322 28.6707H24.6657C25.0338 28.6707 25.3323 28.3722 25.3323 28.0041C25.3323 27.6359 25.0339 27.3374 24.6657 27.3374Z" fill="#C19444"/>
<path d="M24.6657 31.3374H3.3322C2.96403 31.3374 2.66553 31.6359 2.66553 32.0041C2.66553 32.3722 2.96403 32.6707 3.3322 32.6707H24.6657C25.0338 32.6707 25.3323 32.3722 25.3323 32.0041C25.3323 31.6359 25.0339 31.3374 24.6657 31.3374Z" fill="#C19444"/>
</svg>
