<svg width="34" height="20" viewBox="0 0 34 20" fill="none" xmlns="http://www.w3.org/2000/svg">
<path d="M27.8528 17.2643C27.8245 17.2119 27.7838 17.1726 27.7307 17.1443C27.6797 17.116 27.6273 17.1016 27.5728 17.1016C27.5176 17.1016 27.4652 17.116 27.4142 17.1443C27.3631 17.1726 27.321 17.2119 27.2928 17.2643C27.2645 17.3147 27.25 17.3685 27.25 17.4244C27.25 17.4802 27.2645 17.534 27.2928 17.5844C27.3224 17.6354 27.3624 17.6768 27.4128 17.7051C27.4638 17.7334 27.5176 17.7478 27.5742 17.7478C27.6287 17.7478 27.6825 17.7334 27.7335 17.7051C27.7838 17.6768 27.8239 17.6354 27.8528 17.5844C27.8811 17.534 27.8956 17.4795 27.8956 17.4244C27.8956 17.3685 27.8818 17.3147 27.8528 17.2643ZM27.6831 17.5444H27.6128L27.57 17.4381H27.528V17.5444H27.4714V17.274H27.5845C27.5983 17.274 27.6266 17.2747 27.6549 17.2892C27.6694 17.303 27.6831 17.3299 27.6831 17.3568C27.6831 17.3864 27.6694 17.4147 27.6411 17.4271L27.6831 17.5444Z" fill="#C19444"/>
<path d="M27.5984 17.3336C27.5984 17.3281 27.5701 17.3281 27.5556 17.3281H27.5273V17.3978H27.5701C27.5701 17.3978 27.5846 17.3978 27.5984 17.3923C27.6129 17.3861 27.6129 17.373 27.6129 17.3605C27.6129 17.3502 27.6129 17.3392 27.5984 17.3336Z" fill="#C19444"/>
<path d="M23.4059 0C20.8242 0.000689726 18.4723 0.979412 16.6997 2.58509C14.9257 0.980101 12.5751 0.00206936 9.9969 0.00206936C9.97551 0.00206936 9.95413 0.00206936 9.93275 0.00206936C4.44391 0.0379351 0 4.50322 0 9.99965C0 15.5188 4.47908 19.9965 9.9969 19.9965C12.5751 19.9965 14.925 19.0185 16.699 17.4135C16.3286 17.079 15.9934 16.7086 15.6768 16.321H17.7418C17.4301 16.7031 17.09 17.0604 16.7266 17.3915H16.7245C16.7252 17.3928 16.7252 17.3928 16.7252 17.3928C16.7169 17.4004 16.7079 17.4059 16.6997 17.4142C18.4729 19.022 20.8277 20.0007 23.41 20C28.932 19.9986 33.4048 15.5209 33.4035 10.0003C33.4035 9.99828 33.4035 9.9969 33.4035 9.99552C33.4021 4.47495 28.9251 0 23.4059 0ZM15.7906 3.61831H17.6901C17.9715 3.95696 18.2315 4.31493 18.466 4.68876H15.0774C15.294 4.33079 15.534 3.96455 15.7906 3.61831ZM14.4856 5.73921H19.0413C19.2047 6.08615 19.3482 6.44343 19.4724 6.81036H13.9456C14.0001 6.7069 14.1932 6.29031 14.4856 5.73921ZM9.44787 12.3971H8.26154L8.96782 8.69331L7.34352 12.3971H6.2703L6.07235 8.71814L5.36607 12.3971H4.29217L5.21088 7.58147H7.06142L7.14626 10.5639L8.46019 7.58147H10.3818L9.44787 12.3971ZM13.6442 10.3162L13.3897 11.7074L13.3476 11.9564L13.3193 12.1551L13.3048 12.2889L13.291 12.3951H12.3027L12.3309 11.9902C12.035 12.313 11.6247 12.4627 11.088 12.4627C10.4521 12.4627 10.0141 12.0261 10.0141 11.3943C10.0141 10.4411 10.777 9.88378 12.0902 9.88378C12.2171 9.88378 12.3868 9.89551 12.5703 9.91413C12.5985 9.78515 12.613 9.73135 12.613 9.65962C12.613 9.40097 12.4006 9.30441 11.8502 9.30441C11.5108 9.30441 11.1294 9.34511 10.8756 9.4127L10.7059 9.45546L10.6073 9.48098L10.7625 8.59882C11.3557 8.44846 11.7371 8.39259 12.1751 8.39259C13.1917 8.39259 13.729 8.79056 13.729 9.54099C13.729 9.73549 13.7152 9.88102 13.6442 10.3162ZM16.0044 8.38363C16.9783 8.38363 17.6004 8.93748 17.6004 9.80584C17.6004 10.0962 17.5577 10.3769 17.4577 10.7742H15.114C15.0995 10.8342 15.0995 10.8611 15.0995 10.8984C15.0995 11.3515 15.4526 11.5826 16.1306 11.5826C16.5548 11.5826 16.9362 11.5067 17.3597 11.3343L17.1625 12.3151C16.7666 12.4213 16.3713 12.473 15.9616 12.473C14.6339 12.473 13.9414 11.8709 13.9414 10.717C13.9414 9.37407 14.8174 8.385 16.0044 8.38363ZM18.4785 15.2926H14.9312C14.716 14.9478 14.5139 14.5939 14.3408 14.2222H19.0606C18.8875 14.5925 18.6937 14.9484 18.4785 15.2926ZM20.6518 9.37959C20.3407 9.34373 20.0303 9.32234 19.7896 9.32234C19.4075 9.32234 19.2103 9.42994 19.2103 9.64031C19.2103 9.82378 19.2668 9.86792 19.7614 10.0666C20.3676 10.3045 20.609 10.6197 20.609 11.157C20.609 12.0509 20.0297 12.464 18.7578 12.464C18.6033 12.464 18.3916 12.4523 18.1088 12.4316C17.9674 12.4213 17.8549 12.4102 17.7832 12.3958L17.5715 12.3571L17.5149 12.3461L17.6846 11.4426C18.066 11.5502 18.3922 11.5971 18.7585 11.5971C19.2247 11.5971 19.4365 11.4881 19.4365 11.2439C19.4365 11.0646 19.3654 11.0067 18.8854 10.8115C18.2502 10.5556 17.9674 10.2135 17.9674 9.71963C17.9674 8.9961 18.4336 8.39397 19.762 8.39397C20.0448 8.39397 20.5111 8.42846 20.8208 8.47122L20.6518 9.37959ZM22.5037 11.5205C22.6299 11.5205 22.7286 11.5081 22.8134 11.4826L22.6582 12.3516C22.3333 12.4406 22.0795 12.4799 21.8105 12.4799C21.2029 12.4799 20.878 12.1744 20.878 11.6191C20.878 11.5088 20.8918 11.3915 20.9063 11.2674L20.9773 10.8818L21.0332 10.5721L21.5843 7.58147H22.7561L22.5872 8.48088H23.1941L23.0244 9.43408H22.4168L22.1064 11.068C22.0919 11.1391 22.0919 11.1929 22.0919 11.2294C22.0919 11.4329 22.2195 11.5191 22.5037 11.5205ZM25.393 9.58306C24.8281 9.58306 24.6453 10.0038 24.2211 12.3992H23.0341L23.7549 8.48157H24.8288L24.7157 9.07611C25.0833 8.6133 25.3647 8.43949 25.7468 8.43949C25.7896 8.43949 25.8323 8.44363 25.8744 8.44915C25.8744 8.45122 25.9179 8.45881 25.9751 8.4726C25.9889 8.47674 26.0027 8.47674 26.102 8.51536L25.6799 9.62237L25.5385 9.59341C25.4819 9.58651 25.4399 9.58306 25.393 9.58306ZM27.489 12.502C26.1441 12.502 25.6089 11.6895 25.6089 10.6956C25.6089 9.30855 26.5269 8.36707 27.9394 8.36707C29.1699 8.36707 29.8196 9.14095 29.8196 10.1342C29.8196 10.3776 29.8196 10.3942 29.7914 10.6218C29.6072 11.9247 28.703 12.5034 27.489 12.502ZM29.9183 12.3971C29.7486 12.3971 29.6072 12.2599 29.6072 12.0902C29.6072 11.9233 29.7486 11.786 29.9183 11.786C30.0879 11.786 30.2293 11.9233 30.2293 12.0902C30.2293 12.2606 30.0879 12.3971 29.9183 12.3971Z" fill="#C19444"/>
<path d="M25.0896 13.7344C24.9627 13.7344 24.8496 13.8385 24.8496 13.9661C24.8496 14.0972 24.9627 14.2006 25.0896 14.2006C25.2172 14.2006 25.3159 14.0958 25.3159 13.9661C25.3159 13.8392 25.2172 13.7344 25.0896 13.7344ZM25.2021 14.1027H25.131L25.0883 13.9972H25.0455V14.1027H24.9889V13.8316H25.1021C25.1172 13.8316 25.1455 13.833 25.1738 13.8475C25.1876 13.8606 25.2021 13.8875 25.2021 13.9151C25.2021 13.9441 25.1876 13.973 25.1593 13.9854L25.2021 14.1027Z" fill="#C19444"/>
<path d="M25.1179 13.8812C25.1186 13.875 25.0903 13.875 25.0765 13.875H25.0469V13.9447H25.0896C25.0896 13.9447 25.1041 13.9447 25.1179 13.9391C25.1324 13.9329 25.1324 13.9198 25.1324 13.9081C25.1324 13.8978 25.1324 13.8867 25.1179 13.8812Z" fill="#C19444"/>
<path d="M11.1613 11.1562C10.7799 11.1562 10.5116 11.4052 10.3984 11.8591L11.7124 11.8618C11.7124 11.7763 11.7124 11.7101 11.7124 11.6591C11.7124 11.3411 11.5144 11.1562 11.1613 11.1562Z" fill="#C19444"/>
<path d="M7.33225 12.5156C6.66942 12.5149 6.33008 12.7156 6.33008 13.1116C6.33008 13.355 6.48596 13.5109 6.75357 13.5109C7.23431 13.5109 7.57297 13.1095 7.60124 12.5301C7.47364 12.517 7.41709 12.5156 7.33225 12.5156Z" fill="#C19444"/>
<path d="M23.084 11.1953C22.4763 11.1953 22.1094 11.9092 22.1094 12.5382C22.1094 13.0707 22.3632 13.428 22.7874 13.4197C23.0426 13.4197 23.5923 13.0686 23.6916 12.4596C23.7192 12.3168 23.7337 12.1602 23.7337 11.9899C23.7337 11.5816 23.5647 11.1939 23.084 11.1953Z" fill="#C19444"/>
</svg>
