<svg width="23" height="20" viewBox="0 0 23 20" fill="none" xmlns="http://www.w3.org/2000/svg">
<g clip-path="url(#clip0_1_2014)">
<path d="M15.9375 4.6875C15.9375 6.82031 13.082 10.6211 11.8281 12.1523C11.5273 12.5625 10.9727 12.5625 10.6719 12.1523C9.41797 10.6211 6.5625 6.82031 6.5625 4.6875C6.5625 2.09883 8.66016 0 11.25 0C13.8398 0 15.9375 2.09883 15.9375 4.6875ZM11.25 5.9375C12.1133 5.9375 12.8125 5.23828 12.8125 4.375C12.8125 3.51211 12.1133 2.8125 11.25 2.8125C10.3867 2.8125 9.6875 3.51211 9.6875 4.375C9.6875 5.23828 10.3867 5.9375 11.25 5.9375ZM16.625 7.02344C16.6445 6.97656 16.6641 6.92969 16.6836 6.87891L21.2148 5.06641C21.832 4.82031 22.5 5.27344 22.5 5.9375V16.5156C22.5 16.8984 22.2656 17.2422 21.9102 17.3867L16.25 19.6484V7.82813C16.3867 7.55859 16.5117 7.29297 16.625 7.02344ZM5.875 7.02344C5.98828 7.29297 6.11328 7.55859 6.25 7.82813V17.6484L1.28555 19.6367C0.669922 19.8477 0 19.4297 0 18.7656V8.1875C0 7.80469 0.233398 7.42578 0.589453 7.31641L5.375 5.40234C5.46875 5.95703 5.66016 6.50781 5.875 7.02344ZM12.8047 12.9336C13.3477 12.2891 14.1992 11.1836 15 9.96094V19.6992L7.5 17.5547V9.96094C8.30078 11.1836 9.15234 12.2891 9.69531 12.9336C10.4961 13.9688 12.0039 13.9688 12.8047 12.9336Z" fill="#C19444"/>
</g>
<defs>
<clipPath id="clip0_1_2014">
<rect width="22.5" height="20" fill="white"/>
</clipPath>
</defs>
</svg>
