<svg width="9" height="8" viewBox="0 0 9 8" fill="none" xmlns="http://www.w3.org/2000/svg">
<path fill-rule="evenodd" clip-rule="evenodd" d="M1.18527 7.82115C1.30135 7.91855 1.45136 7.96585 1.60231 7.95264C1.75326 7.93943 1.89278 7.86681 1.99017 7.75073L6.77919 2.0434L7.0807 5.49891C7.09393 5.65005 7.16665 5.78974 7.28287 5.88727C7.39909 5.98479 7.54929 6.03214 7.70043 6.01892C7.85157 6.0057 7.99126 5.93298 8.08879 5.81676C8.18631 5.70053 8.23367 5.55033 8.22044 5.39919L7.79792 0.569785C7.79147 0.494913 7.77031 0.422051 7.73565 0.355371C7.70099 0.28869 7.65352 0.229505 7.59595 0.1812C7.53838 0.132895 7.47185 0.0964201 7.40017 0.0738682C7.32848 0.0513156 7.25305 0.0431278 7.1782 0.0497721L2.34879 0.472291C2.19765 0.485514 2.05795 0.558235 1.96043 0.674456C1.86291 0.790677 1.81555 0.940879 1.82877 1.09202C1.842 1.24316 1.91472 1.38285 2.03094 1.48037C2.14716 1.5779 2.29736 1.62525 2.4485 1.61203L5.90387 1.30891L1.11485 7.01625C1.01745 7.13232 0.970156 7.28234 0.983362 7.43328C0.996568 7.58423 1.0692 7.72375 1.18527 7.82115Z" fill="#C19444"/>
</svg>
