<svg width="52" height="62" viewBox="0 0 52 62" fill="none" xmlns="http://www.w3.org/2000/svg">
<path d="M25.9108 34.497C18.18 34.245 16.326 27.6259 15.9291 25.489C15.1849 25.3166 14.5218 24.8954 14.0494 24.295C13.5101 23.5519 13.2599 22.6377 13.3456 21.7235C13.2844 21.2309 13.3272 20.731 13.4713 20.256C13.6154 19.781 13.8576 19.3415 14.1822 18.966C14.3655 18.7782 14.5762 18.6192 14.8071 18.4946C13.3703 16.1748 12.6626 13.4773 12.7756 10.751C13.6705 4.35652 18.8238 3.73421 20.4378 3.69821C21.1806 2.83421 22.1093 2.1494 23.1542 1.69502C25.1115 0.905509 27.2748 0.784971 29.3077 1.35216C33.3038 2.39532 35.9688 4.39594 37.2331 7.29916C39.0331 11.4255 37.4542 16.1751 36.5473 18.3077C36.8932 18.4201 37.2119 18.6031 37.4834 18.8452C37.8527 19.2201 38.131 19.6748 38.2968 20.1743C38.4627 20.6738 38.5117 21.2047 38.44 21.7261C38.5265 22.6402 38.2766 23.5546 37.7371 24.2976C37.2642 24.8978 36.6008 25.319 35.8565 25.4916C35.4596 27.6259 33.6098 34.245 25.9108 34.497ZM16.2394 19.8652C15.9354 19.851 15.638 19.9569 15.4114 20.16C15.2545 20.3798 15.1428 20.6285 15.0826 20.8917C15.0224 21.1549 15.015 21.4274 15.0608 21.6935C15.0644 21.7507 15.0624 21.8081 15.0548 21.8649C15.0082 22.3569 15.1353 22.8497 15.414 23.2578C15.5878 23.452 15.7986 23.6095 16.0342 23.7211C16.2697 23.8326 16.5251 23.896 16.7854 23.9076C16.9814 23.9307 17.1634 24.0208 17.3007 24.1626C17.438 24.3044 17.5221 24.4892 17.5389 24.6859C17.5672 25.0047 18.3275 32.5349 25.9125 32.7835C33.4556 32.5349 34.2193 25.0047 34.2476 24.6842C34.2647 24.4878 34.349 24.3034 34.4863 24.1619C34.6235 24.0205 34.8053 23.9307 35.001 23.9076C35.2614 23.8961 35.5168 23.8328 35.7524 23.7212C35.9879 23.6096 36.1987 23.4521 36.3725 23.2578C36.6524 22.8477 36.7795 22.3523 36.7316 21.8581C36.7245 21.803 36.7225 21.7473 36.7256 21.6918C36.772 21.417 36.7616 21.1356 36.6951 20.8649C36.6286 20.5943 36.5074 20.3401 36.3391 20.118C36.0713 19.9209 35.7382 19.8337 35.4082 19.8746C35.2495 19.9027 35.0862 19.8856 34.9369 19.8252C34.7875 19.7647 34.6582 19.6634 34.5639 19.5329C34.4694 19.4023 34.4138 19.2478 34.4031 19.0871C34.3925 18.9263 34.4274 18.7658 34.5039 18.624C34.5356 18.564 37.6754 12.605 35.6576 7.97375C34.6127 5.58055 32.3318 3.90993 28.8766 3.0082C27.2159 2.53823 25.4466 2.62861 23.8425 3.26535C22.9299 3.65854 22.1344 4.28098 21.5333 5.07225C21.4467 5.18996 21.3313 5.28336 21.1981 5.34342C21.0649 5.40348 20.9185 5.42817 20.773 5.41511C20.551 5.39711 15.3025 5.05768 14.4797 10.925C14.4797 10.925 14.2422 15.5922 16.9457 18.4209C17.0635 18.544 17.142 18.6995 17.171 18.8675C17.2 19.0354 17.1783 19.2082 17.1086 19.3637C17.0444 19.5233 16.9312 19.6583 16.7853 19.7493C16.6394 19.8404 16.4684 19.8828 16.2969 19.8703L16.2394 19.8652Z" fill="#C19444" stroke="#C19444" stroke-width="0.5"/>
<path d="M35.2617 19.88C35.0405 19.8802 34.8277 19.7948 34.668 19.6418C34.5082 19.4887 34.4138 19.2799 34.4046 19.0588C34.3943 18.8368 34.1285 13.6587 30.2627 13.1607C28.4946 13.3852 26.6991 13.2452 24.9871 12.7493C23.2752 12.2534 21.6829 11.4121 20.3085 10.2772C19.2156 11.0992 16.6973 13.5978 17.1816 18.9268C17.188 19.1449 17.1109 19.3573 16.9662 19.5206C16.8214 19.6839 16.6198 19.7858 16.4025 19.8056C16.1852 19.8254 15.9685 19.7615 15.7966 19.6271C15.6247 19.4926 15.5106 19.2977 15.4775 19.082C14.7669 11.2638 19.7873 8.55 20.0008 8.43857C20.1597 8.35565 20.3405 8.32462 20.518 8.34984C20.6954 8.37505 20.8605 8.45525 20.9899 8.57914C22.2117 9.68574 23.658 10.5154 25.23 11.0115C26.802 11.5075 28.4626 11.6582 30.0982 11.4532C30.1766 11.4405 30.2564 11.4376 30.3356 11.4446C34.6934 11.8981 36.0246 16.5799 36.1189 18.9877C36.1277 19.2145 36.0462 19.4355 35.8923 19.6023C35.7383 19.7691 35.5245 19.8681 35.2977 19.8774L35.2617 19.88Z" fill="#C19444" stroke="#C19444" stroke-width="0.5"/>
<path d="M50.0109 60.9963H1.85716C1.62983 60.9963 1.41181 60.906 1.25106 60.7452C1.09031 60.5845 1 60.3664 1 60.1391V50.5835C1.00613 47.5633 2.20971 44.6688 4.34682 42.5348C6.48392 40.4007 9.38011 39.2013 12.4003 39.1995H14.046C14.2734 39.1995 14.4914 39.2898 14.6521 39.4505C14.8129 39.6113 14.9032 39.8293 14.9032 40.0566C14.9032 40.284 14.8129 40.502 14.6521 40.6627C14.4914 40.8235 14.2734 40.9138 14.046 40.9138H12.4003C9.83464 40.9151 7.37423 41.9338 5.55853 43.7465C3.74282 45.5591 2.72 48.0178 2.71433 50.5835V59.2819H49.1537V50.5835C49.1508 48.0198 48.1311 45.562 46.3183 43.7492C44.5055 41.9365 42.0477 40.9167 39.4841 40.9138H37.72C37.4927 40.9138 37.2747 40.8235 37.1139 40.6627C36.9532 40.502 36.8629 40.284 36.8629 40.0566C36.8629 39.8293 36.9532 39.6113 37.1139 39.4505C37.2747 39.2898 37.4927 39.1995 37.72 39.1995H39.4841C42.502 39.2038 45.395 40.4045 47.529 42.5385C49.663 44.6725 50.8638 47.5656 50.8681 50.5835V60.1391C50.8681 60.3664 50.7778 60.5845 50.617 60.7452C50.4563 60.906 50.2382 60.9963 50.0109 60.9963Z" fill="#C19444" stroke="#C19444" stroke-width="0.5"/>
<path d="M28.7997 61.0006C28.6763 61.0006 28.5544 60.974 28.4422 60.9226C28.3301 60.8712 28.2304 60.7961 28.1499 60.7026C28.0694 60.6091 28.0101 60.4993 27.9759 60.3808C27.9417 60.2623 27.9336 60.1377 27.952 60.0157L31.4209 37.0583C31.4393 36.9369 31.4835 36.8208 31.5507 36.7179C31.6178 36.6151 31.7063 36.5278 31.8101 36.4622C31.9139 36.3965 32.0306 36.3539 32.1523 36.3372C32.274 36.3206 32.3979 36.3303 32.5155 36.3657L38.5019 38.1701C38.6211 38.206 38.7311 38.2675 38.8241 38.3503C38.9172 38.433 38.9911 38.5351 39.0407 38.6493C39.0903 38.7635 39.1144 38.8871 39.1113 39.0116C39.1083 39.1361 39.0782 39.2584 39.0231 39.3701L36.6436 44.1445L38.0236 45.6934C38.1459 45.8316 38.2203 46.0057 38.2358 46.1896C38.2512 46.3735 38.2069 46.5576 38.1093 46.7143L29.5283 60.5943C29.4515 60.7185 29.3442 60.821 29.2167 60.8921C29.0892 60.9632 28.9457 61.0005 28.7997 61.0006ZM32.9689 38.2926L30.2732 56.1328L36.3187 46.3611L34.979 44.8568C34.865 44.729 34.7919 44.57 34.7691 44.4002C34.7464 44.2305 34.775 44.0578 34.8513 43.9045L37.0353 39.5209L32.9689 38.2926Z" fill="#C19444" stroke="#C19444" stroke-width="0.5"/>
<path d="M22.9728 60.9978C22.8267 60.9979 22.6829 60.9606 22.5553 60.8895C22.4276 60.8184 22.3202 60.7158 22.2434 60.5915L13.6597 46.714C13.5622 46.5573 13.5178 46.3733 13.5333 46.1894C13.5487 46.0054 13.6231 45.8314 13.7454 45.6931L15.1255 44.1442L12.746 39.3698C12.6909 39.2582 12.6608 39.1359 12.6577 39.0114C12.6547 38.8869 12.6788 38.7632 12.7284 38.649C12.778 38.5348 12.8519 38.4328 12.9449 38.35C13.038 38.2673 13.1479 38.2058 13.2671 38.1698L19.2536 36.3655C19.3711 36.3302 19.4949 36.3206 19.6165 36.3373C19.7381 36.354 19.8547 36.3967 19.9584 36.4623C20.0621 36.528 20.1505 36.6152 20.2176 36.7179C20.2847 36.8207 20.3289 36.9367 20.3473 37.0581L23.818 60.0155C23.8359 60.1371 23.8275 60.2611 23.7933 60.3791C23.7591 60.4972 23.6999 60.6065 23.6198 60.6997C23.5396 60.7928 23.4403 60.8677 23.3287 60.9191C23.2171 60.9706 23.0957 60.9974 22.9728 60.9978ZM15.4538 46.3557L21.4993 56.1274L18.8036 38.2898L14.7372 39.5156L16.9204 43.8991C16.9968 44.0523 17.0255 44.225 17.0029 44.3947C16.9803 44.5644 16.9074 44.7235 16.7935 44.8514L15.4538 46.3557Z" fill="#C19444" stroke="#C19444" stroke-width="0.5"/>
<path d="M25.9495 45.018C24.0961 45.0166 22.2444 44.9044 20.4045 44.6819C20.2904 44.6715 20.1795 44.6383 20.0785 44.5842C19.9774 44.5302 19.8882 44.4565 19.8162 44.3674C19.7441 44.2783 19.6907 44.1756 19.659 44.0655C19.6273 43.9554 19.6179 43.8401 19.6316 43.7263C19.6452 43.6125 19.6815 43.5027 19.7384 43.4032C19.7952 43.3037 19.8714 43.2166 19.9625 43.1471C20.0536 43.0775 20.1577 43.027 20.2686 42.9983C20.3796 42.9697 20.4951 42.9637 20.6085 42.9805C24.1116 43.4113 27.6544 43.4113 31.1576 42.9805C31.381 42.9563 31.605 43.0209 31.7813 43.1602C31.9575 43.2996 32.0721 43.5026 32.1002 43.7255C32.1283 43.9485 32.0677 44.1735 31.9315 44.3523C31.7952 44.531 31.5943 44.6491 31.3719 44.6811C29.5732 44.9068 27.7622 45.0193 25.9495 45.018Z" fill="#C19444" stroke="#C19444" stroke-width="0.5"/>
<path d="M32.2664 38.0457C32.1329 38.0452 32.0015 38.0136 31.8824 37.9533C31.7634 37.8931 31.66 37.8058 31.5806 37.6986C30.3069 35.9765 30.0763 32.5633 30.0549 32.1802C30.0418 31.9533 30.1193 31.7305 30.2704 31.5608C30.4215 31.391 30.6338 31.2883 30.8606 31.275C31.0869 31.2644 31.3083 31.3428 31.4775 31.4933C31.6466 31.6439 31.7501 31.8548 31.7658 32.0807C31.8181 32.9825 32.1352 35.5668 32.9581 36.6794C33.0522 36.8068 33.1091 36.9577 33.1226 37.1154C33.1361 37.2732 33.1057 37.4316 33.0347 37.5731C32.9636 37.7146 32.8548 37.8336 32.7203 37.9171C32.5857 38.0005 32.4307 38.045 32.2724 38.0457H32.2664Z" fill="#C19444" stroke="#C19444" stroke-width="0.5"/>
<path d="M19.4981 38.0407C19.3398 38.04 19.1848 37.9955 19.0502 37.9121C18.9157 37.8286 18.8069 37.7096 18.7358 37.5681C18.6648 37.4266 18.6344 37.2682 18.6479 37.1104C18.6614 36.9527 18.7183 36.8018 18.8124 36.6744C19.637 35.5601 19.9533 32.9766 20.0056 32.0757C20.0121 31.9632 20.0407 31.853 20.0898 31.7515C20.1389 31.65 20.2076 31.5592 20.2918 31.4842C20.376 31.4092 20.4741 31.3516 20.5806 31.3145C20.6871 31.2775 20.7999 31.2618 20.9124 31.2683C21.025 31.2748 21.1352 31.3035 21.2367 31.3526C21.3382 31.4017 21.429 31.4703 21.504 31.5545C21.579 31.6387 21.6366 31.7369 21.6737 31.8434C21.7107 31.9499 21.7264 32.0626 21.7199 32.1752C21.6985 32.5583 21.4627 35.9715 20.1941 37.6936C20.1137 37.8022 20.0087 37.8903 19.8878 37.9506C19.7668 38.011 19.6333 38.0419 19.4981 38.0407Z" fill="#C19444" stroke="#C19444" stroke-width="0.5"/>
<path d="M43.2072 48.9864C42.9842 48.9865 42.7698 48.8997 42.6098 48.7442C42.4497 48.5888 42.3566 48.3771 42.3501 48.1541C42.1898 42.5723 40.0675 40.816 40.0469 40.7988C39.8698 40.6582 39.7549 40.4537 39.7271 40.2293C39.6992 40.0049 39.7604 39.7785 39.8977 39.5988C40.0341 39.4206 40.2352 39.3033 40.4575 39.2725C40.6798 39.2417 40.9052 39.2998 41.0849 39.4342C41.1981 39.5199 43.8767 41.6003 44.0644 48.1044C44.0709 48.3315 43.9869 48.5518 43.831 48.7171C43.6751 48.8823 43.46 48.9789 43.233 48.9856L43.2072 48.9864Z" fill="#C19444" stroke="#C19444" stroke-width="0.5"/>
<path d="M43.2144 54.046C42.5442 54.0462 41.889 53.8476 41.3317 53.4754C40.7744 53.1032 40.34 52.5741 40.0834 51.9549C39.8268 51.3358 39.7596 50.6545 39.8902 49.9971C40.0208 49.3398 40.3435 48.736 40.8173 48.262C41.2912 47.7881 41.8949 47.4653 42.5522 47.3345C43.2095 47.2036 43.8908 47.2707 44.51 47.5271C45.1292 47.7836 45.6585 48.2179 46.0308 48.7751C46.4032 49.3323 46.6019 49.9875 46.6019 50.6577C46.601 51.5559 46.2439 52.4171 45.6088 53.0523C44.9737 53.6875 44.1126 54.0449 43.2144 54.046ZM43.2144 48.9836C42.8833 48.9834 42.5595 49.0815 42.2841 49.2653C42.0087 49.4492 41.794 49.7106 41.6672 50.0164C41.5404 50.3223 41.5071 50.6589 41.5716 50.9837C41.6361 51.3085 41.7955 51.6069 42.0295 51.8411C42.2636 52.0753 42.5619 52.2348 42.8867 52.2995C43.2114 52.3641 43.5481 52.331 43.854 52.2044C44.1599 52.0777 44.4214 51.8631 44.6054 51.5878C44.7894 51.3125 44.8876 50.9888 44.8876 50.6577C44.8872 50.214 44.7108 49.7886 44.3971 49.4747C44.0834 49.1609 43.6581 48.9843 43.2144 48.9836Z" fill="#C19444" stroke="#C19444" stroke-width="0.5"/>
<path d="M8.00514 48.9826C7.78797 48.9832 7.57868 48.9013 7.41957 48.7535C7.26046 48.6057 7.16339 48.403 7.14797 48.1863C6.68082 41.6076 10.3058 39.505 10.4601 39.4184C10.6581 39.3067 10.8923 39.2782 11.1114 39.3392C11.3304 39.4002 11.5162 39.5457 11.6279 39.7437C11.7397 39.9417 11.7682 40.176 11.7072 40.395C11.6462 40.614 11.5007 40.7999 11.3026 40.9116C11.1724 40.9887 8.47401 42.6542 8.85716 48.0655C8.87318 48.2922 8.79847 48.5161 8.64946 48.6878C8.50044 48.8594 8.28933 48.9649 8.06257 48.9809L8.00514 48.9826Z" fill="#C19444" stroke="#C19444" stroke-width="0.5"/>
<path d="M6.26869 55.8473C6.13605 55.8479 6.00508 55.8177 5.88609 55.7591C5.7671 55.7005 5.66334 55.6151 5.58296 55.5095C5.16454 54.9601 4.85631 54.3349 4.67522 53.6684C4.27731 52.3701 4.40786 50.9673 5.03848 49.7648C5.6691 48.5623 6.74884 47.6573 8.04302 47.2465C8.65687 47.0739 9.29897 47.0253 9.93181 47.1036C10.5646 47.1819 11.1755 47.3855 11.7288 47.7025C12.6985 48.2627 13.474 49.1055 13.9519 50.1182C14.4298 51.131 14.5872 52.2655 14.4032 53.3701C14.3659 53.5943 14.241 53.7946 14.0561 53.9268C13.8712 54.059 13.6413 54.1124 13.417 54.0751C13.1927 54.0378 12.9925 53.913 12.8603 53.728C12.728 53.5431 12.6747 53.3132 12.712 53.0889C12.8378 52.332 12.7309 51.5548 12.4056 50.86C12.0802 50.1651 11.5516 49.5854 10.8897 49.1974C10.5328 48.9913 10.1384 48.8584 9.72951 48.8065C9.32066 48.7545 8.90556 48.7845 8.50846 48.8948C7.64956 49.1821 6.93855 49.7964 6.52968 50.6045C6.12081 51.4126 6.04705 52.3493 6.3244 53.2115C6.44844 53.6678 6.65977 54.0957 6.94671 54.4715C7.04323 54.5986 7.10239 54.75 7.11751 54.9089C7.13264 55.0677 7.10313 55.2276 7.03231 55.3706C6.96149 55.5135 6.85217 55.6339 6.71666 55.7181C6.58114 55.8023 6.42481 55.8471 6.26526 55.8473H6.26869Z" fill="#C19444" stroke="#C19444" stroke-width="0.5"/>
<path d="M13.5696 54.088C13.5361 54.088 13.5019 54.088 13.4676 54.0828L12.5015 53.9688C12.3897 53.9555 12.2816 53.9204 12.1834 53.8653C12.0851 53.8102 11.9987 53.7363 11.929 53.6479C11.8593 53.5594 11.8077 53.4581 11.7772 53.3497C11.7467 53.2413 11.7378 53.1279 11.7511 53.0161C11.7644 52.9042 11.7996 52.7961 11.8546 52.6979C11.9097 52.5997 11.9836 52.5132 12.072 52.4435C12.2507 52.3028 12.478 52.2388 12.7038 52.2656L13.6699 52.3805C13.8868 52.4063 14.0857 52.514 14.2259 52.6815C14.3662 52.849 14.4371 53.0638 14.4243 53.2819C14.4115 53.5 14.3159 53.705 14.157 53.8549C13.9982 54.0049 13.788 54.0886 13.5696 54.0888V54.088Z" fill="#C19444" stroke="#C19444" stroke-width="0.5"/>
<path d="M6.26825 55.8619C6.06699 55.8622 5.87205 55.7917 5.71759 55.6626C5.56312 55.5336 5.45898 55.3544 5.42341 55.1563C5.38784 54.9582 5.4231 54.7539 5.52303 54.5792C5.62296 54.4045 5.78117 54.2705 5.96996 54.2007L6.99855 53.821C7.10408 53.7816 7.21634 53.7634 7.32891 53.7674C7.44148 53.7714 7.55217 53.7975 7.65465 53.8442C7.75713 53.891 7.84939 53.9575 7.92617 54.0399C8.00296 54.1223 8.06275 54.2191 8.10215 54.3246C8.14155 54.4301 8.15977 54.5424 8.15579 54.655C8.1518 54.7675 8.12568 54.8782 8.07892 54.9807C8.03216 55.0832 7.96567 55.1754 7.88325 55.2522C7.80083 55.329 7.7041 55.3888 7.59857 55.4282L6.56997 55.8088C6.47341 55.8445 6.3712 55.8625 6.26825 55.8619Z" fill="#C19444" stroke="#C19444" stroke-width="0.5"/>
</svg>
