<svg width="16" height="18" viewBox="0 0 16 18" fill="none" xmlns="http://www.w3.org/2000/svg">
<path d="M13.5897 9.12614C13.5224 9.06046 13.442 9.00823 13.3534 8.9725C13.2647 8.93676 13.1695 8.91822 13.0732 8.91797C12.977 8.91772 12.8816 8.93576 12.7927 8.97104C12.7039 9.00632 12.6232 9.05813 12.5556 9.12345C12.4879 9.18877 12.4345 9.2663 12.3985 9.35151C12.3625 9.43673 12.3447 9.52793 12.346 9.6198C12.3473 9.71166 12.3678 9.80236 12.4062 9.8866C12.4446 9.97084 12.5002 10.0469 12.5698 10.1105C13.1851 10.6884 13.6733 11.3779 14.0057 12.1384C14.3381 12.8989 14.508 13.7151 14.5055 14.5391C14.5055 15.3859 11.9627 16.616 7.97802 16.616C3.99331 16.616 1.45058 15.3853 1.45058 14.5377C1.44814 13.7194 1.61577 12.9087 1.94379 12.1526C2.2718 11.3964 2.75368 10.71 3.36152 10.1328C3.43027 10.0688 3.48503 9.99246 3.52261 9.90812C3.5602 9.82378 3.57987 9.73316 3.58048 9.6415C3.58108 9.54985 3.56262 9.459 3.52616 9.37421C3.48969 9.28943 3.43596 9.21239 3.36806 9.14759C3.30017 9.08278 3.21947 9.03148 3.13064 8.99668C3.04182 8.96187 2.94664 8.94425 2.85062 8.94483C2.75461 8.94541 2.65967 8.96418 2.57131 9.00006C2.48296 9.03594 2.40295 9.0882 2.33592 9.15383C1.59282 9.85942 1.00374 10.6987 0.602781 11.6231C0.201823 12.5475 -0.00304677 13.5386 3.42412e-05 14.5391C3.42412e-05 16.7874 4.11015 18.0006 7.97802 18.0006C11.8459 18.0006 15.956 16.7874 15.956 14.5391C15.9592 13.5319 15.7516 12.5342 15.3452 11.6046C14.9388 10.6751 14.342 9.83242 13.5897 9.12614Z" fill="#C19444"/>
<path d="M7.97778 9.69225C8.9819 9.69225 9.96346 9.40803 10.7984 8.87553C11.6332 8.34303 12.284 7.58617 12.6682 6.70066C13.0525 5.81515 13.153 4.84075 12.9571 3.90069C12.7612 2.96064 12.2777 2.09714 11.5677 1.4194C10.8577 0.741656 9.95306 0.280108 8.96824 0.0931191C7.98341 -0.0938697 6.96262 0.00209974 6.03493 0.368891C5.10725 0.735683 4.31435 1.35682 3.75649 2.15376C3.19863 2.95071 2.90088 3.88765 2.90088 4.84613C2.90243 6.13094 3.43782 7.36271 4.38959 8.27122C5.34135 9.17972 6.63178 9.69077 7.97778 9.69225ZM7.97778 1.38461C8.69501 1.38461 9.39612 1.58762 9.99248 1.96798C10.5888 2.34834 11.0536 2.88895 11.3281 3.52146C11.6026 4.15397 11.6744 4.84997 11.5345 5.52144C11.3945 6.1929 11.0492 6.80969 10.542 7.29379C10.0348 7.77789 9.38869 8.10757 8.68525 8.24113C7.9818 8.3747 7.25266 8.30615 6.59003 8.04415C5.9274 7.78216 5.36104 7.33849 4.96257 6.76924C4.5641 6.2 4.35142 5.53075 4.35142 4.84613C4.35255 3.92841 4.73498 3.04858 5.41481 2.39966C6.09464 1.75073 7.01636 1.38569 7.97778 1.38461Z" fill="#C19444"/>
</svg>
