<svg width="35" height="35" viewBox="0 0 35 35" fill="none" xmlns="http://www.w3.org/2000/svg">
<g clip-path="url(#clip0_1_8570)">
<path d="M30.3422 13.4613L9.67032 0.71875C8.17475 -0.201984 6.36657 -0.240265 4.83334 0.616348C3.3001 1.47282 2.38477 3.03286 2.38477 4.78908V30.1581C2.38477 32.8136 4.52442 34.9856 7.15421 35C7.16139 35 7.16856 35 7.17561 35C7.99742 35 8.85383 34.7424 9.65371 34.2543C10.2972 33.8617 10.5005 33.0218 10.108 32.3784C9.71537 31.7349 8.87536 31.5316 8.2321 31.9242C7.85797 32.1524 7.49259 32.2704 7.16891 32.2704C6.17667 32.265 5.11429 31.415 5.11429 30.1582V4.78915C5.11429 4.03576 5.50695 3.36672 6.16457 2.99929C6.82226 2.63186 7.59779 2.64827 8.23853 3.04277L28.9105 15.7853C29.5318 16.1679 29.8874 16.8057 29.8859 17.5354C29.8844 18.265 29.5262 18.9014 28.9015 19.2827L13.9556 28.4338C13.3127 28.8274 13.1106 29.6676 13.5043 30.3104C13.8978 30.9533 14.738 31.1553 15.3809 30.7617L30.325 21.6117C31.7558 20.7388 32.6121 19.2171 32.6155 17.5409C32.6189 15.8648 31.7688 14.3396 30.3422 13.4613Z" fill="white"/>
</g>
<defs>
<clipPath id="clip0_1_8570">
<rect width="35" height="35" fill="white"/>
</clipPath>
</defs>
</svg>
