<svg width="68" height="55" viewBox="0 0 68 55" fill="none" xmlns="http://www.w3.org/2000/svg">
<path d="M64.6111 53.0159H63.4825V23.5848C66.0309 21.945 67.7237 19.0857 67.7237 15.8365C67.7237 15.6639 67.6786 15.4942 67.593 15.3443L59.7211 1.56836C59.1682 0.601048 58.1326 0 57.0185 0H10.7052C9.59111 0 8.55554 0.600916 8.00264 1.56836L0.130686 15.3443C0.0451051 15.4942 0 15.664 0 15.8365C0 19.0857 1.69283 21.945 4.2412 23.5848V53.0159H3.11265C2.56477 53.0159 2.1206 53.4601 2.1206 54.0079C2.1206 54.5558 2.56477 55 3.11265 55H64.6111C65.1591 55 65.6031 54.5558 65.6031 54.0079C65.6031 53.4601 65.159 53.0159 64.6111 53.0159ZM2.05248 16.8286H5.23285C5.78072 16.8286 6.2249 16.3844 6.2249 15.8365C6.2249 15.2886 5.78072 14.8445 5.23285 14.8445H2.70154L9.72536 2.55273C9.92589 2.20195 10.3013 1.98409 10.7052 1.98409H57.0185C57.4224 1.98409 57.798 2.20195 57.9984 2.55273L65.022 14.8445H62.4902C61.9422 14.8445 61.4982 15.2886 61.4982 15.8365C61.4982 16.3844 61.9422 16.8286 62.4902 16.8286H65.6711C65.1861 20.3449 62.1616 23.0619 58.5141 23.0619C54.8667 23.0619 51.8437 20.3446 51.3585 16.8286H58.2494C58.7974 16.8286 59.2415 16.3844 59.2415 15.8365C59.2415 15.2886 58.7974 14.8445 58.2494 14.8445H9.47484C8.92696 14.8445 8.48279 15.2886 8.48279 15.8365C8.48279 16.3844 8.92696 16.8286 9.47484 16.8286H16.3651C15.8799 20.3446 12.8568 23.0619 9.2095 23.0619C5.56194 23.0619 2.53752 20.3449 2.05248 16.8286ZM49.2349 16.8286C48.7497 20.3446 45.7266 23.0619 42.0793 23.0619C38.4319 23.0619 35.4089 20.3446 34.9238 16.8286H49.2349ZM32.8 16.8286C32.3148 20.3446 29.2917 23.0619 25.6444 23.0619C21.9971 23.0619 18.974 20.3446 18.4888 16.8286H32.8ZM56.1967 53.016H45.457V49.6985H56.1967V53.016ZM56.1967 47.7144H45.457V29.5524H56.1967V47.7144ZM61.4984 53.016H58.1809V28.5604C58.1809 28.0125 57.7369 27.5683 57.1889 27.5683H44.4651C43.9171 27.5683 43.4731 28.0125 43.4731 28.5604V53.0159H6.22529V24.5469C7.16192 24.8688 8.16507 25.046 9.2095 25.046C12.7934 25.046 15.9057 22.9884 17.427 19.9923C18.9482 22.9882 22.0605 25.046 25.6444 25.046C29.2283 25.046 32.3406 22.9884 33.8619 19.9923C35.3831 22.9882 38.4954 25.046 42.0793 25.046C45.6632 25.046 48.7755 22.9884 50.2968 19.9923C51.818 22.9882 54.9303 25.046 58.5142 25.046C59.5587 25.046 60.5618 24.8688 61.4984 24.5471V53.016Z" fill="#C19444"/>
<path d="M39.1652 27.5673H10.5366C9.98873 27.5673 9.54456 28.0114 9.54456 28.5593V48.7054C9.54456 49.2533 9.98873 49.6974 10.5366 49.6974H39.1652C39.7132 49.6974 40.1573 49.2533 40.1573 48.7054V28.5593C40.1573 28.0113 39.7132 27.5673 39.1652 27.5673ZM38.1732 47.7134H11.5286V29.5514H38.1732V47.7134Z" fill="#C19444"/>
</svg>
