<svg width="60" height="60" viewBox="0 0 60 60" fill="none" xmlns="http://www.w3.org/2000/svg">
<g clip-path="url(#clip0_784_4195)">
<path d="M28.2687 44.4012C27.8175 44.07 27.1824 44.1667 26.8508 44.6182L26.7255 44.7887C26.3942 45.2399 26.4907 45.874 26.9414 46.206C27.1224 46.3395 27.3334 46.4039 27.5423 46.4039C27.8532 46.4039 28.1601 46.2614 28.3589 45.9921L28.486 45.8193C28.8175 45.3677 28.7203 44.7328 28.2687 44.4012Z" fill="#C19444"/>
<path d="M28.5336 54.0518L25.9247 49.3078L28.3605 45.9902C28.6923 45.5387 28.5949 44.9038 28.1433 44.5722C27.6918 44.2404 27.0568 44.3378 26.7253 44.7895L23.906 48.6292C23.6722 48.9475 23.6446 49.3724 23.8348 49.7185L26.756 55.0295V55.0294C26.9408 55.3651 27.2878 55.5551 27.6458 55.5551C27.8112 55.555 27.9788 55.5146 28.1338 55.4294C28.6246 55.1595 28.8036 54.5427 28.5336 54.0518Z" fill="#C19444"/>
<path d="M36.0943 48.6293L33.2865 44.8052C33.0536 44.4882 32.6591 44.3341 32.273 44.4105C31.8871 44.4864 31.58 44.7786 31.4846 45.1601C31.4114 45.4531 31.4724 45.7631 31.6511 46.0065L34.075 49.3079L31.4839 54.0197C31.4016 54.1694 31.3584 54.3381 31.3584 54.5091C31.3584 54.9721 31.672 55.3764 32.1205 55.4916C32.2045 55.5133 32.2892 55.5237 32.3729 55.5237C32.7361 55.5237 33.0802 55.3278 33.2618 54.9981L36.1654 49.7188C36.3559 49.3725 36.328 48.9476 36.0943 48.6293Z" fill="#C19444"/>
<path d="M37.7018 32.6874C37.3682 32.5122 36.9648 32.5361 36.6544 32.7501C36.051 33.1657 35.4911 33.6061 34.9902 34.0588C32.2602 36.5268 29.6665 36.1928 29.5649 36.1783C29.5037 36.1687 29.4415 36.1642 29.38 36.1662C28.301 36.1939 26.3557 35.208 24.2978 33.5917C23.983 33.3446 23.6603 33.109 23.338 32.8915C23.0272 32.6815 22.6256 32.6603 22.2945 32.8364C21.9632 33.0125 21.7561 33.357 21.7561 33.7322V37.2122C21.7561 37.52 21.8961 37.8108 22.1361 38.0035C22.1645 38.0263 22.194 38.0474 22.2245 38.0669L29.4176 42.8735C29.4188 42.8742 29.4198 42.8751 29.421 42.8759L29.44 42.8886C29.6093 43.0006 29.8044 43.0572 30.0003 43.0572C30.165 43.0572 30.3298 43.0172 30.4804 42.9367C30.5121 42.9197 30.5426 42.9011 30.5719 42.8812C30.5753 42.879 30.5787 42.8767 30.5822 42.8744C30.5862 42.8718 30.5902 42.8691 30.5942 42.8664L37.7703 38.0712C37.7991 38.0529 37.8272 38.0333 37.8543 38.0122C38.1005 37.82 38.2444 37.525 38.2444 37.2126V33.5855C38.2444 33.2084 38.0356 32.8628 37.7018 32.6874ZM36.2154 36.6697L30.0001 40.8228L23.785 36.6695V35.7469C25.2983 36.8467 27.5246 38.1957 29.3392 38.1956C29.343 38.1956 29.3472 38.1956 29.351 38.1956C29.9603 38.2629 33.0673 38.4461 36.2157 35.6842V36.6697H36.2154Z" fill="#C19444"/>
<path d="M31.0006 41.8762C30.9337 41.4739 30.6322 41.1508 30.2354 41.0561C29.8384 40.962 29.4238 41.1137 29.1823 41.4426L26.8507 44.6185C26.519 45.0701 26.6163 45.705 27.068 46.0366C27.2489 46.1694 27.4591 46.2334 27.6676 46.2334C27.9795 46.2334 28.2873 46.0899 28.4863 45.8191L30.8058 42.6599C30.9377 42.4874 31.0146 42.2727 31.0146 42.0433C31.0145 41.9875 31.0098 41.9312 31.0006 41.8762Z" fill="#C19444"/>
<path d="M45.4548 9.17253C45.4346 9.01362 44.9594 5.58401 41.7311 4.23107C41.8249 3.62873 41.8151 2.85459 41.4327 2.10142C40.9187 1.08915 39.9044 0.429505 38.4179 0.14052C38.3542 0.128098 38.2895 0.121887 38.2244 0.121887H24.6087C19.08 0.121887 14.582 4.61979 14.582 10.1487V15.4914C14.582 16.8834 15.0565 18.2408 15.9179 19.3133C16.3449 19.8451 16.8708 20.7738 16.9502 22.1779C16.9811 22.7261 17.44 23.1497 17.9916 23.1345C18.5405 23.119 18.9774 22.6695 18.9774 22.1205V15.1548C19.6662 12.3061 22.0171 11.7517 22.4213 11.6768H26.8255C27.3435 11.6768 27.853 11.5977 28.3399 11.4416C29.1773 11.173 30.5059 10.6787 31.4731 10.3114C32.1202 10.0654 32.8367 10.0564 33.4903 10.286L38.2052 11.9412C40.5623 12.8107 40.983 14.88 41.0352 15.2051V23.5649C41.0352 24.0959 41.4445 24.5364 41.974 24.5759C41.9997 24.5778 42.0251 24.5788 42.0504 24.5788C42.5479 24.5787 42.9776 24.2142 43.0529 23.7146C43.0569 23.6885 43.4619 21.072 44.7681 18.9772C45.2225 18.2479 45.4629 17.4165 45.4629 16.5727V9.30062C45.4629 9.25784 45.4602 9.21507 45.4548 9.17253ZM43.4339 16.5722C43.4339 17.0254 43.306 17.4749 43.0639 17.8747V15.1357C43.0639 15.0991 43.0619 15.0626 43.0579 15.0262C43.042 14.8789 42.6228 11.4024 38.898 10.0341C38.8934 10.0325 38.8889 10.0308 38.8843 10.0292L34.1622 8.37143C33.6298 8.18452 33.0728 8.09124 32.5162 8.09124C31.9176 8.09124 31.3194 8.19917 30.7525 8.41479C29.3983 8.92925 28.3496 9.30788 27.7202 9.50968C27.4339 9.60144 27.1328 9.64808 26.8253 9.64808H22.3393C22.2958 9.64808 22.2522 9.65089 22.209 9.6564C22.0373 9.67866 17.9911 10.2541 16.9729 14.8179C16.9567 14.8905 16.9485 14.9645 16.9485 15.0388V17.1266C16.7276 16.6162 16.6107 16.0586 16.6107 15.4915V10.1489C16.6107 5.73893 20.1986 2.15099 24.6085 2.15099H38.122C38.6815 2.27017 39.3614 2.51474 39.6193 3.01232C39.9351 3.62135 39.5754 4.45994 39.575 4.46065C39.4453 4.73662 39.4468 5.05619 39.5786 5.331C39.7106 5.6058 39.9593 5.80666 40.2558 5.87803C42.8383 6.49971 43.3651 8.97671 43.4338 9.37737L43.4339 16.5722Z" fill="#C19444"/>
<path d="M43.0583 15.0262C43.0423 14.8789 42.6232 11.4024 38.8983 10.0341C38.8938 10.0325 38.8892 10.0308 38.8846 10.0292L34.1626 8.37144C33.0575 7.98354 31.8467 7.99901 30.7527 8.41456C29.3985 8.92902 28.3498 9.30765 27.7204 9.50956C27.4341 9.60132 27.133 9.64785 26.8255 9.64785H22.3395C22.296 9.64785 22.2524 9.65066 22.2092 9.65617C22.0375 9.67843 17.9913 10.2538 16.9731 14.8177C16.9569 14.8902 16.9487 14.9643 16.9487 15.0386V23.7592C16.9487 23.7667 16.9488 23.7742 16.949 23.7817C16.9556 24.0847 17.17 31.2386 22.113 34.5104L22.1385 34.5284C22.1597 34.5434 22.1809 34.5584 22.2031 34.5733C22.4849 34.7636 22.7679 34.9702 23.0447 35.1875C24.4847 36.3182 27.1984 38.1957 29.3392 38.1957C29.3432 38.1957 29.347 38.1957 29.3511 38.1957C29.4673 38.2085 29.6748 38.2256 29.9563 38.2256C31.1696 38.2256 33.758 37.9077 36.3507 35.5639C36.7858 35.1707 37.2751 34.7861 37.8055 34.4207L37.8813 34.3677C37.906 34.3502 37.9307 34.3326 37.9563 34.3155C39.6051 33.2081 42.4607 30.3506 43.0603 23.6552C43.063 23.6252 43.0644 23.5948 43.0644 23.5646V15.1357C43.0642 15.0992 43.0621 15.0627 43.0583 15.0262ZM41.0353 23.5188C40.4825 29.5612 37.908 31.9037 36.8249 32.6311C36.7865 32.6569 36.7485 32.6837 36.7106 32.7104L36.6543 32.75C36.0509 33.1657 35.491 33.6061 34.9901 34.0588C32.2703 36.5176 29.685 36.1951 29.5582 36.1773C29.4993 36.1685 29.4395 36.1647 29.3799 36.1664C28.3009 36.194 26.3556 35.2081 24.2977 33.5919C23.9829 33.3446 23.6602 33.1091 23.3384 32.8919L23.3134 32.8743C23.2891 32.857 23.2648 32.8398 23.2362 32.8208C19.2474 30.1807 18.9864 24.0024 18.9776 23.7446V15.1547C19.6689 12.2956 22.0343 11.7475 22.4199 11.6767H26.8257C27.3438 11.6767 27.8532 11.5976 28.3401 11.4415C29.1775 11.1729 30.5062 10.6786 31.4733 10.3112C32.1204 10.0653 32.8369 10.0562 33.4905 10.2859L38.2054 11.9411C40.5625 12.8106 40.9832 14.8799 41.0354 15.205V23.5188H41.0353Z" fill="#C19444"/>
<path d="M30.9073 41.5896C30.7493 41.2735 30.438 41.0624 30.0859 41.0324C29.7343 41.0033 29.3914 41.1579 29.1822 41.4429L26.7522 44.7525C26.4209 45.2039 26.5177 45.8384 26.9688 46.1701C27.1497 46.3033 27.3603 46.3676 27.569 46.3676C27.8803 46.3676 28.1875 46.2248 28.3864 45.9549L30.8165 42.6574C30.9451 42.4831 31.0144 42.2602 31.0144 42.0436C31.0146 41.8862 30.9777 41.7306 30.9073 41.5896Z" fill="#C19444"/>
<path d="M30.9723 57.9231C30.5912 57.5246 29.9616 57.5034 29.5547 57.8757L29.3228 58.0878C28.9756 58.4052 28.8922 58.9199 29.1217 59.3308L29.1288 59.3436C29.2838 59.6212 29.5601 59.8101 29.875 59.8538C29.9216 59.8602 29.9683 59.8634 30.0147 59.8634C30.2817 59.8634 30.5404 59.7578 30.732 59.5662L30.9566 59.3413C31.3465 58.9514 31.3535 58.3214 30.9723 57.9231Z" fill="#C19444"/>
<path d="M30.6773 58.0877L30.4454 57.8756C30.0386 57.5034 29.4088 57.5246 29.0277 57.923C28.6465 58.3217 28.6535 58.9518 29.0435 59.3416L29.2685 59.5665C29.4601 59.7581 29.7186 59.8635 29.9857 59.8635C30.0334 59.8635 30.0813 59.8603 30.1293 59.8533C30.4452 59.8082 30.7215 59.6169 30.8752 59.337L30.8823 59.3242C31.1071 58.9141 31.0225 58.4033 30.6773 58.0877Z" fill="#C19444"/>
<path d="M30.6943 58.1036L30.6931 58.1024C30.5364 57.9559 30.3338 57.8594 30.1105 57.8349C29.8116 57.8023 29.5204 57.9035 29.3086 58.1008L29.3056 58.1036C29.1005 58.2906 28.9811 58.5537 28.9751 58.8312C28.9691 59.1089 29.0772 59.3767 29.2739 59.5724L29.2846 59.5831C29.4825 59.7798 29.7411 59.8782 29.9999 59.8782C30.2596 59.8782 30.5192 59.779 30.7171 59.5812L30.7277 59.5705C30.9237 59.3745 31.031 59.1069 31.0246 58.8299C31.0185 58.5528 30.8991 58.2904 30.6943 58.1036Z" fill="#C19444"/>
<path d="M30.3292 41.0613C29.909 40.9268 29.448 41.0827 29.1922 41.4425C28.906 41.8454 28.9533 42.3944 29.3019 42.7447C29.4981 42.9418 29.7585 43.0428 30.0208 43.0428C30.2246 43.0428 30.4295 42.9819 30.6062 42.8574C30.8762 42.6675 31.0369 42.3581 31.0369 42.0279V42.0254C31.0369 41.5839 30.7498 41.1955 30.3292 41.0613Z" fill="#C19444"/>
<path d="M30.8244 41.4342L30.8157 41.4225C30.5554 41.0702 30.0984 40.9251 29.6825 41.0621C29.2666 41.1991 28.9856 41.5877 28.9856 42.0255V42.0429C28.9856 42.4164 29.1952 42.7568 29.5243 42.9335C29.6734 43.0135 29.8379 43.053 30.0022 43.053C30.2004 43.053 30.3983 42.9956 30.5685 42.8829C30.8004 42.7294 30.9592 42.4873 31.0076 42.2134C31.0559 41.9396 30.9897 41.6578 30.8244 41.4342Z" fill="#C19444"/>
<path d="M42.0678 38.2474C41.9627 37.9695 41.7411 37.7518 41.4615 37.6517L37.5719 36.2574C37.5404 36.2462 37.5077 36.2361 37.4751 36.2281C37.1975 36.1586 36.9034 36.2096 36.6655 36.3687L29.4587 41.1845C29.4568 41.1857 29.4547 41.187 29.4527 41.1884L30.0186 42.0299L29.44 41.197C29.2286 41.3368 29.0772 41.5511 29.0158 41.797C28.9821 41.932 28.9766 42.073 28.9994 42.2102C29.0255 42.367 29.0881 42.5156 29.1823 42.6439L34.4587 49.83C34.6504 50.0913 34.9547 50.2441 35.2762 50.2441C35.2983 50.2441 35.3204 50.2433 35.3425 50.2418C35.6881 50.219 35.9983 50.0219 36.1652 49.7183L42.0078 39.0955C42.1512 38.8351 42.1731 38.525 42.0678 38.2474ZM35.1534 47.3481L31.445 42.2973L37.3679 38.3395L39.6569 39.1602L35.1534 47.3481Z" fill="#C19444"/>
<path d="M30.9996 41.8682C30.9519 41.5958 30.7953 41.3548 30.5656 41.2007L23.3347 36.3689C23.1046 36.2149 22.8209 36.1622 22.5505 36.2222C22.509 36.2313 22.4683 36.2433 22.4283 36.2576L18.5387 37.6519C18.2591 37.7521 18.0375 37.9698 17.9324 38.2475C17.8273 38.5254 17.8491 38.8352 17.9923 39.0956L23.8349 49.7184C24.0018 50.022 24.312 50.2192 24.6576 50.2419C24.6796 50.2433 24.7017 50.244 24.7238 50.244C25.0453 50.244 25.3494 50.0912 25.5415 49.8298L28.3608 45.9901C28.363 45.9872 28.3653 45.984 28.3675 45.9809L30.818 42.6432C30.9816 42.4203 31.0472 42.1405 30.9996 41.8682ZM26.7256 44.7889C26.7231 44.7922 26.7208 44.7955 26.7183 44.7988L24.8465 47.3482L20.3429 39.1602L22.6321 38.3396L28.5549 42.2974L26.7256 44.7889Z" fill="#C19444"/>
<path d="M59.9499 55.5652L58.6412 47.6629C58.2289 45.1725 56.4981 43.0919 54.1244 42.2333L41.4641 37.6529C41.0738 37.5118 40.6375 37.6225 40.3616 37.9321C40.0857 38.2418 40.0261 38.6883 40.2113 39.0597L42.8545 44.3605L40.2608 44.4005C39.9087 44.406 39.5844 44.5935 39.4045 44.8963C39.2245 45.1991 39.2145 45.5734 39.3778 45.8855L40.4416 47.9167L29.5546 57.8761C29.5434 57.8863 29.5325 57.8966 29.5219 57.9073L29.2971 58.1321C28.9787 58.4506 28.9083 58.9409 29.1245 59.3361L29.1324 59.3505C29.3104 59.6757 29.6517 59.8781 30.0225 59.8781H56.2926C57.3839 59.8781 58.4145 59.4008 59.1201 58.5685C59.8258 57.7362 60.1282 56.6415 59.9499 55.5652ZM57.573 57.2563C57.2533 57.6332 56.7866 57.8493 56.2927 57.8493H32.5896L42.3878 48.8863C42.7276 48.5757 42.8155 48.0751 42.6018 47.6672L41.9399 46.4036L44.4976 46.3642C44.8463 46.3589 45.1675 46.1748 45.3488 45.8771C45.5298 45.579 45.5454 45.2092 45.3899 44.8971L43.159 40.4234L53.4347 44.1409C55.1193 44.7503 56.3475 46.2269 56.6402 47.9942L57.9488 55.8965V55.8966C58.0294 56.384 57.8925 56.8795 57.573 57.2563Z" fill="#C19444"/>
<path d="M30.7032 58.1116L30.6913 58.1009C30.2898 57.7374 29.6732 57.7536 29.2912 58.1377L29.2806 58.1484C28.9918 58.439 28.9061 58.875 29.0634 59.2533C29.2207 59.6317 29.5903 59.8781 30 59.8781H30.0223C30.4417 59.8781 30.818 59.6198 30.9687 59.2285C31.1198 58.837 31.0142 58.3931 30.7032 58.1116Z" fill="#C19444"/>
<path d="M30.6713 58.0823C30.4411 57.875 30.1288 57.7842 29.8229 57.8363C29.5174 57.888 29.2523 58.0768 29.1032 58.3484L29.0962 58.3612C28.8823 58.7511 28.9474 59.2348 29.2566 59.5545L29.2603 59.5583C29.459 59.7637 29.7239 59.8673 29.9894 59.8673C30.2338 59.8673 30.4788 59.7794 30.6729 59.6021L30.6835 59.5925C30.7756 59.5086 30.8516 59.4081 30.9074 59.2965C31.1116 58.8883 31.0106 58.3875 30.6713 58.0823Z" fill="#C19444"/>
<path d="M30.7152 58.1444L30.7109 58.1401C30.7082 58.1374 30.7054 58.1345 30.7029 58.132L30.4779 57.9072C30.4673 57.8965 30.4564 57.8861 30.4454 57.8761L19.5583 47.9167L20.6222 45.8855C20.7857 45.5735 20.7755 45.1991 20.5956 44.8963C20.4156 44.5936 20.0915 44.406 19.7394 44.4005L17.1454 44.3605L19.7887 39.0597C19.9739 38.6884 19.9141 38.2418 19.6383 37.9321C19.3626 37.6224 18.9257 37.5116 18.5358 37.6529L5.8757 42.2333C3.50194 43.0917 1.77108 45.1724 1.3587 47.6629L0.0500627 55.5652C-0.12818 56.6419 0.174399 57.7365 0.880103 58.5686C1.58592 59.4008 2.61659 59.8781 3.70761 59.8781H30.0001C30.4109 59.8781 30.7811 59.6302 30.9377 59.2505C31.0944 58.8708 31.0065 58.434 30.7152 58.1444ZM3.70773 57.8493C3.21366 57.8493 2.74702 57.6332 2.42757 57.2563C2.10811 56.8796 1.97124 56.384 2.05186 55.8965L3.3605 47.9942C3.65312 46.2266 4.88136 44.7503 6.56593 44.1409L16.8415 40.4234L14.6108 44.8969C14.4551 45.209 14.4706 45.5788 14.6519 45.8768C14.8329 46.1747 15.1544 46.3587 15.503 46.364L18.0608 46.4035L17.3989 47.6671C17.1853 48.0749 17.2731 48.5755 17.6128 48.8862L27.4109 57.8493H3.70773Z" fill="#C19444"/>
<path d="M33.4529 45.6513C33.5262 45.3584 33.4651 45.0482 33.2864 44.8048L30.8177 41.4428C30.5583 41.0893 30.1008 40.9488 29.6843 41.0855C29.4594 41.1592 29.2741 41.308 29.1508 41.4982L26.7273 44.7866C26.6926 44.8335 26.6618 44.8839 26.6356 44.9361C26.4696 45.2684 26.4983 45.6647 26.7104 45.9695L27.7425 47.4516L26.643 54.3817C26.6078 54.6042 26.6476 54.8321 26.7561 55.0295L29.1114 59.3117C29.2896 59.6359 29.6304 59.8373 30.0002 59.8373C30.3702 59.8373 30.7108 59.6359 30.8891 59.3117L33.2619 54.9978C33.3442 54.848 33.3874 54.6798 33.3874 54.509V54.5084C33.3874 54.4552 33.3831 54.402 33.3749 54.3494L32.2805 47.4517L33.3014 45.9859C33.3715 45.8844 33.4232 45.7709 33.4529 45.6513ZM30.0002 56.718L28.7012 54.3563L29.8103 47.3661C29.8514 47.1072 29.7906 46.8425 29.6408 46.6275L28.7907 45.4066L30.0032 43.7616L31.2219 45.4214L30.382 46.6275C30.2323 46.8424 30.1715 47.1072 30.2126 47.3661L31.3166 54.3244L30.0002 56.718Z" fill="#C19444"/>
</g>
<defs>
<clipPath id="clip0_784_4195">
<rect width="60" height="60" fill="white"/>
</clipPath>
</defs>
</svg>
