<svg width="14" height="18" viewBox="0 0 14 18" fill="none" xmlns="http://www.w3.org/2000/svg">
<path fill-rule="evenodd" clip-rule="evenodd" d="M0 0H12.0558V2.4998H11.278V0.99992H0.777791V12.499H9.09509V13.4989H0V0ZM11.6669 6.49948C11.9763 6.49948 12.273 6.34146 12.4918 6.06017C12.7106 5.77889 12.8335 5.39739 12.8335 4.9996C12.8335 4.60181 12.7106 4.22031 12.4918 3.93902C12.273 3.65774 11.9763 3.49972 11.6669 3.49972C11.3574 3.49972 11.0607 3.65774 10.8419 3.93902C10.6231 4.22031 10.5002 4.60181 10.5002 4.9996C10.5002 5.39739 10.6231 5.77889 10.8419 6.06017C11.0607 6.34146 11.3574 6.49948 11.6669 6.49948ZM12.4567 7.5044C12.9619 7.5044 13.3617 7.79637 13.6234 8.24734C13.868 8.6698 13.9715 9.19226 13.9948 9.67472C14.0176 10.1696 13.9652 10.6655 13.8404 11.1346C13.7237 11.5696 13.5266 12.0195 13.2224 12.328V17.2486C13.2227 17.437 13.1678 17.6187 13.0687 17.7574C12.9695 17.8962 12.8333 17.9819 12.6873 17.9974C12.5412 18.013 12.396 17.9573 12.2804 17.8414C12.1648 17.7256 12.0874 17.558 12.0635 17.3721L11.5619 13.4989H11.446L10.879 17.3866C10.852 17.5701 10.7728 17.7341 10.6569 17.8465C10.5409 17.9588 10.3964 18.0116 10.2518 17.9943C10.1072 17.9771 9.97279 17.8911 9.87487 17.7532C9.77696 17.6152 9.72258 17.4353 9.72238 17.2486V10.1157C9.64461 10.268 9.56787 10.4211 9.49216 10.5752L9.46182 10.6366L9.45404 10.6526L9.4521 10.6571C9.39969 10.7653 9.32669 10.8546 9.24 10.9164C9.15331 10.9783 9.05579 11.0107 8.95665 11.0106H7.01217C6.85746 11.0106 6.70908 10.9316 6.59969 10.791C6.49029 10.6503 6.42883 10.4596 6.42883 10.2607C6.42883 10.0618 6.49029 9.87103 6.59969 9.73039C6.70908 9.58975 6.85746 9.51074 7.01217 9.51074H8.63659C8.73109 9.32275 8.85554 9.07877 8.9862 8.83379C9.12232 8.57831 9.27243 8.30783 9.40621 8.09585C9.47116 7.99236 9.54388 7.88437 9.61699 7.79587C9.65277 7.75238 9.70255 7.69588 9.76322 7.64589C9.87028 7.55554 9.99527 7.5066 10.1233 7.5049H12.4567V7.5044Z" fill="#C19444"/>
</svg>
