<svg width="60" height="60" viewBox="0 0 60 60" fill="none" xmlns="http://www.w3.org/2000/svg">
<g clip-path="url(#clip0_1_1453)">
<path d="M49.3549 4.83868H47.4194V6.77417H49.3549V4.83868Z" fill="#C19444"/>
<path d="M58.0394 22.8C57.1016 21.8623 55.92 21.2294 54.6194 20.969L53.9661 20.8384C55.3026 19.4468 56.129 17.5616 56.129 15.4839V9.90581L56.7223 8.71839C56.9671 8.22774 57.0968 7.68 57.0968 7.13323C57.0968 5.99129 56.5423 4.91226 55.6123 4.24742L50.7048 0.742258C49.3442 -0.229355 47.431 -0.229355 46.0703 0.742258L41.1629 4.24742C40.2319 4.91129 39.6774 5.99032 39.6774 7.13323C39.6774 7.67903 39.8071 8.22774 40.0519 8.71935L40.6452 9.90581V15.4839C40.6452 17.5103 41.4339 19.3519 42.7132 20.7339C40.6597 21.2613 38.6719 21.991 36.7742 22.9306V13.5484V11.6129V4.83871C36.7742 2.17065 34.6035 0 31.9355 0H4.83871C2.17065 0 0 2.17065 0 4.83871V11.6129V13.5484V60H5.80645V13.5484H30.9677V26.219L28.7419 27.5177C28.4855 27.6677 28.2629 27.8574 28.0587 28.0655H16.4516C14.851 28.0655 13.5484 29.3681 13.5484 30.9687C13.5484 32.5694 14.851 33.8719 16.4516 33.8719H30C30.1413 33.8719 30.2768 33.8497 30.4132 33.8303V33.871C30.6 33.871 30.7839 33.8371 30.9677 33.8061V60H36.7742V31.0819L38.9381 30H40.6452V33.871V34.8387V38.7097V39.6774V60H48.3871H49.3548H56.129V42.4026C56.4329 42.511 56.7561 42.5806 57.0968 42.5806C58.6974 42.5806 60 41.2781 60 39.6774V27.5332C60 25.7448 59.3032 24.0629 58.0394 22.8ZM30 31.9355H16.4516C15.9174 31.9355 15.4839 31.501 15.4839 30.9677C15.4839 30.4345 15.9174 30 16.4516 30H30C30.5342 30 30.9677 30.4345 30.9677 30.9677C30.9677 31.501 30.5342 31.9355 30 31.9355ZM54.1935 11.6129H42.5806V10.6452H54.1935V11.6129ZM41.7832 7.85419C41.6719 7.63065 41.6129 7.38097 41.6129 7.13323C41.6129 6.61355 41.8655 6.12387 42.2864 5.8229L47.1939 2.31774C47.8955 1.81742 48.8777 1.81742 49.5794 2.31774L54.4858 5.8229C54.9087 6.12484 55.1613 6.61452 55.1613 7.13323C55.1613 7.38097 55.1023 7.63064 54.991 7.85323L54.5632 8.70968H42.211L41.7832 7.85419ZM42.5806 15.4839V13.5484H54.1935V15.4839C54.1935 17.5239 53.1339 19.3171 51.539 20.3535L51.48 20.3419L51.4694 20.3961C50.5752 20.9594 49.5203 21.2903 48.3871 21.2903C45.1848 21.2903 42.5806 18.6861 42.5806 15.4839ZM51.96 22.411L51.0213 23.819L49.9035 23.0739C50.5965 22.9365 51.2516 22.7013 51.8632 22.3916L51.96 22.411ZM46.8697 23.0748L45.7519 23.82L44.7484 22.3142C45.4055 22.6645 46.1177 22.9239 46.8697 23.0748ZM3.87097 58.0645H1.93548V56.129H3.87097V58.0645ZM3.87097 54.1935H1.93548V13.5484H3.87097V54.1935ZM8.70968 11.6129H5.80645H1.93548V4.83871C1.93548 3.23806 3.23806 1.93548 4.83871 1.93548H8.70968V11.6129ZM26.129 11.6129H10.6452V1.93548H26.129V11.6129ZM28.0645 11.6129V1.93548H31.9355C33.5361 1.93548 34.8387 3.23806 34.8387 4.83871V11.6129H30.9677H28.0645ZM34.8387 13.5484V23.9603L32.9032 25.0897V13.5484H34.8387ZM34.8387 58.0645H32.9032V56.129H34.8387V58.0645ZM34.8387 54.1935H32.9032V33.0174L34.8387 32.0497V54.1935ZM32.8926 30.8594C32.85 29.7319 32.1677 28.77 31.1932 28.3277L35.9032 25.5803C36.0068 25.5203 36.1152 25.4719 36.2197 25.4129L37.4806 28.5648L32.8926 30.8594ZM39.3648 28.0645L37.9394 24.5023C39.54 23.7339 41.2103 23.131 42.9271 22.6723L42.7423 22.7952L45.2148 26.5035L47.4194 25.0335V33.871H42.5806V28.0645H39.3648ZM45.4839 35.8064V37.7419H42.5806V35.8064H45.4839ZM47.4194 58.0645H42.5806V39.6774H47.4194V58.0645ZM47.4194 37.7419V35.8064H49.3548V37.7419H47.4194ZM54.1935 58.0645H49.3548V39.6774H54.1935V58.0645ZM54.1935 37.7419H51.2903V35.8064H54.1935V37.7419ZM58.0645 39.6774C58.0645 40.2106 57.631 40.6452 57.0968 40.6452C56.5626 40.6452 56.129 40.2106 56.129 39.6774V38.7097V33.871H58.0645V39.6774ZM58.0645 31.9355H56.129V28.0645H54.1935V33.871H49.3548V25.0335L51.5584 26.5026L54.0126 22.8213L54.2381 22.8668C55.1632 23.0516 56.0042 23.5026 56.671 24.1694C57.57 25.0674 58.0645 26.2626 58.0645 27.5342V31.9355Z" fill="#C19444"/>
<path d="M52.258 14.5161H50.3225V16.4516H52.258V14.5161Z" fill="#C19444"/>
<path d="M46.4516 14.5161H44.5161V16.4516H46.4516V14.5161Z" fill="#C19444"/>
<path d="M14.5161 3.87097H12.5806V5.80646H14.5161V3.87097Z" fill="#C19444"/>
<path d="M24.1936 3.87097H16.4517V5.80646H24.1936V3.87097Z" fill="#C19444"/>
<path d="M24.1935 7.74194H12.5806V9.67743H24.1935V7.74194Z" fill="#C19444"/>
</g>
<defs>
<clipPath id="clip0_1_1453">
<rect width="60" height="60" fill="white"/>
</clipPath>
</defs>
</svg>
