<svg width="14" height="15" viewBox="0 0 14 15" fill="none" xmlns="http://www.w3.org/2000/svg">
<path d="M10.317 0.75L9.62041 1.42996L11.4447 3.27088C11.5409 3.3557 11.5501 3.50242 11.4653 3.59861C11.4589 3.60588 11.452 3.61277 11.4447 3.61918C11.3954 3.66508 11.3296 3.68902 11.2623 3.68552C11.2004 3.68641 11.1407 3.66254 11.0965 3.61918L9.25555 1.79483L8.3268 2.72358L9.5209 3.9011C9.61778 4.00344 9.61778 4.16363 9.5209 4.26597C9.47668 4.3093 9.41697 4.3332 9.35506 4.33231C9.28777 4.33581 9.22196 4.31187 9.17263 4.26597L7.97853 3.07187L7.04976 4.00062L8.89068 5.82493C8.97366 5.93239 8.97366 6.08232 8.89068 6.1898C8.78544 6.2791 8.63104 6.2791 8.52581 6.1898L6.70149 4.34889L5.77275 5.27763L6.96684 6.47172C7.06166 6.56845 7.06166 6.72326 6.96684 6.81999C6.87342 6.92075 6.71603 6.92671 6.61527 6.83329C6.61067 6.82904 6.60623 6.82459 6.60197 6.81999L5.42445 5.62593L4.49571 6.55467L6.32002 8.39559C6.41621 8.48041 6.42541 8.62713 6.34059 8.72332C6.33418 8.73058 6.32729 8.73747 6.32002 8.74389C6.27069 8.78979 6.20488 8.81372 6.13759 8.81023C6.07565 8.81112 6.01597 8.78725 5.97175 8.74389L4.13084 6.91957L3.20209 7.84831L4.39619 9.02584C4.49307 9.12818 4.49307 9.28836 4.39619 9.39071C4.35197 9.43404 4.29226 9.45794 4.23036 9.45705C4.16306 9.46054 4.09725 9.43661 4.04792 9.39071L2.8538 8.19658L0.25 10.817L3.68305 14.25L13.75 4.18305L10.317 0.75ZM3.89904 12.0107C3.89891 12.0108 3.89879 12.0109 3.89863 12.0111C3.52303 12.3865 2.91427 12.3865 2.53867 12.0111C2.16291 11.6355 2.16272 11.0265 2.53826 10.6507C2.91379 10.2749 3.52284 10.2748 3.89863 10.6503C4.27442 11.0259 4.27461 11.6349 3.89904 12.0107Z" fill="#C19444"/>
</svg>
