<svg width="40" height="40" viewBox="0 0 40 40" fill="none" xmlns="http://www.w3.org/2000/svg">
<path d="M20 38.8281C30.3985 38.8281 38.8281 30.3985 38.8281 20C38.8281 9.60151 30.3985 1.17188 20 1.17188C9.60151 1.17188 1.17188 9.60151 1.17188 20C1.17188 30.3985 9.60151 38.8281 20 38.8281Z" fill="#EC2727"/>
<path d="M32.4614 21.3182C31.3099 20.8933 30.2378 20.4308 29.9087 20.2868C29.6536 20.0816 29.6621 19.7958 29.6793 19.6767C29.703 19.5112 29.8232 19.1068 30.4249 18.9255C31.7581 18.524 32.9932 19.5126 33.0056 19.5226L32.9989 19.5171L32.9995 19.5163C33.2034 19.6879 33.4661 19.7918 33.7528 19.7918C34.399 19.7918 34.9247 19.2661 34.9247 18.62C34.9247 18.2606 34.7618 17.9388 34.5062 17.7236L34.5068 17.7229C34.4183 17.6484 32.3098 15.9098 29.7488 16.6814C28.4546 17.0712 27.5389 18.0914 27.3592 19.3436C27.1905 20.5186 27.6998 21.6489 28.6884 22.2933C28.7402 22.3271 28.7945 22.3567 28.851 22.3818C28.9052 22.4061 30.1962 22.9808 31.6502 23.5171C32.0612 23.6686 33.0038 24.0965 32.8793 24.7933C32.7857 25.3173 32.1476 25.8593 31.2417 25.8593C30.3099 25.8593 29.4132 25.4837 28.843 24.8547C28.4085 24.375 27.6673 24.3387 27.1877 24.7732C26.7081 25.2078 26.6717 25.9489 27.1063 26.4285C28.1134 27.5397 29.6593 28.2031 31.2418 28.2031C33.2175 28.2031 34.8765 26.9423 35.1867 25.2054C35.42 23.8982 34.8267 22.1906 32.4614 21.3182Z" fill="white"/>
<path d="M10.4238 21.3182C9.27228 20.8933 8.20017 20.4308 7.87111 20.2868C7.61595 20.0816 7.62455 19.7958 7.64166 19.6767C7.66541 19.5112 7.78556 19.1068 8.38728 18.9255C9.72049 18.524 10.9556 19.5126 10.968 19.5226L10.9613 19.5171L10.9619 19.5163C11.1658 19.6879 11.4285 19.7918 11.7153 19.7918C12.3614 19.7918 12.8871 19.2661 12.8871 18.62C12.8871 18.2606 12.7242 17.9388 12.4686 17.7236L12.4692 17.7229C12.3807 17.6484 10.2722 15.9098 7.71119 16.6814C6.41697 17.0712 5.50127 18.0914 5.32158 19.3436C5.15291 20.5186 5.6622 21.6489 6.6508 22.2933C6.70259 22.3271 6.75689 22.3567 6.81338 22.3818C6.86759 22.4061 8.15861 22.9808 9.61259 23.5171C10.0236 23.6686 10.9662 24.0965 10.8417 24.7933C10.7481 25.3173 10.11 25.8593 9.20408 25.8593C8.27228 25.8593 7.37556 25.4837 6.80541 24.8547C6.37088 24.375 5.6297 24.3387 5.15009 24.7732C4.67048 25.2078 4.63408 25.9489 5.06869 26.4285C6.0758 27.5397 7.62174 28.2031 9.20408 28.2031C11.1798 28.2031 12.8388 26.9423 13.149 25.2054C13.3824 23.8982 12.7891 22.1906 10.4238 21.3182Z" fill="#F9F9F9"/>
<path d="M20 28.2031C16.7691 28.2031 14.1406 25.5746 14.1406 22.3438C14.1406 19.1129 16.7691 16.4844 20 16.4844C23.2309 16.4844 25.8594 19.1129 25.8594 22.3438C25.8594 25.5746 23.2309 28.2031 20 28.2031ZM20 18.8281C18.0615 18.8281 16.4844 20.4052 16.4844 22.3438C16.4844 24.2823 18.0615 25.8594 20 25.8594C21.9385 25.8594 23.5156 24.2823 23.5156 22.3438C23.5156 20.4052 21.9385 18.8281 20 18.8281Z" fill="#F9F9F9"/>
<!--<path d="M20 0C8.9543 0 0 8.9543 0 20C0 31.0457 8.9543 40 20 40C31.0457 40 40 31.0457 40 20C40 8.9543 31.0457 0 20 0ZM20 37.6562C10.2487 37.6562 2.34375 29.7512 2.34375 20C2.34375 10.2487 10.2487 2.34375 20 2.34375C29.7512 2.34375 37.6562 10.2487 37.6562 20C37.6562 29.7512 29.7512 37.6562 20 37.6562Z" fill="#F9F9F9"/>-->
<path d="M25.5246 10.1791C25.2246 10.1791 24.9246 10.0646 24.6958 9.8357C23.4418 8.58141 21.7742 7.89063 20.0001 7.89063C18.2267 7.89063 16.5592 8.58125 15.3045 9.83531C14.8467 10.2928 14.1047 10.2926 13.6472 9.83484C13.1897 9.37711 13.1899 8.63516 13.6476 8.17758C15.345 6.48117 17.601 5.54688 20.0001 5.54688C22.4003 5.54688 24.6566 6.48156 26.3533 8.17867C26.8109 8.63633 26.8108 9.37836 26.3531 9.83602C26.1243 10.0647 25.8244 10.1791 25.5246 10.1791Z" fill="#F9F9F9"/>
<path d="M22.2095 13.4915C21.9095 13.4915 21.6096 13.377 21.3809 13.1482C21.012 12.7793 20.5215 12.5762 19.9998 12.5762C19.478 12.5762 18.9876 12.7794 18.6187 13.1482C18.1611 13.6058 17.4191 13.6058 16.9614 13.1482C16.5038 12.6906 16.5038 11.9486 16.9614 11.4909C18.6367 9.81553 21.3627 9.81553 23.038 11.4909C23.4957 11.9485 23.4957 12.6905 23.038 13.1482C22.8093 13.377 22.5094 13.4915 22.2095 13.4915Z" fill="#F9F9F9"/>
</svg>
