<svg width="78" height="90" viewBox="0 0 78 90" fill="none" xmlns="http://www.w3.org/2000/svg">
<path d="M2.87165 34.1251L2.86385 34.125L2.85606 34.125C2.4825 34.1284 2.1147 34.0329 1.79001 33.8481L1.7866 33.8462C1.551 33.7138 1.34418 33.5357 1.17824 33.3224C1.01229 33.1091 0.890563 32.8648 0.820164 32.6038C0.749766 32.3429 0.732114 32.0706 0.768242 31.8027C0.804246 31.5358 0.892941 31.2787 1.02916 31.0464C4.5664 25.1438 15.3584 11.2969 38.9978 11.2969C49.2621 11.2969 58.2277 13.9909 65.6627 19.2751L65.6636 19.2757C71.7897 23.617 75.2244 28.5307 76.8765 30.9214L76.8777 30.9232C77.0318 31.1447 77.1399 31.3949 77.1959 31.6589C77.2518 31.9229 77.2543 32.1954 77.2033 32.4604C77.1524 32.7254 77.0489 32.9775 76.899 33.2019C76.7491 33.4263 76.5558 33.6185 76.3305 33.767L76.3299 33.7675C75.8615 34.0771 75.2908 34.1922 74.739 34.0883C74.188 33.9845 73.6991 33.6706 73.3753 33.2129C70.3217 28.8215 60.9381 15.375 38.9978 15.375C17.5992 15.375 7.87449 27.7341 4.69163 33.0774L4.69154 33.0774L4.68528 33.0883C4.50265 33.4069 4.23827 33.671 3.91943 33.8533C3.6006 34.0355 3.23888 34.1294 2.87165 34.1251Z" fill="#C19444" stroke="white" stroke-width="1.5"/>
<path d="M51.0902 89.2498L51.0807 89.2499C50.9043 89.252 50.7283 89.2321 50.5568 89.1906C42.07 87.0876 36.2255 81.7912 32.4567 76.8959C28.784 72.1254 27.1142 67.7753 26.9213 67.2552L26.8894 67.132L26.8873 67.1236L26.8849 67.1153C26.8834 67.1098 26.8814 67.1029 26.879 67.0946C26.7774 66.7387 25.9223 63.7453 25.7112 59.9971C25.4937 56.1352 25.9696 51.6295 28.4845 48.3505C30.77 45.3872 34.2647 43.8205 39.024 43.8205C43.4406 43.8205 46.5058 45.1818 48.6075 47.9084L48.6094 47.9109C50.3718 50.1774 51.0923 52.9914 51.8251 55.8846L51.8255 55.8862C52.5785 58.8333 53.2656 61.2781 54.6429 62.9969C56.0796 64.7896 58.1772 65.7036 61.4746 65.8714L61.4749 65.8714C64.6118 66.03 66.6507 64.1826 67.7607 62.6992L67.7626 62.6968C70.7556 58.6626 71.2186 52.2184 69.0372 46.6043C66.2618 39.4299 56.4182 25.8749 38.9977 25.8749C31.5802 25.8749 24.7464 28.2604 19.2623 32.7555L19.2621 32.7556C14.7305 36.4727 11.1413 41.7158 9.40852 47.1222L9.40826 47.123C7.79156 52.1872 8.05486 58.6265 8.69748 63.7437C9.33224 68.7983 10.3531 72.6773 10.4127 72.8972C10.4825 73.1589 10.4993 73.432 10.4621 73.7003C10.4248 73.9688 10.3341 74.2271 10.1954 74.46C10.0566 74.6929 9.87269 74.8956 9.65436 75.0563C9.43603 75.217 9.18774 75.3323 8.92414 75.3955L8.91516 75.3977L8.90624 75.4001C8.36652 75.5436 7.79205 75.47 7.30596 75.195C6.82195 74.9213 6.4639 74.4696 6.30775 73.9361C6.20365 73.5455 5.08255 69.3214 4.42592 63.8003C3.76204 58.2181 3.58581 51.4077 5.34336 45.8995C9.19785 33.8836 21.0951 21.7705 39.0034 21.7705C47.2777 21.7705 55.0947 24.5811 61.6274 29.8985C66.6966 34.0432 70.8288 39.6061 72.9826 45.1388C75.7106 52.1779 74.9484 60.0122 71.1701 65.0691L71.1699 65.0693C68.6685 68.4198 65.1418 70.1406 61.2447 69.9533C56.021 69.6915 53.034 67.7557 51.1583 65.2949C49.2436 62.7829 48.4299 59.6595 47.7134 56.8749L47.7133 56.8743C46.9936 54.0858 46.3623 51.8107 45.1267 50.2688C43.8183 48.6363 41.9272 47.9136 39.0034 47.9136C35.8027 47.9136 33.3798 48.7988 31.8458 50.7984L31.8451 50.7993C30.8259 52.132 30.303 53.8011 30.0538 55.4414C29.8038 57.0871 29.821 58.759 29.9247 60.1479C30.0612 62.0859 30.3899 64.0055 30.9059 65.8785L30.9168 65.9178L30.9318 65.9558C31.1683 66.5519 32.7641 70.4694 36.0745 74.683C39.3842 78.8957 44.4466 83.4525 51.6217 85.2304L51.6292 85.2322C51.8922 85.2945 52.1402 85.4084 52.3588 85.5674C52.5774 85.7263 52.7622 85.9272 52.9025 86.1582C53.0428 86.3892 53.1358 86.6458 53.1761 86.913C53.2159 87.1769 53.2036 87.446 53.1397 87.7051C53.013 88.1486 52.7457 88.5392 52.3778 88.8178C52.0072 89.0985 51.555 89.2502 51.0902 89.2498Z" fill="#C19444" stroke="white" stroke-width="1.5"/>
<path d="M21.1728 39.626C25.4123 34.9501 31.3909 32.5391 39.0034 32.5391C47.9311 32.5391 54.9139 36.6681 59.2922 44.5087C60.8884 47.3709 61.848 50.235 62.4103 52.4172C62.6911 53.5069 62.8718 54.4228 62.983 55.0782C63.0386 55.4058 63.0768 55.6678 63.1014 55.8532C63.1136 55.9459 63.1225 56.0191 63.1284 56.0713C63.1347 56.1275 63.1367 56.1509 63.1365 56.1492L63.1371 56.1575L63.1379 56.1658C63.1631 56.4376 63.1344 56.7117 63.0535 56.9725C62.9726 57.2332 62.8411 57.4754 62.6665 57.6852C62.4918 57.895 62.2775 58.0683 62.0358 58.1952C61.7941 58.3221 61.5297 58.4 61.2578 58.4246L61.2578 58.4245L61.2444 58.4259C60.6934 58.4857 60.1409 58.3264 59.7063 57.9824C59.2717 57.6384 58.9898 57.1373 58.9215 56.5872L58.9216 56.5872L58.9199 56.5751C58.4132 52.9762 57.2485 49.5012 55.4841 46.3237L55.4842 46.3237L55.4809 46.318C51.8549 39.9199 46.2903 36.6359 38.9828 36.6359C32.7532 36.6359 27.7754 38.5157 24.3289 42.3199L24.3289 42.3199C19.4098 47.7497 18.5018 56.0233 19.1621 61.4355L19.1631 61.4435L19.1642 61.4514C20.4853 70.6435 24.0275 77.9807 30.2728 84.5238L30.2746 84.5257C30.461 84.7196 30.6065 84.949 30.7025 85.2002C30.7984 85.4514 30.8429 85.7194 30.8332 85.9882C30.8235 86.257 30.7599 86.521 30.6461 86.7647C30.5324 87.0084 30.3707 87.2268 30.1709 87.4068L30.1691 87.4084C29.7779 87.763 29.2695 87.9609 28.7415 87.9641C28.4521 87.9646 28.1656 87.9069 27.899 87.7944C27.6332 87.6822 27.3927 87.5179 27.1916 87.3111C20.3475 80.1272 16.4762 72.1109 15.0091 62.0628V62.0169L15.0035 61.9712C14.1862 55.3265 15.4001 45.995 21.1728 39.626ZM21.1728 39.626L20.6172 39.1222L21.1728 39.626Z" fill="#C19444" stroke="white" stroke-width="1.5"/>
<path d="M45.8932 75.0344L45.892 75.0334C37.8558 68.5585 36.9118 57.9772 36.8652 57.4546L36.8651 57.4542C36.823 56.8967 37.0035 56.3453 37.3671 55.9205C37.7316 55.4948 38.2503 55.2313 38.8091 55.188C39.3679 55.1447 39.921 55.3251 40.3467 55.6896C40.7725 56.0541 41.036 56.5728 41.0793 57.1316L41.0808 57.1503L41.0831 57.1688C41.0806 57.1487 41.103 57.3615 41.1392 57.6237C41.1781 57.9052 41.2395 58.301 41.3329 58.786C41.5196 59.7553 41.8348 61.0852 42.3559 62.5758C43.3946 65.5475 45.2707 69.2138 48.631 71.9087L48.6322 71.9097C52.6267 75.0998 57.9203 76.3222 64.3171 75.6033L64.3171 75.6034L64.3236 75.6026C64.8746 75.5357 65.4297 75.6898 65.8675 76.031C66.3037 76.371 66.5882 76.8693 66.6591 77.4177C66.6881 77.686 66.6638 77.9575 66.5875 78.2164C66.5107 78.4772 66.3827 78.72 66.211 78.9308C66.0393 79.1416 65.8274 79.316 65.5875 79.444C65.3477 79.572 65.0848 79.651 64.8141 79.6763L64.8056 79.6771L64.797 79.6781C63.4839 79.8313 62.163 79.9085 60.841 79.9093C54.8924 79.9092 49.8858 78.2649 45.8932 75.0344Z" fill="#C19444" stroke="white" stroke-width="1.5"/>
<path d="M65.2476 6.77678L65.3084 6.81636L65.3757 6.84355C65.7535 6.99611 66.077 7.2581 66.3048 7.59586C66.5318 7.93248 66.6534 8.32906 66.6541 8.73501C66.6505 9.00668 66.5936 9.27501 66.4866 9.52476C66.379 9.77573 66.223 10.003 66.0273 10.1935C65.8317 10.384 65.6004 10.534 65.3467 10.6349C65.0929 10.7358 64.8218 10.7855 64.5487 10.7813L64.5399 10.7812L64.531 10.7813C64.0726 10.7851 63.6254 10.6394 63.2571 10.3663L63.2044 10.3273L63.1867 10.3184C63.1711 10.3079 63.1505 10.294 63.1257 10.2775C63.0586 10.2329 62.9618 10.1697 62.8349 10.0905C62.5813 9.93237 62.2098 9.71226 61.7168 9.45116C60.7307 8.92897 59.2605 8.24382 57.2769 7.56248C53.3085 6.19934 47.2941 4.85437 39.0035 4.85437C22.6365 4.85437 15.1869 10.1139 14.7983 10.3976C14.4368 10.6471 14.008 10.781 13.5686 10.7812L13.5686 10.7812L13.5566 10.7814C13.2838 10.7859 13.0128 10.7366 12.7591 10.6362C12.5054 10.5359 12.274 10.3864 12.0781 10.1964C11.8823 10.0065 11.7259 9.77975 11.6178 9.52923C11.5106 9.28069 11.4531 9.01359 11.4485 8.743C11.4504 8.45553 11.5131 8.17168 11.6325 7.91011C11.7399 7.67496 11.8909 7.46264 12.0772 7.28427C12.1236 7.25556 12.1673 7.22212 12.2075 7.18429C12.2763 7.12034 12.3514 7.06336 12.4315 7.01419L12.4488 7.00356L12.4655 6.992C14.2188 5.78031 22.5224 0.75 38.9979 0.75C54.6948 0.75 62.9839 5.30398 65.2476 6.77678ZM63.2152 10.3376L63.2125 10.3358C63.223 10.3424 63.2256 10.3445 63.2152 10.3376Z" fill="#C19444" stroke="white" stroke-width="1.5"/>
</svg>
