<svg width="62" height="62" viewBox="0 0 62 62" fill="none" xmlns="http://www.w3.org/2000/svg">
<path d="M9.37277 39.9263C8.96952 39.9263 8.58278 39.7661 8.29763 39.4809C8.01249 39.1958 7.85229 38.809 7.85229 38.4058V27.5597C7.85229 27.1565 8.01249 26.7697 8.29763 26.4846C8.58278 26.1994 8.96952 26.0392 9.37277 26.0392C9.77603 26.0392 10.1628 26.1994 10.4479 26.4846C10.7331 26.7697 10.8932 27.1565 10.8932 27.5597V38.4058C10.8932 38.809 10.7331 39.1958 10.4479 39.4809C10.1628 39.7661 9.77603 39.9263 9.37277 39.9263Z" fill="#C19444" stroke="white" stroke-width="0.5"/>
<path d="M16.224 15.7081C14.7695 15.7081 13.3477 15.2768 12.1384 14.4687C10.929 13.6606 9.9864 12.5121 9.42979 11.1683C8.87318 9.82453 8.72755 8.34588 9.0113 6.91934C9.29506 5.49279 9.99547 4.18243 11.0239 3.15395C12.0524 2.12547 13.3628 1.42507 14.7893 1.14131C16.2159 0.857552 17.6945 1.00319 19.0383 1.5598C20.3821 2.11641 21.5306 3.05899 22.3387 4.26836C23.1468 5.47772 23.5781 6.89955 23.5781 8.35404C23.5759 10.3038 22.8004 12.1731 21.4217 13.5518C20.0431 14.9304 18.1738 15.7059 16.224 15.7081ZM16.224 4.04096C15.371 4.04096 14.5371 4.29391 13.8278 4.76784C13.1185 5.24177 12.5657 5.91538 12.2393 6.70349C11.9128 7.49161 11.8274 8.35882 11.9938 9.19548C12.1602 10.0321 12.571 10.8007 13.1742 11.4038C13.7774 12.007 14.5459 12.4178 15.3826 12.5842C16.2192 12.7507 17.0865 12.6653 17.8746 12.3388C18.6627 12.0124 19.3363 11.4595 19.8102 10.7503C20.2842 10.041 20.5371 9.20709 20.5371 8.35404C20.5358 7.21055 20.0809 6.11428 19.2724 5.30571C18.4638 4.49714 17.3675 4.0423 16.224 4.04096Z" fill="#C19444" stroke="white" stroke-width="0.5"/>
<path d="M40.1999 27.0833C39.9063 27.0835 39.6189 26.9987 39.3725 26.8391C39.1261 26.6795 38.9311 26.452 38.8111 26.184C38.6912 25.916 38.6514 25.619 38.6966 25.3289C38.7417 25.0388 38.8699 24.768 39.0656 24.5492L47.3269 15.2885C47.46 15.1394 47.6212 15.0181 47.8012 14.9313C47.9812 14.8446 48.1765 14.7942 48.376 14.7829C48.5755 14.7717 48.7753 14.7998 48.9639 14.8658C49.1525 14.9317 49.3263 15.0342 49.4753 15.1673C49.6244 15.3004 49.7457 15.4616 49.8324 15.6416C49.9192 15.8216 49.9696 16.0169 49.9809 16.2164C49.9921 16.4159 49.9639 16.6157 49.898 16.8043C49.832 16.9929 49.7296 17.1667 49.5965 17.3158L41.3352 26.5714C41.1928 26.732 41.0181 26.8607 40.8224 26.9489C40.6267 27.0371 40.4146 27.0829 40.1999 27.0833Z" fill="#C19444" stroke="white" stroke-width="0.5"/>
<path d="M56.4386 40.8132H29.1582C28.755 40.8132 28.3682 40.653 28.0831 40.3678C27.798 40.0827 27.6378 39.6959 27.6378 39.2927C27.6378 38.8894 27.798 38.5027 28.0831 38.2176C28.3682 37.9324 28.755 37.7722 29.1582 37.7722H56.4386C56.8419 37.7722 57.2286 37.612 57.5137 37.3269C57.7989 37.0417 57.9591 36.655 57.9591 36.2517V5.59591C57.9591 5.19266 57.7989 4.80592 57.5137 4.52077C57.2286 4.23563 56.8419 4.07544 56.4386 4.07544H26.6109C26.2077 4.07544 25.8209 3.91524 25.5358 3.6301C25.2506 3.34496 25.0905 2.95822 25.0905 2.55496C25.0905 2.15171 25.2506 1.76497 25.5358 1.47982C25.8209 1.19468 26.2077 1.03448 26.6109 1.03448H56.4386C57.6484 1.03448 58.8086 1.51506 59.664 2.3705C60.5195 3.22593 61 4.38615 61 5.59591V36.2517C61 37.4615 60.5195 38.6217 59.664 39.4772C58.8086 40.3326 57.6484 40.8132 56.4386 40.8132Z" fill="#C19444" stroke="white" stroke-width="0.5"/>
<path d="M16.224 61.0011H9.37277C8.96952 61.0011 8.58278 60.8409 8.29763 60.5557C8.01249 60.2706 7.85229 59.8839 7.85229 59.4806V38.4058C7.85229 38.0025 8.01249 37.6158 8.29763 37.3307C8.58278 37.0455 8.96952 36.8853 9.37277 36.8853C9.77603 36.8853 10.1628 37.0455 10.4479 37.3307C10.7331 37.6158 10.8932 38.0025 10.8932 38.4058V57.9601H16.224C16.6273 57.9601 17.014 58.1203 17.2992 58.4055C17.5843 58.6906 17.7445 59.0773 17.7445 59.4806C17.7445 59.8839 17.5843 60.2706 17.2992 60.5557C17.014 60.8409 16.6273 61.0011 16.224 61.0011Z" fill="#C19444" stroke="white" stroke-width="0.5"/>
<path d="M23.0763 61.0011H16.224C15.8208 61.0011 15.434 60.8409 15.1489 60.5557C14.8637 60.2706 14.7035 59.8838 14.7035 59.4806V39.2927C14.7035 38.8895 14.8637 38.5027 15.1489 38.2176C15.434 37.9324 15.8208 37.7722 16.224 37.7722C16.6273 37.7722 17.014 37.9324 17.2992 38.2176C17.5843 38.5027 17.7445 38.8895 17.7445 39.2927V57.9601H21.5558V29.213C21.5557 28.5819 21.7428 27.965 22.0934 27.4403C22.4439 26.9156 22.9423 26.5067 23.5253 26.2653C24.1083 26.0238 24.7499 25.9607 25.3688 26.084C25.9877 26.2072 26.5561 26.5112 27.0022 26.9576L29.3853 29.3377C29.5618 29.515 29.7717 29.6557 30.003 29.7514C30.2342 29.847 30.4821 29.8959 30.7324 29.8952H37.8087C38.0623 29.8952 38.3134 29.8447 38.5472 29.7464C38.781 29.6482 38.9929 29.5043 39.1704 29.3231C39.3479 29.1419 39.4874 28.9272 39.5808 28.6914C39.6742 28.4556 39.7196 28.2035 39.7144 27.95C39.6931 26.9211 38.8081 26.0849 37.7418 26.0849H32.1475C31.7443 26.0845 31.3579 25.9241 31.073 25.6389L27.7999 22.3668C27.2061 21.7695 26.4997 21.296 25.7215 20.9738C24.9434 20.6515 24.1091 20.4869 23.2669 20.4895H22.087L19.789 22.4002C18.7879 23.2323 17.5273 23.6878 16.2255 23.6878C14.9238 23.6878 13.6631 23.2323 12.662 22.4002L10.3621 20.4895H9.37275C7.95917 20.4911 6.60394 21.0534 5.60438 22.0529C4.60482 23.0525 4.04256 24.4077 4.04095 25.8213C4.04095 26.2246 3.88076 26.6113 3.59561 26.8965C3.31047 27.1816 2.92373 27.3418 2.52048 27.3418C2.11722 27.3418 1.73048 27.1816 1.44534 26.8965C1.16019 26.6113 1 26.2246 1 25.8213C1.00241 23.6015 1.88532 21.4732 3.45499 19.9035C5.02466 18.3339 7.1529 17.451 9.37275 17.4486H10.9115C11.2666 17.4487 11.6106 17.5731 11.8836 17.8003L14.6042 20.0617C15.0596 20.441 15.6334 20.6487 16.226 20.6487C16.8187 20.6487 17.3925 20.441 17.8479 20.0617L20.5665 17.7993C20.8395 17.5721 21.1834 17.4477 21.5386 17.4475H23.2689C24.5105 17.4441 25.7406 17.687 26.8877 18.1622C28.0348 18.6374 29.0763 19.3354 29.9519 20.2158L32.78 23.0439H37.7469C40.4574 23.0439 42.7056 25.2172 42.7594 27.8892C42.7727 28.5471 42.6547 29.201 42.4121 29.8127C42.1696 30.4245 41.8074 30.9816 41.3468 31.4516C40.8863 31.9216 40.3366 32.295 39.7299 32.5499C39.1232 32.8048 38.4718 32.9361 37.8138 32.9361H30.7283C30.0786 32.938 29.435 32.8109 28.8347 32.5622C28.2344 32.3136 27.6894 31.9483 27.2312 31.4876L24.8522 29.1055C24.8327 29.0863 24.8084 29.0726 24.7819 29.066C24.7553 29.0594 24.7274 29.0601 24.7012 29.068C24.6715 29.078 24.6458 29.0971 24.6276 29.1226C24.6094 29.1481 24.5997 29.1786 24.5998 29.2099V59.4775C24.6002 59.6777 24.5611 59.876 24.4847 60.061C24.4082 60.2461 24.296 60.4142 24.1545 60.5557C24.0129 60.6973 23.8448 60.8095 23.6598 60.8859C23.4748 60.9623 23.2765 61.0015 23.0763 61.0011Z" fill="#C19444" stroke="white" stroke-width="0.5"/>
<path d="M5.94661 43.3524C4.6351 43.351 3.37769 42.8294 2.45031 41.9021C1.52293 40.9747 1.00134 39.7173 1 38.4058V25.8203C1 25.417 1.16019 25.0303 1.44534 24.7451C1.73048 24.46 2.11722 24.2998 2.52048 24.2998C2.92373 24.2998 3.31047 24.46 3.59561 24.7451C3.88076 25.0303 4.04095 25.417 4.04095 25.8203V38.4058C4.04095 38.9112 4.24173 39.3959 4.59911 39.7533C4.95649 40.1107 5.4412 40.3114 5.94661 40.3114C6.45203 40.3114 6.93674 40.1107 7.29412 39.7533C7.6515 39.3959 7.85228 38.9112 7.85228 38.4058C7.85228 38.0025 8.01247 37.6158 8.29761 37.3306C8.58276 37.0455 8.9695 36.8853 9.37275 36.8853C9.77601 36.8853 10.1627 37.0455 10.4479 37.3306C10.733 37.6158 10.8932 38.0025 10.8932 38.4058C10.8919 39.7173 10.3703 40.9747 9.44292 41.9021C8.51554 42.8294 7.25813 43.351 5.94661 43.3524Z" fill="#C19444" stroke="white" stroke-width="0.5"/>
<path d="M48.8474 61.001H2.52353C2.12027 61.001 1.73353 60.8408 1.44839 60.5557C1.16324 60.2706 1.00305 59.8838 1.00305 59.4806C1.00305 59.0773 1.16324 58.6906 1.44839 58.4054C1.73353 58.1203 2.12027 57.9601 2.52353 57.9601H48.8474C49.2506 57.9601 49.6374 58.1203 49.9225 58.4054C50.2076 58.6906 50.3678 59.0773 50.3678 59.4806C50.3678 59.8838 50.2076 60.2706 49.9225 60.5557C49.6374 60.8408 49.2506 61.001 48.8474 61.001Z" fill="#C19444" stroke="white" stroke-width="0.5"/>
<path d="M40.576 17.8216H32.6928C32.2896 17.8216 31.9028 17.6614 31.6177 17.3763C31.3326 17.0911 31.1724 16.7044 31.1724 16.3011C31.1724 15.8979 31.3326 15.5111 31.6177 15.226C31.9028 14.9408 32.2896 14.7806 32.6928 14.7806H40.576C40.9793 14.7806 41.366 14.9408 41.6511 15.226C41.9363 15.5111 42.0965 15.8979 42.0965 16.3011C42.0965 16.7044 41.9363 17.0911 41.6511 17.3763C41.366 17.6614 40.9793 17.8216 40.576 17.8216Z" fill="#C19444" stroke="white" stroke-width="0.5"/>
<path d="M48.4592 10.948H32.6928C32.2896 10.948 31.9028 10.7878 31.6177 10.5027C31.3326 10.2175 31.1724 9.83077 31.1724 9.42752C31.1724 9.02426 31.3326 8.63752 31.6177 8.35238C31.9028 8.06724 32.2896 7.90704 32.6928 7.90704H48.4592C48.8624 7.90704 49.2492 8.06724 49.5343 8.35238C49.8194 8.63752 49.9796 9.02426 49.9796 9.42752C49.9796 9.83077 49.8194 10.2175 49.5343 10.5027C49.2492 10.7878 48.8624 10.948 48.4592 10.948Z" fill="#C19444" stroke="white" stroke-width="0.5"/>
</svg>
