<svg width="23" height="20" viewBox="0 0 23 20" fill="none" xmlns="http://www.w3.org/2000/svg">
<path d="M11.2738 8.49345C11.2553 8.46629 11.2315 8.44432 11.2045 8.42921C11.1774 8.4141 11.1476 8.40625 11.1175 8.40625C11.0874 8.40625 11.0576 8.4141 11.0306 8.42921C11.0035 8.44432 10.9797 8.46629 10.9612 8.49345L8.18177 12.519C8.15885 12.5525 8.14464 12.5927 8.14074 12.635C8.13684 12.6773 8.14343 12.7201 8.15974 12.7583C8.17604 12.7965 8.20142 12.8287 8.23296 12.8512C8.26451 12.8737 8.30094 12.8856 8.33811 12.8855H10.172V19.7719C10.172 19.8969 10.2614 19.9992 10.3705 19.9992H11.8595C11.9687 19.9992 12.058 19.8969 12.058 19.7719V12.8883H13.8969C14.0632 12.8883 14.155 12.6696 14.0532 12.5219L11.2738 8.49345Z" fill="black"/>
<path d="M18.5475 5.87217C17.411 2.44035 14.5149 0 11.1226 0C7.73021 0 4.83417 2.43751 3.69759 5.86933C1.57086 6.50854 0 8.72729 0 11.3637C0 14.5029 2.22104 17.0455 4.96073 17.0455H5.95586C6.06505 17.0455 6.15439 16.9432 6.15439 16.8182V15.1137C6.15439 14.9887 6.06505 14.8864 5.95586 14.8864H4.96073C4.12443 14.8864 3.33776 14.5057 2.7521 13.8154C2.16892 13.1279 1.85872 12.2017 1.88602 11.2415C1.90836 10.4915 2.1317 9.78695 2.5362 9.1932C2.95063 8.58809 3.53133 8.14775 4.17654 7.95172L5.11707 7.67047L5.46202 6.6307C5.67544 5.98297 5.97323 5.37785 6.34795 4.82956C6.71789 4.28611 7.1561 3.80839 7.64831 3.41194C8.66825 2.59091 9.86935 2.15625 11.1226 2.15625C12.3758 2.15625 13.5769 2.59091 14.5968 3.41194C15.0907 3.80967 15.5274 4.28694 15.8972 4.82956C16.2719 5.37785 16.5697 5.98581 16.7831 6.6307L17.1256 7.66763L18.0636 7.95172C19.4086 8.3665 20.3492 9.76707 20.3492 11.3637C20.3492 12.304 20.0291 13.1904 19.4484 13.8551C19.1636 14.1831 18.8248 14.4431 18.4517 14.6201C18.0785 14.7971 17.6784 14.8876 17.2745 14.8864H16.2793C16.1702 14.8864 16.0808 14.9887 16.0808 15.1137V16.8182C16.0808 16.9432 16.1702 17.0455 16.2793 17.0455H17.2745C20.0142 17.0455 22.2352 14.5029 22.2352 11.3637C22.2352 8.73013 20.6693 6.51422 18.5475 5.87217Z" fill="black"/>
</svg>
