<svg width="28" height="28" viewBox="0 0 28 28" fill="none" xmlns="http://www.w3.org/2000/svg">
<g clip-path="url(#clip0_1_6204)">
<path d="M26.7269 14.1174V10.1821C26.7269 8.84765 25.6918 7.76241 24.3841 7.65717L20.7294 1.27376C20.3907 0.68338 19.8438 0.261418 19.1895 0.0862021C18.5382 -0.0878206 17.8571 0.00357561 17.2742 0.342851L4.7458 7.63665H2.54543C1.14162 7.63665 0 8.77821 0 10.1821V25.4546C0 26.8584 1.14156 28 2.54543 28H24.1815C25.5853 28 26.7269 26.8584 26.7269 25.4546V21.5192C27.466 21.2556 27.9996 20.5559 27.9996 19.7274V15.9093C27.9996 15.0807 27.466 14.381 26.7269 14.1174ZM22.9052 7.63665H17.3587L21.5186 5.21477L22.9052 7.63665ZM20.8863 4.11032L14.8293 7.63665H12.3169L20.2581 3.01315L20.8863 4.11032ZM17.9149 1.44277C18.2026 1.27435 18.5388 1.22961 18.8601 1.3154C19.1851 1.40238 19.4561 1.61244 19.6245 1.90637L19.6258 1.9087L9.78757 7.63665H7.27531L17.9149 1.44277ZM25.4542 25.4546C25.4542 26.1561 24.883 26.7272 24.1815 26.7272H2.54543C1.84385 26.7272 1.27275 26.1561 1.27275 25.4546V10.1821C1.27275 9.48051 1.84385 8.9094 2.54543 8.9094H24.1815C24.883 8.9094 25.4542 9.48051 25.4542 10.1821V14.0002H21.636C19.5306 14.0002 17.8179 15.7129 17.8179 17.8183C17.8179 19.9238 19.5306 21.6364 21.636 21.6364H25.4542V25.4546ZM26.7269 19.7274C26.7269 20.0785 26.4417 20.3638 26.0905 20.3638H21.636C20.2322 20.3638 19.0906 19.2222 19.0906 17.8183C19.0906 16.4145 20.2322 15.2729 21.636 15.2729H26.0905C26.4416 15.2729 26.7269 15.5581 26.7269 15.9093V19.7274Z" fill="#C19444"/>
<path d="M21.636 16.5469C20.9344 16.5469 20.3633 17.118 20.3633 17.8196C20.3633 18.5211 20.9344 19.0922 21.636 19.0922C22.3375 19.0922 22.9087 18.5211 22.9087 17.8196C22.9087 17.118 22.3376 16.5469 21.636 16.5469Z" fill="#C19444"/>
</g>
<defs>
<clipPath id="clip0_1_6204">
<rect width="28" height="28" fill="white"/>
</clipPath>
</defs>
</svg>
