<svg width="44" height="44" viewBox="0 0 44 44" fill="none" xmlns="http://www.w3.org/2000/svg">
<circle cx="22.2517" cy="21.373" r="7.373" fill="white"/>
<g filter="url(#filter0_d_1_2972)">
<path fill-rule="evenodd" clip-rule="evenodd" d="M12 21.9752C12 19.3296 13.051 16.7924 14.9217 14.9217C16.7924 13.051 19.3296 12 21.9752 12C24.6208 12 27.1581 13.051 29.0288 14.9217C30.8995 16.7924 31.9505 19.3296 31.9505 21.9752C31.9505 24.6208 30.8995 27.1581 29.0288 29.0288C27.1581 30.8995 24.6208 31.9505 21.9752 31.9505C19.3296 31.9505 16.7924 30.8995 14.9217 29.0288C13.051 27.1581 12 24.6208 12 21.9752V21.9752ZM21.406 26.2446L27.1491 19.0651L26.1116 18.2352L21.2145 24.3547L17.7457 21.4645L16.8945 22.486L21.406 26.246V26.2446Z" fill="#CDCACA"/>
<path d="M14.2146 14.2146C12.3934 16.0358 11.2783 18.4312 11.0456 20.9752H11V21.9752C11 24.8861 12.1563 27.6776 14.2146 29.7359C16.2728 31.7942 19.0644 32.9505 21.9752 32.9505C24.8861 32.9505 27.6776 31.7942 29.7359 29.7359C31.7942 27.6776 32.9505 24.8861 32.9505 21.9752C32.9505 19.0644 31.7942 16.2728 29.7359 14.2146C27.6776 12.1563 24.8861 11 21.9752 11C19.0644 11 16.2728 12.1563 14.2146 14.2146Z" stroke="white" stroke-width="2"/>
</g>
<defs>
<filter id="filter0_d_1_2972" x="0" y="0" width="43.9504" height="43.9505" filterUnits="userSpaceOnUse" color-interpolation-filters="sRGB">
<feFlood flood-opacity="0" result="BackgroundImageFix"/>
<feColorMatrix in="SourceAlpha" type="matrix" values="0 0 0 0 0 0 0 0 0 0 0 0 0 0 0 0 0 0 127 0" result="hardAlpha"/>
<feOffset/>
<feGaussianBlur stdDeviation="5"/>
<feComposite in2="hardAlpha" operator="out"/>
<feColorMatrix type="matrix" values="0 0 0 0 0 0 0 0 0 0 0 0 0 0 0 0 0 0 0.2 0"/>
<feBlend mode="normal" in2="BackgroundImageFix" result="effect1_dropShadow_1_2972"/>
<feBlend mode="normal" in="SourceGraphic" in2="effect1_dropShadow_1_2972" result="shape"/>
</filter>
</defs>
</svg>
