<svg width="40" height="40" viewBox="0 0 40 40" fill="none" xmlns="http://www.w3.org/2000/svg">
<path d="M23.75 13.75H16.25C14.8693 13.75 13.75 14.8693 13.75 16.25V23.75C13.75 25.1307 14.8693 26.25 16.25 26.25H23.75C25.1307 26.25 26.25 25.1307 26.25 23.75V16.25C26.25 14.8693 25.1307 13.75 23.75 13.75Z" fill="#C19444"/>
<path d="M16.25 13.75C15.587 13.75 14.9511 14.0134 14.4822 14.4822C14.0134 14.9511 13.75 15.587 13.75 16.25V23.75C13.7514 23.9378 13.774 24.1248 13.8175 24.3075C14.0002 24.351 14.1872 24.3736 14.375 24.375H21.875C22.538 24.375 23.1739 24.1116 23.6428 23.6428C24.1116 23.1739 24.375 22.538 24.375 21.875V14.375C24.3736 14.1872 24.351 14.0002 24.3075 13.8175C24.1248 13.774 23.9378 13.7514 23.75 13.75H16.25Z" fill="#FCE797"/>
<path d="M11.25 13.75H3.75C2.36929 13.75 1.25 14.8693 1.25 16.25V23.75C1.25 25.1307 2.36929 26.25 3.75 26.25H11.25C12.6307 26.25 13.75 25.1307 13.75 23.75V16.25C13.75 14.8693 12.6307 13.75 11.25 13.75Z" fill="#5E87CA"/>
<path d="M3.75 13.75C3.08696 13.75 2.45107 14.0134 1.98223 14.4822C1.51339 14.9511 1.25 15.587 1.25 16.25V23.75C1.25135 23.9378 1.274 24.1248 1.3175 24.3075C1.50018 24.351 1.68721 24.3736 1.875 24.375H9.375C10.038 24.375 10.6739 24.1116 11.1428 23.6428C11.6116 23.1739 11.875 22.538 11.875 21.875V14.375C11.8736 14.1872 11.851 14.0002 11.8075 13.8175C11.6248 13.774 11.4378 13.7514 11.25 13.75H3.75Z" fill="#78A0D4"/>
<path d="M11.25 26.25H3.75C2.36929 26.25 1.25 27.3693 1.25 28.75V36.25C1.25 37.6307 2.36929 38.75 3.75 38.75H11.25C12.6307 38.75 13.75 37.6307 13.75 36.25V28.75C13.75 27.3693 12.6307 26.25 11.25 26.25Z" fill="#6BC13B"/>
<path d="M3.75 26.25C3.08696 26.25 2.45107 26.5134 1.98223 26.9822C1.51339 27.4511 1.25 28.087 1.25 28.75V36.25C1.25135 36.4378 1.274 36.6248 1.3175 36.8075C1.50018 36.851 1.68721 36.8736 1.875 36.875H9.375C10.038 36.875 10.6739 36.6116 11.1428 36.1428C11.6116 35.6739 11.875 35.038 11.875 34.375V26.875C11.8736 26.6872 11.851 26.5002 11.8075 26.3175C11.6248 26.274 11.4378 26.2514 11.25 26.25H3.75Z" fill="#7BDF45"/>
<path d="M23.75 26.25H16.25C14.8693 26.25 13.75 27.3693 13.75 28.75V36.25C13.75 37.6307 14.8693 38.75 16.25 38.75H23.75C25.1307 38.75 26.25 37.6307 26.25 36.25V28.75C26.25 27.3693 25.1307 26.25 23.75 26.25Z" fill="#E1656E"/>
<path d="M16.25 26.25C15.587 26.25 14.9511 26.5134 14.4822 26.9822C14.0134 27.4511 13.75 28.087 13.75 28.75V36.25C13.7514 36.4378 13.774 36.6248 13.8175 36.8075C14.0002 36.851 14.1872 36.8736 14.375 36.875H21.875C22.538 36.875 23.1739 36.6116 23.6428 36.1428C24.1116 35.6739 24.375 35.038 24.375 34.375V26.875C24.3736 26.6872 24.351 26.5002 24.3075 26.3175C24.1248 26.274 23.9378 26.2514 23.75 26.25H16.25Z" fill="#F29B99"/>
<path d="M36.25 26.25H28.75C27.3693 26.25 26.25 27.3693 26.25 28.75V36.25C26.25 37.6307 27.3693 38.75 28.75 38.75H36.25C37.6307 38.75 38.75 37.6307 38.75 36.25V28.75C38.75 27.3693 37.6307 26.25 36.25 26.25Z" fill="#F0AE42"/>
<path d="M28.75 26.25C28.087 26.25 27.4511 26.5134 26.9822 26.9822C26.5134 27.4511 26.25 28.087 26.25 28.75V36.25C26.2514 36.4378 26.274 36.6248 26.3175 36.8075C26.5002 36.851 26.6872 36.8736 26.875 36.875H34.375C35.038 36.875 35.6739 36.6116 36.1428 36.1428C36.6116 35.6739 36.875 35.038 36.875 34.375V26.875C36.8736 26.6872 36.851 26.5002 36.8075 26.3175C36.6248 26.274 36.4378 26.2514 36.25 26.25H28.75Z" fill="#C19444"/>
<path d="M36.25 13.75H28.75C27.3693 13.75 26.25 14.8693 26.25 16.25V23.75C26.25 25.1307 27.3693 26.25 28.75 26.25H36.25C37.6307 26.25 38.75 25.1307 38.75 23.75V16.25C38.75 14.8693 37.6307 13.75 36.25 13.75Z" fill="#5E87CA"/>
<path d="M28.75 13.75C28.087 13.75 27.4511 14.0134 26.9822 14.4822C26.5134 14.9511 26.25 15.587 26.25 16.25V23.75C26.2514 23.9378 26.274 24.1248 26.3175 24.3075C26.5002 24.351 26.6872 24.3736 26.875 24.375H34.375C35.038 24.375 35.6739 24.1116 36.1428 23.6428C36.6116 23.1739 36.875 22.538 36.875 21.875V14.375C36.8736 14.1872 36.851 14.0002 36.8075 13.8175C36.6248 13.774 36.4378 13.7514 36.25 13.75H28.75Z" fill="#78A0D4"/>
<path d="M36.25 1.25H28.75C27.3693 1.25 26.25 2.36929 26.25 3.75V11.25C26.25 12.6307 27.3693 13.75 28.75 13.75H36.25C37.6307 13.75 38.75 12.6307 38.75 11.25V3.75C38.75 2.36929 37.6307 1.25 36.25 1.25Z" fill="#E1656E"/>
<path d="M28.75 1.25C28.087 1.25 27.4511 1.51339 26.9822 1.98223C26.5134 2.45107 26.25 3.08696 26.25 3.75V11.25C26.2514 11.4378 26.274 11.6248 26.3175 11.8075C26.5002 11.851 26.6872 11.8736 26.875 11.875H34.375C35.038 11.875 35.6739 11.6116 36.1428 11.1428C36.6116 10.6739 36.875 10.038 36.875 9.375V1.875C36.8736 1.68721 36.851 1.50018 36.8075 1.3175C36.6248 1.274 36.4378 1.25135 36.25 1.25H28.75Z" fill="#F29B99"/>
<path d="M11.6769 2.00227L6.37443 7.30477C5.39827 8.28093 5.39827 9.8636 6.37443 10.8398L11.6769 16.1423C12.6531 17.1184 14.2358 17.1184 15.2119 16.1423L20.5144 10.8398C21.4906 9.8636 21.4906 8.28093 20.5144 7.30477L15.2119 2.00227C14.2358 1.0261 12.6531 1.0261 11.6769 2.00227Z" fill="#6BC13B"/>
<path d="M15.2144 1.99986C14.9822 1.7677 14.7066 1.58354 14.4033 1.45789C14.1 1.33225 13.7749 1.26758 13.4466 1.26758C13.1183 1.26758 12.7932 1.33225 12.4898 1.45789C12.1865 1.58354 11.9109 1.7677 11.6788 1.99986L6.37502 7.30361C6.22407 7.4586 6.0942 7.63281 5.98877 7.82173C6.09421 8.01046 6.22408 8.18446 6.37502 8.33923L11.6781 13.6424C11.9103 13.8745 12.1859 14.0587 12.4892 14.1843C12.7925 14.31 13.1176 14.3746 13.446 14.3746C13.7743 14.3746 14.0994 14.31 14.4027 14.1843C14.706 14.0587 14.9816 13.8745 15.2138 13.6424L20.5169 8.33923C20.6678 8.18431 20.7979 8.01034 20.9038 7.82173C20.7979 7.63292 20.6679 7.45874 20.5169 7.30361L15.2144 1.99986Z" fill="#7BDF45"/>
<path d="M15.6568 11.2812L12.1212 7.74623L11.8618 8.00498V9.51373H10.6118V7.74623C10.6119 7.58048 10.6777 7.42154 10.7949 7.30435L11.6793 6.41998C11.7987 6.30706 11.9568 6.24414 12.1212 6.24414C12.2855 6.24414 12.4437 6.30706 12.5631 6.41998L16.5406 10.3975L15.6568 11.2812Z" fill="#686868"/>
<path d="M35 10.625H30.625C30.4592 10.625 30.3003 10.5592 30.1831 10.4419C30.0658 10.3247 30 10.1658 30 10V7.5C30 7.33424 30.0658 7.17527 30.1831 7.05806C30.3003 6.94085 30.4592 6.875 30.625 6.875H33.75V5.625H30V4.375H34.375C34.5408 4.375 34.6997 4.44085 34.8169 4.55806C34.9342 4.67527 35 4.83424 35 5V7.5C35 7.66576 34.9342 7.82473 34.8169 7.94194C34.6997 8.05915 34.5408 8.125 34.375 8.125H31.25V9.375H35V10.625Z" fill="#686868"/>
<path d="M34.375 23.125H30V21.875H33.75V20.625H30.625C30.4592 20.625 30.3003 20.5592 30.1831 20.4419C30.0658 20.3247 30 20.1658 30 20V17.5C30 17.3342 30.0658 17.1753 30.1831 17.0581C30.3003 16.9408 30.4592 16.875 30.625 16.875H35V18.125H31.25V19.375H34.375C34.5408 19.375 34.6997 19.4408 34.8169 19.5581C34.9342 19.6753 35 19.8342 35 20V22.5C35 22.6658 34.9342 22.8247 34.8169 22.9419C34.6997 23.0592 34.5408 23.125 34.375 23.125Z" fill="#686868"/>
<path d="M9.375 35.625H5.625C5.45924 35.625 5.30027 35.5592 5.18306 35.4419C5.06585 35.3247 5 35.1658 5 35V30C5 29.8342 5.06585 29.6753 5.18306 29.5581C5.30027 29.4408 5.45924 29.375 5.625 29.375H9.375C9.54076 29.375 9.69973 29.4408 9.81694 29.5581C9.93415 29.6753 10 29.8342 10 30V31.25H8.75V30.625H6.25V31.875H9.375C9.54076 31.875 9.69973 31.9408 9.81694 32.0581C9.93415 32.1753 10 32.3342 10 32.5V35C10 35.1658 9.93415 35.3247 9.81694 35.4419C9.69973 35.5592 9.54076 35.625 9.375 35.625ZM6.25 34.375H8.75V33.125H6.25V34.375Z" fill="#686868"/>
<path d="M8.125 23.125H5.625V21.875H8.125C8.29076 21.875 8.44973 21.8092 8.56694 21.6919C8.68415 21.5747 8.75 21.4158 8.75 21.25C8.75 21.0842 8.68415 20.9253 8.56694 20.8081C8.44973 20.6908 8.29076 20.625 8.125 20.625H6.875C6.70924 20.625 6.55027 20.5592 6.43306 20.4419C6.31585 20.3247 6.25 20.1658 6.25 20C6.25 19.8342 6.31585 19.6753 6.43306 19.5581C6.55027 19.4408 6.70924 19.375 6.875 19.375H8.125C8.29076 19.375 8.44973 19.3092 8.56694 19.1919C8.68415 19.0747 8.75 18.9158 8.75 18.75C8.75 18.5842 8.68415 18.4253 8.56694 18.3081C8.44973 18.1908 8.29076 18.125 8.125 18.125H5.625V16.875H8.125C8.48684 16.8752 8.84089 16.9802 9.14442 17.1772C9.44795 17.3742 9.688 17.6548 9.8356 17.9851C9.98321 18.3155 10.0321 18.6815 9.9763 19.039C9.92052 19.3966 9.76248 19.7303 9.52125 20C9.76248 20.2697 9.92052 20.6034 9.9763 20.961C10.0321 21.3185 9.98321 21.6845 9.8356 22.0149C9.688 22.3452 9.44795 22.6258 9.14442 22.8228C8.84089 23.0198 8.48684 23.1248 8.125 23.125Z" fill="#686868"/>
<path d="M23.1249 19.375H21.8749V16.875H20.6249V19.375H18.8874L19.3624 17L18.1374 16.75L17.5124 19.875C17.4938 19.9658 17.4957 20.0596 17.5179 20.1496C17.5401 20.2396 17.582 20.3235 17.6407 20.3953C17.6993 20.4671 17.7732 20.525 17.8569 20.5647C17.9407 20.6044 18.0322 20.625 18.1249 20.625H20.6249V23.125H21.8749V20.625H23.1249V19.375Z" fill="#686868"/>
<path d="M21.2357 35.7606L20.0144 35.4894L21.0957 30.625H18.9926L19.3426 31.6775L18.1551 32.0725L17.5301 30.1975C17.4987 30.1034 17.4902 30.0032 17.5053 29.9051C17.5203 29.8071 17.5585 29.714 17.6167 29.6337C17.6748 29.5533 17.7512 29.4879 17.8396 29.443C17.928 29.398 18.0259 29.3747 18.1251 29.375H21.8751C21.9687 29.3749 22.0612 29.3959 22.1456 29.4363C22.2301 29.4768 22.3043 29.5357 22.363 29.6087C22.4216 29.6818 22.4631 29.767 22.4843 29.8582C22.5055 29.9494 22.506 30.0442 22.4857 30.1356L21.2357 35.7606Z" fill="#686868"/>
<path d="M34.9999 31.25C34.9999 30.7527 34.8023 30.2758 34.4507 29.9242C34.0991 29.5726 33.6222 29.375 33.1249 29.375H31.8749C31.5123 29.3734 31.157 29.4775 30.8525 29.6745C30.548 29.8714 30.3075 30.1529 30.1604 30.4843C30.0132 30.8157 29.9658 31.1829 30.0239 31.5408C30.0819 31.8988 30.243 32.2321 30.4874 32.5C30.243 32.7679 30.0819 33.1012 30.0239 33.4592C29.9658 33.8172 30.0132 34.1843 30.1604 34.5157C30.3075 34.8472 30.548 35.1286 30.8525 35.3256C31.157 35.5226 31.5123 35.6266 31.8749 35.625H33.1249C33.4875 35.6266 33.8428 35.5226 34.1473 35.3256C34.4517 35.1286 34.6922 34.8472 34.8394 34.5157C34.9866 34.1843 35.034 33.8172 34.9759 33.4592C34.9179 33.1012 34.7568 32.7679 34.5124 32.5C34.8245 32.1584 34.9983 31.7128 34.9999 31.25ZM31.8749 30.625H33.1249C33.2907 30.625 33.4496 30.6909 33.5668 30.8081C33.684 30.9253 33.7499 31.0843 33.7499 31.25C33.7499 31.4158 33.684 31.5748 33.5668 31.692C33.4496 31.8092 33.2907 31.875 33.1249 31.875H31.8749C31.7091 31.875 31.5502 31.8092 31.433 31.692C31.3157 31.5748 31.2499 31.4158 31.2499 31.25C31.2499 31.0843 31.3157 30.9253 31.433 30.8081C31.5502 30.6909 31.7091 30.625 31.8749 30.625ZM33.1249 34.375H31.8749C31.7091 34.375 31.5502 34.3092 31.433 34.192C31.3157 34.0747 31.2499 33.9158 31.2499 33.75C31.2499 33.5843 31.3157 33.4253 31.433 33.3081C31.5502 33.1909 31.7091 33.125 31.8749 33.125H33.1249C33.2907 33.125 33.4496 33.1909 33.5668 33.3081C33.684 33.4253 33.7499 33.5843 33.7499 33.75C33.7499 33.9158 33.684 34.0747 33.5668 34.192C33.4496 34.3092 33.2907 34.375 33.1249 34.375Z" fill="#686868"/>
</svg>
