<svg width="40" height="40" viewBox="0 0 40 40" fill="none" xmlns="http://www.w3.org/2000/svg">
<g clip-path="url(#clip0_1_5227)">
<path d="M25.7812 12.8906C25.7812 5.78898 19.9923 0 12.8906 0C5.78898 0 0 5.78898 0 12.8906C0 16.1484 0.609375 19.3594 1.19531 22.4765C1.75781 25.5 2.34375 28.6719 2.34375 31.7188C2.34375 36.2422 6.02344 40 10.5469 40C11.3671 40 12.1406 39.8828 12.8906 39.6484C16.2656 38.6405 18.75 35.4217 18.75 31.7188C18.75 31.1562 18.703 30.6171 18.5859 30.0781C18.0234 27.2656 20.0625 23.953 22.0079 22.0079C24.4453 19.5702 25.7812 16.3359 25.7812 12.8906Z" fill="#FED2A4"/>
<path d="M22.0078 22.0078C20.0625 23.953 18.0234 27.2655 18.5859 30.0781C18.7031 30.6171 18.75 31.1563 18.75 31.7188C18.75 35.4218 16.2656 38.6405 12.8906 39.6484V0C19.9923 0 25.7812 5.78898 25.7812 12.8906C25.7812 16.3359 24.4453 19.5702 22.0078 22.0078Z" fill="#FFBD86"/>
<path d="M20.9062 11.0859C20.2266 7.92188 17.6251 5.41406 14.4141 4.82812C13.8984 4.73445 13.3829 4.6875 12.8906 4.6875C8.41414 4.6875 4.6875 8.32031 4.6875 12.8906C4.6875 16.6641 5.64836 20.5546 6.35164 24.6094C6.67969 26.6484 8.41414 28.125 10.4532 28.125C11.3438 28.125 12.1876 27.8203 12.8906 27.3046C13.7109 26.7187 14.3203 25.828 14.5312 24.7734L14.6953 23.8828C15.2109 21.2812 14.4609 18.7734 12.8905 16.9452C11.4844 15.2811 9.42188 14.1796 7.05461 14.0625C7.03117 13.664 7.03117 13.289 7.03117 12.8906C7.03117 9.70312 9.60922 7.03125 12.8905 7.03125C13.2422 7.03125 13.6171 7.05469 13.992 7.12492C16.2422 7.5468 18.1406 9.375 18.6094 11.5781C19.0547 13.6172 18.4688 15.5859 17.0391 17.039L18.7031 18.7031C20.6719 16.7109 21.4921 13.8749 20.9062 11.0859Z" fill="#F6A96C"/>
<path d="M40 18.75H28.125V21.0938H40V18.75Z" fill="#FF9F00"/>
<path d="M38.2258 35.0331L28.7727 30.3456L29.821 28.249L39.2741 32.9365L38.2258 35.0331Z" fill="#FF9F00"/>
<path d="M29.821 11.5956L28.7727 9.49902L38.2258 4.81152L39.2741 6.90809L29.821 11.5956Z" fill="#FF9F00"/>
<path d="M12.8906 16.9453C14.4609 18.7735 15.2109 21.2812 14.6954 23.8829L14.5313 24.7735C14.3203 25.8281 13.7109 26.7187 12.8907 27.3047L12.8906 16.9453Z" fill="#EA9B58"/>
<path d="M18.703 18.703L17.0391 17.0389C18.4688 15.5858 19.0547 13.6171 18.6093 11.578C18.1405 9.37492 16.2421 7.54672 13.992 7.12484C13.6172 7.05469 13.2423 7.03125 12.8906 7.03125V4.6875C13.3829 4.6875 13.8984 4.73445 14.4141 4.82812C17.6251 5.41406 20.2266 7.92188 20.9062 11.0859C21.4921 13.8749 20.6719 16.7109 18.703 18.703Z" fill="#EA9B58"/>
</g>
<defs>
<clipPath id="clip0_1_5227">
<rect width="40" height="40" fill="white"/>
</clipPath>
</defs>
</svg>
