<svg width="15" height="19" viewBox="0 0 15 19" fill="none" xmlns="http://www.w3.org/2000/svg">
<path d="M10.8035 1.92727V11.0344C12.2024 10.7853 13.6012 10.8365 15 11.6925V2.5854C13.6012 1.72933 12.2024 1.67819 10.8035 1.92727Z" fill="#E29249"/>
<path d="M1.07143 2.14286C1.66316 2.14286 2.14286 1.66316 2.14286 1.07143C2.14286 0.479695 1.66316 0 1.07143 0C0.479695 0 0 0.479695 0 1.07143C0 1.66316 0.479695 2.14286 1.07143 2.14286Z" fill="#E29249"/>
<path d="M6.33937 12.24C7.64885 11.9427 8.95829 11.4415 10.2678 11.1443V2.03711C8.95829 2.33443 7.64885 2.83559 6.33937 3.13286V12.24Z" fill="#E29249"/>
<path d="M1.60713 2.58398C1.26093 2.74508 0.881911 2.74508 0.535706 2.58398V18.584H1.60713V2.58398Z" fill="#E29249"/>
<path d="M2.14285 2.875V11.9821C3.36313 12.5568 4.58338 12.5683 5.80366 12.3511V3.24395C4.58338 3.46113 3.36313 3.44961 2.14285 2.875Z" fill="#E29249"/>
</svg>
