<svg width="27" height="27" viewBox="0 0 27 27" fill="none" xmlns="http://www.w3.org/2000/svg">
<path d="M22.3388 4.66116C19.9779 2.30024 16.8388 1 13.5 1C10.1612 1 7.02207 2.30024 4.66116 4.66116C2.30024 7.02207 1 10.1612 1 13.5C1 16.8388 2.30024 19.9779 4.66116 22.3388C7.02207 24.6998 10.1612 26 13.5 26C16.8388 26 19.9779 24.6998 22.3388 22.3388C24.6998 19.9779 26 16.8388 26 13.5C26 10.1612 24.6998 7.02207 22.3388 4.66116ZM6.42507 21.9618C6.83782 18.4103 9.8913 15.6683 13.5 15.6683C15.4024 15.6683 17.1913 16.4095 18.5369 17.7549C19.6737 18.8919 20.3907 20.3764 20.5751 21.9616C18.6582 23.567 16.1901 24.5352 13.5 24.5352C10.8099 24.5352 8.34196 23.5672 6.42507 21.9618ZM13.5 14.1596C11.4067 14.1596 9.70342 12.4563 9.70342 10.363C9.70342 8.26948 11.4067 6.56641 13.5 6.56641C15.5933 6.56641 17.2966 8.26948 17.2966 10.363C17.2966 12.4563 15.5933 14.1596 13.5 14.1596ZM21.8359 20.7233C21.4626 19.2184 20.6842 17.8308 19.5726 16.7192C18.6723 15.819 17.6073 15.1436 16.4457 14.7203C17.8421 13.7733 18.7614 12.1734 18.7614 10.363C18.7614 7.46191 16.4011 5.10156 13.5 5.10156C10.5989 5.10156 8.23858 7.46191 8.23858 10.363C8.23858 12.1744 9.15868 13.7748 10.5562 14.7217C9.48751 15.1111 8.49855 15.7133 7.64768 16.506C6.41553 17.6534 5.5599 19.1166 5.16317 20.7222C3.48299 18.7853 2.46484 16.2594 2.46484 13.5C2.46484 7.41518 7.41518 2.46484 13.5 2.46484C19.5848 2.46484 24.5352 7.41518 24.5352 13.5C24.5352 16.2599 23.5166 18.7864 21.8359 20.7233Z" fill="#C19444" stroke="#C19444" stroke-width="0.3"/>
</svg>
