<svg width="29" height="30" viewBox="0 0 29 30" fill="none" xmlns="http://www.w3.org/2000/svg">
<path d="M28.4625 12.0084C28.4625 7.17524 25.749 5.80919 17.6929 1.75306C16.7057 1.25604 15.6342 0.717024 14.4733 0.124004L14.2312 0L13.9892 0.124004C12.8293 0.717024 11.7588 1.25504 10.7716 1.75206C2.71449 5.80819 0 7.17424 0 12.0084V12.5364H2.21839V27.5779L2.37204 27.7319C2.46443 27.8249 4.67479 30 9.01014 30C10.7164 30 12.4718 29.547 14.2312 28.653C15.9907 29.547 17.7461 30 19.4523 30C23.7867 30 25.9981 27.8249 26.0904 27.7319L26.2431 27.5779V12.5364H28.4615V12.0084H28.4625ZM25.1826 27.1239C24.6453 27.5669 22.7132 28.944 19.4534 28.944C17.8415 28.944 16.1684 28.489 14.4823 27.5909L14.2322 27.4579L13.9822 27.5909C12.294 28.488 10.622 28.944 9.01115 28.944C5.74833 28.944 3.81615 27.5659 3.28089 27.1239V12.5364H4.43779V26.4259L4.67881 26.5819C5.90299 27.3759 7.36819 27.7959 8.91574 27.7959C10.2414 27.7959 11.6071 27.4869 12.763 26.9249L13.4158 26.6079L12.9147 26.0849C12.5682 25.7229 12.2288 25.3798 11.9024 25.0498C10.2122 23.3398 8.87758 21.9877 8.52509 20.0947C8.31018 18.9436 8.63455 17.8056 9.39377 17.0506C10.5436 15.9045 12.1253 16.0255 13.9099 17.3866L14.2322 17.6326L14.5546 17.3866C16.3392 16.0255 17.9199 15.9045 19.0697 17.0506C19.8289 17.8056 20.1533 18.9436 19.9394 20.0947C19.5859 21.9887 18.2513 23.3398 16.5621 25.0498C16.2357 25.3798 15.8973 25.7229 15.5498 26.0849L15.0156 26.6429L15.7306 26.9379C18.7915 28.2019 21.6376 28.0859 23.8008 26.5719L24.0257 26.4139V12.5364H25.1826V27.1239ZM19.8199 16.3035C19.1019 15.5885 18.2151 15.2105 17.256 15.2105C16.296 15.2105 15.2807 15.5815 14.2312 16.3125C13.1818 15.5805 12.1655 15.2105 11.2054 15.2105C10.2464 15.2105 9.35962 15.5885 8.64158 16.3035C7.63532 17.3046 7.20148 18.7946 7.48067 20.2877C7.89241 22.4988 9.39979 24.0248 11.1442 25.7919C11.2968 25.9469 11.4525 26.1039 11.6112 26.2659C10.7626 26.5739 9.8276 26.7399 8.91474 26.7399C7.67449 26.7399 6.49851 26.4319 5.49828 25.8459V11.4804H3.29896C3.49479 9.0103 5.2683 8.14827 12.8986 4.44415L14.2312 3.79713L15.5619 4.44415C23.1932 8.14927 24.9677 9.0103 25.1625 11.4814H22.9632V25.8589C21.3052 26.9089 19.1922 27.0269 16.8744 26.2419C17.0241 26.0899 17.1717 25.9399 17.3173 25.7929C19.0617 24.0258 20.5691 22.5008 20.9808 20.2897C21.26 18.7936 20.8252 17.3046 19.8199 16.3035ZM26.2431 11.4804H26.227C26.0252 8.34728 23.858 7.29524 16.0268 3.49312L14.2302 2.62009L12.4326 3.49412C4.60349 7.29424 2.43631 8.34728 2.23446 11.4804H2.21839H1.07455C1.2764 7.71626 3.76293 6.46522 11.2506 2.69609C12.1695 2.23307 13.1617 1.73406 14.2312 1.18904C15.3008 1.73506 16.294 2.23407 17.2139 2.69709C24.6996 6.46622 27.1861 7.71726 27.3879 11.4814H26.2431V11.4804Z" fill="#C1992E"/>
</svg>
