<svg width="25" height="25" viewBox="0 0 25 25" fill="none" xmlns="http://www.w3.org/2000/svg">
<path d="M16.3846 18.0989L16.1724 17.8867L15.9303 18.064C14.3071 19.2527 12.3151 19.9626 10.1563 19.9626C4.7496 19.9626 0.35 15.563 0.35 10.1563C0.35 4.7496 4.74956 0.35 10.1562 0.35C15.5629 0.35 19.9625 4.7496 19.9625 10.1563C19.9625 12.3151 19.2527 14.3069 18.0641 15.9301L17.8868 16.1722L18.099 16.3844L18.3464 16.1369C18.099 16.3844 18.099 16.3844 18.099 16.3844L18.0993 16.3847L18.1002 16.3856L18.1038 16.3892L18.118 16.4035L18.1737 16.4591L18.3849 16.6703L19.1386 17.424L21.4258 19.7112L23.713 21.9984L24.4668 22.7521L24.5052 22.7905L22.7907 24.505L16.3846 18.0989ZM2.77503 10.1563C2.77503 14.2269 6.08571 17.5375 10.1563 17.5375C14.2268 17.5375 17.5375 14.2269 17.5375 10.1563C17.5375 6.08571 14.2269 2.77503 10.1563 2.77503C6.08571 2.77503 2.77503 6.08571 2.77503 10.1563Z" fill="#C19444" stroke="#F8F4E9" stroke-width="0.7"/>
</svg>
