<svg width="27" height="27" viewBox="0 0 27 27" fill="none" xmlns="http://www.w3.org/2000/svg">
<path d="M19.9697 14.3635H18.9336V13.7481C20.308 13.083 21.2608 11.6813 21.2765 10.0595H21.7851C22.4178 10.0595 22.9326 9.54478 22.9326 8.91206V7.89414C22.9326 7.26143 22.4178 6.74668 21.7851 6.74668H21.7657V4.81982C21.7657 2.71353 20.0506 1 17.9424 1H15.6063C13.4981 1 11.783 2.71357 11.783 4.81982V6.74668H11.7764C11.1437 6.74668 10.6289 7.26143 10.6289 7.89414V8.91206C10.6289 9.54478 11.1437 10.0595 11.7764 10.0595H12.2723C12.2879 11.6812 13.2408 13.083 14.6152 13.7481V14.3635H13.5791C10.79 14.3635 8.43755 16.2669 7.75137 18.8428H5.97217V15.9189H7.8081C8.27925 15.9189 8.6626 15.5356 8.6626 15.0645V12.1973C8.6626 11.7261 8.27925 11.3428 7.8081 11.3428H1.85449C1.38335 11.3428 1 11.7261 1 12.1973V15.0645C1 15.5356 1.38335 15.9189 1.85449 15.9189H3.69043V18.8428H1.85449C1.38335 18.8428 1 19.2261 1 19.6973V25.3896C1 25.7262 1.27378 26 1.61035 26H7.91504C8.11733 26 8.28125 25.8361 8.28125 25.6338C8.28125 25.4315 8.11733 25.2676 7.91504 25.2676H1.73242V23.6797H18.1555C18.3578 23.6797 18.5217 23.5158 18.5217 23.3135C18.5217 23.1112 18.3578 22.9473 18.1555 22.9473H16.2011L12.7644 18.9695C12.6949 18.8891 12.5937 18.8427 12.4873 18.8427H8.51436C8.93247 17.4801 9.88579 16.35 11.1286 15.6986V17.6621C11.1286 17.8644 11.2925 18.0283 11.4948 18.0283C11.6971 18.0283 11.861 17.8644 11.861 17.6621V15.3829C12.1537 15.2823 12.4578 15.2068 12.7709 15.1587V17.6621C12.7709 17.8644 12.9349 18.0283 13.1372 18.0283C13.3395 18.0283 13.5034 17.8644 13.5034 17.6621V15.0976C13.5287 15.0972 14.6155 15.0959 14.6155 15.0959C14.6201 16.2826 15.5867 17.2466 16.7744 17.2466C17.9622 17.2466 18.9288 16.2826 18.9334 15.0959H19.968V18.8427H14.627C14.4247 18.8427 14.2607 19.0066 14.2607 19.2089C14.2607 19.4112 14.4247 19.5751 14.627 19.5751H21.6104V22.9473H19.9122C19.7099 22.9473 19.5459 23.1112 19.5459 23.3135C19.5459 23.5158 19.7099 23.6797 19.9122 23.6797H25.2676V25.2676H9.8457C9.64341 25.2676 9.47949 25.4315 9.47949 25.6338C9.47949 25.8361 9.64341 26 9.8457 26H25.3896C25.7262 26 26 25.7262 26 25.3896V20.3938C26 17.0687 23.2948 14.3635 19.9697 14.3635ZM21.2775 7.4791H21.7851C22.014 7.4791 22.2001 7.66528 22.2001 7.89414V8.91206C22.2001 9.14092 22.014 9.3271 21.7851 9.3271H21.2775V7.4791ZM12.2713 9.3271H11.7764C11.5476 9.3271 11.3614 9.14092 11.3614 8.91206V7.89414C11.3614 7.66528 11.5476 7.4791 11.7764 7.4791H12.2713V9.3271ZM10.2119 19.5752H12.3197L15.2332 22.9473H10.2119V19.5752ZM1.85449 15.1865C1.78716 15.1865 1.73242 15.1318 1.73242 15.0645V12.1973C1.73242 12.1299 1.78716 12.0752 1.85449 12.0752H7.8081C7.87544 12.0752 7.93018 12.1299 7.93018 12.1973V15.0645C7.93018 15.1318 7.87544 15.1865 7.8081 15.1865H5.97217V14.541C5.97217 14.0699 5.58882 13.6865 5.11768 13.6865H4.54492C4.07378 13.6865 3.69043 14.0699 3.69043 14.541V15.1865H1.85449ZM5.23975 14.541V18.8428H4.42285V14.541C4.42285 14.4737 4.47759 14.4189 4.54492 14.4189H5.11768C5.18501 14.4189 5.23975 14.4737 5.23975 14.541ZM9.47949 19.5752V22.9473H1.73242V19.6973C1.73242 19.6299 1.78716 19.5752 1.85449 19.5752H9.47949ZM12.5155 6.74668V4.81982C12.5155 3.11743 13.9021 1.73242 15.6064 1.73242H17.9425C19.6468 1.73242 21.0333 3.11743 21.0333 4.81982V6.74668H20.547C19.6192 6.74668 18.7263 6.46631 17.965 5.93589L17.1234 5.34946C16.9146 5.204 16.6341 5.204 16.4255 5.34946L15.5839 5.93589C14.8226 6.46631 13.9297 6.74668 13.0019 6.74668H12.5155ZM18.2012 15.0875C18.2012 15.8742 17.5611 16.5143 16.7744 16.5143C15.9876 16.5143 15.3476 15.8742 15.3476 15.0875V14.0196C15.6885 14.1105 16.0464 14.1597 16.4156 14.1597H17.1332C17.5024 14.1597 17.8602 14.1105 18.2011 14.0196V15.0875H18.2012ZM17.1332 13.4273H16.4156C14.5343 13.4273 13.0038 11.8984 13.0038 10.0192V7.4791C14.0814 7.47871 15.1184 7.15288 16.0026 6.53682L16.7744 5.99902L17.5463 6.53682C18.4305 7.15298 19.4675 7.47871 20.5451 7.4791V10.0192C20.5451 11.8984 19.0145 13.4273 17.1332 13.4273ZM21.6104 18.8428H20.7004V15.1466C21.0132 15.1899 21.3174 15.2606 21.6104 15.3563V18.8428ZM25.2676 22.9473H22.3428V15.6581C24.0757 16.53 25.2676 18.3252 25.2676 20.3938V22.9473Z" fill="#C19444" stroke="#C19444" stroke-width="0.3"/>
<path d="M17.6484 10.9069L17.458 11.0205C17.0363 11.2719 16.5125 11.2718 16.0909 11.0205L15.9005 10.9069C15.7268 10.8034 15.502 10.8603 15.3984 11.034C15.2948 11.2078 15.3517 11.4325 15.5254 11.5361L15.7159 11.6496C16.0424 11.8442 16.4084 11.9416 16.7745 11.9416C17.1405 11.9416 17.5066 11.8442 17.8331 11.6496L18.0235 11.5361C18.1973 11.4325 18.2541 11.2077 18.1506 11.034C18.0468 10.8602 17.8221 10.8034 17.6484 10.9069Z" fill="#C19444" stroke="#C19444" stroke-width="0.3"/>
<path d="M14.9495 8.65918C14.7474 8.65918 14.5835 8.82305 14.5835 9.0252C14.5835 9.22734 14.7474 9.39121 14.9495 9.39121C15.1517 9.39121 15.3155 9.22734 15.3155 9.0252C15.3155 8.82305 15.1517 8.65918 14.9495 8.65918Z" fill="#C19444" stroke="#C19444" stroke-width="0.3"/>
<path d="M18.5992 8.65918C18.397 8.65918 18.2332 8.82305 18.2332 9.0252C18.2332 9.22734 18.397 9.39121 18.5992 9.39121C18.8013 9.39121 18.9652 9.22734 18.9652 9.0252C18.9652 8.82305 18.8013 8.65918 18.5992 8.65918Z" fill="#C19444" stroke="#C19444" stroke-width="0.3"/>
</svg>
