<svg width="22" height="27" viewBox="0 0 22 27" fill="none" xmlns="http://www.w3.org/2000/svg">
<path d="M11.1158 10.0628C11.6563 10.0628 12.1846 9.90266 12.634 9.60246C13.0834 9.30226 13.4337 8.87554 13.6405 8.37625C13.8474 7.87697 13.9016 7.32756 13.7962 6.79749C13.6908 6.26743 13.4306 5.78052 13.0485 5.39835C12.6663 5.01617 12.1795 4.75589 11.6494 4.65043C11.1194 4.54497 10.5699 4.59906 10.0706 4.80586C9.57132 5.01266 9.14455 5.36288 8.84428 5.81224C8.54402 6.26159 8.38376 6.7899 8.38376 7.33034C8.38464 8.05469 8.67275 8.74913 9.18491 9.26136C9.69707 9.77359 10.3915 10.0618 11.1158 10.0628V10.0628ZM11.1158 5.42814C11.4921 5.42806 11.8599 5.53956 12.1727 5.74853C12.4856 5.95749 12.7294 6.25454 12.8735 6.60211C13.0175 6.94968 13.0552 7.33215 12.9819 7.70116C12.9085 8.07017 12.7274 8.40914 12.4614 8.67519C12.1954 8.94125 11.8564 9.12245 11.4874 9.19588C11.1184 9.26931 10.736 9.23166 10.3884 9.0877C10.0408 8.94374 9.74366 8.69994 9.53463 8.38712C9.3256 8.0743 9.21403 7.70652 9.21403 7.3303C9.21464 6.82607 9.41519 6.34266 9.7717 5.98608C10.1282 5.6295 10.6116 5.42887 11.1158 5.42818V5.42814Z" fill="#C19444" stroke="#C19444" stroke-width="0.5"/>
<path d="M11.1158 13.559H11.1162C11.8484 13.5586 12.3868 13.1435 12.4261 12.5491L12.4853 12.057C12.84 11.9537 13.1821 11.8114 13.5053 11.6325L13.7117 11.7752C14.1592 12.1482 14.8213 12.0554 15.3313 11.5454C15.8413 11.0354 15.9333 10.3737 15.5612 9.92577L15.4184 9.7194C15.5974 9.39638 15.7396 9.05439 15.8426 8.69978L16.3574 8.63818C16.9294 8.60082 17.3446 8.06251 17.345 7.3305C17.3454 6.59848 16.9298 6.05955 16.3355 6.01982L15.8425 5.96062C15.7396 5.60591 15.5973 5.26379 15.4185 4.94063L15.5612 4.73427C15.9333 4.28629 15.8409 3.62464 15.3313 3.11523C14.8225 2.60602 14.1606 2.51158 13.7117 2.88495L13.5053 3.02768C13.1823 2.84888 12.8403 2.70665 12.4857 2.60361L12.4241 2.08913C12.3867 1.51712 11.8484 1.10198 11.1164 1.10156H11.116C10.3842 1.10156 9.84547 1.5167 9.8057 2.11101L9.7465 2.60357C9.39178 2.70653 9.04967 2.84877 8.72651 3.02764L8.52002 2.88462C8.07121 2.51286 7.41002 2.60569 6.90098 3.1149C6.39194 3.6241 6.29903 4.28613 6.6707 4.73393L6.81339 4.9403C6.63452 5.26333 6.49228 5.60532 6.38932 5.95992L5.87484 6.02152C5.30228 6.05939 4.88715 6.59815 4.88715 7.33033C4.88715 8.06251 5.3027 8.60086 5.89701 8.64021L6.38878 8.69941C6.49206 9.05408 6.63443 9.39618 6.81326 9.7194L6.67054 9.92577C6.29836 10.3737 6.39119 11.0358 6.90081 11.5454C7.41044 12.055 8.07121 12.1482 8.51985 11.7752L8.72621 11.6326C9.04924 11.8114 9.39124 11.9537 9.74583 12.0566L9.80744 12.5714C9.8453 13.1439 10.3841 13.559 11.1158 13.559V13.559ZM13.5231 10.7252C13.4451 10.7252 13.3687 10.7471 13.3026 10.7884C12.9063 11.0374 12.4709 11.2176 12.0146 11.3215C11.9312 11.3406 11.8558 11.385 11.7985 11.4486C11.7413 11.5121 11.705 11.5918 11.6947 11.6767L11.5995 12.4725C11.5877 12.6412 11.3453 12.7287 11.1162 12.7287H11.1158C10.8867 12.7287 10.6439 12.6412 10.6342 12.4944L10.5369 11.6766C10.5266 11.5917 10.4904 11.512 10.4331 11.4484C10.3759 11.3849 10.3004 11.3405 10.2171 11.3214C9.76082 11.2174 9.32539 11.0372 8.92909 10.7883C8.86028 10.7452 8.78035 10.7232 8.69919 10.7251C8.61802 10.727 8.53919 10.7526 8.47244 10.7988L8.03094 11.1041C7.70112 11.3309 7.11702 10.7408 7.34136 10.4146L7.64665 9.97305C7.69287 9.90631 7.7185 9.82747 7.72037 9.74631C7.72225 9.66514 7.70028 9.58521 7.65719 9.5164C7.40834 9.12011 7.22811 8.68468 7.12407 8.22844C7.10498 8.14506 7.06063 8.0696 6.99707 8.01236C6.93351 7.95511 6.85384 7.91887 6.76892 7.90857L5.97352 7.8133C5.80485 7.80155 5.7173 7.55911 5.7173 7.33004C5.7173 7.10097 5.80485 6.85774 5.95164 6.84802L6.76892 6.75071C6.85384 6.74042 6.93351 6.70418 6.99707 6.64693C7.06063 6.58969 7.10498 6.51423 7.12407 6.43085C7.22815 5.97463 7.40843 5.53923 7.65732 5.14297C7.70041 5.07416 7.72237 4.99423 7.7205 4.91306C7.71862 4.8319 7.69299 4.75306 7.64677 4.68632L7.34148 4.24482C7.1149 3.91524 7.70506 3.3311 8.03107 3.55523L8.47257 3.86053C8.53931 3.90674 8.61815 3.93238 8.69931 3.93425C8.78048 3.93612 8.86041 3.91416 8.92922 3.87107C9.32551 3.62222 9.76094 3.44198 10.2172 3.33795C10.3006 3.31886 10.376 3.2745 10.4333 3.21095C10.4905 3.14739 10.5267 3.06772 10.537 2.9828L10.6323 2.1874C10.6441 2.01877 10.8869 1.93117 11.116 1.93117H11.1164C11.3454 1.93117 11.5878 2.01873 11.5976 2.1651L11.6949 2.98292C11.7052 3.06784 11.7414 3.14751 11.7987 3.21107C11.8559 3.27463 11.9314 3.31898 12.0148 3.33807C12.471 3.44208 12.9064 3.62239 13.3026 3.8714C13.3714 3.91449 13.4514 3.93646 13.5325 3.93458C13.6137 3.93271 13.6925 3.90708 13.7593 3.86086L14.2008 3.55557C14.5306 3.32882 15.1147 3.91889 14.8903 4.24515L14.5851 4.68665C14.5388 4.7534 14.5132 4.83223 14.5113 4.91339C14.5095 4.99456 14.5314 5.07449 14.5745 5.1433C14.8234 5.5396 15.0036 5.97502 15.1076 6.43127C15.1267 6.51464 15.1711 6.5901 15.2346 6.64735C15.2982 6.70459 15.3779 6.74083 15.4628 6.75113L16.2586 6.8464C16.4272 6.85815 16.5148 7.10101 16.5148 7.33045C16.5148 7.5599 16.4273 7.80193 16.2809 7.81168L15.4628 7.90899C15.3779 7.91929 15.2982 7.95553 15.2346 8.01277C15.1711 8.07002 15.1267 8.14547 15.1076 8.22885C15.0036 8.68509 14.8234 9.12052 14.5745 9.51682C14.5314 9.58563 14.5095 9.66556 14.5113 9.74672C14.5132 9.82789 14.5388 9.90672 14.5851 9.97347L14.8903 10.415C15.1171 10.7448 14.5273 11.3291 14.2008 11.1046L13.7593 10.7993C13.6899 10.7511 13.6075 10.7252 13.5231 10.7252V10.7252Z" fill="#C19444" stroke="#C19444" stroke-width="0.5"/>
<path d="M0.78523 18.4502C0.795695 17.5686 1.11783 16.7191 1.6946 16.0522C2.27136 15.3853 3.06553 14.944 3.93646 14.8065L6.07026 14.4834L8.28905 13.0158C8.38066 12.9547 8.49277 12.9325 8.60073 12.9541C8.70868 12.9757 8.80364 13.0393 8.86472 13.1309L11.1162 16.3269L13.3416 13.2112L13.3968 13.1345C13.4597 13.0475 13.5539 12.9883 13.6596 12.9692C13.7652 12.9502 13.8742 12.9728 13.9635 13.0324L16.2758 14.5725C16.2804 14.5756 16.2831 14.5808 16.2875 14.584L18.3868 14.9581C19.2536 15.1124 20.0378 15.5687 20.6001 16.2461C21.1625 16.9235 21.4667 17.7783 21.4588 18.6586L21.4093 23.4863C21.4098 23.7626 21.3159 24.0309 21.143 24.2465C20.9702 24.4621 20.7288 24.6121 20.459 24.6717C17.7699 25.3037 15.0429 25.7613 12.2949 26.0417C11.4921 26.1245 10.6827 26.119 9.88106 26.0254C7.13522 25.7773 3.2181 24.8583 1.66345 24.4751C1.39561 24.4111 1.15765 24.2576 0.9889 24.0399C0.820152 23.8223 0.730728 23.5536 0.735413 23.2783L0.78523 18.4502ZM6.70584 15.0675L8.44302 18.8962L10.565 16.9907L8.43157 13.9597L6.70584 15.0675ZM13.8062 13.9891L11.6618 16.9912L13.7812 18.8958L15.5109 15.0964L13.8062 13.9891ZM9.99211 18.6221L10.404 19.7999H11.8142L12.2367 18.6258L11.1104 17.6174L9.99211 18.6221ZM20.579 23.4818L20.6288 18.6496C20.6344 17.9653 20.3975 17.3012 19.9601 16.7749C19.5227 16.2487 18.9131 15.8944 18.2393 15.7748L16.2741 15.4248L14.3022 19.7559C14.2746 19.8147 14.2336 19.8663 14.1826 19.9066C14.1316 19.9468 14.0719 19.9747 14.0083 19.9879C13.9446 20.0011 13.8788 19.9993 13.816 19.9827C13.7531 19.9661 13.6951 19.9351 13.6463 19.8921L12.9041 19.2246L12.4965 20.3575C12.4688 20.4322 12.4201 20.4974 12.3563 20.5451L12.6475 25.179C15.2129 24.884 17.7595 24.4444 20.2753 23.8621C20.3614 23.8422 20.4383 23.7939 20.4934 23.7248C20.5485 23.6558 20.5787 23.5701 20.579 23.4818V23.4818ZM11.8192 25.2378L11.5296 20.632H10.6941L10.4081 25.2299C10.4305 25.2314 11.7942 25.2392 11.8191 25.2382L11.8192 25.2378ZM1.86006 23.6686C4.40259 24.3147 6.98036 24.8133 9.58046 25.1618L9.86728 20.5532C9.79829 20.5036 9.7462 20.434 9.71804 20.3539L9.32245 19.2229L8.57682 19.8926C8.52796 19.9354 8.46981 19.9663 8.40696 19.9828C8.34412 19.9993 8.27829 20.001 8.21468 19.9877C8.15107 19.9744 8.09142 19.9465 8.04044 19.9063C7.98946 19.866 7.94854 19.8144 7.92091 19.7556L5.91994 15.3456L4.06531 15.6265C3.38838 15.7337 2.77115 16.0768 2.32282 16.5952C1.87449 17.1136 1.62395 17.7739 1.6155 18.4592L1.56569 23.287C1.56471 23.3745 1.59322 23.4597 1.64662 23.5289C1.70002 23.5982 1.7752 23.6474 1.86002 23.6687L1.86006 23.6686Z" fill="#C19444" stroke="#C19444" stroke-width="0.5"/>
</svg>
