<svg width="36" height="36" viewBox="0 0 36 36" fill="none" xmlns="http://www.w3.org/2000/svg">
<path d="M17.9998 34.28C18.6298 34.2655 19.2343 34.0287 19.7064 33.6114C20.1786 33.1942 20.488 32.6234 20.5798 32H15.3198C15.4143 32.6403 15.7381 33.2245 16.2311 33.6439C16.7241 34.0633 17.3526 34.2894 17.9998 34.28Z" fill="#333333"/>
<path d="M32.5098 27.8284C31.5455 26.9688 30.7013 25.9833 29.9998 24.8984C29.234 23.401 28.775 21.7657 28.6498 20.0884V15.1484C28.6457 14.5484 28.5922 13.9497 28.4898 13.3584C27.7027 13.2011 26.9463 12.9174 26.2498 12.5184C26.5153 13.3733 26.6501 14.2633 26.6498 15.1584V20.0984C26.7724 22.1445 27.3352 24.1399 28.2998 25.9484C28.9902 27.0424 29.8094 28.0496 30.7398 28.9484H5.1298C6.06021 28.0496 6.8794 27.0424 7.56981 25.9484C8.53442 24.1399 9.09724 22.1445 9.2198 20.0984V15.1484C9.21454 13.9911 9.43761 12.8441 9.87625 11.7732C10.3149 10.7022 10.9605 9.72823 11.776 8.9071C12.5916 8.08597 13.5611 7.43377 14.6291 6.98785C15.697 6.54193 16.8425 6.31106 17.9998 6.30844C19.6936 6.30979 21.3493 6.81069 22.7598 7.74844C22.6043 7.17742 22.517 6.58999 22.4998 5.99844V5.36844C21.4557 4.8548 20.3339 4.51693 19.1798 4.36844V3.10844C19.1798 2.75437 19.0392 2.41481 18.7888 2.16445C18.5384 1.91409 18.1989 1.77344 17.8448 1.77344C17.4907 1.77344 17.1512 1.91409 16.9008 2.16445C16.6505 2.41481 16.5098 2.75437 16.5098 3.10844V4.41844C13.9255 4.78299 11.5604 6.07018 9.85103 8.04237C8.14167 10.0146 7.20353 12.5386 7.2098 15.1484V20.0884C7.08456 21.7657 6.62558 23.401 5.8598 24.8984C5.17069 25.9808 4.34 26.9662 3.3898 27.8284C3.28314 27.9221 3.19765 28.0375 3.13902 28.1668C3.0804 28.2961 3.04998 28.4365 3.0498 28.5784V29.9384C3.0498 30.2037 3.15516 30.458 3.3427 30.6455C3.53023 30.8331 3.78459 30.9384 4.0498 30.9384H31.8498C32.115 30.9384 32.3694 30.8331 32.5569 30.6455C32.7444 30.458 32.8498 30.2037 32.8498 29.9384V28.5784C32.8496 28.4365 32.8192 28.2961 32.7606 28.1668C32.702 28.0375 32.6165 27.9221 32.5098 27.8284Z" fill="#333333"/>
<path d="M26.5 19C31.1944 19 35 15.1944 35 10.5C35 5.80558 31.1944 2 26.5 2C21.8056 2 18 5.80558 18 10.5C18 15.1944 21.8056 19 26.5 19Z" fill="#C19444"/>
<path d="M27.6309 15H26.5762V8.2793C26.3223 8.52148 25.9883 8.76367 25.5742 9.00586C25.1641 9.24805 24.7949 9.42969 24.4668 9.55078V8.53125C25.0566 8.25391 25.5723 7.91797 26.0137 7.52344C26.4551 7.12891 26.7676 6.74609 26.9512 6.375H27.6309V15Z" fill="white"/>
</svg>
