<svg width="50" height="46" viewBox="0 0 50 46" fill="none" xmlns="http://www.w3.org/2000/svg">
<path d="M49.3197 37.6485L29.6208 3.04768C27.614 -0.477415 22.3863 -0.478197 20.3789 3.04768L19.2956 4.95058C18.8417 5.74779 20.0954 6.50952 20.5697 5.67595L21.653 3.77314C23.1052 1.22228 26.8943 1.22238 28.3466 3.77314L48.0456 38.3738C49.488 40.9076 47.6005 44.1305 44.6988 44.1305H5.30112C2.39935 44.1305 0.51189 40.9076 1.95432 38.3738L18.6615 9.02764C19.1155 8.23043 17.8621 7.4688 17.3874 8.30227L0.680109 37.6485C-1.30451 41.1344 1.30118 45.5965 5.30102 45.5965H44.6987C48.6984 45.5966 51.3047 41.1351 49.3197 37.6485Z" fill="#C19444"/>
<path d="M42.2585 34.304C42.6103 34.1038 42.7331 33.6562 42.5328 33.3042L26.3495 4.87866C25.7712 3.858 24.2366 3.8494 23.6521 4.87612L3.9537 39.476C3.37857 40.4838 4.13062 41.8004 5.30083 41.8004H44.6993C45.8609 41.8004 46.6243 40.4919 46.0473 39.4775L44.4537 36.6785C43.9998 35.8811 42.705 36.5704 43.1796 37.4038L44.773 40.2026C44.8112 40.2698 44.7597 40.3341 44.6993 40.3341H5.30093C5.24052 40.3341 5.18881 40.2699 5.22752 40.2021L24.9263 5.60159C24.9615 5.53942 25.0398 5.54157 25.0746 5.60276L41.2587 34.0298C41.459 34.3814 41.9067 34.5043 42.2585 34.304Z" fill="#C19444"/>
<path d="M27.6857 18.3181C27.6857 16.822 26.4809 15.6047 24.9998 15.6047C23.5188 15.6047 22.314 16.822 22.314 18.3181V27.604C22.314 29.1001 23.5188 30.3174 24.9998 30.3174C26.4809 30.3174 27.6857 29.1001 27.6857 27.604V18.3181ZM26.2195 27.604C26.2195 28.2917 25.6723 28.8512 24.9998 28.8512C24.3274 28.8512 23.7802 28.2917 23.7802 27.604V18.3181C23.7802 17.6304 24.3274 17.0709 24.9998 17.0709C25.6723 17.0709 26.2195 17.6304 26.2195 18.3181V27.604Z" fill="#C19444"/>
<path d="M24.9998 31.6409C23.5188 31.6409 22.3139 32.8581 22.3139 34.3543C22.3139 35.8505 23.5187 37.0677 24.9998 37.0677C26.4808 37.0677 27.6856 35.8505 27.6856 34.3543C27.6856 32.8581 26.4807 31.6409 24.9998 31.6409ZM24.9998 35.6014C24.3273 35.6014 23.7801 35.0419 23.7801 34.3542C23.7801 33.6664 24.3273 33.107 24.9998 33.107C25.6723 33.107 26.2194 33.6664 26.2194 34.3542C26.2194 35.0419 25.6723 35.6014 24.9998 35.6014Z" fill="#C19444"/>
<path d="M40.1439 13.0681C42.6006 13.6258 44.1655 16.0809 43.6322 18.541C43.4411 19.4234 44.8528 19.8309 45.0651 18.8517C45.7678 15.6091 43.7058 12.3732 40.4684 11.6383C39.5739 11.4345 39.2085 12.8558 40.1439 13.0681Z" fill="#C19444"/>
<path d="M41.1477 8.97933C45.8074 10.0369 48.7755 14.6937 47.7639 19.3601C47.5728 20.2423 48.9845 20.65 49.1969 19.6707C50.378 14.2219 46.9127 8.78433 41.4722 7.54951C40.5778 7.34551 40.2125 8.76693 41.1477 8.97933Z" fill="#C19444"/>
<path d="M4.93496 18.8514C5.13309 19.7652 6.56897 19.4687 6.36791 18.5407C5.83471 16.0807 7.39961 13.6255 9.85625 13.0678C10.7508 12.8647 10.4668 11.4246 9.53173 11.638C6.29431 12.3729 4.23217 15.6088 4.93496 18.8514Z" fill="#C19444"/>
<path d="M1.51857 20.2489C1.97631 20.2489 2.33387 19.8133 2.23573 19.3604C1.22416 14.694 4.1923 10.0372 8.85192 8.97964C9.74649 8.77653 9.46244 7.33645 8.5274 7.54982C3.0869 8.78464 -0.378276 14.2222 0.802782 19.671C0.877264 20.0144 1.18096 20.2489 1.51857 20.2489Z" fill="#C19444"/>
</svg>
