<svg width="40" height="40" viewBox="0 0 40 40" fill="none" xmlns="http://www.w3.org/2000/svg">
<g clip-path="url(#clip0_1_5388)">
<path d="M4.82764 24.8276V2.06897C4.82764 0.926307 5.75394 0 6.8966 0H33.1035C34.2462 0 35.1725 0.926307 35.1725 2.06897V24.8276H4.82764Z" fill="#CA8152"/>
<path d="M0.689697 35.8623H6.20694V39.3106C6.20694 39.6915 5.89817 40.0002 5.51728 40.0002H1.37935C0.998466 40.0002 0.689697 39.6915 0.689697 39.3106V35.8623Z" fill="#805333"/>
<path d="M33.7932 35.8623H39.3105V39.3106C39.3105 39.6915 39.0017 40.0002 38.6208 40.0002H34.4829C34.102 40.0002 33.7932 39.6915 33.7932 39.3106V35.8623Z" fill="#805333"/>
<path d="M40 33.1033L20 30.3447L0 33.1033V36.5516C0 36.9325 0.308769 37.2413 0.689655 37.2413H39.3103C39.6912 37.2413 40 36.9325 40 36.5516V33.1033Z" fill="#A46A43"/>
<path d="M33.1655 21.3793H6.83447L9.25516 17.2345C9.50457 16.8124 9.95797 16.5529 10.4483 16.5518H29.5517C30.042 16.5529 30.4954 16.8124 30.7448 17.2345L33.1655 21.3793Z" fill="#EBEFF0"/>
<path d="M40 33.103H0L6.83448 21.3789H33.1655L40 33.103Z" fill="#C19444"/>
<path d="M16.5517 12.4141H12.4137C11.652 12.4141 11.0344 13.0316 11.0344 13.7934V17.2416C11.0344 18.0034 11.652 18.621 12.4137 18.621H16.5517C17.3134 18.621 17.931 18.0034 17.931 17.2416V13.7934C17.931 13.0316 17.3134 12.4141 16.5517 12.4141Z" fill="#C19444"/>
<path d="M26.8966 12.4141H22.7587C21.9969 12.4141 21.3794 13.0316 21.3794 13.7934V17.2416C21.3794 18.0034 21.9969 18.621 22.7587 18.621H26.8966C27.6584 18.621 28.2759 18.0034 28.2759 17.2416V13.7934C28.2759 13.0316 27.6584 12.4141 26.8966 12.4141Z" fill="#C19444"/>
<path d="M9.45298 2.27126C9.18367 2.00203 8.74712 2.00203 8.47781 2.27126L8.27574 2.47333L8.07367 2.27126C7.80307 2.0099 7.37292 2.01364 7.1069 2.27966C6.84088 2.54568 6.83714 2.97582 7.0985 3.24643L7.30057 3.4485L7.0985 3.65057C6.91922 3.82372 6.84732 4.08014 6.91043 4.32126C6.97355 4.56239 7.16185 4.75069 7.40298 4.81381C7.6441 4.87692 7.90052 4.80502 8.07367 4.62574L8.27574 4.42367L8.47781 4.62574C8.74842 4.8871 9.17856 4.88336 9.44458 4.61734C9.7106 4.35132 9.71434 3.92117 9.45298 3.65057L9.25091 3.4485L9.45298 3.24643C9.72221 2.97712 9.72221 2.54057 9.45298 2.27126Z" fill="#A46A43"/>
<path d="M32.6992 3.44835L32.9012 3.24628C33.0805 3.07313 33.1524 2.81671 33.0893 2.57559C33.0262 2.33446 32.8379 2.14615 32.5967 2.08304C32.3556 2.01993 32.0992 2.09183 31.9261 2.27111L31.724 2.47318L31.5219 2.27111C31.2513 2.00975 30.8212 2.01349 30.5551 2.27951C30.2891 2.54553 30.2854 2.97567 30.5467 3.24628L30.7488 3.44835L30.5467 3.65042C30.3675 3.82357 30.2956 4.07999 30.3587 4.32111C30.4218 4.56224 30.6101 4.75054 30.8512 4.81366C31.0923 4.87677 31.3488 4.80487 31.5219 4.62559L31.724 4.42352L31.9261 4.62559C32.1967 4.88695 32.6268 4.88321 32.8928 4.61719C33.1588 4.35117 33.1626 3.92102 32.9012 3.65042L32.6992 3.44835Z" fill="#A46A43"/>
<path d="M24.8275 2.06934H15.1723C14.7914 2.06934 14.4827 2.37811 14.4827 2.75899C14.4827 3.13988 14.7914 3.44865 15.1723 3.44865H24.8275C25.2084 3.44865 25.5171 3.13988 25.5171 2.75899C25.5171 2.37811 25.2084 2.06934 24.8275 2.06934Z" fill="#A46A43"/>
<path d="M33.1033 31.0346H6.89644C6.51556 31.0346 6.20679 30.7258 6.20679 30.3449C6.20679 29.964 6.51556 29.6553 6.89644 29.6553H33.1033C33.4842 29.6553 33.793 29.964 33.793 30.3449C33.793 30.7258 33.4842 31.0346 33.1033 31.0346Z" fill="#F2D45B"/>
</g>
<defs>
<clipPath id="clip0_1_5388">
<rect width="40" height="40" fill="white"/>
</clipPath>
</defs>
</svg>
