<svg width="40" height="40" viewBox="0 0 40 40" fill="none" xmlns="http://www.w3.org/2000/svg">
<g clip-path="url(#clip0_1_5362)">
<path d="M10.8455 15.2588H12.2011V34.2384H10.8455V15.2588Z" fill="#995F5B"/>
<path d="M16.2682 5.76861C16.0405 5.76861 15.8135 5.79112 15.5904 5.83646C15.5904 5.81329 15.5904 5.79079 15.5904 5.76861C15.5844 3.60103 13.8792 1.81904 11.714 1.71743C9.5487 1.61582 7.68429 3.23001 7.47512 5.38765C6.2121 4.82102 4.73164 5.07951 3.73539 6.04034C2.73882 7.0015 2.42703 8.47171 2.94766 9.75425C3.46796 11.0371 4.71641 11.8742 6.10056 11.8692C6.32927 11.8695 6.55764 11.8467 6.78172 11.8014C6.78172 11.8245 6.77841 11.8467 6.77841 11.8692C6.79562 14.3459 8.71529 16.393 11.186 16.5688C13.6565 16.7448 15.8469 14.991 16.2153 12.5418C16.2331 12.5418 16.25 12.547 16.2682 12.547C18.1399 12.547 19.6574 11.0295 19.6574 9.15783C19.6574 7.28615 18.1399 5.76861 16.2682 5.76861Z" fill="#C8D952"/>
<path d="M0.677734 34.2383H39.9927V39.661H0.677734V34.2383Z" fill="#C8D952"/>
<path d="M2.03345 23.3926H7.4562V31.5267H2.03345V23.3926Z" fill="#F3E56D"/>
<path d="M4.06714 23.3926H5.42283V29.4932H4.06714V23.3926Z" fill="#DF6437"/>
<path d="M0 22.7148H9.48981V24.0705H0V22.7148Z" fill="#EBB562"/>
<path d="M3.38916 31.5273H6.10053V34.2387H3.38916V31.5273Z" fill="#EBB562"/>
<path d="M14.2346 28.8154H37.2813V31.5268H14.2346V28.8154Z" fill="#995F5B"/>
<path d="M16.2683 23.3926H35.2479C35.9966 23.3926 36.6036 23.9996 36.6036 24.7483C36.6036 25.4969 35.9966 26.104 35.2479 26.104H16.2683C15.5196 26.104 14.9126 25.4969 14.9126 24.7483C14.9126 23.9996 15.5196 23.3926 16.2683 23.3926Z" fill="#DF6437"/>
<path d="M16.2683 17.9697H35.2479C35.9966 17.9697 36.6036 18.5767 36.6036 19.3254C36.6036 20.0741 35.9966 20.6811 35.2479 20.6811H16.2683C15.5196 20.6811 14.9126 20.0741 14.9126 19.3254C14.9126 18.5767 15.5196 17.9697 16.2683 17.9697Z" fill="#DF6437"/>
<path d="M17.624 31.5273H20.3354V34.2387H17.624V31.5273Z" fill="#EBB562"/>
<path d="M31.1809 31.5273H33.8923V34.2387H31.1809V31.5273Z" fill="#EBB562"/>
<path d="M17.624 20.6816H20.3354V23.393H17.624V20.6816Z" fill="#EBB562"/>
<path d="M17.624 26.1045H20.3354V28.8159H17.624V26.1045Z" fill="#EBB562"/>
<path d="M31.1809 20.6816H33.8923V23.393H31.1809V20.6816Z" fill="#EBB562"/>
<path d="M31.1809 26.1045H33.8923V28.8159H31.1809V26.1045Z" fill="#EBB562"/>
<path d="M7.4563 36.2715H8.81199V37.6272H7.4563V36.2715Z" fill="#67C086"/>
<path d="M21.0132 36.2715H22.3689V37.6272H21.0132V36.2715Z" fill="#67C086"/>
<path d="M33.8921 36.2715H36.6035V37.6272H33.8921V36.2715Z" fill="#67C086"/>
<path d="M0.677734 36.2715H4.06695V37.6272H0.677734V36.2715Z" fill="#67C086"/>
<path d="M12.8792 10.5137H14.2348V11.8694H12.8792V10.5137Z" fill="#67C086"/>
<path d="M10.1677 12.5469H11.5234V13.9026H10.1677V12.5469Z" fill="#67C086"/>
<path d="M39.9927 5.09061V4.41277C40.0414 3.86003 39.8428 3.31392 39.4503 2.92138C39.0581 2.52917 38.5119 2.33058 37.9592 2.37923H37.2814C36.8796 1.0914 35.9257 0.345703 33.8921 0.345703C32.3825 0.345703 30.8296 0.977541 30.5029 2.37923H29.8251C29.2813 2.36401 28.755 2.57319 28.3704 2.95778C27.9855 3.34271 27.7763 3.86897 27.7915 4.41277V5.09061H39.9927Z" fill="#CDEEF6"/>
<path d="M33.8921 12.5476V11.8698C33.9408 11.3171 33.7422 10.7709 33.3497 10.3784C32.9575 9.9862 32.4114 9.78761 31.8586 9.83627H31.1808C30.779 8.54843 29.8251 7.80273 27.7916 7.80273C26.282 7.80273 24.729 8.43457 24.4023 9.83627H23.7245C23.1807 9.82104 22.6544 10.0302 22.2698 10.4148C21.8849 10.7997 21.6757 11.326 21.691 11.8698V12.5476H33.8921Z" fill="#CDEEF6"/>
</g>
<defs>
<clipPath id="clip0_1_5362">
<rect width="40" height="40" fill="white"/>
</clipPath>
</defs>
</svg>
