<svg width="61" height="60" viewBox="0 0 61 60" fill="none" xmlns="http://www.w3.org/2000/svg">
<path d="M0 0V21.8182H5.4964V27.2727H10.9928V21.8182H21.9856V0H0ZM21.9856 21.8182V27.2727H27.482V32.7273H16.4892V38.1818H0V60H21.9856V38.1818H38.4748V32.7273H32.9784V27.2727H43.9712V21.8182H49.4676V27.2727H54.964V21.8182H60.4604V0H38.4748V21.8182H21.9856ZM54.964 27.2727V32.7273H60.4604V27.2727H54.964ZM54.964 32.7273H49.4676V38.1818H54.964V32.7273ZM54.964 38.1818V43.6364H60.4604V38.1818H54.964ZM54.964 43.6364H49.4676V38.1818H43.9712V43.6364H30.2302V60H35.7266V49.0909H46.7194V54.5455H52.2158V49.0909H54.964V43.6364ZM46.7194 54.5455H41.223V60H46.7194V54.5455ZM49.4676 32.7273V27.2727H43.9712V32.7273H49.4676ZM16.4892 32.7273V27.2727H10.9928V32.7273H16.4892ZM5.4964 27.2727H0V32.7273H5.4964V27.2727ZM27.482 0V10.9091H24.7338V16.3636H27.482V19.0909H32.9784V10.9091H35.7266V5.45455H32.9784V0H27.482ZM5.4964 5.45455H16.4892V16.3636H5.4964V5.45455ZM43.9712 5.45455H54.964V16.3636H43.9712V5.45455ZM8.24459 8.18182V13.6364H13.741V8.18182H8.24459ZM46.7194 8.18182V13.6364H52.2158V8.18182H46.7194ZM5.4964 43.6364H16.4892V54.5455H5.4964V43.6364ZM8.24459 46.3636V51.8182H13.741V46.3636H8.24459ZM54.964 54.5455V60H60.4604V54.5455H54.964Z" fill="black"/>
</svg>
