<svg width="45" height="45" viewBox="0 0 45 45" fill="none" xmlns="http://www.w3.org/2000/svg">
<path d="M9.25875 23.9062L9.14062 24.6094H4.92188V14.7656L5.625 14.4141C5.625 13.9479 5.8102 13.5008 6.13985 13.1711C6.46951 12.8414 6.91661 12.6563 7.38281 12.6563H8.29195C8.7204 12.6562 9.13409 12.8127 9.45529 13.0962C9.77649 13.3798 9.98308 13.7709 10.0362 14.196L11.003 21.9304C11.0339 22.1777 11.0119 22.4288 10.9384 22.6669C10.8649 22.9051 10.7415 23.1249 10.5766 23.3118C10.4116 23.4986 10.2088 23.6483 9.98161 23.7508C9.75441 23.8533 9.508 23.9063 9.25875 23.9062Z" fill="#79D8EB"/>
<path d="M7.73438 36.5625L7.03125 35.8594H2.8125L2.10938 36.5625V40.7812H3.79424C4.5321 40.7812 5.25126 40.5491 5.84985 40.1176C6.44843 39.6862 6.89609 39.0774 7.12942 38.3774L7.73438 36.5625Z" fill="#994635"/>
<path d="M37.2656 36.5625L37.9688 35.8594H42.1875L42.8906 36.5625V40.7812H41.2058C40.4679 40.7812 39.7487 40.5491 39.1502 40.1176C38.5516 39.6862 38.1039 39.0774 37.8706 38.3774L37.2656 36.5625Z" fill="#994635"/>
<path d="M39.0234 30.9375L38.6719 31.6406H6.32812L4.92188 30.9375V23.9062H39.0234C39.4896 23.9062 39.9367 24.0914 40.2664 24.4211C40.5961 24.7508 40.7812 25.1979 40.7812 25.6641V29.1797C40.7812 29.6459 40.5961 30.093 40.2664 30.4226C39.9367 30.7523 39.4896 30.9375 39.0234 30.9375Z" fill="#FAC850"/>
<path d="M27.9961 14.6172L27.0997 16.2561L25.4609 17.1524L27.0997 18.0487L27.9961 19.6875L28.8924 18.0487L30.5313 17.1524L28.8924 16.2561L27.9961 14.6172Z" fill="#FAC850"/>
<path d="M19.4101 7.03125L18.5138 8.67006L16.875 9.56637L18.5138 10.4627L19.4101 12.1016L20.3064 10.4627L21.9453 9.56637L20.3064 8.67006L19.4101 7.03125Z" fill="#FAC850"/>
<path d="M32.6211 4.21875L31.7248 5.85756L30.0859 6.75387L31.7248 7.65018L32.6211 9.28907L33.5175 7.65018L35.1563 6.75387L33.5175 5.85756L32.6211 4.21875Z" fill="#FAC850"/>
<path d="M41.1328 30.9375H5.625V12.3047C5.625 11.8385 5.4398 11.3914 5.11015 11.0617C4.78049 10.7321 4.33339 10.5469 3.86719 10.5469H2.10938V36.5625H42.8906V32.6953C42.8906 32.2291 42.7054 31.782 42.3758 31.4524C42.0461 31.1227 41.599 30.9375 41.1328 30.9375Z" fill="#FA5D3F"/>
<path d="M18.2812 22.5H36.3867C36.6198 22.5 36.8434 22.5926 37.0082 22.7574C37.173 22.9223 37.2656 23.1458 37.2656 23.3789V28.125H18.2812V22.5Z" fill="#79D8EB"/>
<path d="M14.0625 22.5H18.2812V28.125H14.0625V22.5Z" fill="#E4F7FB"/>
</svg>
