<svg width="40" height="40" viewBox="0 0 40 40" fill="none" xmlns="http://www.w3.org/2000/svg">
<g clip-path="url(#clip0_1_5195)">
<path d="M20.0009 8.47017C17.6658 8.47017 15.7659 6.57042 15.7659 4.23513C15.7659 1.89984 17.6658 0 20.0009 0C22.336 0 24.236 1.89975 24.236 4.23504C24.236 6.57033 22.3361 8.47017 20.0009 8.47017ZM20.0009 1.41168C18.444 1.41168 17.1776 2.67815 17.1776 4.23504C17.1776 5.79193 18.444 7.0584 20.0009 7.0584C21.5578 7.0584 22.8243 5.79193 22.8243 4.23504C22.8243 2.67815 21.5579 1.41168 20.0009 1.41168Z" fill="#3A556A"/>
<path d="M33.6453 10.0631V37.4122C33.6453 38.8428 32.4924 40.0004 31.0619 40.0004H8.94066C7.51019 40.0004 6.35254 38.8428 6.35254 37.4122V10.0631C6.35254 7.10326 8.7524 4.70801 11.7123 4.70801H28.2902C31.2501 4.70809 33.6453 7.10326 33.6453 10.0631Z" fill="#FCD462"/>
<path d="M29.4102 24.7818V35.8446C29.4102 36.6211 28.7797 37.2563 27.9985 37.2563H11.9993C11.2229 37.2563 10.5876 36.6211 10.5876 35.8446V24.7818C10.5876 24.0006 11.2229 23.3701 11.9993 23.3701H27.9985C28.7797 23.3701 29.4102 24.0006 29.4102 24.7818Z" fill="#27A2DB"/>
<path d="M15.766 25.0078H14.3542V26.4196H15.766V25.0078Z" fill="#3A556A"/>
<path d="M17.1771 26.4209H15.7654V27.8327H17.1771V26.4209Z" fill="#3A556A"/>
<path d="M12.9425 25.0078H11.5308V26.4196H12.9425V25.0078Z" fill="#3A556A"/>
<path d="M14.3544 26.4209H12.9426V27.8327H14.3544V26.4209Z" fill="#3A556A"/>
<path d="M18.5895 25.0078H17.1777V26.4196H18.5895V25.0078Z" fill="#3A556A"/>
<path d="M20.0038 26.4209H18.592V27.8327H20.0038V26.4209Z" fill="#3A556A"/>
<path d="M21.4118 25.0078H20V26.4196H21.4118V25.0078Z" fill="#3A556A"/>
<path d="M22.8246 26.4209H21.4128V27.8327H22.8246V26.4209Z" fill="#3A556A"/>
<path d="M24.2384 25.0078H22.8267V26.4196H24.2384V25.0078Z" fill="#3A556A"/>
<path d="M25.6481 26.4209H24.2363V27.8327H25.6481V26.4209Z" fill="#3A556A"/>
<path d="M27.06 25.0078H25.6482V26.4196H27.06V25.0078Z" fill="#3A556A"/>
<path d="M28.4733 26.4209H27.0615V27.8327H28.4733V26.4209Z" fill="#3A556A"/>
<path d="M14.8988 31.5338C14.4954 32.0731 12.8015 32.0731 12.3982 31.5338C11.8664 30.8226 12.951 27.8633 12.951 27.8633H14.3461C14.3461 27.8633 15.4307 30.8225 14.8988 31.5338Z" fill="#64798A"/>
<path d="M13.6479 31.2285C14.0976 31.2285 14.4622 30.8169 14.4622 30.3091C14.4622 29.8013 14.0976 29.3896 13.6479 29.3896C13.1981 29.3896 12.8335 29.8013 12.8335 30.3091C12.8335 30.8169 13.1981 31.2285 13.6479 31.2285Z" fill="#E1E6E9"/>
<path d="M29.4102 34.4102V35.8453C29.4102 36.6218 28.7797 37.257 27.9985 37.257H11.9993C11.2229 37.257 10.5876 36.6218 10.5876 35.8453V34.4102H29.4102Z" fill="#2D93BA"/>
<path d="M36.1628 22.5188V34.1606C36.1628 35.5535 35.0382 36.6781 33.6453 36.6781V21.1494H34.7934C35.5511 21.1494 36.1628 21.7612 36.1628 22.5188Z" fill="#44C4A1"/>
<path d="M36.1628 22.5188V25.0081H33.6453V21.1494H34.7934C35.5511 21.1494 36.1628 21.7612 36.1628 22.5188Z" fill="#E1E6E9"/>
<path d="M3.83716 22.5188V34.1606C3.83716 35.5535 4.96184 36.6781 6.35473 36.6781V21.1494H5.20647C4.44891 21.1494 3.83716 21.7612 3.83716 22.5188Z" fill="#44C4A1"/>
<path d="M3.83716 22.5188V25.0081H6.35473V21.1494H5.20647C4.44891 21.1494 3.83716 21.7612 3.83716 22.5188Z" fill="#E1E6E9"/>
<path d="M33.6452 10.0632V13.0135C30.2148 15.6393 25.3727 17.2768 19.9989 17.2768C14.6251 17.2768 9.77826 15.6393 6.35254 13.0089V10.0631C6.35254 7.10326 8.7524 4.70801 11.7123 4.70801H28.2902C31.25 4.70818 33.6452 7.10335 33.6452 10.0632Z" fill="#F6C358"/>
<path d="M13.6485 21.1495C12.8688 21.1495 12.2368 20.5175 12.2368 19.7378V4.70605H15.0602V19.7378C15.0602 20.5174 14.4281 21.1495 13.6485 21.1495Z" fill="#E56353"/>
<path d="M26.3538 21.1495C25.5741 21.1495 24.9421 20.5175 24.9421 19.7378V4.70605H27.7655V19.7378C27.7655 20.5174 27.1334 21.1495 26.3538 21.1495Z" fill="#E56353"/>
<path d="M27.7979 14.125H24.9093C24.6733 14.125 24.4736 14.3 24.4428 14.5341L24.06 17.4407C23.9857 18.0045 24.4244 18.5047 24.9931 18.5047H27.7142C28.2828 18.5047 28.7215 18.0045 28.6473 17.4407L28.2644 14.5341C28.2336 14.3 28.0341 14.125 27.7979 14.125Z" fill="#64798A"/>
<path d="M28.6257 17.2773C28.5283 17.6875 28.1642 18.0024 27.7143 18.0024H24.9931C24.5431 18.0024 24.1789 17.6874 24.0816 17.2773L24.06 17.4411C23.9857 18.0048 24.4244 18.5051 24.9931 18.5051H27.7143C28.2829 18.5051 28.7216 18.0048 28.6473 17.4411L28.6257 17.2773Z" fill="#3A556A"/>
<path d="M15.0928 14.125H12.2043C11.9682 14.125 11.7686 14.3 11.7377 14.5341L11.3549 17.4407C11.2807 18.0045 11.7194 18.5047 12.288 18.5047H15.0091C15.5777 18.5047 16.0164 18.0045 15.9422 17.4407L15.5593 14.5341C15.5285 14.3 15.329 14.125 15.0928 14.125Z" fill="#64798A"/>
<path d="M15.9204 17.2773C15.823 17.6875 15.4589 18.0024 15.0089 18.0024H12.2877C11.8378 18.0024 11.4736 17.6874 11.3763 17.2773L11.3546 17.4411C11.2804 18.0048 11.7191 18.5051 12.2877 18.5051H15.0089C15.5776 18.5051 16.0163 18.0048 15.942 17.4411L15.9204 17.2773Z" fill="#3A556A"/>
</g>
<defs>
<clipPath id="clip0_1_5195">
<rect width="40" height="40" fill="white"/>
</clipPath>
</defs>
</svg>
