<svg width="40" height="40" viewBox="0 0 40 40" fill="none" xmlns="http://www.w3.org/2000/svg">
<g clip-path="url(#clip0_1_5254)">
<path d="M1.3064 7.5498H31.4832V15.9457H1.3064V7.5498Z" fill="#FFDA45"/>
<path d="M28.1184 7.5498H31.4833V15.9457H28.1184V7.5498Z" fill="#FAC800"/>
<path d="M18.6111 7.5498H28.1578V15.9457H18.6111V7.5498Z" fill="#FFF5F5"/>
<path d="M37.7306 39.4136H7.78612C5.33714 39.4136 3.35181 37.4282 3.35181 34.9792C3.35181 32.5303 5.33714 30.5449 7.78612 30.5449H37.7306V39.4136Z" fill="#F0F5FA"/>
<path d="M34.6006 30.5449H37.7307V39.4135H34.6006V30.5449Z" fill="#E4ECF2"/>
<path d="M39.2956 40.0004H7.7861C5.01746 40.0004 2.76489 37.7479 2.76489 34.9792C2.76489 32.2105 5.01738 29.958 7.7861 29.958H39.2957C39.6198 29.958 39.8826 30.2208 39.8826 30.5449C39.8826 30.869 39.6198 31.1318 39.2957 31.1318H7.7861C5.66468 31.1318 3.93868 32.8577 3.93868 34.9792C3.93868 37.1006 5.6646 38.8266 7.7861 38.8266H39.2957C39.6198 38.8266 39.8826 39.0894 39.8826 39.4135C39.8826 39.7376 39.6198 40.0004 39.2956 40.0004Z" fill="#6E9EFF"/>
<path d="M37.7306 34.0878H13.5578C13.2337 34.0878 12.9709 33.8251 12.9709 33.501C12.9709 33.1768 13.2337 32.9141 13.5578 32.9141H37.7306V34.0878Z" fill="#C5D7E6"/>
<path d="M37.7306 37.0439H19.9761C19.6519 37.0439 19.3892 36.7811 19.3892 36.457C19.3892 36.1329 19.6519 35.8701 19.9761 35.8701H37.7306V37.0439Z" fill="#C5D7E6"/>
<path d="M32.7116 29.3744H3.57417C1.98925 29.3744 0.704346 28.0896 0.704346 26.5046C0.704346 24.9197 1.98917 23.6348 3.57417 23.6348H32.7117V29.3744H32.7116Z" fill="#F0F5FA"/>
<path d="M29.5815 23.6348H32.7116V29.3744H29.5815V23.6348Z" fill="#E4ECF2"/>
<path d="M34.507 29.9613H3.57414C1.66815 29.9613 0.117432 28.4106 0.117432 26.5046C0.117432 24.5985 1.66808 23.0479 3.57414 23.0479H34.507C34.8311 23.0479 35.0939 23.3106 35.0939 23.6347C35.0939 23.9589 34.8311 24.2216 34.507 24.2216H3.57414C2.31538 24.2216 1.29121 25.2457 1.29121 26.5046C1.29121 27.7634 2.3153 28.7875 3.57414 28.7875H34.507C34.8311 28.7875 35.0939 29.0503 35.0939 29.3744C35.0939 29.6985 34.8311 29.9613 34.507 29.9613Z" fill="#74D84B"/>
<path d="M32.7116 27.2138H24.4704C24.1463 27.2138 23.8835 26.9511 23.8835 26.6269C23.8835 26.3028 24.1463 26.04 24.4704 26.04H32.7116V27.2138Z" fill="#C5D7E6"/>
<path d="M10.4111 0.586914H33.7984C35.559 0.586914 36.9863 2.01423 36.9863 3.77483C36.9863 5.5355 35.559 6.96274 33.7984 6.96274H10.4111V0.586914Z" fill="#F0F5FA"/>
<path d="M33.7983 0.586914H30.6682C32.4289 0.586914 33.8561 2.01423 33.8561 3.77483C33.8561 5.5355 32.4288 6.96274 30.6682 6.96274H33.7983C35.559 6.96274 36.9862 5.53542 36.9862 3.77483C36.9862 2.01423 35.559 0.586914 33.7983 0.586914Z" fill="#E4ECF2"/>
<path d="M33.7984 7.54969H8.41673C8.0926 7.54969 7.82983 7.28692 7.82983 6.9628C7.82983 6.63868 8.0926 6.37591 8.41673 6.37591H33.7984C35.2326 6.37591 36.3994 5.20909 36.3994 3.77488C36.3994 2.34068 35.2326 1.17378 33.7984 1.17378H8.41673C8.0926 1.17378 7.82983 0.911012 7.82983 0.586891C7.82983 0.262771 8.0926 0 8.41673 0H33.7984C35.8798 0 37.5732 1.69338 37.5732 3.77481C37.5732 5.85624 35.8798 7.54969 33.7984 7.54969Z" fill="#FC435F"/>
<path d="M4.70288 15.9453H39.5957V23.0473H4.70288V15.9453Z" fill="#6E9EFF"/>
<path d="M28.9404 15.9453H39.5958V23.0473H28.9404V15.9453Z" fill="#BF6930"/>
<path d="M36.4656 15.9453H39.5957V23.0473H36.4656V15.9453Z" fill="#AD5F2C"/>
<path d="M16.707 20.6698H8.72456C8.07632 20.6698 7.55078 20.1443 7.55078 19.496C7.55078 18.8478 8.07632 18.3223 8.72456 18.3223H16.707C17.3552 18.3223 17.8808 18.8478 17.8808 19.496C17.8808 20.1443 17.3552 20.6698 16.707 20.6698Z" fill="#FFF5F5"/>
<path d="M36.2048 20.083H32.3835C32.0594 20.083 31.7966 19.8202 31.7966 19.4961C31.7966 19.172 32.0594 18.9092 32.3835 18.9092H36.2048C36.5289 18.9092 36.7917 19.172 36.7917 19.4961C36.7917 19.8202 36.529 20.083 36.2048 20.083Z" fill="#FFF5F5"/>
<path d="M25.5234 13.0648C25.1993 13.0648 24.9365 12.802 24.9365 12.4779V11.0176C24.9365 10.6934 25.1993 10.4307 25.5234 10.4307C25.8475 10.4307 26.1103 10.6934 26.1103 11.0176V12.4779C26.1103 12.802 25.8476 13.0648 25.5234 13.0648Z" fill="#677A8F"/>
<path d="M23.3845 13.0648C23.0604 13.0648 22.7976 12.802 22.7976 12.4779V11.0176C22.7976 10.6934 23.0604 10.4307 23.3845 10.4307C23.7086 10.4307 23.9714 10.6934 23.9714 11.0176V12.4779C23.9714 12.802 23.7087 13.0648 23.3845 13.0648Z" fill="#677A8F"/>
<path d="M21.2456 13.0648C20.9215 13.0648 20.6587 12.802 20.6587 12.4779V11.0176C20.6587 10.6934 20.9215 10.4307 21.2456 10.4307C21.5697 10.4307 21.8325 10.6934 21.8325 11.0176V12.4779C21.8325 12.802 21.5697 13.0648 21.2456 13.0648Z" fill="#677A8F"/>
<path d="M10.3945 3.1875H23.7864C24.1106 3.1875 24.3733 3.45027 24.3733 3.77439C24.3733 4.09851 24.1106 4.36128 23.7864 4.36128H10.3945V3.1875Z" fill="#C5D7E6"/>
</g>
<defs>
<clipPath id="clip0_1_5254">
<rect width="40" height="40" fill="white"/>
</clipPath>
</defs>
</svg>
