<svg width="18" height="18" viewBox="0 0 18 18" fill="none" xmlns="http://www.w3.org/2000/svg">
<path d="M8.11625 0.609375C3.98399 0.609375 0.617878 3.97548 0.617878 8.10776C0.617878 12.24 3.98399 15.6127 8.11625 15.6127C9.88127 15.6127 11.5045 14.9941 12.7875 13.9671L15.9108 17.0889C16.0685 17.24 16.279 17.3233 16.4973 17.3211C16.7157 17.3189 16.9244 17.2312 17.0789 17.0769C17.2334 16.9227 17.3214 16.714 17.3239 16.4957C17.3264 16.2774 17.2434 16.0667 17.0925 15.9089L13.9691 12.7856C14.997 11.5006 15.6163 9.87481 15.6163 8.10776C15.6163 3.97548 12.2485 0.609375 8.11625 0.609375ZM8.11625 2.27607C11.3478 2.27607 13.948 4.87623 13.948 8.10776C13.948 11.3393 11.3478 13.946 8.11625 13.946C4.88472 13.946 2.28454 11.3393 2.28454 8.10776C2.28454 4.87623 4.88472 2.27607 8.11625 2.27607Z" fill="black"/>
</svg>
