<svg width="17" height="19" viewBox="0 0 17 19" fill="none" xmlns="http://www.w3.org/2000/svg">
<path fill-rule="evenodd" clip-rule="evenodd" d="M0.567993 0H14.5019V2.5H13.603V1H1.46696V12.5H11.08V13.5H0.567993V0ZM14.0525 6.5C14.4101 6.5 14.7531 6.34196 15.0059 6.06066C15.2588 5.77936 15.4009 5.39782 15.4009 5C15.4009 4.60218 15.2588 4.22064 15.0059 3.93934C14.7531 3.65804 14.4101 3.5 14.0525 3.5C13.6948 3.5 13.3518 3.65804 13.099 3.93934C12.8461 4.22064 12.704 4.60218 12.704 5C12.704 5.39782 12.8461 5.77936 13.099 6.06066C13.3518 6.34196 13.6948 6.5 14.0525 6.5ZM14.9653 7.505C15.5492 7.505 16.0113 7.797 16.3138 8.248C16.5965 8.6705 16.7161 9.193 16.7431 9.6755C16.7695 10.1704 16.7089 10.6664 16.5646 11.1355C16.4298 11.5705 16.2019 12.0205 15.8504 12.329V17.25C15.8507 17.4384 15.7873 17.6201 15.6726 17.7589C15.558 17.8976 15.4007 17.9833 15.2318 17.9989C15.063 18.0144 14.8951 17.9587 14.7615 17.8429C14.628 17.727 14.5385 17.5594 14.5109 17.3735L13.9311 13.5H13.7971L13.1418 17.388C13.1107 17.5715 13.0191 17.7355 12.8851 17.8479C12.751 17.9603 12.5841 18.013 12.417 17.9958C12.2498 17.9785 12.0945 17.8925 11.9813 17.7546C11.8681 17.6167 11.8053 17.4367 11.805 17.25V10.1165C11.7152 10.2688 11.6265 10.422 11.5389 10.576L11.5039 10.6375L11.4949 10.6535L11.4927 10.658C11.4321 10.7662 11.3477 10.8554 11.2475 10.9173C11.1473 10.9791 11.0346 11.0116 10.92 11.0115H8.6726C8.49379 11.0115 8.3223 10.9325 8.19585 10.7918C8.06941 10.6512 7.99838 10.4604 7.99838 10.2615C7.99838 10.0626 8.06941 9.87182 8.19585 9.73117C8.3223 9.59052 8.49379 9.5115 8.6726 9.5115H10.5501C10.6593 9.3235 10.8031 9.0795 10.9542 8.8345C11.1115 8.579 11.285 8.3085 11.4396 8.0965C11.5147 7.993 11.5987 7.885 11.6832 7.7965C11.7246 7.753 11.7821 7.6965 11.8522 7.6465C11.976 7.55615 12.1204 7.50721 12.2685 7.5055H14.9653V7.505Z" fill="#C19444"/>
</svg>
