<svg width="40" height="40" viewBox="0 0 40 40" fill="none" xmlns="http://www.w3.org/2000/svg">
<circle cx="20" cy="20" r="19.5" fill="#F8F4E9" stroke="#C19444"/>
<path d="M15.2553 19.4905H33.5327L12.7462 10.0421C12.6507 10.0027 12.546 9.99062 12.4441 10.0073C12.3421 10.024 12.2468 10.0688 12.1688 10.1366C12.0925 10.207 12.0389 10.2984 12.0146 10.3993C11.9903 10.5002 11.9965 10.6061 12.0323 10.7035L15.2553 19.4905Z" fill="#C19444"/>
<path d="M15.2553 20.54L12.0323 29.2851C11.9965 29.3825 11.9903 29.4883 12.0146 29.5892C12.0389 29.6901 12.0925 29.7816 12.1688 29.852C12.2688 29.9367 12.3947 29.9848 12.5257 29.9885C12.5984 30.0035 12.6735 30.0035 12.7462 29.9885L33.5327 20.54H15.2553Z" fill="#C19444"/>
</svg>
