<svg width="20" height="16" viewBox="0 0 20 16" fill="none" xmlns="http://www.w3.org/2000/svg">
<path d="M10.006 14.233C10.006 14.5854 9.80245 14.9055 9.48387 15.0549C9.36069 15.1131 9.2287 15.1413 9.09757 15.1413C8.88992 15.1413 8.68419 15.0699 8.51802 14.9321L3.55274 10.8177H0.908231C0.406716 10.8181 0 10.4112 0 9.90965V6.29113C0 5.7894 0.406716 5.38269 0.908231 5.38269H3.55296L8.51824 1.26824C8.78953 1.04338 9.16572 0.995446 9.48408 1.14592C9.80245 1.29532 10.0062 1.61562 10.0062 1.96774L10.006 14.233ZM13.4964 12.8138C13.4743 12.8153 13.453 12.8162 13.4311 12.8162C13.1912 12.8162 12.9599 12.7214 12.789 12.5503L12.6675 12.4284C12.3489 12.1105 12.3115 11.6068 12.5798 11.2452C13.26 10.3282 13.619 9.24111 13.619 8.10071C13.619 6.87412 13.2114 5.72362 12.4401 4.77347C12.1464 4.41233 12.1735 3.88781 12.5026 3.55891L12.6239 3.43746C12.8053 3.25603 13.0484 3.15714 13.3116 3.17284C13.5678 3.18573 13.807 3.30633 13.9696 3.50496C15.0394 4.8141 15.6046 6.40356 15.6046 8.10093C15.6046 9.68179 15.1048 11.1866 14.1589 12.4518C14.0009 12.6627 13.7593 12.7951 13.4964 12.8138ZM17.2514 15.6207C17.0872 15.8148 16.8497 15.9313 16.5954 15.942C16.5829 15.9425 16.5702 15.9429 16.5573 15.9429C16.3168 15.9429 16.0859 15.8479 15.915 15.677L15.7957 15.5577C15.4623 15.2245 15.4397 14.6916 15.7428 14.3309C17.2076 12.5888 18.0146 10.3763 18.0146 8.10071C18.0146 5.73373 17.1506 3.45509 15.5824 1.68463C15.2645 1.3252 15.2806 0.781125 15.619 0.441479L15.7381 0.322173C15.9148 0.144611 16.1444 0.0468019 16.4077 0.0551855C16.6577 0.0622794 16.8942 0.172772 17.0603 0.359792C18.9559 2.49397 20 5.24339 20 8.10071C20.0004 10.8499 19.0243 13.5206 17.2514 15.6207Z" fill="#C19444"/>
</svg>
