<svg width="130" height="130" viewBox="0 0 130 130" fill="none" xmlns="http://www.w3.org/2000/svg">
<rect x="0.5" y="0.5" width="129" height="129" rx="27.5" fill="#C19444" stroke="#F8F4E9"/>
<path d="M105.416 56.4241C105.416 42.569 97.6542 38.653 74.61 27.0254C71.7862 25.6007 68.7211 24.0555 65.4003 22.3555L64.708 22L64.0157 22.3555C60.6978 24.0555 57.6356 25.5978 54.8118 27.0226C31.7647 38.6502 24 42.5662 24 56.4241V57.9377H30.3456V101.057L30.7851 101.498C31.0494 101.765 37.3721 108 49.7732 108C54.6538 108 59.6752 106.701 64.708 104.138C69.7409 106.701 74.7622 108 79.6428 108C92.0411 108 98.3666 101.765 98.6309 101.498L99.0675 101.057V57.9377H105.413V56.4241H105.416ZM96.034 99.7552C94.4972 101.025 88.9702 104.973 79.6457 104.973C75.0351 104.973 70.2493 103.668 65.4262 101.094L64.7109 100.713L63.9956 101.094C59.1667 103.665 54.3838 104.973 49.7761 104.973C40.4429 104.973 34.916 101.022 33.3849 99.7552V57.9377H36.6941V97.7542L37.3836 98.2014C40.8853 100.478 45.0765 101.682 49.5032 101.682C53.2951 101.682 57.2018 100.796 60.5082 99.1847L62.3754 98.2759L60.942 96.7766C59.9509 95.7389 58.98 94.7556 58.0464 93.8095C53.2118 88.9074 49.394 85.0315 48.3857 79.6047C47.771 76.3051 48.6989 73.0427 50.8706 70.8783C54.1597 67.593 58.6841 67.9399 63.7888 71.8415L64.7109 72.5468L65.633 71.8415C70.7377 67.9399 75.2592 67.593 78.5483 70.8783C80.7201 73.0427 81.6479 76.3051 81.036 79.6047C80.0249 85.0344 76.2071 88.9074 71.3754 93.8095C70.4418 94.7556 69.4737 95.7389 68.4798 96.7766L66.9515 98.3763L68.9969 99.222C77.7526 102.846 85.8937 102.513 92.0813 98.1727L92.7248 97.7198V57.9377H96.034V99.7552ZM80.6942 68.7368C78.6403 66.6871 76.1037 65.6035 73.3604 65.6035C70.6141 65.6035 67.7099 66.667 64.708 68.7626C61.7061 66.6642 58.799 65.6035 56.0528 65.6035C53.3094 65.6035 50.7729 66.6871 48.719 68.7368C45.8406 71.6065 44.5996 75.8779 45.3982 80.158C46.576 86.4964 50.8878 90.8711 55.8776 95.9367C56.3142 96.381 56.7595 96.8311 57.2133 97.2955C54.786 98.1785 52.1115 98.6544 49.5003 98.6544C45.9526 98.6544 42.5888 97.7714 39.7276 96.0915V54.9104H33.4366C33.9967 47.8295 39.0698 45.3584 60.896 34.7399L64.708 32.8851L68.5143 34.7399C90.3434 45.3612 95.4193 47.8295 95.9766 54.9133H89.6855V96.1287C84.9428 99.1388 78.8988 99.4771 72.2688 97.2267C72.6968 96.791 73.1191 96.361 73.5356 95.9395C78.5254 90.874 82.8372 86.5022 84.015 80.1637C84.8135 75.8751 83.5697 71.6065 80.6942 68.7368ZM99.0675 54.9104H99.0216C98.4442 45.9289 92.245 42.913 69.8443 32.0136L64.7051 29.5109L59.5631 32.0165C37.1681 42.9102 30.969 45.9289 30.3916 54.9104H30.3456H27.0737C27.6511 44.1199 34.7637 40.5336 56.1821 29.7288C58.8105 28.4015 61.6487 26.971 64.708 25.4086C67.7674 26.9738 70.6084 28.4043 73.2397 29.7317C94.6523 40.5365 101.765 44.1228 102.342 54.9133H99.0675V54.9104Z" fill="#F8F4E9"/>
<path d="M64.7081 42.9673C58.7129 42.9673 53.8352 47.8351 53.8352 53.8209C53.8352 59.8038 58.7129 64.6716 64.7081 64.6716C70.7032 64.6716 75.581 59.8038 75.581 53.8209C75.581 47.8351 70.7032 42.9673 64.7081 42.9673ZM64.7081 61.6414C60.3876 61.6414 56.8687 58.1325 56.8687 53.8209C56.8687 49.5064 60.3848 45.9975 64.7081 45.9975C69.0314 45.9975 72.5446 49.5064 72.5446 53.8209C72.5446 58.1325 69.0285 61.6414 64.7081 61.6414Z" fill="#F8F4E9"/>
<path d="M64.7083 48.5492C61.7955 48.5492 59.4256 50.9143 59.4256 53.8212C59.4256 56.7281 61.7955 59.0903 64.7083 59.0903C67.6212 59.0903 69.9882 56.7252 69.9882 53.8212C69.9882 50.9143 67.6183 48.5492 64.7083 48.5492ZM64.7083 56.0601C63.4702 56.0601 62.4619 55.0539 62.4619 53.8212C62.4619 52.5856 63.4702 51.5794 64.7083 51.5794C65.9464 51.5794 66.9519 52.5856 66.9519 53.8212C66.9519 55.0539 65.9464 56.0601 64.7083 56.0601Z" fill="#F8F4E9"/>
<path d="M74.7449 86.1696C78.8471 81.1528 79.3929 75.8722 76.1094 73.0312C75.2448 72.283 74.1905 71.9046 72.9783 71.9046C69.8845 71.9046 66.4344 74.4847 64.708 75.9668C62.9815 74.4847 59.5315 71.9046 56.4377 71.9046C55.2254 71.9046 54.1712 72.283 53.3065 73.0312C50.0231 75.8722 50.5689 81.1499 54.671 86.1696C57.0438 89.0736 59.1925 91.1377 62.7546 94.5578L64.708 96.4355L66.6614 94.5578C70.2234 91.1377 72.3722 89.0736 74.7449 86.1696ZM64.708 92.2328C61.2034 88.8672 59.2471 86.9809 57.0208 84.2575C54.0362 80.6024 53.341 77.0103 55.2915 75.3246C55.596 75.0609 55.9637 74.9376 56.4377 74.9376C58.5922 74.9376 61.9991 77.4919 63.6422 79.1002L64.708 80.1437L65.7737 79.0973C66.8739 78.0165 70.5567 74.9348 72.9783 74.9348C73.4523 74.9348 73.8171 75.058 74.1216 75.3218C76.075 77.0103 75.3798 80.5995 72.3923 84.2546C70.1688 86.978 68.2097 88.8672 64.708 92.2328Z" fill="#F8F4E9"/>
</svg>
