<svg width="20" height="20" viewBox="0 0 20 20" fill="none" xmlns="http://www.w3.org/2000/svg">
<g clip-path="url(#clip0_1_2000)">
<path d="M10.6594 0.772754L13.0634 5.87542C13.1154 5.98787 13.1943 6.08579 13.2931 6.16055C13.392 6.2353 13.5077 6.2846 13.63 6.30409L19.023 7.12509C19.1633 7.15051 19.294 7.21371 19.4011 7.30788C19.5081 7.40206 19.5874 7.52364 19.6305 7.65954C19.6736 7.79545 19.6789 7.94053 19.6456 8.07918C19.6124 8.21783 19.542 8.3448 19.442 8.44642L15.5267 12.4444C15.4403 12.5336 15.3761 12.6418 15.3391 12.7603C15.3021 12.8788 15.2934 13.0043 15.3137 13.1268L16.2364 18.7601C16.2635 18.9002 16.2506 19.0451 16.199 19.1782C16.1475 19.3113 16.0594 19.4271 15.9449 19.5123C15.8304 19.5975 15.6942 19.6486 15.5519 19.6598C15.4096 19.6709 15.2671 19.6417 15.1407 19.5754L10.337 16.9304C10.2287 16.8706 10.107 16.8392 9.98319 16.8392C9.85942 16.8392 9.73768 16.8706 9.62935 16.9304L4.82535 19.5761C4.69897 19.6424 4.55643 19.6716 4.41415 19.6604C4.27188 19.6493 4.13565 19.5981 4.02116 19.5129C3.90667 19.4277 3.81857 19.3119 3.767 19.1789C3.71544 19.0458 3.7025 18.9009 3.72969 18.7608L4.65235 13.1274C4.67266 13.005 4.66397 12.8794 4.62698 12.7609C4.58999 12.6424 4.52573 12.5343 4.43935 12.4451L0.52402 8.44642C0.424018 8.3448 0.353621 8.21783 0.320403 8.07918C0.287186 7.94053 0.292406 7.79545 0.335502 7.65954C0.378598 7.52364 0.457938 7.40206 0.564985 7.30788C0.672031 7.21371 0.802731 7.15051 0.94302 7.12509L6.33602 6.30409C6.45839 6.2846 6.57408 6.2353 6.67291 6.16055C6.77173 6.08579 6.85064 5.98787 6.90269 5.87542L9.30669 0.772754C9.36543 0.642577 9.46049 0.532119 9.58046 0.454636C9.70042 0.377153 9.84021 0.335937 9.98302 0.335938C10.1258 0.335937 10.2656 0.377153 10.3856 0.454636C10.5056 0.532119 10.6006 0.642577 10.6594 0.772754Z" fill="#C19444"/>
<path d="M8.66634 10.0024C8.57794 10.0024 8.49315 9.96724 8.43064 9.90473C8.36813 9.84222 8.33301 9.75743 8.33301 9.66903C8.33301 9.49222 8.26277 9.32265 8.13775 9.19762C8.01272 9.0726 7.84315 9.00236 7.66634 9.00236C7.48953 9.00236 7.31996 9.0726 7.19494 9.19762C7.06991 9.32265 6.99967 9.49222 6.99967 9.66903C6.99967 9.75743 6.96456 9.84222 6.90204 9.90473C6.83953 9.96724 6.75475 10.0024 6.66634 10.0024C6.57794 10.0024 6.49315 9.96724 6.43064 9.90473C6.36813 9.84222 6.33301 9.75743 6.33301 9.66903C6.33301 9.3154 6.47348 8.97627 6.72353 8.72622C6.97358 8.47617 7.31272 8.33569 7.66634 8.33569C8.01996 8.33569 8.3591 8.47617 8.60915 8.72622C8.8592 8.97627 8.99967 9.3154 8.99967 9.66903C8.99967 9.75743 8.96456 9.84222 8.90204 9.90473C8.83953 9.96724 8.75475 10.0024 8.66634 10.0024Z" fill="black"/>
<path d="M13.3333 10.0026C13.2449 10.0026 13.1601 9.96749 13.0976 9.90497C13.0351 9.84246 13 9.75768 13 9.66927C13 9.49246 12.9298 9.32289 12.8047 9.19787C12.6797 9.07284 12.5101 9.0026 12.3333 9.0026C12.1565 9.0026 11.987 9.07284 11.8619 9.19787C11.7369 9.32289 11.6667 9.49246 11.6667 9.66927C11.6667 9.75768 11.6315 9.84246 11.569 9.90497C11.5065 9.96749 11.4217 10.0026 11.3333 10.0026C11.2449 10.0026 11.1601 9.96749 11.0976 9.90497C11.0351 9.84246 11 9.75768 11 9.66927C11 9.31565 11.1405 8.97651 11.3905 8.72646C11.6406 8.47641 11.9797 8.33594 12.3333 8.33594C12.687 8.33594 13.0261 8.47641 13.2761 8.72646C13.5262 8.97651 13.6667 9.31565 13.6667 9.66927C13.6667 9.75768 13.6315 9.84246 13.569 9.90497C13.5065 9.96749 13.4217 10.0026 13.3333 10.0026Z" fill="black"/>
<path d="M9.99946 14.333C12.1301 14.333 13.2521 12.6516 13.7231 11.677C13.7499 11.6193 13.7597 11.5552 13.7512 11.4922C13.7428 11.4292 13.7165 11.3699 13.6755 11.3213C13.6345 11.2728 13.5804 11.237 13.5197 11.2181C13.459 11.1993 13.3941 11.1982 13.3328 11.215C12.2469 11.5142 11.1258 11.666 9.99946 11.6663C8.87314 11.666 7.75198 11.5142 6.66613 11.215C6.60484 11.1983 6.54004 11.1994 6.47938 11.2183C6.41872 11.2372 6.36472 11.273 6.32374 11.3215C6.28276 11.3701 6.2565 11.4293 6.24807 11.4923C6.23963 11.5553 6.24937 11.6193 6.27613 11.677C6.7468 12.6516 7.8688 14.333 9.99946 14.333Z" fill="#ECF0F1"/>
</g>
<defs>
<clipPath id="clip0_1_2000">
<rect width="20" height="20" fill="white"/>
</clipPath>
</defs>
</svg>
