<svg width="24" height="35" viewBox="0 0 24 35" fill="none" xmlns="http://www.w3.org/2000/svg">
<path d="M13.1383 19.5726C14.3195 19.5726 15.2805 18.6116 15.2805 17.4305C15.2805 17.1504 15.0535 16.9234 14.7734 16.9234C14.4933 16.9234 14.2664 17.1504 14.2664 17.4305C14.2664 18.0525 13.7604 18.5585 13.1383 18.5585C12.5163 18.5585 12.0102 18.0525 12.0102 17.4305C12.0102 17.1504 11.7832 16.9234 11.5032 16.9234C11.2231 16.9234 10.9961 17.1504 10.9961 17.4305C10.9961 18.6116 11.9571 19.5726 13.1383 19.5726Z" fill="#C19444"/>
<path d="M16.8967 15.5287C17.1768 15.5287 17.4038 15.3017 17.4038 15.0217V14.1109H17.4775C17.7576 14.1109 17.9845 13.8839 17.9845 13.6039C17.9845 13.3238 17.7576 13.0968 17.4775 13.0968H16.8967C16.6166 13.0968 16.3896 13.3238 16.3896 13.6039V15.0217C16.3896 15.3017 16.6166 15.5287 16.8967 15.5287Z" fill="#C19444"/>
<path d="M8.80003 14.1109H8.87366V15.0217C8.87366 15.3017 9.10068 15.5287 9.38072 15.5287C9.66075 15.5287 9.88778 15.3017 9.88778 15.0217V13.6039C9.88778 13.3238 9.66075 13.0968 9.38072 13.0968H8.80003C8.52 13.0968 8.29297 13.3238 8.29297 13.6039C8.29297 13.8839 8.52 14.1109 8.80003 14.1109Z" fill="#C19444"/>
<path d="M21.158 16.8532C22.9882 16.6536 23.9708 15.1684 23.9708 13.7645V13.7485C23.9708 12.8051 23.5443 11.922 22.8193 11.3334V9.77452C22.8193 4.34179 18.4028 0.126831 13.1716 0.126831C10.3576 0.126831 7.69286 1.33039 5.86067 3.42888C5.67644 3.63982 5.69821 3.96015 5.90915 4.14431C6.12009 4.32854 6.44041 4.30684 6.62458 4.09584C8.26415 2.21802 10.6505 1.14095 13.1716 1.14095C17.8525 1.14095 21.8052 4.91227 21.8052 9.77452V11.0794C21.3613 11.0794 18.327 11.0794 17.8453 11.0794C15.5478 11.0794 13.6787 9.21026 13.6787 6.91273C13.6787 6.6327 13.4517 6.40567 13.1716 6.40567C12.8915 6.40567 12.6646 6.6327 12.6646 6.91273C12.6646 8.83111 11.3269 10.4902 9.53018 10.9497C8.86126 11.1209 8.81819 11.0794 4.49526 11.0794V9.77452C4.49526 8.43283 4.79544 7.14578 5.38742 5.94904C5.51155 5.69808 5.40871 5.39391 5.15775 5.26972C4.90665 5.14552 4.60262 5.24842 4.47843 5.49938C3.81668 6.83714 3.4812 8.27551 3.48114 9.77452V11.3334C2.75611 11.922 2.32963 12.8051 2.32963 13.7485V13.7645C2.32963 14.5232 2.61474 15.2696 3.1147 15.8318C1.36345 17.1567 0.335938 19.2034 0.335938 21.428V29.4734C0.335938 30.0442 0.801352 30.4883 1.3508 30.4883C1.9609 30.4883 2.56133 30.4093 3.14418 30.2556V34.2352C3.14418 34.5152 3.37121 34.7422 3.65124 34.7422H15.7219C16.002 34.7422 16.229 34.5152 16.229 34.2352C16.229 33.9551 16.002 33.7281 15.7219 33.7281H6.89643V25.3592C6.98973 25.359 7.05213 25.3591 7.5406 25.3595C7.58955 25.4154 8.22662 26.0346 8.407 26.208L9.12899 28.5456C9.67993 30.3295 11.3055 31.5123 13.1503 31.5123C14.9924 31.5123 16.6198 30.332 17.1715 28.5456L17.8968 26.1972C18.6753 25.446 18.7204 25.406 18.7609 25.3596H19.404V33.7281H18.0882C17.8081 33.7281 17.5812 33.9551 17.5812 34.2352C17.5812 34.5152 17.8081 34.7422 18.0882 34.7422H22.6492C22.9293 34.7422 23.1563 34.5152 23.1563 34.2352V27.9213C23.1563 26.0839 21.8169 24.5892 19.9716 24.3672C19.9706 24.3671 19.9696 24.3671 19.9685 24.367C19.9674 24.3669 19.9663 24.3666 19.9652 24.3665C19.7167 24.3398 19.6527 24.3456 18.6752 24.3456C18.6043 24.2878 18.7442 24.3735 16.8473 23.2776V22.417C19.0139 21.3201 20.6291 19.2871 21.158 16.8532ZM22.1421 27.9213V33.7281H20.4181V25.504C21.4442 25.8587 22.1421 26.8013 22.1421 27.9213ZM22.1482 12.0935C22.657 12.4903 22.9567 13.0985 22.9567 13.7485V13.7645C22.9567 14.6349 22.3862 15.5522 21.317 15.7985C21.3439 15.4452 21.3446 15.2187 21.3446 15.0198C21.3477 14.7234 21.3487 12.3586 21.3386 12.0935H22.1482ZM10.0482 11.8558C11.4188 11.4256 12.552 10.4446 13.1719 9.14799C13.1726 9.14941 13.1733 9.15076 13.174 9.15218C14.0315 10.9337 15.8392 12.0935 17.8453 12.0935H20.3231C20.3329 12.3147 20.3304 12.152 20.3304 15.0234C20.2818 19.3599 16.9017 22.2797 13.1655 22.2797C9.26197 22.2797 6.27241 19.3038 5.97351 15.7124C5.97311 15.7075 5.97257 15.7025 5.97216 15.6975C5.932 15.2025 5.94579 12.3164 5.95573 12.0934C8.69488 12.0935 9.10005 12.1537 10.0482 11.8558ZM13.5909 30.4678C13.3085 30.507 13.0014 30.5082 12.7098 30.4678C12.7093 30.4677 12.7088 30.4676 12.7083 30.4676L12.8702 29.5514H13.4298L13.5917 30.4676C13.5915 30.4677 13.5911 30.4678 13.5909 30.4678ZM13.15 27.2591L13.7796 27.8116L13.5047 28.5373H12.7952L12.5204 27.8116C12.5888 27.7515 13.0811 27.3195 13.15 27.2591ZM12.3972 26.5704L11.273 27.5569C11.273 27.5568 9.2016 25.558 9.2016 25.558L8.57677 24.9551L9.88654 24.1984C11.0672 25.3139 10.7459 25.0102 12.3972 26.5704ZM9.4531 23.2776L8.36447 23.9065C8.38361 23.6046 8.37921 23.6276 8.37921 21.7811C8.71881 22.023 9.07788 22.2391 9.4531 22.4277V23.2776ZM3.34369 13.7485C3.34369 13.0985 3.64333 12.4903 4.15215 12.0935H4.94032C4.94019 12.0974 4.94026 12.1012 4.94012 12.1051C4.93214 12.33 4.93431 12.1159 4.93431 15.1148C4.93431 15.3044 4.94316 15.5595 4.96277 15.7968C3.99537 15.5704 3.34369 14.7413 3.34369 13.7645V13.7485ZM1.35614 29.4734C1.35418 29.4734 1.35202 29.4734 1.35006 29.4734V21.428C1.35006 19.4363 2.31273 17.6108 3.94074 16.4854C4.30602 16.6828 4.71972 16.8054 5.12064 16.8521C5.46706 18.4472 6.28525 19.8645 7.36509 20.9325V23.4598C7.36509 23.756 7.34325 24.0524 7.29998 24.3452C6.60592 24.3447 6.54676 24.3437 6.33555 24.3664C6.33549 24.3664 6.33535 24.3664 6.33528 24.3664C6.33495 24.3664 6.33467 24.3665 6.33434 24.3665C4.51561 24.5649 3.14411 26.0931 3.14411 27.9212V29.2019C2.56741 29.3821 1.96773 29.4734 1.35614 29.4734ZM4.1583 27.9213C4.1583 26.8206 4.85974 25.8523 5.88231 25.5007V33.7281H4.1583C4.1583 33.028 4.1583 28.6045 4.1583 27.9213ZM9.91615 27.658C10.1639 27.8963 10.4369 28.1593 10.7377 28.4495C11.0549 28.7556 11.4455 28.7323 11.7059 28.5244L11.9213 29.0933L11.7312 30.1688C10.3743 29.4995 10.1172 28.309 9.91615 27.658ZM14.5689 30.169L14.3787 29.093L14.5942 28.5241C14.8753 28.7489 15.2749 28.7274 15.5301 28.4811H15.5301L16.3847 27.6563C16.1921 28.2801 15.9395 29.4932 14.5689 30.169ZM17.0987 25.558C17.0986 25.558 15.0273 27.5569 15.0273 27.5569L13.9032 26.5704C14.1876 26.3017 16.1682 24.4303 16.4138 24.1983L17.7235 24.955L17.0987 25.558ZM15.8332 22.8491V23.3518L13.1502 25.8867C12.6429 25.4075 10.969 23.8259 10.4672 23.3518V22.8567C11.2877 23.1378 12.2005 23.294 13.1133 23.294C14.0108 23.2939 14.9147 23.1667 15.8332 22.8491Z" fill="#C19444"/>
</svg>
