<svg width="15" height="15" viewBox="0 0 15 15" fill="none" xmlns="http://www.w3.org/2000/svg">
<path d="M1.31053 14.8834C1.28616 14.9164 1.29805 14.9485 1.30429 14.9607C1.31041 14.9728 1.32889 15.0009 1.3685 15.0009H2.38309C2.40757 15.0009 2.42836 14.99 2.44337 14.9693L3.62899 13.332H2.43344L1.31053 14.8834Z" fill="#19AD54"/>
<path d="M13.2164 13.332H12.0212L13.2088 14.9693C13.2229 14.9898 13.2443 15.0009 13.2668 15.0009H14.2813C14.3217 15.0009 14.3401 14.9733 14.3461 14.9614C14.3523 14.9492 14.3641 14.9171 14.3399 14.8841L13.2164 13.332Z" fill="#19AD54"/>
<path d="M2.30896 11.5624H14.002C14.1183 11.529 14.226 11.4696 14.314 11.3816C14.4625 11.2331 14.539 11.0272 14.5241 10.8169C14.4975 10.4395 14.1593 10.1437 13.7538 10.1437H7.66509L8.60221 6.47699C8.60192 6.47745 8.60128 6.47745 8.60105 6.47791L8.80678 5.67349C8.80897 5.67198 8.81099 5.67048 8.81318 5.6691C8.85464 5.64161 8.89835 5.61621 8.94477 5.593C8.95361 5.58861 8.96163 5.58364 8.97058 5.57937C9.02572 5.55339 9.08427 5.53087 9.14519 5.51101C9.16031 5.50604 9.1759 5.502 9.19132 5.49738C9.24207 5.48248 9.29438 5.46978 9.34837 5.45904C9.36396 5.45604 9.37903 5.45246 9.39485 5.44969C9.46189 5.43826 9.53083 5.42983 9.60179 5.42498C9.61605 5.42405 9.63066 5.42405 9.64509 5.42336C9.68118 5.42163 9.71698 5.4192 9.75387 5.4192C9.76871 5.4192 9.78448 5.42197 9.79943 5.4222C9.86381 5.42347 9.92929 5.42832 9.99557 5.43491C10.0265 5.43802 10.0568 5.43976 10.0881 5.44403C10.1856 5.45742 10.2843 5.47532 10.3839 5.50073C10.4668 5.52198 10.5468 5.5475 10.6245 5.57544C10.6496 5.58445 10.6732 5.59496 10.6977 5.60466C10.7494 5.6251 10.8002 5.64612 10.8492 5.66921C10.8762 5.68203 10.9019 5.69566 10.928 5.70917C10.9722 5.73215 11.015 5.75582 11.0565 5.78088C11.0814 5.79589 11.1058 5.81114 11.1297 5.82684C11.17 5.8534 11.2082 5.881 11.2454 5.90941C11.2663 5.92546 11.2876 5.94093 11.3075 5.95745C11.3471 5.99036 11.3836 6.02454 11.419 6.05942C11.4327 6.07293 11.4478 6.08574 11.4609 6.09949C11.5074 6.14845 11.5499 6.19891 11.5875 6.25076C11.5948 6.26081 11.6 6.27143 11.607 6.28148C11.6318 6.31786 11.6565 6.35423 11.6767 6.39153C12.2954 3.26714 11.628 0.596116 10.0788 0.199678C8.53373 -0.195606 6.6662 1.82573 5.70588 4.86271C5.74018 4.84054 5.77794 4.82148 5.81553 4.8022C5.82794 4.79585 5.83897 4.78823 5.85173 4.78222C5.90907 4.75497 5.96992 4.73141 6.03361 4.71085C6.05376 4.70439 6.07547 4.69988 6.09626 4.69399C6.14158 4.68129 6.18731 4.6694 6.23512 4.66004C6.26249 4.65473 6.29067 4.65104 6.31873 4.64676C6.36284 4.64018 6.40724 4.63452 6.45297 4.63071C6.48311 4.62817 6.51348 4.62644 6.54426 4.62517C6.59085 4.62321 6.63803 4.62309 6.68589 4.62401C6.71655 4.62471 6.74704 4.62517 6.77816 4.62702C6.8307 4.63014 6.884 4.63602 6.93758 4.64272C6.96483 4.64607 6.99162 4.64827 7.01899 4.65254C7.10029 4.66536 7.18222 4.68129 7.26473 4.70254C7.88583 4.86144 8.37148 5.21931 8.57472 5.62637L7.58715 9.48763C7.58622 9.49121 7.5872 9.49468 7.58663 9.49814L7.42149 10.1437H3.71457C3.52564 10.1437 3.35277 10.039 3.26328 9.87068L2.45412 8.33873C2.2399 7.9326 1.91876 7.59228 1.52532 7.35474C1.13108 7.11674 0.680709 6.99087 0.222835 6.99087C0.143963 6.99087 0.0749072 7.02921 0.0335658 7.09618C-0.00742919 7.16258 -0.0111245 7.24388 0.0238655 7.31351L2.10976 11.4407C2.14729 11.516 2.2235 11.5624 2.30896 11.5624Z" fill="#19AD54"/>
<path d="M14.2505 11.7988H14.0335C13.958 11.8175 13.8809 11.8304 13.8012 11.8304L2.30861 11.7988H1.39725C1.22392 11.7988 1.06132 11.8658 0.939608 11.9875C0.81824 12.1113 0.750916 12.2741 0.750916 12.4452C0.750916 12.803 1.04088 13.094 1.39725 13.094H14.2505C14.4219 13.094 14.5885 13.0246 14.7073 12.9035C14.8315 12.7795 14.8994 12.6169 14.8994 12.4452C14.8994 12.0888 14.6083 11.7988 14.2505 11.7988Z" fill="#19AD54"/>
<path d="M11.8968 6.49198C12.1418 6.31599 12.4861 6.21784 12.873 6.21784C13.0746 6.21784 13.2874 6.24417 13.503 6.29936C14.0934 6.45053 14.5614 6.78126 14.7809 7.16315C15.1649 4.34685 13.6329 1.6637 11.0662 0.541016C12.0659 1.60573 12.4182 3.90688 11.8968 6.49198Z" fill="#19AD54"/>
<path d="M4.14796 3.90526C4.77732 4.06636 5.26625 4.43185 5.46459 4.84572C6.25094 2.32829 7.66532 0.47901 9.05142 0.0251784C6.26145 -0.223909 3.62865 1.39383 2.61232 4.04892C2.98832 3.81935 3.55786 3.75422 4.14796 3.90526Z" fill="#19AD54"/>
</svg>
