<svg width="30" height="30" viewBox="0 0 30 30" fill="none" xmlns="http://www.w3.org/2000/svg">
<path d="M27.1875 1.875H24.8438V1.40625C24.8438 0.631055 24.2127 0 23.4375 0C22.6623 0 22.0312 0.631055 22.0312 1.40625V1.875H7.96875V1.40625C7.96875 0.631055 7.3377 0 6.5625 0C5.7873 0 5.15625 0.631055 5.15625 1.40625V1.875H2.8125C1.77891 1.875 0.9375 2.71641 0.9375 3.75V23.4375C0.9375 24.4711 1.77891 25.3125 2.8125 25.3125H7.03125C7.29023 25.3125 7.5 25.1027 7.5 24.8438C7.5 24.5848 7.29023 24.375 7.03125 24.375H2.8125C2.2957 24.375 1.875 23.9543 1.875 23.4375V7.5H28.125V23.4375C28.125 23.9543 27.7043 24.375 27.1875 24.375H22.9688C22.7098 24.375 22.5 24.5848 22.5 24.8438C22.5 25.1027 22.7098 25.3125 22.9688 25.3125H27.1875C28.2211 25.3125 29.0625 24.4711 29.0625 23.4375C29.0625 22.5796 29.0625 4.69195 29.0625 3.75C29.0625 2.71641 28.2211 1.875 27.1875 1.875ZM22.9688 1.40625C22.9688 1.14785 23.1791 0.9375 23.4375 0.9375C23.6959 0.9375 23.9062 1.14785 23.9062 1.40625V3.75C23.9062 4.0084 23.6959 4.21875 23.4375 4.21875C23.1791 4.21875 22.9688 4.0084 22.9688 3.75C22.9688 2.93537 22.9688 2.21842 22.9688 1.40625ZM6.09375 1.40625C6.09375 1.14785 6.3041 0.9375 6.5625 0.9375C6.8209 0.9375 7.03125 1.14785 7.03125 1.40625V3.75C7.03125 4.0084 6.8209 4.21875 6.5625 4.21875C6.3041 4.21875 6.09375 4.0084 6.09375 3.75C6.09375 2.93537 6.09375 2.21842 6.09375 1.40625Z" fill="#C19444"/>
<path d="M12.9488 27.3828C12.7862 27.3828 12.6546 27.5152 12.6555 27.6778C12.6626 28.9285 13.6878 30.0014 15.0001 30.0014C16.3134 30.0014 17.3375 28.9274 17.3447 27.6778C17.3456 27.5152 17.2139 27.3828 17.0513 27.3828H12.9488Z" fill="#C19444"/>
<path d="M20.625 23.4375V20.625C20.625 18.1242 18.9844 15.9996 16.7227 15.2701C16.7123 15.266 16.875 14.9935 16.875 14.5312C16.875 13.4974 16.0339 12.6562 15 12.6562C13.9661 12.6562 13.125 13.4974 13.125 14.5312C13.125 15.0189 13.2933 15.2637 13.2773 15.2701C11.0156 15.9996 9.375 18.1242 9.375 20.625V23.4375C9.375 23.7398 9.25723 24.024 9.04336 24.2373C8.65254 24.6281 8.4375 25.1479 8.4375 25.7004V25.9752C8.4375 26.2342 8.64727 26.4439 8.90625 26.4439H21.0938C21.3527 26.4439 21.5625 26.2342 21.5625 25.9752V25.7004C21.5625 25.1479 21.3475 24.6281 20.9566 24.2373C20.7428 24.024 20.625 23.7398 20.625 23.4375ZM14.2221 15.0538C13.8071 14.4416 14.2451 13.5938 15 13.5938C15.7545 13.5938 16.1931 14.4412 15.7779 15.0538C15.2656 14.9821 14.7348 14.982 14.2221 15.0538Z" fill="#C19444"/>
</svg>
