<svg width="12" height="15" viewBox="0 0 12 15" fill="none" xmlns="http://www.w3.org/2000/svg">
<path d="M9 0H3C2.20464 0.000952715 1.44213 0.317329 0.879732 0.879732C0.317329 1.44213 0.000952715 2.20464 0 3V11.4C0.000317686 11.7182 0.126848 12.0232 0.351823 12.2482C0.576798 12.4732 0.881838 12.5997 1.2 12.6V14.4H2.4V12.6H9.6V14.4H10.8V12.6C11.1181 12.5995 11.4231 12.4729 11.648 12.248C11.8729 12.0231 11.9995 11.7181 12 11.4V3C11.999 2.20464 11.6827 1.44213 11.1203 0.879732C10.5579 0.317329 9.79536 0.000952715 9 0ZM10.8 3.6V7.2H1.2V3.6H10.8ZM3 1.2H9C9.37106 1.2011 9.73268 1.31704 10.0352 1.53191C10.3377 1.74677 10.5663 2.05001 10.6896 2.4H1.3104C1.43367 2.05001 1.66227 1.74677 1.96479 1.53191C2.26732 1.31704 2.62894 1.2011 3 1.2ZM1.2 11.4V8.4H10.8006L10.8012 11.4H1.2Z" fill="#C19444"/>
</svg>
