<svg width="15" height="13" viewBox="0 0 15 13" fill="none" xmlns="http://www.w3.org/2000/svg">
<path d="M11.041 8.6276C10.5452 8.6276 10.1261 8.45642 9.78372 8.11406C9.44136 7.7717 9.27018 7.3526 9.27018 6.85677C9.27018 6.36094 9.44136 5.94184 9.78372 5.59948C10.1261 5.25712 10.5452 5.08594 11.041 5.08594C11.5368 5.08594 11.9559 5.25712 12.2983 5.59948C12.6407 5.94184 12.8118 6.36094 12.8118 6.85677C12.8118 7.3526 12.6407 7.7717 12.2983 8.11406C11.9559 8.45642 11.5368 8.6276 11.041 8.6276ZM7.49935 12.1693V11.1776C7.49935 10.8943 7.57302 10.6317 7.72035 10.3899C7.86816 10.1477 8.07782 9.97344 8.34935 9.86719C8.77435 9.6901 9.21422 9.55741 9.66897 9.4691C10.1233 9.38033 10.5806 9.33594 11.041 9.33594C11.5014 9.33594 11.959 9.38033 12.4138 9.4691C12.868 9.55741 13.3077 9.6901 13.7327 9.86719C14.0042 9.97344 14.2139 10.1477 14.3617 10.3899C14.509 10.6317 14.5827 10.8943 14.5827 11.1776V12.1693H7.49935ZM6.08268 6.5026C5.30352 6.5026 4.6365 6.22517 4.08164 5.67031C3.52678 5.11545 3.24935 4.44844 3.24935 3.66927C3.24935 2.8901 3.52678 2.22309 4.08164 1.66823C4.6365 1.11337 5.30352 0.835938 6.08268 0.835938C6.86185 0.835938 7.52886 1.11337 8.08372 1.66823C8.63859 2.22309 8.91602 2.8901 8.91602 3.66927C8.91602 4.44844 8.63859 5.11545 8.08372 5.67031C7.52886 6.22517 6.86185 6.5026 6.08268 6.5026ZM0.416016 12.1693V10.0443C0.416016 9.73733 0.522266 9.43345 0.734766 9.13264C0.947266 8.83137 1.26011 8.56858 1.67331 8.34427C2.31081 8.00191 3.00734 7.72755 3.76289 7.52119C4.51845 7.31435 5.29171 7.21094 6.08268 7.21094C6.40143 7.21094 6.74096 7.23455 7.10127 7.28177C7.4611 7.32899 7.82991 7.39983 8.20768 7.49427V8.4151C8.04241 8.47413 7.90074 8.53316 7.78268 8.59219C7.66463 8.65121 7.54067 8.71615 7.41081 8.78698C6.974 9.03489 6.64345 9.35955 6.41914 9.76094C6.19484 10.1623 6.08268 10.4929 6.08268 10.7526V12.1693H0.416016Z" fill="#C19444"/>
</svg>
