<svg width="12" height="14" viewBox="0 0 12 14" fill="none" xmlns="http://www.w3.org/2000/svg">
<path d="M6.63218 9.81438L6.63215 9.81438C6.49633 9.79278 6.37464 9.71814 6.29384 9.60686C6.21305 9.49559 6.17974 9.35679 6.20123 9.22097L6.63218 9.81438ZM6.63218 9.81438C6.76815 9.83592 6.90756 9.80188 7.01873 9.72116C7.13002 9.64035 7.20466 9.51867 7.22625 9.38285L7.22626 9.38283L7.30832 8.865H7.7225C7.86008 8.865 7.99203 8.81035 8.08931 8.71306C8.1866 8.61578 8.24125 8.48383 8.24125 8.34625C8.24125 8.20867 8.1866 8.07672 8.08931 7.97944C7.99203 7.88215 7.86008 7.8275 7.7225 7.8275H7.4729L7.60522 6.99H8.03562C8.17321 6.99 8.30515 6.93535 8.40244 6.83806C8.49972 6.74078 8.55438 6.60883 8.55438 6.47125C8.55438 6.33367 8.49972 6.20172 8.40244 6.10444C8.30515 6.00715 8.17321 5.9525 8.03562 5.9525H7.76916L7.86109 5.37138C7.87489 5.3031 7.87479 5.23274 7.8608 5.1645C7.84674 5.09587 7.81892 5.03081 7.77903 4.97323C7.73914 4.91565 7.688 4.86674 7.62869 4.82946C7.56939 4.79218 7.50315 4.7673 7.43397 4.75632C7.36478 4.74533 7.29409 4.74847 7.22616 4.76555C7.15822 4.78262 7.09445 4.81328 7.03868 4.85567C6.98292 4.89807 6.93631 4.95131 6.90169 5.0122C6.86724 5.07277 6.84535 5.13965 6.83732 5.20885L6.71919 5.9525H5.89411L5.98547 5.37199C5.99926 5.30372 5.99916 5.23336 5.98518 5.16512C5.97111 5.0965 5.9433 5.03144 5.90341 4.97386C5.86351 4.91627 5.81237 4.86737 5.75307 4.83009C5.69376 4.79281 5.62752 4.76793 5.55834 4.75694C5.48916 4.74596 5.41847 4.7491 5.35053 4.76617C5.2826 4.78325 5.21882 4.81391 5.16306 4.8563C5.10729 4.89869 5.06069 4.95194 5.02606 5.01283C4.99162 5.07339 4.96973 5.14027 4.9617 5.20947L4.84356 5.95375H4.28437C4.14679 5.95375 4.01485 6.0084 3.91756 6.10569C3.82028 6.20297 3.76562 6.33492 3.76562 6.4725C3.76562 6.61008 3.82028 6.74203 3.91756 6.83931C4.01485 6.9366 4.14679 6.99125 4.28437 6.99125H4.6796L4.54728 7.82875H3.9725C3.83492 7.82875 3.70297 7.8834 3.60569 7.98069C3.5084 8.07797 3.45375 8.20992 3.45375 8.3475C3.45375 8.48508 3.5084 8.61703 3.60569 8.71431C3.70297 8.8116 3.83492 8.86625 3.9725 8.86625H4.38275L4.32686 9.22097L4.32685 9.22096L4.32669 9.22215C4.30884 9.3563 4.34411 9.49211 4.42499 9.60061C4.50587 9.70911 4.62595 9.78171 4.75961 9.80292C4.89326 9.82413 5.02992 9.79227 5.14041 9.71413C5.25091 9.636 5.32649 9.51778 5.35104 9.3847L5.35106 9.3847L5.35126 9.38346L5.43332 8.86625H6.25713L6.20124 9.22093L6.63218 9.81438ZM11.0468 2.30838L11.0469 2.30838L11.0468 2.30658C11.0215 1.93844 10.8574 1.59363 10.5877 1.34181C10.318 1.08999 9.96274 0.949955 9.59374 0.95H2.40625V0.949974L2.40463 0.950026L2.30838 0.953151L2.30838 0.953119L2.30658 0.953242C1.93844 0.978498 1.59363 1.14256 1.34181 1.41228C1.08999 1.682 0.949956 2.03725 0.95 2.40625C0.95 2.40625 0.95 2.40625 0.95 2.40626V12.0925H0.949974L0.950026 12.0941L0.953151 12.1904L0.953119 12.1904L0.953242 12.1922C0.978498 12.5603 1.14256 12.9051 1.41228 13.1569C1.682 13.4088 2.03726 13.5488 2.40625 13.5487H9.59375V13.5488L9.59537 13.5487L9.69162 13.5456L9.69162 13.5456L9.69342 13.5455C10.0616 13.5203 10.4064 13.3562 10.6582 13.0865C10.91 12.8167 11.05 12.4615 11.05 12.0925V2.40625H11.05L11.05 2.40463L11.0468 2.30838ZM2.40625 1.9875H9.59204L9.65233 1.99164C9.75195 2.00571 9.84319 2.05519 9.90934 2.13103C9.97585 2.20729 10.0125 2.30506 10.0125 2.40625V12.0908L10.0084 12.1511C9.99429 12.2507 9.94481 12.3419 9.86897 12.4081C9.7927 12.4746 9.69494 12.5112 9.59375 12.5112H2.40796L2.34757 12.5071C2.14417 12.4791 1.9875 12.3042 1.9875 12.0925V2.40796L1.99164 2.34767C2.00571 2.24805 2.05519 2.15681 2.13103 2.09066C2.20729 2.02415 2.30506 1.9875 2.40625 1.9875H2.40625ZM5.7296 6.99H6.55394L6.42106 7.8275H5.59727L5.7296 6.99Z" fill="#C19444" stroke="#C19444" stroke-width="0.1"/>
</svg>
