<svg width="10" height="12" viewBox="0 0 10 12" fill="none" xmlns="http://www.w3.org/2000/svg">
<path d="M4.45832 5.29745L3.88943 4.44412L2.77832 6.11079H7.77832L5.83388 3.33301L4.45832 5.29745Z" fill="#333333"/>
<path d="M3.61332 3.88887C4.07448 3.88887 4.44832 3.51503 4.44832 3.05387C4.44832 2.59271 4.07448 2.21887 3.61332 2.21887C3.15216 2.21887 2.77832 2.59271 2.77832 3.05387C2.77832 3.51503 3.15216 3.88887 3.61332 3.88887Z" fill="#333333"/>
<path d="M8.88889 0H1.66667C0.996667 0 0 0.443889 0 1.66667V9.44444C0 10.6672 0.996667 11.1111 1.66667 11.1111H10V10H1.67333C1.41667 9.99333 1.11111 9.89222 1.11111 9.44444C1.11111 8.99667 1.41667 8.89556 1.67333 8.88889H10V1.11111C10 0.498333 9.50167 0 8.88889 0ZM8.88889 7.77778H1.11111V1.66667C1.11111 1.21889 1.41667 1.11778 1.66667 1.11111H8.88889V7.77778Z" fill="#333333"/>
</svg>
