<svg width="42" height="42" viewBox="0 0 42 42" fill="none" xmlns="http://www.w3.org/2000/svg">
<g clip-path="url(#clip0_24_610)">
<path d="M17.3087 19.3298C17.1942 19.4705 17.1491 19.6553 17.1859 19.833C17.5533 21.6058 19.1573 22.8924 20.9999 22.8924C22.8424 22.8924 24.4465 21.6058 24.8138 19.833C24.8507 19.6553 24.8056 19.4705 24.691 19.3298C24.5765 19.1891 24.4047 19.1074 24.2233 19.1074H17.7764C17.595 19.1074 17.4232 19.1891 17.3087 19.3298ZM23.3622 20.3138C22.9019 21.1395 22.0024 21.6861 20.9999 21.6861C19.9973 21.6861 19.0979 21.1394 18.6375 20.3138H23.3622Z" fill="#C19444"/>
<path d="M15.8421 15.1565C15.8905 15.1565 15.9397 15.1506 15.9889 15.1383L16.5287 15.0033V15.8426C16.5287 16.1757 16.7988 16.4457 17.1319 16.4457C17.465 16.4457 17.7351 16.1757 17.7351 15.8426V14.7018L18.5675 14.4936C18.8908 14.4128 19.0872 14.0853 19.0064 13.7622C18.9257 13.439 18.5979 13.2426 18.275 13.3233L15.6963 13.968C15.3731 14.0488 15.1766 14.3763 15.2574 14.6994C15.3259 14.9735 15.5718 15.1565 15.8421 15.1565Z" fill="#C19444"/>
<path d="M23.4321 14.4937L24.2646 14.7019V15.8427C24.2646 16.1758 24.5346 16.4458 24.8678 16.4458C25.2009 16.4458 25.4709 16.1758 25.4709 15.8427V15.0034L26.0108 15.1384C26.0599 15.1507 26.1091 15.1566 26.1576 15.1566C26.4278 15.1566 26.6737 14.9736 26.7422 14.6995C26.8231 14.3763 26.6266 14.0489 26.3034 13.9681L23.7247 13.3234C23.4019 13.2427 23.0741 13.4391 22.9933 13.7623C22.9124 14.0854 23.109 14.4129 23.4321 14.4937Z" fill="#C19444"/>
<path d="M33.3542 31.1454L28.5835 28.9436C28.0954 27.8517 27.2681 27.2965 26.7604 27.0452V25.3154C26.9104 25.1896 27.0573 25.0589 27.2003 24.9225C28.9953 23.21 29.9838 20.9013 29.9838 18.4213V17.7351H30.3476C30.9722 17.7351 31.571 17.4693 31.9902 17.006C32.4092 16.5429 32.6137 15.9188 32.5511 15.2939C32.4394 14.1789 31.4311 13.3053 30.2556 13.3053H30.246C29.6343 13.3053 29.1033 12.8908 28.9549 12.2973L28.9271 12.1862C28.3799 9.99732 26.2883 8.55534 24.0616 8.83191C21.9662 9.09224 18.7576 9.18931 15.371 8.17333C15.213 8.12596 15.0426 8.14527 14.8995 8.22681C14.7561 8.30828 14.6525 8.44484 14.6125 8.6048L13.6893 12.2973C13.541 12.8908 13.01 13.3053 12.3982 13.3053H11.7439C11.743 13.3053 11.7421 13.3054 11.7412 13.3054C11.5667 12.8354 11.2699 11.9567 11.0666 10.9327C10.7985 9.58193 10.6402 7.69184 11.4093 6.35803C11.858 5.57978 12.5695 5.06741 13.5703 4.80298C13.4611 5.72495 13.6571 6.43146 13.6711 6.48019C13.7628 6.79923 14.0947 6.98259 14.4141 6.89244C14.7335 6.80229 14.9197 6.46942 14.8312 6.14958C14.8146 6.08966 14.4356 4.66755 15.3605 3.45188C16.2732 2.25213 18.2233 1.61808 20.9998 1.61808C23.6256 1.61808 26.2072 2.46099 28.6728 4.12341C30.7142 5.49984 31.6427 8.04916 30.9833 10.4671L30.7327 11.3858C30.645 11.7072 30.8345 12.0388 31.1559 12.1264C31.2091 12.1409 31.2624 12.1478 31.315 12.1478C31.5802 12.1478 31.8234 11.9715 31.8965 11.7032L32.1471 10.7845C32.9427 7.86765 31.8174 4.78883 29.3472 3.12319C26.6788 1.32398 23.8703 0.411743 20.9998 0.411743C17.7746 0.411743 15.5499 1.1945 14.3876 2.73829C14.2002 2.98736 14.0526 3.24174 13.9358 3.49483C12.2757 3.76239 11.0743 4.52231 10.363 5.75768C8.87741 8.33755 10.056 12.2118 10.5694 13.6184C9.95692 13.9689 9.51975 14.5819 9.44841 15.2939C9.38584 15.9188 9.59028 16.5429 10.0093 17.006C10.4285 17.4694 11.0273 17.7351 11.6519 17.7351H12.0157V18.1845C12.0157 20.5341 12.8879 22.78 14.4716 24.5086C14.715 24.7743 14.9714 25.023 15.2392 25.2545V27.0452C14.7315 27.2965 13.9042 27.8518 13.4161 28.9436L8.64539 31.1455C6.38495 32.1888 4.92432 34.4716 4.92432 36.9612V40.985C4.92432 41.3181 5.19438 41.5881 5.52749 41.5881C5.8606 41.5881 6.13066 41.3181 6.13066 40.985V36.9612C6.13066 34.9405 7.31617 33.0875 9.15093 32.2408L13.0439 30.444C12.9189 32.0044 13.4617 33.9046 14.6682 36.1163C14.7491 36.2649 14.8889 36.3726 15.0533 36.4131C15.101 36.4248 15.1494 36.4306 15.1977 36.4306C15.3157 36.4306 15.4323 36.396 15.5323 36.3293L18.1066 34.6131L18.4467 35.2931L17.8217 40.9182C17.7849 41.2493 18.0235 41.5475 18.3546 41.5843C18.3772 41.5868 18.3997 41.5881 18.4219 41.5881C18.7252 41.5881 18.9864 41.3599 19.0206 41.0514L19.6057 35.7858H22.394L22.9791 41.0514C23.0134 41.3599 23.2745 41.5881 23.5779 41.5881C23.6001 41.5881 23.6226 41.5868 23.6452 41.5843C23.9763 41.5475 24.2148 41.2492 24.1781 40.9182L23.5531 35.2931L23.8931 34.6131L26.4674 36.3293C26.5674 36.396 26.684 36.4306 26.8021 36.4306C26.8503 36.4306 26.8988 36.4248 26.9464 36.4131C27.1108 36.3726 27.2505 36.2649 27.3316 36.1163C28.538 33.9046 29.0809 32.0044 28.9559 30.444L32.8488 32.2407C34.6836 33.0875 35.8691 34.9404 35.8691 36.9611V40.985C35.8691 41.3181 36.1392 41.5881 36.4723 41.5881C36.8054 41.5881 37.0754 41.3181 37.0754 40.985V36.9612C37.0753 34.4716 35.6146 32.1887 33.3542 31.1454ZM13.2222 18.1844V17.1319C13.2222 16.7987 12.9521 16.5287 12.619 16.5287H11.652C11.3675 16.5287 11.0949 16.4076 10.9038 16.1965C10.7102 15.9825 10.6197 15.7047 10.6489 15.414C10.6995 14.908 11.1806 14.5116 11.7441 14.5116H12.3983C13.5647 14.5116 14.5769 13.7214 14.8597 12.5898L15.6321 9.50055C18.9924 10.3931 22.1253 10.288 24.2105 10.029C25.8326 9.8273 27.3573 10.8805 27.7569 12.4786L27.7847 12.5897C28.0675 13.7213 29.0797 14.5115 30.2461 14.5115H30.2557C30.8191 14.5115 31.3002 14.9079 31.3509 15.4139C31.38 15.7046 31.2894 15.9825 31.0959 16.1964C30.9049 16.4075 30.6322 16.5286 30.3478 16.5286H29.3806C29.0475 16.5286 28.7774 16.7987 28.7774 17.1318V18.4211C28.7774 20.5681 27.9216 22.5669 26.3676 24.0494C24.8146 25.531 22.7746 26.2912 20.6231 26.1898C18.6181 26.0954 16.7494 25.2089 15.3612 23.6935C13.9818 22.188 13.2222 20.2315 13.2222 18.1844ZM15.4209 34.9538C14.2797 32.6771 13.9541 30.807 14.4806 29.5198C14.8056 28.7255 15.3823 28.3248 15.7268 28.1471L17.3789 29.5926C17.6296 29.812 18.0106 29.7866 18.23 29.5359C18.4494 29.2852 18.424 28.9042 18.1732 28.6848L16.4455 27.173V26.1341C17.6873 26.8891 19.0945 27.3257 20.5662 27.395C20.713 27.4019 20.8592 27.4054 21.005 27.4054C22.6293 27.4054 24.1867 26.9777 25.554 26.1697V27.173L20.9998 31.158L20.1088 30.3784C19.8582 30.159 19.4771 30.1844 19.2577 30.4351C19.0383 30.6858 19.0637 31.0668 19.3145 31.2862L20.0098 31.8946L15.4209 34.9538ZM22.5611 34.5796H19.4386L19.1182 33.9388L20.9998 32.6844L22.8814 33.9388L22.5611 34.5796ZM26.5787 34.9538L21.9899 31.8946L26.2725 28.1473C26.6187 28.3258 27.1944 28.7265 27.519 29.5198C28.0455 30.8069 27.7199 32.6771 26.5787 34.9538Z" fill="#C19444"/>
</g>
<defs>
<clipPath id="clip0_24_610">
<rect width="41.1765" height="41.1765" fill="white" transform="translate(0.411621 0.411743)"/>
</clipPath>
</defs>
</svg>
