<svg width="16" height="16" viewBox="0 0 16 16" fill="none" xmlns="http://www.w3.org/2000/svg">
<path d="M7.885 7.70726C8.94384 7.70726 9.86058 7.3275 10.6099 6.57824C11.3589 5.82909 11.7388 4.91247 11.7388 3.85351C11.7388 2.79492 11.359 1.87817 10.6097 1.12878C9.86046 0.37976 8.94372 0 7.885 0C6.82604 0 5.90942 0.37976 5.16028 1.1289C4.41113 1.87805 4.03125 2.79479 4.03125 3.85351C4.03125 4.91247 4.41113 5.82921 5.16028 6.57836C5.90966 7.32738 6.82641 7.70726 7.885 7.70726ZM5.82336 1.79187C6.39819 1.21704 7.0725 0.93762 7.885 0.93762C8.69738 0.93762 9.37182 1.21704 9.94677 1.79187C10.5216 2.36682 10.8011 3.04125 10.8011 3.85351C10.8011 4.66601 10.5216 5.34032 9.94677 5.91527C9.37182 6.49022 8.69738 6.76964 7.885 6.76964C7.07275 6.76964 6.39843 6.4901 5.82336 5.91527C5.24841 5.34044 4.96887 4.66601 4.96887 3.85351C4.96887 3.04125 5.24841 2.36682 5.82336 1.79187Z" fill="#C19444"/>
<path d="M14.629 12.3011C14.6074 11.9894 14.5637 11.6493 14.4994 11.2902C14.4344 10.9283 14.3508 10.5863 14.2507 10.2737C14.1472 9.95056 14.0067 9.63147 13.8327 9.32568C13.6524 9.0083 13.4405 8.73193 13.2027 8.50452C12.9541 8.2666 12.6496 8.07532 12.2976 7.93579C11.9468 7.797 11.558 7.72668 11.1421 7.72668C10.9787 7.72668 10.8208 7.7937 10.5157 7.99231C10.328 8.11475 10.1084 8.25635 9.86327 8.41296C9.65367 8.54651 9.36974 8.67163 9.01903 8.78491C8.67687 8.89563 8.32945 8.95178 7.98644 8.95178C7.64366 8.95178 7.29625 8.89563 6.95385 8.78491C6.60351 8.67175 6.31945 8.54663 6.11022 8.41308C5.86742 8.25793 5.6477 8.11633 5.45715 7.99219C5.15234 7.79358 4.99438 7.72656 4.83105 7.72656C4.41503 7.72656 4.02636 7.797 3.67565 7.93591C3.32385 8.07519 3.01928 8.26648 2.77038 8.50464C2.53259 8.73218 2.32068 9.00842 2.1405 9.32568C1.9668 9.63147 1.82617 9.95044 1.72266 10.2738C1.62268 10.5864 1.53906 10.9283 1.47412 11.2902C1.40967 11.6488 1.36609 11.989 1.34448 12.3015C1.32324 12.607 1.3125 12.925 1.3125 13.2463C1.3125 14.0815 1.578 14.7577 2.10156 15.2563C2.61865 15.7484 3.30273 15.9979 4.13488 15.9979H11.839C12.6709 15.9979 13.355 15.7484 13.8722 15.2563C14.3958 14.758 14.6614 14.0817 14.6614 13.2462C14.6612 12.9238 14.6504 12.6058 14.629 12.3011ZM13.2257 14.577C12.884 14.9022 12.4304 15.0603 11.8388 15.0603H4.13488C3.54321 15.0603 3.0896 14.9022 2.74804 14.5771C2.41296 14.2582 2.25012 13.8227 2.25012 13.2463C2.25012 12.9465 2.26001 12.6505 2.27978 12.3663C2.29907 12.0875 2.3385 11.7812 2.39697 11.4558C2.45471 11.1344 2.5282 10.8328 2.6156 10.5597C2.69946 10.2978 2.81384 10.0386 2.95569 9.78881C3.09106 9.55078 3.24682 9.34655 3.4187 9.182C3.57946 9.02807 3.7821 8.9021 4.02087 8.80762C4.24169 8.72021 4.48986 8.67236 4.75927 8.66516C4.79211 8.68262 4.85058 8.71594 4.94531 8.77771C5.13805 8.90332 5.36022 9.04663 5.60583 9.20349C5.88268 9.38 6.23937 9.53943 6.66552 9.677C7.10119 9.81787 7.54552 9.8894 7.98656 9.8894C8.4276 9.8894 8.87206 9.81787 9.30748 9.67712C9.73399 9.5393 10.0906 9.38 10.3678 9.20324C10.6191 9.0426 10.8351 8.90344 11.0278 8.77771C11.1225 8.71606 11.181 8.68262 11.2138 8.66516C11.4834 8.67236 11.7315 8.72021 11.9525 8.80762C12.1911 8.9021 12.3938 9.0282 12.5545 9.182C12.7264 9.34643 12.8822 9.55066 13.0176 9.78894C13.1595 10.0386 13.274 10.298 13.3578 10.5596C13.4453 10.833 13.5189 11.1345 13.5765 11.4557C13.6349 11.7817 13.6744 12.0881 13.6937 12.3664V12.3667C13.7136 12.6498 13.7236 12.9457 13.7237 13.2463C13.7236 13.8229 13.5608 14.2582 13.2257 14.577Z" fill="#C19444"/>
</svg>
