<svg width="15" height="17" viewBox="0 0 15 17" fill="none" xmlns="http://www.w3.org/2000/svg">
<path d="M14.5881 11.9576L12.8614 10.9607L14.3577 10.0784C14.6337 9.91562 14.7255 9.55996 14.5628 9.28398C14.4 9.00807 14.0445 8.91626 13.7684 9.07892L11.7072 10.2943L8.59936 8.49996L11.7067 6.70591L13.7685 7.92115C13.8609 7.97568 13.9624 8.00152 14.0625 8.00152C14.2611 8.00152 14.4546 7.89942 14.5628 7.71587C14.7255 7.43988 14.6336 7.08423 14.3576 6.92149L12.861 6.03947L14.5881 5.04235C14.8655 4.88216 14.9606 4.52736 14.8004 4.2499C14.6402 3.97237 14.2854 3.87731 14.008 4.03758L12.2813 5.03454L12.2656 3.29719C12.2627 2.9768 11.9999 2.71791 11.6803 2.72232C11.3599 2.72519 11.1025 2.98725 11.1054 3.30763L11.127 5.70091L8.01931 7.49519V3.90693L10.1029 2.72936C10.3818 2.57172 10.4801 2.21785 10.3225 1.93885C10.1648 1.65993 9.81089 1.56154 9.53196 1.71925L8.01931 2.5742V0.580123C8.01931 0.25974 7.75957 0 7.43919 0C7.11881 0 6.85907 0.25974 6.85907 0.580123V2.5742L5.34642 1.71933C5.06734 1.56161 4.71362 1.65992 4.5559 1.93893C4.39826 2.21785 4.49657 2.5718 4.7755 2.72944L6.85899 3.90701V7.49519L3.75131 5.70091L3.77289 3.30763C3.77583 2.98725 3.51841 2.72519 3.19803 2.72232C3.19625 2.72232 3.19455 2.72232 3.19269 2.72232C2.87478 2.72232 2.61558 2.97858 2.61272 3.29726L2.59702 5.03454L0.870342 4.03758C0.592888 3.87731 0.238085 3.97245 0.0778941 4.2499C-0.0822972 4.52736 0.0127656 4.88216 0.290219 5.04235L2.01721 6.03947L0.520412 6.92164C0.244428 7.08431 0.152537 7.43996 0.315203 7.71602C0.423415 7.89957 0.616867 8.00167 0.815578 8.00167C0.915669 8.00167 1.01707 7.97576 1.10958 7.92131L3.17165 6.70607L6.27902 8.50012L3.17111 10.2945L1.10958 9.07885C0.833756 8.91618 0.477947 9.00792 0.315203 9.2839C0.152459 9.55988 0.244273 9.91554 0.520257 10.0782L2.01682 10.9606L0.290142 11.9575C0.0126883 12.1177 -0.0823746 12.4725 0.0778167 12.7499C0.185255 12.936 0.380254 13.0401 0.580745 13.0401C0.679133 13.0401 0.778915 13.015 0.870265 12.9623L2.59694 11.9653L2.61264 13.7027C2.61551 14.0213 2.87471 14.2777 3.19261 14.2777C3.19439 14.2777 3.19617 14.2777 3.19795 14.2776C3.51833 14.2747 3.77575 14.0127 3.77281 13.6923L3.75123 11.2989L6.85899 9.50466V13.093L4.7755 14.2706C4.49657 14.4282 4.39826 14.7821 4.5559 15.0611C4.66257 15.2498 4.85911 15.3559 5.06146 15.3559C5.15815 15.3559 5.25623 15.3316 5.34642 15.2807L6.85907 14.4258V16.4199C6.85907 16.7403 7.11881 17 7.43919 17C7.75957 17 8.01931 16.7403 8.01931 16.4199V14.4258L9.53196 15.2807C9.62215 15.3316 9.72016 15.3559 9.81692 15.3559C10.0193 15.3559 10.2158 15.2498 10.3225 15.0611C10.4801 14.7822 10.3818 14.4282 10.1029 14.2706L8.01931 13.093V9.50473L11.127 11.2989L11.1049 13.6922C11.1019 14.0126 11.3592 14.2747 11.6796 14.2777C11.6814 14.2778 11.6832 14.2778 11.6851 14.2778C12.0029 14.2778 12.2621 14.0215 12.265 13.703L12.2811 11.9653L14.008 12.9623C14.0994 13.0151 14.1992 13.0402 14.2976 13.0402C14.498 13.0402 14.693 12.936 14.8005 12.75C14.9607 12.4726 14.8656 12.1178 14.5881 11.9576Z" fill="#5675B1"/>
</svg>
