<svg width="15" height="15" viewBox="0 0 15 15" fill="none" xmlns="http://www.w3.org/2000/svg">
<path d="M13.0443 4.59571C13.6601 4.12822 14.0586 3.38859 14.0586 2.55763C14.0586 1.14738 12.9113 0 11.5009 0C10.0907 0 8.94331 1.14738 8.94331 2.55763C8.94331 3.38802 9.34122 4.12719 9.95634 4.59468C9.4853 4.82745 8.76375 5.32126 8.32373 6.27055C8.0675 6.17305 7.78998 6.11914 7.49999 6.11914C7.20999 6.11914 6.93247 6.17305 6.67636 6.27055C6.23633 5.32149 5.5149 4.82757 5.04363 4.59468C5.65875 4.12719 6.05666 3.38802 6.05666 2.55763C6.05666 1.14738 4.90928 0 3.49902 0C2.08877 0 0.941389 1.14738 0.941389 2.55763C0.941389 3.38859 1.33987 4.12822 1.95568 4.59571C0.798224 5.167 0 6.35958 0 7.73539V14.5605C0 14.8032 0.196724 15 0.439452 15H14.5605C14.8032 15 15 14.8032 15 14.5605V7.73539C15 6.35958 14.2017 5.167 13.0443 4.59571ZM9.82222 2.55763C9.82222 1.63204 10.5753 0.878904 11.5009 0.878904C12.4267 0.878904 13.1797 1.63204 13.1797 2.55763C13.1797 3.48335 12.4267 4.23637 11.5009 4.23637C10.5753 4.23637 9.82222 3.48335 9.82222 2.55763ZM8.94331 8.44137C8.94331 9.23731 8.29592 9.88481 7.49999 9.88481C6.70416 9.88481 6.05666 9.23731 6.05666 8.44137C6.05666 7.64555 6.70416 6.99805 7.49999 6.99805C8.29592 6.99805 8.94331 7.64555 8.94331 8.44137ZM1.82029 2.55763C1.82029 1.63204 2.57343 0.878904 3.49902 0.878904C4.42474 0.878904 5.17775 1.63204 5.17775 2.55763C5.17775 3.48335 4.42474 4.23637 3.49902 4.23637C2.57343 4.23637 1.82029 3.48335 1.82029 2.55763ZM0.878905 7.73539C0.878905 6.29069 2.05432 5.11527 3.49902 5.11527C4.56435 5.11527 5.52337 5.77056 5.92265 6.73918C5.46489 7.16353 5.17775 7.76949 5.17775 8.44137C5.17775 9.18615 5.53058 9.84968 6.07737 10.2749C5.25763 10.7621 4.70706 11.6565 4.70706 12.6773V14.1211H0.878905V7.73539ZM5.58596 12.6773C5.58596 11.6221 6.44438 10.7637 7.49999 10.7637C8.55536 10.7637 9.41401 11.6224 9.41401 12.6777V14.1211H5.58596V12.6773ZM14.1211 14.1211H10.2929V12.6777C10.2929 11.6569 9.74234 10.7623 8.92237 10.2752C9.46928 9.84991 9.82222 9.18627 9.82222 8.44137C9.82222 7.76949 9.53508 7.16353 9.07732 6.73918C9.4766 5.77056 10.4356 5.11527 11.5009 5.11527C12.9456 5.11527 14.1211 6.29069 14.1211 7.73539V14.1211Z" fill="#C19444"/>
</svg>
