<svg width="16" height="16" viewBox="0 0 16 16" fill="none" xmlns="http://www.w3.org/2000/svg">
<path d="M7.99999 0C6.41774 0 4.87102 0.469192 3.55543 1.34824C2.23983 2.22729 1.21445 3.47672 0.608952 4.93853C0.00345103 6.40034 -0.154976 8.00888 0.153706 9.56072C0.462388 11.1126 1.22431 12.538 2.34313 13.6569C3.46195 14.7757 4.88742 15.5376 6.43927 15.8463C7.99111 16.155 9.59965 15.9965 11.0615 15.391C12.5233 14.7855 13.7727 13.7602 14.6517 12.4446C15.5308 11.129 16 9.58225 16 8C16 5.87827 15.1571 3.84344 13.6568 2.34315C12.1566 0.842855 10.1217 0 7.99999 0V0ZM10.6243 13.1533H5.37566C5.19884 13.1533 5.02927 13.0831 4.90425 12.9581C4.77923 12.833 4.70899 12.6635 4.70899 12.4867C4.70899 12.3099 4.77923 12.1403 4.90425 12.0153C5.02927 11.8902 5.19884 11.82 5.37566 11.82H10.6243C10.8011 11.82 10.9707 11.8902 11.0957 12.0153C11.2208 12.1403 11.291 12.3099 11.291 12.4867C11.291 12.6635 11.2208 12.833 11.0957 12.9581C10.9707 13.0831 10.8011 13.1533 10.6243 13.1533V13.1533ZM11.0957 8.13867L8.46932 10.7667C8.3443 10.8916 8.17476 10.9619 7.99799 10.9619C7.82121 10.9619 7.65167 10.8916 7.52666 10.7667L4.90432 8.14467C4.77905 8.01966 4.70857 7.85001 4.70838 7.67304C4.70819 7.49607 4.77832 7.32627 4.90332 7.201C5.02833 7.07573 5.19798 7.00525 5.37495 7.00506C5.55192 7.00487 5.72172 7.075 5.84699 7.2L7.33332 8.68633V2.78833C7.33332 2.61152 7.40356 2.44195 7.52858 2.31693C7.65361 2.1919 7.82318 2.12167 7.99999 2.12167C8.1768 2.12167 8.34637 2.1919 8.47139 2.31693C8.59642 2.44195 8.66666 2.61152 8.66666 2.78833V8.68233L10.153 7.196C10.2787 7.07456 10.4471 7.00737 10.6219 7.00888C10.7967 7.0104 10.9639 7.08052 11.0875 7.20412C11.2111 7.32773 11.2813 7.49494 11.2828 7.66973C11.2843 7.84453 11.2171 8.01293 11.0957 8.13867V8.13867Z" fill="#C19444"/>
</svg>
