<svg width="15" height="15" viewBox="0 0 15 15" fill="none"
    xmlns="http://www.w3.org/2000/svg">
    <path d="M12.7089 3.11332L9.88403 0.440801C9.58356 0.156533 9.19028 0 8.77667 0H3.39844C2.50995 0 1.78711 0.722842 1.78711 1.61133V13.3887C1.78711 14.2772 2.50995 15 3.39844 15H11.6016C12.49 15 13.2129 14.2772 13.2129 13.3887V4.28385C13.2129 3.84296 13.0292 3.41631 12.7089 3.11332ZM11.8553 3.51562H9.66797C9.5872 3.51562 9.52148 3.44991 9.52148 3.36914V1.3077L11.8553 3.51562ZM11.6016 14.1211H3.39844C2.99458 14.1211 2.66602 13.7925 2.66602 13.3887V1.61133C2.66602 1.20747 2.99458 0.878906 3.39844 0.878906H8.64258V3.36914C8.64258 3.93454 9.10257 4.39453 9.66797 4.39453H12.334V13.3887C12.334 13.7925 12.0054 14.1211 11.6016 14.1211Z" fill="#C19444"/>
    <path d="M10.6348 5.85938H4.18945C3.94676 5.85938 3.75 6.05613 3.75 6.29883C3.75 6.54152 3.94676 6.73828 4.18945 6.73828H10.6348C10.8775 6.73828 11.0742 6.54152 11.0742 6.29883C11.0742 6.05613 10.8775 5.85938 10.6348 5.85938Z" fill="#C19444"/>
    <path d="M10.6348 8.20312H4.18945C3.94676 8.20312 3.75 8.39988 3.75 8.64258C3.75 8.88527 3.94676 9.08203 4.18945 9.08203H10.6348C10.8775 9.08203 11.0742 8.88527 11.0742 8.64258C11.0742 8.39988 10.8775 8.20312 10.6348 8.20312Z" fill="#C19444"/>
    <path d="M6.31992 10.5469H4.18945C3.94676 10.5469 3.75 10.7436 3.75 10.9863C3.75 11.229 3.94676 11.4258 4.18945 11.4258H6.31992C6.56262 11.4258 6.75938 11.229 6.75938 10.9863C6.75938 10.7436 6.56262 10.5469 6.31992 10.5469Z" fill="#C19444"/>
</svg>
