<svg width="47" height="45" viewBox="0 0 47 45" fill="none"
    xmlns="http://www.w3.org/2000/svg">
    <path d="M13.56 18.6002H12.1285C10.1751 18.5289 8.22792 18.864 6.40795 19.5847C4.58798 20.3055 2.93401 21.3965 1.5487 22.7901L1.15381 23.2557V37.0225H7.86698V29.208L8.77195 28.1772L9.18329 27.695C11.3255 25.4712 13.9924 23.8348 16.9331 22.9398C15.4608 21.8077 14.2996 20.3138 13.56 18.6002Z" fill="white" stroke="#C19444" stroke-width="2"/>
    <path d="M45.3821 22.7403C43.9968 21.3467 42.3428 20.2557 40.5228 19.5349C38.7029 18.8142 36.7557 18.4791 34.8023 18.5504C34.2031 18.5521 33.6045 18.5854 33.0088 18.6502C32.2554 20.2578 31.1259 21.6559 29.718 22.7237C32.8574 23.6013 35.7013 25.3256 37.945 27.7117L38.3563 28.1772L39.2448 29.2081V37.0392H45.7276V23.2059L45.3821 22.7403Z" fill="white" stroke="#C19444" stroke-width="2"/>
    <path d="M12.0795 15.3573H12.5895C12.3525 13.301 12.7096 11.2193 13.6176 9.36356C14.5256 7.5078 15.9458 5.95728 17.7067 4.89916C17.0684 3.91379 16.1878 3.11281 15.1511 2.57468C14.1144 2.03654 12.9572 1.77969 11.7927 1.82927C10.6283 1.87886 9.49655 2.23318 8.50834 2.85755C7.52013 3.48191 6.70933 4.35491 6.15533 5.39106C5.60133 6.42721 5.32313 7.59099 5.34796 8.76843C5.3728 9.94587 5.69982 11.0966 6.297 12.108C6.89419 13.1193 7.74106 13.9566 8.7547 14.5379C9.76834 15.1191 10.914 15.4244 12.0795 15.4238V15.3573Z" fill="white" stroke="#C19444" stroke-width="2"/>
    <path d="M34.0124 14.1105C34.0324 14.4927 34.0324 14.8756 34.0124 15.2578C34.3282 15.3084 34.6471 15.3361 34.9668 15.3409H35.2794C36.4397 15.2784 37.5643 14.9133 38.5436 14.2813C39.5228 13.6492 40.3235 12.7717 40.8675 11.7341C41.4116 10.6966 41.6805 9.53436 41.6481 8.36062C41.6157 7.18688 41.283 6.04162 40.6826 5.03634C40.0821 4.03105 39.2343 3.20001 38.2217 2.6241C37.2091 2.0482 36.0661 1.74707 34.9041 1.75002C33.7421 1.75298 32.6007 2.05992 31.5909 2.64096C30.5812 3.222 29.7375 4.05735 29.1421 5.06567C30.6313 6.0482 31.8559 7.38892 32.7059 8.96755C33.5559 10.5462 34.0049 12.3134 34.0124 14.1105Z" fill="white" stroke="#C19444" stroke-width="2"/>
    <path d="M23.2184 21.5605C27.2804 21.5605 30.5733 18.233 30.5733 14.1284C30.5733 10.0237 27.2804 6.69629 23.2184 6.69629C19.1564 6.69629 15.8635 10.0237 15.8635 14.1284C15.8635 18.233 19.1564 21.5605 23.2184 21.5605Z" fill="white" stroke="#C19444" stroke-width="2"/>
    <path d="M23.6133 25.5169C21.4645 25.4292 19.3204 25.7817 17.3099 26.5532C15.2995 27.3247 13.4642 28.4992 11.9146 30.006L11.5033 30.4716V40.9962C11.5097 41.339 11.5829 41.6772 11.7187 41.9915C11.8545 42.3057 12.0502 42.5898 12.2947 42.8276C12.5392 43.0653 12.8276 43.2521 13.1435 43.3772C13.4594 43.5023 13.7967 43.5633 14.1359 43.5567H33.0414C33.3807 43.5633 33.7179 43.5023 34.0338 43.3772C34.3497 43.2521 34.6382 43.0653 34.8826 42.8276C35.1271 42.5898 35.3228 42.3057 35.4586 41.9915C35.5944 41.6772 35.6676 41.339 35.674 40.9962V30.5048L35.2791 30.006C33.7396 28.4945 31.9107 27.3167 29.9047 26.5448C27.8987 25.7728 25.7579 25.4231 23.6133 25.5169Z" fill="white" stroke="#C19444" stroke-width="2"/>
</svg>