<svg width="17" height="25" viewBox="0 0 17 25" fill="none" xmlns="http://www.w3.org/2000/svg">
<path d="M10.75 0.125C9.25816 0.125 7.82742 0.717632 6.77252 1.77252C5.71763 2.82742 5.125 4.25816 5.125 5.75V17C5.125 17.8951 5.48058 18.7536 6.11351 19.3865C6.74645 20.0194 7.60489 20.375 8.5 20.375C8.94264 20.3749 9.3809 20.2874 9.78968 20.1176C10.1985 19.9478 10.5697 19.699 10.8822 19.3855C11.1947 19.072 11.4422 18.6999 11.6106 18.2905C11.7791 17.8812 11.8651 17.4426 11.8637 17V5.75H9.625V17C9.625 17.2984 9.50647 17.5845 9.2955 17.7955C9.08452 18.0065 8.79837 18.125 8.5 18.125C8.20163 18.125 7.91548 18.0065 7.7045 17.7955C7.49353 17.5845 7.375 17.2984 7.375 17V5.75C7.375 5.30679 7.4623 4.86792 7.63191 4.45844C7.80152 4.04897 8.05012 3.67691 8.36351 3.36351C8.67691 3.05012 9.04897 2.80152 9.45844 2.63191C9.86792 2.4623 10.3068 2.375 10.75 2.375C11.1932 2.375 11.6321 2.4623 12.0416 2.63191C12.451 2.80152 12.8231 3.05012 13.1365 3.36351C13.4499 3.67691 13.6985 4.04897 13.8681 4.45844C14.0377 4.86792 14.125 5.30679 14.125 5.75V17.1406C14.125 20.2479 11.6073 22.625 8.5 22.625C7.00816 22.625 5.57742 22.0324 4.52252 20.9775C3.46763 19.9226 2.875 18.4918 2.875 17V11.375H0.625V17C0.625 19.0886 1.45469 21.0916 2.93153 22.5685C4.40838 24.0453 6.41142 24.875 8.5 24.875C9.53359 24.8749 10.557 24.671 11.5118 24.275C12.4665 23.8791 13.3338 23.2988 14.0642 22.5675C14.7945 21.8361 15.3735 20.9679 15.7681 20.0126C16.1627 19.0573 16.3651 18.0336 16.3637 17V5.75C16.3637 2.64275 13.8573 0.125 10.75 0.125Z" fill="#AFAFAF"/>
</svg>
