<svg width="18" height="28" viewBox="0 0 18 28" fill="none" xmlns="http://www.w3.org/2000/svg">
<path d="M11.8258 16.4728C12.9724 15.803 13.8575 14.7325 14.2875 13.4546C14.3065 13.4551 14.3256 13.4561 14.3446 13.4561C15.5104 13.4561 16.4589 12.5076 16.4589 11.3418C16.4589 10.2537 15.6325 9.35524 14.5744 9.2403V8.32348C14.9623 7.93282 15.907 6.73269 15.7151 4.45348C15.6373 3.52914 15.296 2.8086 14.7005 2.31182C13.9371 1.67495 12.9768 1.60713 12.568 1.6081C12.0639 1.13701 10.2461 -0.327171 7.78869 0.398562C7.31348 0.538971 6.85905 0.722378 6.39958 0.959331C6.20006 1.06226 6.12174 1.30732 6.22461 1.5068C6.32754 1.70627 6.57261 1.78464 6.77208 1.68177C7.18551 1.46856 7.59338 1.30375 8.01888 1.17811C10.3736 0.482504 12.0411 2.22371 12.1102 2.29749C12.1958 2.38965 12.3208 2.43687 12.4458 2.42567C12.4558 2.42464 13.4719 2.34135 14.1846 2.94009C14.604 3.29246 14.8464 3.82462 14.9051 4.52174C15.0522 6.27063 14.4467 7.2358 14.1174 7.62301C13.307 6.99366 12.5743 5.68952 12.5664 5.67519C12.4246 5.39702 11.9875 5.40178 11.8513 5.68401C11.2568 6.81793 10.1643 7.26831 9.53947 7.43906C9.4724 6.57 8.91823 5.88045 8.88967 5.84551C8.73926 5.65188 8.42242 5.64761 8.26719 5.83707C6.55487 7.82167 4.32034 7.8241 4.07159 7.81832C4.02151 7.81707 3.97131 7.8088 3.92242 7.79387C3.21519 7.57736 2.51428 6.95574 2.05638 6.47984C3.57448 6.21822 4.13157 5.16894 4.15818 5.11707C4.30362 4.8547 4.08284 4.5067 3.78434 4.52536C3.12546 4.54576 2.65923 4.30269 2.36013 3.78362C2.28522 3.65365 2.23016 3.52119 2.18987 3.40026C3.64734 3.4723 4.54095 3.01711 5.39368 2.49901C5.58553 2.38246 5.64654 2.13247 5.52998 1.94068C5.41348 1.74883 5.16349 1.68782 4.97165 1.80438C4.11091 2.3274 3.27295 2.74397 1.73046 2.54277C1.48474 2.50448 1.24979 2.72504 1.2724 2.97265C1.27402 2.99726 1.3161 3.5822 1.63894 4.15947C1.87022 4.57312 2.27592 5.0413 2.97066 5.24082C2.51266 5.58303 1.92522 5.74561 1.22291 5.72376C0.891628 5.70283 0.677283 6.11919 0.887192 6.37642C0.93944 6.445 2.13778 7.99988 3.51785 8.51387V9.24041C2.45981 9.35535 1.63342 10.2538 1.63342 11.3419C1.63342 12.5077 2.58189 13.4562 3.74767 13.4562C3.76671 13.4562 3.78574 13.4552 3.80478 13.4547C4.23472 14.7326 5.11984 15.8031 6.26648 16.4729C2.99029 16.9172 0.456772 19.7323 0.456772 23.1284V23.9727C0.456772 24.1972 0.638719 24.3791 0.863178 24.3791C1.08764 24.3791 1.26958 24.1972 1.26958 23.9727V23.1284C1.26958 21.5437 1.89731 20.1029 2.91695 19.0413L8.14387 24.7927C8.60253 25.3199 9.48982 25.3199 9.94842 24.7927L11.6567 22.913C11.8077 22.7469 11.7954 22.4899 11.6293 22.3389C11.4633 22.1879 11.2062 22.2002 11.0552 22.3664L9.34692 24.2461C9.19429 24.4223 8.898 24.4223 8.74543 24.2461L3.51872 18.4949C3.75535 18.3078 4.00663 18.1386 4.27047 17.989L8.74548 22.9131C8.89833 23.0889 9.19418 23.0888 9.34698 22.9131L13.822 17.989C14.0858 18.1387 14.3371 18.3079 14.5737 18.4949L12.1492 21.1628C11.9982 21.3289 12.0105 21.5859 12.1766 21.7368C12.3422 21.8875 12.5994 21.8759 12.7507 21.7094L15.1754 19.0414C16.1951 20.103 16.8228 21.5437 16.8228 23.1285V27.0799H14.4029V23.9086C14.4029 23.6842 14.2209 23.5022 13.9965 23.5022C13.772 23.5022 13.5901 23.6842 13.5901 23.9086V27.0799H4.50228V23.9086C4.50228 23.6842 4.32034 23.5022 4.09588 23.5022C3.87142 23.5022 3.68947 23.6842 3.68947 23.9086V27.0799H1.26958V25.5984C1.26958 25.3739 1.08764 25.192 0.863178 25.192C0.638719 25.192 0.456772 25.3739 0.456772 25.5984V27.4863C0.456772 27.7107 0.638719 27.8927 0.863178 27.8927H17.2292C17.4536 27.8927 17.6356 27.7107 17.6356 27.4863V23.1285C17.6355 19.7322 15.102 16.9171 11.8258 16.4728ZM9.67063 18.2457H8.42166L8.19104 17.2241H9.90125L9.67063 18.2457ZM15.646 11.3418C15.646 12.0088 15.1416 12.5599 14.4943 12.6344C14.5467 12.3292 14.5744 12.0158 14.5744 11.6958V10.0611C15.1827 10.1701 15.646 10.7026 15.646 11.3418ZM2.44629 11.3418C2.44629 10.7027 2.9096 10.1701 3.51791 10.0611V11.6958C3.51791 12.0157 3.54555 12.3292 3.59796 12.6344C2.95065 12.5598 2.44629 12.0088 2.44629 11.3418ZM4.33067 11.6958V8.62539C5.05153 8.58824 6.91919 8.33436 8.51091 6.76541C8.65467 7.05294 8.7914 7.45713 8.70843 7.85872C8.68236 7.98496 8.71773 8.11612 8.80378 8.21217C8.88984 8.30818 9.01634 8.35729 9.14469 8.34555C9.23058 8.33744 11.0584 8.14651 12.2058 6.63674C12.554 7.16154 13.1265 7.92346 13.7616 8.36789V11.6958C13.7616 14.2959 11.6462 16.4113 9.04609 16.4113C6.44599 16.4113 4.33067 14.2959 4.33067 11.6958ZM7.17378 17.2241H7.35773L7.68203 18.6607L7.39732 20.2211L5.03725 17.6243C5.70019 17.366 6.42068 17.2241 7.17378 17.2241ZM9.04615 22.0353L8.08552 20.9782L8.43578 19.0585H9.65657L10.0068 20.9782L9.04615 22.0353ZM10.6949 20.2211L10.4102 18.6607L10.7345 17.2241H10.9185C11.6716 17.2241 12.392 17.366 13.0549 17.6243L10.6949 20.2211Z" fill="#C19444"/>
<path d="M9.04614 14.3048C10.4882 14.3048 10.9242 13.2913 10.9432 13.2453C10.9432 13.2452 10.9433 13.2451 10.9433 13.245C11.0582 12.9868 10.854 12.6754 10.5694 12.6817C10.4004 12.6817 10.2556 12.7852 10.1947 12.9322C10.1742 12.9756 9.91088 13.4935 9.04614 13.4935C8.18168 13.4935 7.91828 12.9759 7.89762 12.9322C7.83666 12.7852 7.69187 12.6817 7.52285 12.6817C7.2383 12.6754 7.03412 12.9869 7.149 13.245C7.14906 13.245 7.14911 13.2452 7.14917 13.2453C7.1681 13.2913 7.60409 14.3048 9.04614 14.3048Z" fill="#C19444"/>
<path d="M6.56893 9.72217C6.34491 9.72217 6.16328 9.90379 6.16328 10.1278V11.2739C6.16328 11.4979 6.34491 11.6796 6.56893 11.6796C6.79296 11.6796 6.97458 11.4979 6.97458 11.2739V10.1278C6.97458 9.90379 6.79296 9.72217 6.56893 9.72217Z" fill="#C19444"/>
<path d="M11.5234 11.6796C11.7474 11.6796 11.929 11.4979 11.929 11.2739V10.1278C11.929 9.90379 11.7474 9.72217 11.5234 9.72217C11.2993 9.72217 11.1177 9.90379 11.1177 10.1278V11.2739C11.1177 11.4979 11.2993 11.6796 11.5234 11.6796Z" fill="#C19444"/>
</svg>
