<svg width="23" height="34" viewBox="0 0 23 34" fill="none" xmlns="http://www.w3.org/2000/svg">
<path d="M12.5963 19.0009C13.6988 19.0009 14.5957 18.104 14.5957 17.0016C14.5957 16.7402 14.3839 16.5283 14.1224 16.5283C13.861 16.5283 13.6492 16.7402 13.6492 17.0016C13.6492 17.5821 13.1769 18.0544 12.5963 18.0544C12.0157 18.0544 11.5434 17.5821 11.5434 17.0016C11.5434 16.7402 11.3315 16.5283 11.0702 16.5283C10.8088 16.5283 10.5969 16.7402 10.5969 17.0016C10.5969 18.104 11.4938 19.0009 12.5963 19.0009Z" fill="#C19444"/>
<path d="M16.1037 15.2268C16.3652 15.2268 16.577 15.0149 16.577 14.7536V13.9035H16.6458C16.9072 13.9035 17.119 13.6917 17.119 13.4303C17.119 13.1689 16.9072 12.957 16.6458 12.957H16.1037C15.8423 12.957 15.6305 13.1689 15.6305 13.4303V14.7536C15.6305 15.0149 15.8423 15.2268 16.1037 15.2268Z" fill="#C19444"/>
<path d="M8.54677 13.9035H8.61548V14.7536C8.61548 15.0149 8.82738 15.2268 9.08874 15.2268C9.35011 15.2268 9.562 15.0149 9.562 14.7536V13.4303C9.562 13.1689 9.35011 12.957 9.08874 12.957H8.54677C8.2854 12.957 8.07351 13.1689 8.07351 13.4303C8.07351 13.6917 8.2854 13.9035 8.54677 13.9035Z" fill="#C19444"/>
<path d="M20.0813 16.4628C21.7894 16.2765 22.7065 14.8903 22.7065 13.58V13.5651C22.7065 12.6846 22.3085 11.8604 21.6318 11.311V9.85607C21.6318 4.78553 17.5097 0.851562 12.6273 0.851562C10.0009 0.851562 7.51377 1.97489 5.80374 3.93348C5.63179 4.13035 5.65211 4.42932 5.84898 4.60121C6.04586 4.77316 6.34483 4.75291 6.51672 4.55597C8.04698 2.80334 10.2743 1.79808 12.6273 1.79808C16.9961 1.79808 20.6853 5.31797 20.6853 9.85607V11.0739C20.271 11.0739 17.439 11.0739 16.9894 11.0739C14.8451 11.0739 13.1005 9.32943 13.1005 7.18507C13.1005 6.92371 12.8887 6.71181 12.6273 6.71181C12.3659 6.71181 12.154 6.92371 12.154 7.18507C12.154 8.97556 10.9056 10.5241 9.2286 10.953C8.60428 11.1127 8.56409 11.0739 4.52935 11.0739V9.85607C4.52935 8.60383 4.80952 7.40258 5.36203 6.28563C5.47788 6.0514 5.38191 5.76751 5.14768 5.65159C4.91332 5.53567 4.62955 5.63171 4.51364 5.86594C3.89601 7.11452 3.5829 8.457 3.58284 9.85607V11.311C2.90614 11.8604 2.5081 12.6846 2.5081 13.5651V13.58C2.5081 14.2882 2.7742 14.9849 3.24083 15.5095C1.60632 16.7461 0.647316 18.6564 0.647316 20.7327V28.2417C0.647316 28.7744 1.0817 29.1889 1.59452 29.1889C2.16395 29.1889 2.72435 29.1152 3.26834 28.9718V32.686C3.26834 32.9474 3.48023 33.1593 3.7416 33.1593H15.0076C15.269 33.1593 15.4808 32.9474 15.4808 32.686C15.4808 32.4246 15.269 32.2127 15.0076 32.2127H6.77044V24.4018C6.85752 24.4016 6.91577 24.4017 7.37167 24.402C7.41735 24.4542 8.01196 25.0321 8.18031 25.194L8.85416 27.3757C9.36837 29.0407 10.8856 30.1447 12.6073 30.1447C14.3267 30.1447 15.8456 29.0431 16.3605 27.3757L17.0375 25.1839C17.764 24.4827 17.8062 24.4455 17.844 24.4022H18.4442V32.2127H17.2161C16.9547 32.2127 16.7429 32.4246 16.7429 32.686C16.7429 32.9474 16.9547 33.1593 17.2161 33.1593H21.473C21.7345 33.1593 21.9463 32.9474 21.9463 32.686V26.7931C21.9463 25.0782 20.6962 23.6831 18.974 23.4759C18.973 23.4758 18.972 23.4758 18.9711 23.4757C18.97 23.4756 18.969 23.4753 18.9679 23.4752C18.736 23.4504 18.6763 23.4557 17.764 23.4557C17.6978 23.4018 17.8284 23.4818 16.0579 22.459V21.6558C18.0801 20.6319 19.5876 18.7344 20.0813 16.4628ZM20.9997 26.7931V32.2127H19.3906V24.537C20.3484 24.868 20.9997 25.7477 20.9997 26.7931ZM21.0055 12.0204C21.4803 12.3908 21.76 12.9585 21.76 13.5651V13.58C21.76 14.3925 21.2276 15.2486 20.2296 15.4784C20.2547 15.1487 20.2554 14.9373 20.2554 14.7516C20.2583 14.4751 20.2592 12.2679 20.2498 12.0204H21.0055ZM9.71208 11.7986C10.9913 11.3971 12.049 10.4815 12.6275 9.27131C12.6282 9.27264 12.6289 9.2739 12.6295 9.27523C13.4298 10.9379 15.1171 12.0204 16.9894 12.0204H19.302C19.3112 12.2269 19.3089 12.0751 19.3089 14.755C19.2635 18.8025 16.1087 21.5276 12.6215 21.5276C8.97828 21.5276 6.18802 18.7501 5.90905 15.3981C5.90867 15.3935 5.90817 15.3889 5.90779 15.3842C5.87031 14.9222 5.88318 12.2285 5.89246 12.0204C8.44899 12.0204 8.82716 12.0767 9.71208 11.7986ZM13.0186 29.1698C12.7551 29.2064 12.4684 29.2075 12.1962 29.1698C12.1958 29.1697 12.1953 29.1696 12.1949 29.1696L12.3459 28.3145H12.8683L13.0194 29.1696C13.0191 29.1697 13.0188 29.1698 13.0186 29.1698ZM12.6071 26.175L13.1947 26.6907L12.9382 27.368H12.276L12.0195 26.6907C12.0833 26.6346 12.5428 26.2314 12.6071 26.175ZM11.9045 25.5322L10.8553 26.4529C10.8552 26.4529 8.92193 24.5873 8.92193 24.5873L8.33876 24.0246L9.56121 23.3183C10.6632 24.3594 10.3633 24.0761 11.9045 25.5322ZM9.15667 22.459L8.14062 23.0459C8.15847 22.7641 8.15437 22.7856 8.15437 21.0622C8.47133 21.2879 8.80646 21.4897 9.15667 21.6657V22.459ZM3.45455 13.5651C3.45455 12.9585 3.73421 12.3908 4.20911 12.0204H4.94474C4.94462 12.0241 4.94468 12.0276 4.94455 12.0313C4.93711 12.2412 4.93913 12.0414 4.93913 14.8404C4.93913 15.0173 4.94739 15.2554 4.96569 15.4769C4.06278 15.2656 3.45455 14.4917 3.45455 13.58V13.5651ZM1.59951 28.2417C1.59768 28.2417 1.59566 28.2417 1.59383 28.2417V20.7327C1.59383 18.8737 2.49232 17.17 4.0118 16.1195C4.35273 16.3038 4.73884 16.4182 5.11303 16.4619C5.43636 17.9506 6.20001 19.2734 7.20786 20.2702V22.629C7.20786 22.9055 7.18748 23.1821 7.14709 23.4553C6.4993 23.4549 6.44409 23.4539 6.24696 23.4752C6.24689 23.4752 6.24677 23.4752 6.24671 23.4752C6.24639 23.4752 6.24614 23.4752 6.24582 23.4752C4.54834 23.6604 3.26828 25.0867 3.26828 26.793V27.9883C2.73003 28.1565 2.17032 28.2417 1.59951 28.2417ZM4.21485 26.7931C4.21485 25.7658 4.86953 24.862 5.82393 24.5338V32.2127H4.21485C4.21485 31.5593 4.21485 27.4307 4.21485 26.7931ZM9.58885 26.5473C9.82005 26.7697 10.0749 27.0152 10.3556 27.2861C10.6517 27.5718 11.0163 27.55 11.2593 27.3559L11.4604 27.8869L11.2829 28.8907C10.0164 28.2661 9.77651 27.1549 9.58885 26.5473ZM13.9314 28.8909L13.7539 27.8867L13.955 27.3557C14.2174 27.5655 14.5904 27.5454 14.8286 27.3155H14.8285L15.6262 26.5458C15.4464 27.1279 15.2106 28.2602 13.9314 28.8909ZM16.2926 24.5873C16.2925 24.5873 14.3592 26.4529 14.3592 26.4529L13.3101 25.5322C13.5756 25.2814 15.4241 23.5348 15.6533 23.3183L16.8757 24.0245L16.2926 24.5873ZM15.1114 22.059V22.5282L12.6073 24.8941C12.1338 24.4468 10.5715 22.9707 10.1031 22.5282V22.0661C10.869 22.3285 11.7209 22.4742 12.5729 22.4742C13.4105 22.4742 14.2542 22.3554 15.1114 22.059Z" fill="#C19444"/>
</svg>
