<svg width="31" height="35" viewBox="0 0 31 35" fill="none" xmlns="http://www.w3.org/2000/svg">
<path d="M28.342 13.4613L7.67013 0.71875C6.17457 -0.201984 4.36639 -0.240265 2.83315 0.616348C1.29992 1.47282 0.384583 3.03286 0.384583 4.78908V30.1581C0.384583 32.8136 2.52424 34.9856 5.15403 35C5.1612 35 5.16838 35 5.17542 35C5.99724 35 6.85365 34.7424 7.65352 34.2543C8.29699 33.8617 8.50036 33.0218 8.10777 32.3784C7.71518 31.7349 6.87518 31.5316 6.23192 31.9242C5.85779 32.1524 5.4924 32.2704 5.16872 32.2704C4.17648 32.265 3.11411 31.415 3.11411 30.1582V4.78915C3.11411 4.03576 3.50677 3.36672 4.16439 2.99929C4.82207 2.63186 5.59761 2.64827 6.23834 3.04277L26.9103 15.7853C27.5316 16.1679 27.8872 16.8057 27.8857 17.5354C27.8842 18.265 27.526 18.9014 26.9013 19.2827L11.9554 28.4338C11.3125 28.8274 11.1105 29.6676 11.5041 30.3104C11.8976 30.9533 12.7378 31.1553 13.3807 30.7617L28.3248 21.6117C29.7557 20.7388 30.6119 19.2171 30.6153 17.5409C30.6188 15.8648 29.7686 14.3396 28.342 13.4613Z" fill="white"/>
</svg>
