<svg width="44" height="43" viewBox="0 0 44 43" fill="none" xmlns="http://www.w3.org/2000/svg">
<g clip-path="url(#clip0_1756_844)">
<path d="M23.2809 23.8102C24.7246 23.8102 25.8991 22.6357 25.8991 21.192C25.8991 20.8497 25.6217 20.5723 25.2794 20.5723C24.937 20.5723 24.6596 20.8497 24.6596 21.192C24.6596 21.9522 24.0412 22.5707 23.2809 22.5707C22.5206 22.5707 21.9021 21.9522 21.9021 21.192C21.9021 20.8497 21.6246 20.5723 21.2824 20.5723C20.9401 20.5723 20.6626 20.8497 20.6626 21.192C20.6626 22.6357 21.8372 23.8102 23.2809 23.8102Z" fill="#C19444"/>
<path d="M27.874 18.8669C28.2163 18.8669 28.4937 18.5894 28.4937 18.2472V17.134H28.5838C28.9261 17.134 29.2035 16.8565 29.2035 16.5143C29.2035 16.172 28.9261 15.8945 28.5838 15.8945H27.874C27.5316 15.8945 27.2542 16.172 27.2542 16.5143V18.2472C27.2542 18.5894 27.5316 18.8669 27.874 18.8669Z" fill="#C19444"/>
<path d="M17.9779 17.134H18.0679V18.2472C18.0679 18.5894 18.3454 18.8669 18.6877 18.8669C19.0299 18.8669 19.3074 18.5894 19.3074 18.2472V16.5143C19.3074 16.172 19.0299 15.8945 18.6877 15.8945H17.9779C17.6357 15.8945 17.3582 16.172 17.3582 16.5143C17.3582 16.8565 17.6357 17.134 17.9779 17.134Z" fill="#C19444"/>
<path d="M33.0826 20.4863C35.3195 20.2423 36.5205 18.4271 36.5205 16.7112V16.6916C36.5205 15.5387 35.9992 14.4593 35.1131 13.7398V11.8346C35.1131 5.19459 29.7151 0.0429688 23.3214 0.0429688C19.8821 0.0429688 16.6252 1.51399 14.3858 4.07881C14.1607 4.33662 14.1873 4.72813 14.4451 4.95322C14.7029 5.1784 15.0944 5.15187 15.3195 4.89398C17.3234 2.59887 20.2401 1.28245 23.3214 1.28245C29.0426 1.28245 33.8736 5.89184 33.8736 11.8346V13.4294C33.3311 13.4294 29.6225 13.4294 29.0337 13.4294C26.2257 13.4294 23.9412 11.1449 23.9412 8.33685C23.9412 7.99458 23.6638 7.71711 23.3214 7.71711C22.9791 7.71711 22.7017 7.99458 22.7017 8.33685C22.7017 10.6815 21.0668 12.7093 18.8708 13.271C18.0532 13.4801 18.0006 13.4294 12.717 13.4294V11.8346C12.717 10.1947 13.0839 8.62168 13.8074 7.15901C13.9591 6.85228 13.8335 6.48051 13.5267 6.32872C13.2198 6.17692 12.8482 6.30269 12.6964 6.60942C11.8876 8.24446 11.4776 10.0025 11.4775 11.8346V13.7398C10.5914 14.4593 10.0701 15.5387 10.0701 16.6916V16.7112C10.0701 17.6385 10.4186 18.5508 11.0297 19.2379C8.88924 20.8573 7.63339 23.3588 7.63339 26.0777V35.9111C7.63339 36.6086 8.20223 37.1514 8.87378 37.1514C9.61946 37.1514 10.3533 37.0548 11.0657 36.867V41.7309C11.0657 42.0732 11.3432 42.3507 11.6854 42.3507H26.4385C26.7808 42.3507 27.0582 42.0732 27.0582 41.7309C27.0582 41.3887 26.7808 41.1112 26.4385 41.1112H15.6518V30.8825C15.7658 30.8823 15.8421 30.8825 16.4391 30.8829C16.4989 30.9512 17.2776 31.708 17.498 31.92L18.3805 34.777C19.0538 36.9573 21.0406 38.403 23.2953 38.403C25.5469 38.403 27.5359 36.9604 28.2102 34.777L29.0967 31.9067C30.0481 30.9886 30.1033 30.9397 30.1528 30.883H30.9388V41.1112H29.3306C28.9883 41.1112 28.7109 41.3887 28.7109 41.7309C28.7109 42.0732 28.9883 42.3507 29.3306 42.3507H34.9052C35.2475 42.3507 35.5249 42.0732 35.5249 41.7309V34.014C35.5249 31.7683 33.8879 29.9415 31.6326 29.6701C31.6314 29.6699 31.63 29.67 31.6288 29.6698C31.6274 29.6697 31.6261 29.6693 31.6247 29.6692C31.321 29.6366 31.2428 29.6436 30.048 29.6436C29.9614 29.573 30.1324 29.6778 27.8139 28.3384V27.2866C30.462 25.9459 32.4362 23.461 33.0826 20.4863ZM34.2853 34.014V41.1112H32.1782V31.0595C33.4324 31.493 34.2853 32.6451 34.2853 34.014ZM34.2929 14.6689C34.9147 15.1538 35.281 15.8973 35.281 16.6916V16.7112C35.281 17.7751 34.5837 18.8962 33.2769 19.1972C33.3098 18.7654 33.3106 18.4885 33.3106 18.2454C33.3145 17.8833 33.3157 14.993 33.3033 14.6689H34.2929ZM19.5039 14.3784C21.1791 13.8526 22.5641 12.6536 23.3218 11.0688C23.3226 11.0706 23.3235 11.0722 23.3243 11.074C24.3724 13.2513 26.5819 14.6689 29.0337 14.6689H32.0621C32.0742 14.9392 32.0711 14.7404 32.0711 18.2499C32.0117 23.5501 27.8804 27.1187 23.3139 27.1187C18.543 27.1187 14.8891 23.4815 14.5238 19.092C14.5233 19.086 14.5226 19.0799 14.5221 19.0738C14.473 18.4688 14.4899 14.9414 14.502 14.6688C17.8499 14.6689 18.3451 14.7425 19.5039 14.3784ZM23.8339 37.1263C23.4888 37.1743 23.1134 37.1757 22.757 37.1263C22.7564 37.1262 22.7557 37.1262 22.7552 37.1261L22.953 36.0063H23.637L23.8349 37.1261C23.8346 37.1262 23.8342 37.1263 23.8339 37.1263ZM23.295 33.2046L24.0645 33.8799L23.7286 34.7668H22.8614L22.5255 33.8799C22.6091 33.8065 23.2108 33.2785 23.295 33.2046ZM22.3749 32.3629L21.001 33.5686C21.0009 33.5685 18.4692 31.1255 18.4692 31.1255L17.7055 30.3886L19.3063 29.4638C20.7494 30.8271 20.3567 30.456 22.3749 32.3629ZM18.7766 28.3384L17.446 29.107C17.4694 28.738 17.4641 28.7662 17.4641 26.5092C17.8791 26.8049 18.318 27.0691 18.7766 27.2995V28.3384ZM11.3095 16.6916C11.3095 15.8973 11.6758 15.1538 12.2977 14.6689H13.261C13.2608 14.6737 13.2609 14.6783 13.2607 14.6831C13.251 14.9579 13.2536 14.6963 13.2536 18.3616C13.2536 18.5933 13.2644 18.9051 13.2884 19.1951C12.106 18.9185 11.3095 17.9051 11.3095 16.7112V16.6916ZM8.88031 35.9111C8.87792 35.9111 8.87527 35.9111 8.87288 35.9111V26.0777C8.87288 23.6434 10.0495 21.4123 12.0393 20.0367C12.4857 20.278 12.9913 20.4278 13.4814 20.485C13.9048 22.4346 14.9048 24.1668 16.2246 25.4721V28.5611C16.2246 28.9231 16.1979 29.2854 16.145 29.6432C15.2967 29.6426 15.2244 29.6413 14.9663 29.6691C14.9662 29.6691 14.966 29.6691 14.9659 29.6691C14.9655 29.6691 14.9652 29.6692 14.9648 29.6692C12.7419 29.9117 11.0656 31.7795 11.0656 34.0139V35.5792C10.3608 35.7994 9.6278 35.9111 8.88031 35.9111ZM12.3052 34.014C12.3052 32.6687 13.1625 31.4852 14.4123 31.0554V41.1112H12.3052C12.3052 40.2555 12.3052 34.849 12.3052 34.014ZM19.3425 33.6921C19.6453 33.9834 19.979 34.3048 20.3466 34.6596C20.7344 35.0337 21.2118 35.0052 21.53 34.7511L21.7933 35.4464L21.561 36.7609C19.9025 35.9429 19.5883 34.4878 19.3425 33.6921ZM25.0292 36.7612L24.7968 35.4461L25.0601 34.7507C25.4038 35.0255 25.8921 34.9992 26.2041 34.6982H26.204L27.2485 33.6901C27.0131 34.4525 26.7044 35.9352 25.0292 36.7612ZM28.1212 31.1255C28.1211 31.1255 25.5895 33.5686 25.5895 33.5686L24.2156 32.3629C24.5632 32.0344 26.984 29.7472 27.2841 29.4637L28.8849 30.3885L28.1212 31.1255ZM26.5744 27.8147V28.429L23.2953 31.5272C22.6753 30.9415 20.6294 29.0085 20.016 28.429V27.8239C21.0189 28.1675 22.1345 28.3584 23.2502 28.3584C24.3471 28.3583 25.4519 28.2028 26.5744 27.8147Z" fill="#C19444"/>
</g>
<defs>
<clipPath id="clip0_1756_844">
<rect width="42.3077" height="42.3077" fill="white" transform="translate(0.923065 0.0429688)"/>
</clipPath>
</defs>
</svg>
