<svg width="15" height="12" viewBox="0 0 15 12" fill="none" xmlns="http://www.w3.org/2000/svg">
<path d="M0 0V1.15385H12.6923V10.3846H4.61538V11.5385H15V10.3846H13.8462V0H0ZM2.30885 1.73077C1.69736 1.7329 1.1115 1.97667 0.679002 2.40896C0.246503 2.84124 0.00243253 3.42697 0 4.03846C0 5.30711 1.04077 6.34615 2.30885 6.34615C2.92003 6.34372 3.50547 6.09977 3.93754 5.66749C4.3696 5.23521 4.61326 4.64964 4.61538 4.03846C4.61538 2.77096 3.57577 1.73077 2.30885 1.73077ZM5.76923 2.30769V3.46154H8.65385V2.30769H5.76923ZM9.80769 2.30769V3.46154H11.5385V2.30769H9.80769ZM2.30885 2.88461C2.95154 2.88461 3.46154 3.39404 3.46154 4.03846C3.46154 4.68461 2.95212 5.19231 2.30885 5.19231C1.66269 5.19231 1.15385 4.68461 1.15385 4.03846C1.15385 3.39404 1.66327 2.88461 2.30885 2.88461ZM5.76923 4.61538V5.76923H11.5385V4.61538H5.76923ZM0 6.92308V11.5385H1.15385V8.07692H2.88462V11.5385H4.03846V8.45654L5.22923 9.08654C5.56673 9.26538 5.97231 9.26481 6.30923 9.08654V9.08769L8.34577 8.01058L7.8075 6.98942L5.77038 8.06654L3.98423 7.12385C3.73495 6.99215 3.45731 6.92324 3.17538 6.92308H0Z" fill="#C19444"/>
</svg>
