<svg width="15" height="15" viewBox="0 0 15 15" fill="none" xmlns="http://www.w3.org/2000/svg">
<path d="M2.37338 2.37309L2.37338 2.37309C3.78897 0.957434 5.64423 0.25 7.5 0.25C9.35577 0.25 11.211 0.957434 12.6266 2.37308L12.8034 2.19631L12.6266 2.37309C15.4578 5.20431 15.4578 9.79533 12.6266 12.6266L12.8034 12.8033L12.6266 12.6266C9.79547 15.4578 5.20454 15.4578 2.37338 12.6266C-0.457793 9.79534 -0.457793 5.20432 2.37338 2.37309ZM3.40495 3.40467L3.58173 3.58145L3.40495 3.40467C1.14351 5.66617 1.14349 9.33345 3.40495 11.5949C5.66642 13.8564 9.33362 13.8564 11.5951 11.5949C13.8565 9.33344 13.8565 5.66617 11.5951 3.40467L11.4183 3.58145L11.5951 3.40467C10.4643 2.27392 8.98148 1.70917 7.5 1.70917C6.01852 1.70917 4.53569 2.27392 3.40495 3.40467ZM6.73283 6.97164H6.98283V6.72164V3.468H8.40076V8.38962H5.04108V6.97164H6.73283Z" fill="#C19444" stroke="white" stroke-width="0.5"/>
</svg>
